G04*
G04 #@! TF.GenerationSoftware,Altium Limited,Altium Designer,19.1.7 (138)*
G04*
G04 Layer_Color=16711935*
%FSLAX24Y24*%
%MOIN*%
G70*
G01*
G75*
%ADD12C,0.0050*%
%ADD96C,0.0039*%
D12*
X96735Y103970D02*
Y105230D01*
X96065Y103970D02*
Y105230D01*
X96735D01*
X96065Y103970D02*
X96735D01*
X94735D02*
Y105230D01*
X94065Y103970D02*
Y105230D01*
X94735D01*
X94065Y103970D02*
X94735D01*
X92135Y102570D02*
Y103830D01*
X91465Y102570D02*
Y103830D01*
X92135D01*
X91465Y102570D02*
X92135D01*
X90335D02*
Y103830D01*
X89665Y102570D02*
Y103830D01*
X90335D01*
X89665Y102570D02*
X90335D01*
X95076Y71615D02*
X97721D01*
X95076Y70151D02*
Y71615D01*
Y70151D02*
X97721D01*
Y71615D01*
X95077Y73868D02*
X97723D01*
Y75332D01*
X95077D02*
X97723D01*
X95077Y73868D02*
Y75332D01*
X98377Y71632D02*
X101023D01*
X98377Y70168D02*
Y71632D01*
Y70168D02*
X101023D01*
Y71632D01*
D96*
X72410Y103790D02*
G03*
X72410Y103790I-197J0D01*
G01*
X86610Y103890D02*
G03*
X86610Y103890I-197J0D01*
G01*
X121434Y94773D02*
G03*
X121434Y94773I-197J0D01*
G01*
X111434Y78694D02*
G03*
X111434Y78694I-197J0D01*
G01*
X45328Y99479D02*
G03*
X45328Y99479I-197J0D01*
G01*
X71032Y105365D02*
X72568D01*
X71032Y103435D02*
X72568D01*
X71032D02*
Y105365D01*
X72568Y103435D02*
Y105365D01*
X85232Y105465D02*
X86768D01*
X85232Y103535D02*
X86768D01*
X85232D02*
Y105465D01*
X86768Y103535D02*
Y105465D01*
X120883Y91072D02*
Y95128D01*
X123717Y91072D02*
Y95128D01*
X120883D02*
X123717D01*
X120883Y91072D02*
X123717D01*
X110883Y65151D02*
X113717D01*
X110883Y79049D02*
X113717D01*
Y65151D02*
Y79049D01*
X110883Y65151D02*
Y79049D01*
X44777Y99124D02*
X65623D01*
X44777Y104676D02*
X65623D01*
X44777Y99124D02*
Y104676D01*
X65623Y99124D02*
Y104676D01*
M02*
