G04*
G04 #@! TF.GenerationSoftware,Altium Limited,Altium Designer,19.1.7 (138)*
G04*
G04 Layer_Physical_Order=1*
G04 Layer_Color=255*
%FSLAX24Y24*%
%MOIN*%
G70*
G01*
G75*
%ADD14C,0.0100*%
%ADD56R,0.0681X0.0382*%
G04:AMPARAMS|DCode=57|XSize=127.6mil|YSize=51.6mil|CornerRadius=3.9mil|HoleSize=0mil|Usage=FLASHONLY|Rotation=180.000|XOffset=0mil|YOffset=0mil|HoleType=Round|Shape=RoundedRectangle|*
%AMROUNDEDRECTD57*
21,1,0.1276,0.0438,0,0,180.0*
21,1,0.1198,0.0516,0,0,180.0*
1,1,0.0077,-0.0599,0.0219*
1,1,0.0077,0.0599,0.0219*
1,1,0.0077,0.0599,-0.0219*
1,1,0.0077,-0.0599,-0.0219*
%
%ADD57ROUNDEDRECTD57*%
G04:AMPARAMS|DCode=58|XSize=36.6mil|YSize=51.6mil|CornerRadius=2.7mil|HoleSize=0mil|Usage=FLASHONLY|Rotation=180.000|XOffset=0mil|YOffset=0mil|HoleType=Round|Shape=RoundedRectangle|*
%AMROUNDEDRECTD58*
21,1,0.0366,0.0461,0,0,180.0*
21,1,0.0311,0.0516,0,0,180.0*
1,1,0.0055,-0.0156,0.0230*
1,1,0.0055,0.0156,0.0230*
1,1,0.0055,0.0156,-0.0230*
1,1,0.0055,-0.0156,-0.0230*
%
%ADD58ROUNDEDRECTD58*%
%ADD59O,0.1000X0.0300*%
%ADD60O,0.0110X0.0591*%
%ADD61O,0.0591X0.0110*%
G04:AMPARAMS|DCode=62|XSize=43.3mil|YSize=23.6mil|CornerRadius=5.9mil|HoleSize=0mil|Usage=FLASHONLY|Rotation=270.000|XOffset=0mil|YOffset=0mil|HoleType=Round|Shape=RoundedRectangle|*
%AMROUNDEDRECTD62*
21,1,0.0433,0.0118,0,0,270.0*
21,1,0.0315,0.0236,0,0,270.0*
1,1,0.0118,-0.0059,-0.0157*
1,1,0.0118,-0.0059,0.0157*
1,1,0.0118,0.0059,0.0157*
1,1,0.0118,0.0059,-0.0157*
%
%ADD62ROUNDEDRECTD62*%
%ADD63O,0.0866X0.0236*%
%ADD64R,0.0118X0.0630*%
%ADD65O,0.0400X0.2000*%
%ADD66C,0.0300*%
%ADD67C,0.0354*%
%ADD68C,0.0600*%
%ADD69C,0.0472*%
%ADD70C,0.0650*%
%ADD71C,0.0630*%
%ADD72R,0.0630X0.0630*%
%ADD73C,0.1496*%
%ADD74C,0.0531*%
%ADD75R,0.0531X0.0531*%
%ADD76R,0.0531X0.0531*%
%ADD77C,0.0551*%
%ADD78C,0.0591*%
%ADD79R,0.0591X0.0591*%
%ADD80R,0.0591X0.0591*%
%ADD81R,0.1200X0.1000*%
%ADD82O,0.0787X0.0394*%
%ADD83O,0.0787X0.0394*%
%ADD84O,0.0394X0.0787*%
%ADD85O,0.0394X0.0787*%
%ADD86C,0.0669*%
%ADD87R,0.0669X0.0669*%
%ADD88R,0.0728X0.0728*%
%ADD89C,0.0728*%
%ADD90R,0.0728X0.0728*%
%ADD91C,0.0512*%
%ADD92C,0.0787*%
%ADD93R,0.0787X0.0787*%
%ADD94C,0.0236*%
D14*
X92650Y108190D02*
X92700Y108140D01*
X91410Y109060D02*
X91654Y109304D01*
X91100Y108750D02*
X91410Y109060D01*
X89030Y98000D02*
Y98670D01*
Y93530D02*
Y98000D01*
X81553Y69500D02*
Y79369D01*
X71635Y72059D02*
Y73945D01*
Y71735D02*
Y72059D01*
X70750Y74830D02*
X71635Y73945D01*
X72968Y70708D02*
X75482D01*
X76648D02*
X76958D01*
X75482D02*
X76648D01*
X74206Y68280D02*
Y69113D01*
X70440Y69390D02*
Y69724D01*
X70128Y69143D02*
X70193D01*
X69548D02*
X70128D01*
X87570Y105540D02*
Y105617D01*
Y104660D02*
Y105540D01*
X48126Y74010D02*
X48363D01*
X125670Y85310D02*
Y86030D01*
X73222Y75720D02*
Y77425D01*
Y75255D02*
Y75720D01*
X125086Y91170D02*
X125236D01*
X103285Y77374D02*
X103300D01*
X84125Y108230D02*
X84590D01*
X83970D02*
X84125D01*
X97300Y71770D02*
X100602D01*
X96080D02*
X97300D01*
X84380Y63790D02*
Y64670D01*
Y61750D02*
Y63790D01*
X79625Y70511D02*
X79779Y70665D01*
Y72330D02*
Y72331D01*
Y70665D02*
Y72330D01*
Y70509D02*
Y70665D01*
X71254Y76080D02*
Y76574D01*
Y75255D02*
Y76080D01*
X68766Y71495D02*
X70309D01*
X68538D02*
X68766D01*
X42105Y83655D02*
X43550Y85100D01*
X42114Y84764D02*
X42150Y86650D01*
X42100Y84050D02*
X42114Y84764D01*
X42450Y85100D01*
X42100Y84750D02*
X42114Y84764D01*
X42715Y77110D02*
X43505Y77900D01*
X42715Y77110D02*
Y77900D01*
X42050Y75570D02*
Y76445D01*
Y74800D02*
Y75570D01*
X42355Y70445D02*
X42542Y70258D01*
X42050Y70750D02*
X42355Y70445D01*
X42660Y70750D01*
X42130Y70220D02*
X42355Y70445D01*
X42000Y70220D02*
X42130D01*
X75950Y63290D02*
X76130Y63470D01*
X75900Y63240D02*
X75950Y63290D01*
X75790Y63130D02*
X75900Y63240D01*
X75950D01*
X75418D02*
X75900D01*
X74880Y62755D02*
Y63350D01*
Y61750D02*
Y62755D01*
X72435Y69528D02*
Y70563D01*
X68766Y71495D02*
X69750Y72480D01*
X66880Y69610D02*
X68766Y71495D01*
X69880Y64750D02*
Y65000D01*
Y61750D02*
Y63317D01*
X66880Y69610D02*
Y69837D01*
Y64490D02*
Y69610D01*
X42542Y69842D02*
X43450Y70750D01*
X54825Y64575D02*
X55290Y65040D01*
X53800Y63550D02*
X54825Y64575D01*
X42542Y69700D02*
Y69842D01*
Y66087D02*
Y69700D01*
Y62838D02*
Y66087D01*
Y69842D02*
Y70258D01*
X64880Y62970D02*
Y64120D01*
Y61750D02*
Y62970D01*
X57380Y61750D02*
Y63730D01*
X43566Y62630D02*
X44500Y63550D01*
X43050Y62122D02*
X43566Y62630D01*
X43580D01*
X42750D02*
X43566D01*
X42542D02*
X42750D01*
X42420Y62752D02*
X42542Y62630D01*
X41983Y63189D02*
X42420Y62752D01*
X74783Y71350D02*
Y73625D01*
X65407Y63347D02*
Y64580D01*
X49110Y88370D02*
X49200D01*
X54516Y82400D02*
X54800Y82684D01*
X119452Y95220D02*
X121010D01*
X84000Y103750D02*
Y104250D01*
X70397Y102600D02*
Y103650D01*
X61380Y61750D02*
Y63310D01*
X120700Y104350D02*
Y107500D01*
Y97567D02*
Y104350D01*
X42650Y72750D02*
X43045D01*
X73025Y73165D02*
X73419Y72771D01*
X43440Y73750D02*
Y77261D01*
X43270Y88370D02*
X43540Y88100D01*
X68380Y61750D02*
Y63630D01*
X68750Y64000D01*
Y65000D01*
X74206Y64680D02*
X74210Y68280D01*
X77356Y68610D02*
Y69113D01*
X77296Y68550D02*
X77356Y68610D01*
X74210Y64684D02*
Y68280D01*
X74206Y64680D02*
X74210Y64684D01*
X74206Y68280D02*
X74210D01*
X73880Y61750D02*
Y63290D01*
X73750Y63420D02*
X73880Y63290D01*
X73750Y63420D02*
Y64670D01*
X69391Y69724D02*
X70309D01*
X68980Y69313D02*
X69391Y69724D01*
X71000Y71100D02*
X71635Y71735D01*
X77356Y69113D02*
Y70000D01*
X76648Y70708D02*
X77356Y70000D01*
X75781Y69113D02*
Y69531D01*
X76000Y69750D01*
Y70190D01*
X75482Y70708D02*
X76000Y70190D01*
X72632Y70371D02*
X72968Y70708D01*
X78111Y74251D02*
X78694D01*
X77860Y74000D02*
X78111Y74251D01*
X77860Y71610D02*
Y74000D01*
X76958Y70708D02*
X77860Y71610D01*
X76958Y70708D02*
X78694D01*
X72632Y69113D02*
Y70371D01*
X88600Y93100D02*
X89030Y93530D01*
X88600Y99100D02*
X89030Y98670D01*
X95497Y72200D02*
Y72476D01*
X95343Y72630D02*
X95497Y72476D01*
X98798Y72217D02*
Y73000D01*
X125670Y76970D02*
Y85310D01*
X127810Y76970D02*
X128110Y76670D01*
X127700Y70700D02*
X128110Y71110D01*
X125670Y76970D02*
X127810D01*
X128110Y71110D02*
Y76670D01*
X85350Y63940D02*
Y71040D01*
X78109Y71620D02*
X78234Y71495D01*
X78694D01*
X84880Y61750D02*
Y69473D01*
X84853Y69500D02*
X84880Y69473D01*
X79022Y71298D02*
X79520Y70800D01*
X78694Y71298D02*
X79022D01*
X78230Y71102D02*
X78694D01*
X83290Y64310D02*
Y71130D01*
X76765Y67373D02*
Y69113D01*
Y67373D02*
X79557Y64582D01*
Y63010D02*
Y64582D01*
Y63010D02*
X79750D01*
X79880Y62880D01*
Y61750D02*
Y62880D01*
X73380Y64930D02*
X73861Y65411D01*
Y68721D01*
X73813Y68769D02*
X73861Y68721D01*
X73813Y68769D02*
Y69113D01*
X74380Y61750D02*
Y62947D01*
X74453Y63020D01*
Y63648D01*
X74854Y64049D01*
Y68279D01*
X75191Y68615D01*
Y69113D01*
X74000Y63640D02*
Y64095D01*
X74497Y64591D01*
Y68559D01*
X74600Y68662D01*
Y69113D01*
X65200Y75770D02*
Y78000D01*
X65113Y75683D02*
X65200Y75770D01*
X65113Y75430D02*
Y75683D01*
Y75430D02*
X65250Y75293D01*
X65723D01*
X66610Y76180D01*
Y80800D01*
X68832Y83022D01*
X69198D01*
X70529Y81691D01*
X70889D01*
X71065Y81515D01*
Y78820D02*
Y81515D01*
Y78820D02*
X72000Y77885D01*
X72762D01*
X73222Y77425D01*
X42050Y76445D02*
X42055Y76850D01*
X55000Y64400D02*
X56794D01*
X57380Y63814D01*
X62900Y63200D02*
X63000D01*
X63380Y62820D01*
Y61750D02*
Y62820D01*
X57380Y63730D02*
Y63814D01*
X42760Y85100D02*
X43145D01*
X42450D02*
X42760D01*
X42100Y84050D02*
Y84750D01*
X42150Y86650D02*
Y89150D01*
X47800Y82250D02*
Y82900D01*
Y82250D02*
X47950Y82100D01*
X48300Y81800D01*
Y81300D02*
Y81800D01*
X78234Y73913D02*
X78375Y74054D01*
X80380Y61750D02*
Y62770D01*
X79880Y63270D02*
X80380Y62770D01*
X44500Y63550D02*
X53800D01*
X84380Y64670D02*
Y72470D01*
X43580Y62630D02*
X44500Y63550D01*
X42542Y62838D02*
X42750Y62630D01*
X41983Y63189D02*
Y66087D01*
Y63189D02*
X42420D01*
Y62752D02*
Y63189D01*
X69750Y72480D02*
X70309D01*
X69065Y69920D02*
X70309D01*
X67662Y68517D02*
X69065Y69920D01*
X67662Y65272D02*
Y68517D01*
X66880Y64490D02*
X67662Y65272D01*
X66880Y69837D02*
X68538Y71495D01*
X64380Y61750D02*
Y63620D01*
X64880Y64120D01*
X66880Y64490D02*
X67400Y63970D01*
X67630D01*
Y62880D02*
Y63970D01*
X78234Y72676D02*
Y73913D01*
X78375Y74054D02*
X78694D01*
X66880Y61750D02*
Y64490D01*
X69880Y63317D02*
Y64750D01*
X70130Y65000D01*
X85860Y72470D02*
Y82044D01*
X86600Y82784D01*
X77750Y67750D02*
Y69113D01*
Y67750D02*
X80460Y65040D01*
X74009Y69113D02*
Y70250D01*
X74259Y70500D01*
X75024D01*
X75584Y69940D01*
Y69113D02*
Y69940D01*
X78694Y70511D02*
X79625D01*
X78234Y72676D02*
X78694D01*
X79780Y70510D02*
Y72330D01*
X76909Y69940D02*
X77159Y69690D01*
Y69113D02*
Y69690D01*
X78270Y72086D02*
X78694D01*
X78270D02*
Y72640D01*
X78234Y72676D02*
X78270Y72640D01*
X76880Y63410D02*
X77300Y63830D01*
X78160D01*
X78880Y63110D01*
Y61750D02*
Y63110D01*
X75255Y63130D02*
X75790D01*
X74880Y62755D02*
X75255Y63130D01*
X75950Y63240D02*
Y63290D01*
X75283Y63375D02*
X75418Y63240D01*
X75283Y63375D02*
Y68114D01*
X75584Y68415D01*
Y69113D01*
X72880Y61750D02*
Y63570D01*
X72338Y77658D02*
X72578D01*
X72736Y77500D01*
X72632Y75901D02*
X72736Y76006D01*
X72435Y70563D02*
X72632Y70759D01*
Y75255D01*
X75250Y73927D02*
X75387Y74064D01*
X41320Y80900D02*
X42705D01*
X43495D02*
X43655Y80740D01*
X43820D01*
X60520Y63160D02*
X61900Y64540D01*
X63159D01*
X63611Y64992D01*
Y71255D01*
X66213Y73857D01*
X70309D01*
X85380Y62920D02*
X85597Y63137D01*
X84000Y102700D02*
Y103750D01*
X66400Y73070D02*
X70309D01*
X63790Y70460D02*
X66400Y73070D01*
X63790Y64819D02*
Y70460D01*
X63416Y64444D02*
X63790Y64819D01*
X63416Y64216D02*
Y64444D01*
X59700Y63200D02*
X60130D01*
X60380Y62950D01*
Y61750D02*
Y62950D01*
X56100Y66160D02*
Y66300D01*
Y66160D02*
X58130Y64130D01*
X61380Y63310D02*
X61480D01*
X60880Y61750D02*
Y63200D01*
X61399Y63719D01*
X62550D01*
X62653Y63615D01*
Y62950D02*
Y63615D01*
Y62950D02*
X62750D01*
X62880Y62820D01*
Y61750D02*
Y62820D01*
X70000Y96200D02*
X71100Y95100D01*
X70000Y96200D02*
Y98428D01*
X69396Y99032D02*
X70000Y98428D01*
X69396Y99032D02*
Y107176D01*
X69178Y107394D02*
X69396Y107176D01*
X69178Y107394D02*
Y109492D01*
X69050Y109620D02*
X69178Y109492D01*
X118290Y94910D02*
X118460Y95080D01*
X118770D01*
X40720Y73500D02*
Y106700D01*
X41042Y107022D01*
X43866D01*
X78010Y99190D02*
Y101700D01*
X74060Y62960D02*
X74274Y63174D01*
Y63894D01*
X74676Y64295D01*
Y68359D01*
X74994Y68677D01*
Y69113D01*
X43440Y71250D02*
X45010Y69680D01*
Y68810D02*
Y69680D01*
X90000Y67490D02*
X92410Y69900D01*
Y82360D01*
X95100Y85050D01*
Y95400D01*
X96171Y96471D01*
X79120Y72480D02*
Y74830D01*
X78090D02*
X79120D01*
X76335Y73075D02*
X78090Y74830D01*
X69813Y72283D02*
X70309D01*
X78694Y72480D02*
X79120D01*
X76335Y71475D02*
Y73075D01*
X77553Y69113D02*
Y70257D01*
X96400Y66180D02*
Y66500D01*
X94830Y64610D02*
X96400Y66180D01*
X93590Y64610D02*
X94830D01*
X93170Y65030D02*
X93590Y64610D01*
X93170Y65030D02*
Y75420D01*
X75191Y75255D02*
Y75720D01*
X96398Y72200D02*
Y72630D01*
X96080Y72948D02*
X96398Y72630D01*
X96080Y72948D02*
Y74230D01*
X98420Y76570D01*
Y83520D01*
X99000Y84100D02*
X100316D01*
X98420Y83520D02*
X99000Y84100D01*
X96398Y72630D02*
X98050D01*
X42000Y69700D02*
Y70220D01*
X73380Y61750D02*
Y63729D01*
X72949Y64160D02*
X73380Y63729D01*
X72949Y64160D02*
Y66070D01*
X73390Y66511D01*
Y67520D01*
X74300Y70133D02*
X74797Y69636D01*
Y69113D02*
Y69636D01*
X76130Y62890D02*
X76210Y62810D01*
X70309Y69724D02*
X70440D01*
X70193Y69143D02*
X70440Y69390D01*
X68750Y65000D02*
Y68345D01*
X70309Y69324D02*
Y69724D01*
X70128Y69143D02*
X70309Y69324D01*
X68750Y68345D02*
X69548Y69143D01*
X76380Y61750D02*
Y62810D01*
X71190Y63210D02*
Y63750D01*
Y63210D02*
X71380Y63020D01*
Y61750D02*
Y63020D01*
X74880Y63350D02*
X75110Y63580D01*
X72380Y61750D02*
Y63020D01*
X72590Y63230D01*
Y65790D01*
X72718Y65918D01*
X82300Y66310D02*
Y69040D01*
X82050Y69290D02*
X82300Y69040D01*
X74403Y69113D02*
Y69580D01*
X92600Y88100D02*
Y89810D01*
X107960Y92910D02*
Y95790D01*
X106770Y96980D02*
X107960Y95790D01*
X106770Y96980D02*
Y109500D01*
X113200Y109600D02*
X114140D01*
X122570D02*
X122770Y109400D01*
Y107430D02*
Y109400D01*
Y107430D02*
X123200Y107000D01*
X111957Y110243D02*
X114200Y108000D01*
X72183Y110243D02*
X111957D01*
X70270Y108330D02*
X72183Y110243D01*
X69860Y108330D02*
X70270D01*
X69530Y108000D02*
X69860Y108330D01*
X69530Y107500D02*
Y108000D01*
Y107500D02*
X70293Y106737D01*
Y104400D02*
Y106737D01*
Y104400D02*
X71270D01*
X71420Y104250D01*
Y100450D02*
Y104250D01*
X70670Y99700D02*
X71420Y100450D01*
X70670Y95880D02*
Y99700D01*
Y95880D02*
X70880Y95670D01*
X71250D01*
X71530Y95390D01*
Y94900D02*
Y95390D01*
X71250Y94620D02*
X71530Y94900D01*
X71000Y94620D02*
X71250D01*
X70670Y94290D02*
X71000Y94620D01*
X70670Y89670D02*
Y94290D01*
Y89670D02*
X72670Y87670D01*
X74670D01*
X75100Y88100D01*
X69900Y107700D02*
X72264Y110064D01*
X84166D01*
X85680Y108550D01*
Y107430D02*
Y108550D01*
Y107430D02*
X87570Y105540D01*
X59270Y99330D02*
X59700Y98900D01*
X59270Y99330D02*
Y110210D01*
X59481Y110421D01*
X114000D01*
X114630Y109791D01*
Y107750D02*
Y109791D01*
X114380Y107500D02*
X114630Y107750D01*
X112020Y107500D02*
X114380D01*
X111770Y107250D02*
X112020Y107500D01*
X111770Y98704D02*
Y107250D01*
X111616Y98550D02*
X111770Y98704D01*
X111616Y98022D02*
Y98550D01*
X78380Y61750D02*
Y63114D01*
X78030Y63464D02*
X78380Y63114D01*
X73128Y64712D02*
X73438Y64402D01*
X73128Y64712D02*
Y65888D01*
X73653Y66413D01*
Y68572D01*
X73616Y68609D02*
X73653Y68572D01*
X73616Y68609D02*
Y69113D01*
X79380Y61750D02*
Y62950D01*
X76566Y65764D02*
X79380Y62950D01*
X76566Y65764D02*
Y66972D01*
X76387Y67151D02*
X76566Y66972D01*
X76387Y67151D02*
Y68493D01*
X76372Y68509D02*
X76387Y68493D01*
X76372Y68509D02*
Y69113D01*
X59600Y79000D02*
X61700Y81100D01*
X61800Y82800D01*
Y83100D01*
X100516Y77546D02*
Y79300D01*
X99300Y76330D02*
X100516Y77546D01*
X99300Y73916D02*
Y76330D01*
X98900Y73516D02*
X99300Y73916D01*
X98416Y73516D02*
X98900D01*
X97770Y72870D02*
X98416Y73516D01*
X96813Y72870D02*
X97770D01*
X96400Y73283D02*
X96813Y72870D01*
X51000Y64400D02*
X51430Y64830D01*
Y69070D01*
X50700Y69800D02*
X51430Y69070D01*
X50700Y69800D02*
Y70800D01*
Y71800D01*
X70767Y73267D02*
X70770Y73270D01*
X70309Y73267D02*
X70767D01*
X76210Y62810D02*
X76380D01*
X70309Y71298D02*
X70875D01*
X71635Y72059D01*
X71057Y74830D02*
Y75255D01*
X70750Y74830D02*
X71057D01*
X70328Y75252D02*
X70750Y74830D01*
X70328Y75252D02*
Y80928D01*
X70700Y81300D01*
X79400Y80816D02*
X80100Y81516D01*
Y87100D01*
X90200Y80816D02*
X91030Y81646D01*
Y87670D01*
X90600Y88100D02*
X91030Y87670D01*
X93800Y80816D02*
X94963Y79652D01*
Y74263D02*
Y79652D01*
X94200Y73500D02*
X94963Y74263D01*
X89100Y89600D02*
X90600Y88100D01*
X89100Y89600D02*
Y92600D01*
X88600Y93100D02*
X89100Y92600D01*
X97400Y80816D02*
X97820Y81236D01*
Y86880D01*
X97600Y87100D02*
X97820Y86880D01*
X73100Y88100D02*
Y92000D01*
X72500Y92600D02*
X73100Y92000D01*
X71600Y92600D02*
X72500D01*
X71100Y93100D02*
X71600Y92600D01*
X82880Y61750D02*
Y62960D01*
X81553Y69500D02*
X81678Y69625D01*
X81887Y67250D02*
X82040Y67403D01*
X81613Y67250D02*
X81887D01*
X81196Y67668D02*
Y71307D01*
X82690Y63620D02*
Y69060D01*
X82125Y69625D02*
X82690Y69060D01*
X81678Y69625D02*
X82125D01*
X81553Y69043D02*
Y69500D01*
Y69043D02*
X82040Y68556D01*
X79920Y72583D02*
X81196Y71307D01*
X79627Y72583D02*
X79920D01*
X79327Y72283D02*
X79627Y72583D01*
X81553Y79369D02*
X83000Y80816D01*
X82040Y67403D02*
Y68556D01*
X81196Y67668D02*
X81613Y67250D01*
X78694Y72283D02*
X79327D01*
X94200Y73500D02*
X94470Y73230D01*
Y71500D02*
Y73230D01*
X94170Y71200D02*
X94470Y71500D01*
X94000Y71200D02*
X94170D01*
X93730Y70930D02*
X94000Y71200D01*
X93730Y69729D02*
Y70930D01*
Y69729D02*
X94200Y69259D01*
X90170Y97670D02*
X90600Y98100D01*
X89360Y97670D02*
X90170D01*
X89030Y98000D02*
X89360Y97670D01*
X100400Y67500D02*
Y68500D01*
Y66500D02*
Y67500D01*
X58390Y95090D02*
X58800Y95500D01*
X58390Y90910D02*
Y95090D01*
Y90910D02*
X58800Y90500D01*
X61237Y88063D01*
Y87897D02*
Y88063D01*
Y87897D02*
X61400Y87734D01*
Y86600D02*
Y87734D01*
X100960Y69140D02*
X101400Y68700D01*
X100960Y69140D02*
Y71000D01*
X101240Y71280D01*
X101910D01*
X102100Y71090D01*
X102534D01*
X102695Y71250D01*
Y71686D01*
X102370Y72010D02*
X102695Y71686D01*
X102370Y72010D02*
Y73670D01*
X106650Y77950D01*
Y79450D01*
X107400Y80200D01*
X73100Y98100D02*
Y98479D01*
X72670Y98909D02*
X73100Y98479D01*
X72670Y98909D02*
Y99200D01*
X71890Y99980D02*
X72670Y99200D01*
X71890Y99980D02*
Y106150D01*
X72500Y106760D01*
X74000D01*
X74570Y106190D01*
Y103000D02*
Y106190D01*
Y103000D02*
X75470Y102100D01*
X77800D01*
X105484Y82116D02*
X107400Y80200D01*
X105484Y82116D02*
Y83400D01*
X115500Y79700D02*
Y80400D01*
Y79700D02*
X116900Y78300D01*
X92700Y103100D02*
X92900Y102900D01*
X92700Y103100D02*
Y104900D01*
X119716Y81500D02*
Y82350D01*
X119616Y82450D02*
X119716Y82350D01*
X119616Y82450D02*
Y83300D01*
Y84316D01*
X121200Y85900D01*
X117452Y85464D02*
X119616Y83300D01*
X117452Y85464D02*
Y89674D01*
X117404Y89722D02*
X117452Y89674D01*
X117404Y89722D02*
Y95578D01*
X100800Y106800D02*
X103600Y104000D01*
Y99100D02*
Y104000D01*
X111104Y93753D02*
Y95778D01*
X100800Y106800D02*
X101170Y107170D01*
Y107950D01*
X99816Y109304D02*
X101170Y107950D01*
X91654Y109304D02*
X99816D01*
X87596Y105950D02*
X87750Y105796D01*
X87596Y106626D02*
X87780Y106810D01*
X87500Y109170D02*
X87780Y108890D01*
X92700Y104900D02*
Y108140D01*
X91100Y108330D02*
Y108750D01*
X87750Y105796D02*
X88566D01*
X87596Y105950D02*
Y106626D01*
X87780Y106810D02*
Y108890D01*
X86790Y109000D02*
X86960Y109170D01*
X86790Y107910D02*
Y109000D01*
Y107910D02*
X87200Y107500D01*
X92650Y108190D02*
X92700Y104900D01*
X91780Y109060D02*
X92650Y108190D01*
X91410Y109060D02*
X91780D01*
X88566Y105796D02*
X91100Y108330D01*
X86960Y109170D02*
X87500D01*
X49000Y68400D02*
Y71663D01*
X49130Y71793D01*
Y73625D01*
X49005Y73750D02*
X49130Y73625D01*
X48623Y73750D02*
X49005D01*
X48363Y74010D02*
X48623Y73750D01*
X48126Y74010D02*
Y74112D01*
Y74344D01*
X48000Y74470D02*
X48126Y74344D01*
X45842Y74470D02*
X48000D01*
X45312Y75000D02*
X45842Y74470D01*
X45312Y75000D02*
Y87236D01*
X44490Y88058D02*
X45312Y87236D01*
X44490Y88058D02*
Y96010D01*
X43900Y96600D02*
X44490Y96010D01*
X58380Y61750D02*
X58880D01*
X53000Y68400D02*
X53404Y68804D01*
X55250D01*
X56194Y67860D01*
X58290D01*
X59060Y68630D01*
X59890D01*
X60020Y68500D01*
Y66750D02*
Y68500D01*
X58380Y65110D02*
X60020Y66750D01*
X58380Y62920D02*
Y65110D01*
Y61750D02*
Y62920D01*
X43900Y96600D02*
Y96943D01*
X43987Y97030D01*
Y105413D01*
X43100Y106300D02*
X43987Y105413D01*
X52400Y108784D02*
X53130Y108054D01*
Y100470D02*
Y108054D01*
Y100470D02*
X54700Y98900D01*
X64300Y107500D02*
Y108500D01*
Y107500D02*
X64920Y106880D01*
Y105630D02*
Y106880D01*
Y105630D02*
X65750Y104800D01*
X66500D01*
X73100Y105500D02*
X73800Y106200D01*
X72430Y105500D02*
X73100D01*
X72180Y105250D02*
X72430Y105500D01*
X72180Y104650D02*
Y105250D01*
Y104650D02*
X72745D01*
X87200Y108800D02*
X87570Y108430D01*
Y107138D02*
Y108430D01*
X87417Y106984D02*
X87570Y107138D01*
X87417Y105770D02*
Y106984D01*
Y105770D02*
X87570Y105617D01*
X88000Y102700D02*
X88230Y102930D01*
X86945Y104750D02*
X87480D01*
X87570Y104660D01*
X88230Y102930D02*
Y104250D01*
X111104Y98022D02*
Y100500D01*
Y97442D02*
Y98022D01*
Y97442D02*
X111626Y96920D01*
X117404D02*
Y97822D01*
X123800Y93600D02*
Y94600D01*
Y101316D01*
X126000Y103516D01*
X123800Y93600D02*
X124230Y93170D01*
Y92250D02*
Y93170D01*
X124080Y92100D02*
X124230Y92250D01*
X123601Y92100D02*
X124080D01*
X123376Y91875D02*
X123601Y92100D01*
X123376Y91370D02*
Y91875D01*
Y91370D02*
X123610Y91136D01*
Y89100D02*
Y91136D01*
X123200Y88690D02*
X123610Y89100D01*
X123200Y85900D02*
Y88690D01*
X120560Y83260D02*
X123200Y85900D01*
X120560Y80544D02*
Y83260D01*
X119616Y79600D02*
X120560Y80544D01*
X119616Y77669D02*
Y79600D01*
Y77669D02*
X120584Y76700D01*
Y76034D02*
Y76700D01*
X120400Y75850D02*
X120584Y76034D01*
X120400Y75200D02*
Y75850D01*
Y74200D02*
Y75200D01*
Y73200D02*
Y74200D01*
Y71800D02*
Y73200D01*
X109300Y78700D02*
X110298Y77702D01*
Y73102D02*
Y77702D01*
Y73102D02*
X110800Y72600D01*
X123300Y69300D02*
X123890Y68710D01*
Y66190D02*
Y68710D01*
X123500Y65800D02*
X123890Y66190D01*
X97302Y73283D02*
Y73708D01*
X95497Y70753D02*
Y72200D01*
Y70753D02*
X96000Y70250D01*
X96920D01*
X97170Y70000D01*
Y64440D02*
Y70000D01*
X96070Y63340D02*
X97170Y64440D01*
X91870Y63340D02*
X96070D01*
X91300Y63910D02*
X91870Y63340D01*
X87125Y63910D02*
X91300D01*
X86880Y63665D02*
X87125Y63910D01*
X86880Y61750D02*
Y63665D01*
X86380Y61750D02*
X86880D01*
X86380D02*
Y62920D01*
X50900Y79400D02*
X51210Y79710D01*
Y85610D01*
X50590Y86230D02*
X51210Y85610D01*
X50590Y86230D02*
Y91090D01*
X51000Y91500D01*
X122800Y82016D02*
X123200Y81616D01*
X122800Y82016D02*
Y84690D01*
X123610Y85500D01*
Y87910D01*
X54640Y72040D02*
Y78440D01*
X52970Y80110D02*
X54640Y78440D01*
X52970Y80110D02*
Y82900D01*
X53500D01*
X54100D01*
X54700Y83500D01*
Y84400D01*
X124960Y96160D02*
X125700Y96900D01*
X124960Y91560D02*
Y96160D01*
X124460Y91060D02*
X124960Y91560D01*
X124460Y87240D02*
Y91060D01*
Y87240D02*
X125670Y86030D01*
X125250Y97350D02*
X125700Y96900D01*
X125250Y97350D02*
Y100850D01*
X125900Y101500D01*
X125800Y68800D02*
X127700Y70700D01*
X125800Y68200D02*
Y68800D01*
Y67500D02*
Y68200D01*
Y67500D02*
X127000Y66300D01*
X83880Y61750D02*
Y69897D01*
X78694Y70905D02*
X79160D01*
X77980Y70314D02*
X78694D01*
X82600Y71410D02*
X83427D01*
X84130Y70707D01*
Y63550D02*
Y70707D01*
X78270Y69920D02*
X78694D01*
X78270Y69540D02*
Y69920D01*
Y69540D02*
X80940Y66870D01*
Y65920D02*
Y66870D01*
Y65920D02*
X81553Y65308D01*
Y64330D02*
Y65308D01*
Y64330D02*
X82603Y63280D01*
X83100D01*
X83380Y63000D01*
Y61750D02*
Y63000D01*
X78694Y69724D02*
X80000D01*
X80754Y68970D01*
Y67366D02*
Y68970D01*
Y67366D02*
X81166Y66954D01*
Y65947D02*
Y66954D01*
Y65947D02*
X82049Y65064D01*
Y64511D02*
Y65064D01*
X78143Y68180D02*
Y69113D01*
Y68180D02*
X81339Y64985D01*
Y64291D02*
Y64985D01*
Y64291D02*
X82380Y63250D01*
Y61750D02*
Y63250D01*
X77946Y68084D02*
Y69113D01*
Y68084D02*
X80887Y65143D01*
Y64490D02*
Y65143D01*
Y64490D02*
X81880Y63497D01*
Y61750D02*
Y63497D01*
X76962Y67658D02*
Y69113D01*
Y67658D02*
X80380Y64240D01*
X76568Y67228D02*
Y69113D01*
Y67228D02*
X78600Y65197D01*
Y64890D02*
Y65197D01*
X73419Y68031D02*
Y69113D01*
X75530Y64070D02*
Y67560D01*
X72230Y63225D02*
X72372Y63367D01*
Y66486D01*
X73102Y67216D01*
Y68157D01*
X73222Y68277D01*
Y69113D01*
X71880Y61750D02*
Y63830D01*
X72194Y64144D01*
Y66621D01*
X72922Y67349D01*
Y68402D01*
X73025Y68506D01*
Y69113D01*
X71543Y63213D02*
Y63750D01*
X72015Y64222D01*
Y66695D01*
X72743Y67423D01*
Y68549D01*
X72828Y68634D01*
Y69113D01*
X70880Y61750D02*
Y63875D01*
X71043Y64038D01*
X71456D01*
X71727Y64310D01*
Y66748D01*
X72238Y67259D01*
Y69113D01*
X70630Y63250D02*
Y64000D01*
X70847Y64217D01*
X71191D01*
X71515Y64542D01*
Y67125D01*
X72041Y67650D01*
Y69113D01*
X70380Y61750D02*
Y64324D01*
X70556Y64500D01*
Y67047D01*
X71057Y67548D01*
Y69113D01*
X70130Y62970D02*
Y64506D01*
X70377Y64753D01*
Y68293D01*
X70860Y68776D01*
Y69113D01*
X69380Y61750D02*
Y64253D01*
X69627Y64500D01*
Y67476D01*
X69931Y67780D01*
Y68369D01*
X70625Y69063D01*
Y69465D01*
X70830Y69670D01*
Y69912D01*
X70625Y70117D02*
X70830Y69912D01*
X70309Y70117D02*
X70625D01*
X69380Y64750D02*
Y68040D01*
X69680Y68340D01*
X69770Y70314D02*
X70309D01*
Y70511D02*
X70640D01*
X70890Y70261D01*
X69419Y69387D02*
X70016D01*
X68512Y68480D02*
X69419Y69387D01*
X68110Y68480D02*
X68512D01*
X67880Y68250D02*
X68110Y68480D01*
X67880Y61750D02*
Y68250D01*
X68210Y64180D02*
Y68215D01*
X69228Y70206D02*
X69730Y70708D01*
X70309D01*
X67380Y61750D02*
Y63660D01*
X68500Y64730D02*
Y68089D01*
X70753Y70905D02*
X71140Y70518D01*
X70309Y70905D02*
X70753D01*
X66630Y63530D02*
Y68060D01*
X67130Y68560D02*
X69672Y71102D01*
X70309D01*
X66380Y61750D02*
Y70500D01*
X70309Y71692D02*
X70770D01*
X65880Y63690D02*
Y70720D01*
X69850Y71890D02*
X69851Y71889D01*
X70309D01*
X65880Y61750D02*
Y63190D01*
X66130Y63440D01*
Y71250D01*
X66220Y71340D01*
X71380Y72516D02*
Y73520D01*
X70949Y72086D02*
X71380Y72516D01*
X70309Y72086D02*
X70949D01*
X110800Y68600D02*
X112170Y67230D01*
Y64830D02*
Y67230D01*
Y64830D02*
X112310Y64690D01*
X117000D01*
X117710Y65400D01*
Y72350D01*
X117050Y73010D02*
X117710Y72350D01*
X117050Y73010D02*
Y77840D01*
X117470Y78260D01*
Y85041D01*
X117273Y85238D02*
X117470Y85041D01*
X117273Y85238D02*
Y89497D01*
X117190Y89580D02*
X117273Y89497D01*
X117190Y89580D02*
Y90870D01*
X116960Y91100D02*
X117190Y90870D01*
X116960Y91100D02*
Y96222D01*
X117148Y96410D01*
Y97822D01*
X119220Y67440D02*
Y80130D01*
X119981Y80891D01*
X120290D01*
Y83750D01*
X121783Y85243D01*
Y98137D01*
X121610Y98310D02*
X121783Y98137D01*
X117660Y97822D02*
Y98310D01*
X78694Y70117D02*
X80500D01*
X81017Y69600D01*
Y67493D02*
Y69600D01*
Y67493D02*
X81391Y67119D01*
Y66070D02*
Y67119D01*
Y66070D02*
X82440Y65021D01*
Y63940D02*
Y65021D01*
X76175Y68330D02*
Y69113D01*
Y68330D02*
X76209Y68296D01*
Y66972D02*
Y68296D01*
Y66972D02*
X76387Y66793D01*
Y64653D02*
Y66793D01*
Y64653D02*
X76630Y64410D01*
Y63250D02*
Y64410D01*
Y63250D02*
X76960Y62920D01*
X77750D01*
X77880Y62790D01*
Y61750D02*
Y62790D01*
X68880Y61750D02*
Y63668D01*
X69092Y63880D01*
Y68122D01*
X69708Y68738D01*
X69940D01*
X71254Y69113D02*
Y69580D01*
X72745Y105150D02*
X73560D01*
X74383Y104327D01*
Y99383D02*
Y104327D01*
X74100Y99100D02*
X74383Y99383D01*
X73670Y98530D02*
X74100Y98100D01*
X73670Y98530D02*
Y99490D01*
X74204Y100024D01*
Y103000D01*
X73554Y103650D02*
X74204Y103000D01*
X72745Y103650D02*
X73554D01*
X86340Y105250D02*
X86945D01*
X92250Y104580D02*
X92390Y104440D01*
Y99890D02*
Y104440D01*
X91600Y99100D02*
X92390Y99890D01*
X86945Y103750D02*
X87470D01*
X87720Y103500D01*
X87510Y103290D02*
X87720Y103500D01*
X87510Y102500D02*
Y103290D01*
Y102500D02*
X90100Y99910D01*
Y98529D02*
Y99910D01*
X63880Y61750D02*
Y64430D01*
X64100Y64650D01*
Y70409D01*
X65521Y71830D01*
X69750Y73320D02*
X69894Y73464D01*
X70309D01*
X79100Y99100D02*
X79420Y99420D01*
Y99800D01*
X103100Y95600D02*
X103600Y96100D01*
X103100Y94930D02*
Y95600D01*
X102750Y94580D02*
X103100Y94930D01*
X101560Y94580D02*
X102750D01*
X100006Y93026D02*
X101560Y94580D01*
X100006Y89244D02*
Y93026D01*
X83620Y90160D02*
X84536Y89244D01*
X83620Y90160D02*
Y93580D01*
X79100Y98100D02*
X83620Y93580D01*
X72828Y75255D02*
Y75720D01*
X73222D01*
X66200Y78000D02*
Y81200D01*
X67440Y82440D01*
Y83120D01*
X67750Y83430D01*
X70490D01*
X71065Y82855D01*
Y81840D02*
Y82855D01*
Y81840D02*
X71244Y81661D01*
Y80327D02*
Y81661D01*
Y80327D02*
X73921Y77650D01*
X76760D01*
X77303Y77107D01*
Y75973D02*
Y77107D01*
Y75973D02*
X77356Y75920D01*
Y75255D02*
Y75920D01*
X41983Y60913D02*
X42750D01*
X43050Y61213D01*
Y62122D01*
X42455Y76850D02*
X42715Y77110D01*
X42055Y76850D02*
X42455D01*
X42105Y81950D02*
Y83655D01*
X64380Y61750D02*
X64880D01*
X70309Y72480D02*
X70750D01*
X71020Y72750D01*
Y73371D01*
X70730Y73661D02*
X71020Y73371D01*
X70309Y73661D02*
X70730D01*
X47800Y82900D02*
Y85750D01*
X48500Y86450D01*
X49670D01*
X50220Y87000D01*
Y94440D01*
X50216Y94444D02*
X50220Y94440D01*
X50216Y94444D02*
Y94800D01*
X49390Y80090D02*
X49800Y80500D01*
X49390Y74910D02*
Y80090D01*
Y74910D02*
X50300Y74000D01*
X49476Y95540D02*
X50216Y94800D01*
X47700Y95540D02*
X49476D01*
X47700Y92800D02*
Y95540D01*
Y92800D02*
X48200Y92300D01*
Y90100D02*
Y92300D01*
X54000Y92816D02*
X55984Y94800D01*
X54000Y91500D02*
Y92816D01*
X55700Y95084D02*
X55984Y94800D01*
X55700Y95084D02*
Y98900D01*
X50300Y74000D02*
Y78220D01*
X51900Y79820D01*
Y81900D01*
X48200Y89700D02*
Y90100D01*
Y89700D02*
X48700Y89200D01*
Y88800D02*
Y89200D01*
X55700Y98900D02*
Y103900D01*
X54700Y104900D02*
X55700Y103900D01*
X90200Y82784D02*
X90600Y83184D01*
Y87100D01*
X56000Y72800D02*
Y73800D01*
Y74800D01*
Y71800D02*
Y72800D01*
Y74800D02*
Y75800D01*
X54700Y104900D02*
X55980Y106180D01*
Y106680D01*
X55884Y106776D02*
X55980Y106680D01*
X55884Y106776D02*
Y108400D01*
X56000Y75800D02*
Y76800D01*
Y77800D01*
X48500Y72700D02*
Y73088D01*
X56000Y77800D02*
Y78800D01*
X72200Y82784D02*
X73100Y83684D01*
Y87100D01*
X101900Y82300D02*
X102484Y81716D01*
Y79300D02*
Y81716D01*
X101900Y82300D02*
X102284Y82684D01*
Y84100D01*
X56000Y78800D02*
Y79440D01*
X56110Y79550D01*
Y83990D01*
X55700Y84400D02*
X56110Y83990D01*
X42700Y96608D02*
Y97090D01*
X43610Y98000D01*
Y101530D01*
X102484Y78416D02*
Y79300D01*
Y78416D02*
X103300Y77600D01*
Y77374D02*
Y77600D01*
X103285Y76893D02*
Y77374D01*
X102800Y76408D02*
X103285Y76893D01*
X64630Y82570D02*
X65200Y82000D01*
X64630Y82570D02*
Y86230D01*
X65000Y86600D01*
X108384Y84300D02*
Y86200D01*
Y88500D01*
Y90500D01*
X69030Y81930D02*
X69400Y82300D01*
X69030Y76080D02*
Y81930D01*
X71254Y76574D02*
X72338Y77658D01*
X72736Y76006D02*
Y77500D01*
X72632Y75255D02*
Y75901D01*
X63800Y86600D02*
Y88450D01*
X63916Y88566D01*
Y90300D01*
Y92200D01*
X98900Y75484D02*
Y76230D01*
X98916Y76246D01*
Y77000D01*
X100380Y75064D02*
X100800Y75484D01*
X100380Y72972D02*
Y75064D01*
Y72972D02*
X100602Y72750D01*
Y72217D02*
Y72750D01*
X63916Y92200D02*
Y94500D01*
Y96400D01*
X100602Y72217D02*
X101334Y71484D01*
X102300D01*
X63916Y96400D02*
X66500Y98984D01*
Y100800D01*
X71647Y69113D02*
Y69500D01*
X71860Y69713D01*
X72250D01*
X72435Y69528D01*
Y69113D02*
Y69528D01*
X100602Y71770D02*
Y72217D01*
X96080Y71770D02*
Y72647D01*
X97300Y71770D02*
Y72200D01*
X95498Y73229D02*
X96080Y72647D01*
X95498Y73229D02*
Y73283D01*
X66500Y100800D02*
X66930Y101230D01*
Y105770D01*
X66400Y106300D02*
X66930Y105770D01*
X97700Y77300D02*
Y78290D01*
X97684Y78306D02*
X97700Y78290D01*
X97684Y78306D02*
Y79300D01*
X114000Y87300D02*
Y88000D01*
X113544Y86844D02*
X114000Y87300D01*
X113544Y82897D02*
Y86844D01*
X113400Y82753D02*
X113544Y82897D01*
X113400Y81700D02*
Y82753D01*
X106216Y69200D02*
Y71100D01*
X104200Y68800D02*
Y69616D01*
X104100Y68700D02*
X104200Y68800D01*
X104100Y67884D02*
Y68700D01*
X95498Y73283D02*
Y73892D01*
X72140Y100060D02*
X73100Y99100D01*
X72140Y100060D02*
Y104150D01*
X72745D01*
X93810Y74110D02*
X94200Y74500D01*
X93810Y71990D02*
Y74110D01*
Y71990D02*
X94100Y71700D01*
X73100Y99100D02*
X73421Y98779D01*
Y98493D02*
Y98779D01*
Y98493D02*
X73530Y98384D01*
Y95530D02*
Y98384D01*
X72100Y94100D02*
X73530Y95530D01*
X76600Y105900D02*
Y108000D01*
X76300Y108300D02*
X76600Y108000D01*
X75706Y108300D02*
X76300D01*
X75603Y108403D02*
X75706Y108300D01*
X75397Y108403D02*
X75603D01*
X75000Y108800D02*
X75397Y108403D01*
X115400Y72284D02*
X115650Y72534D01*
Y74350D01*
X115100Y74900D02*
X115650Y74350D01*
X115400Y72284D02*
X115800Y71884D01*
Y69900D02*
Y71884D01*
X115100Y69900D02*
X115800D01*
X115100Y67916D02*
Y69900D01*
Y67916D02*
X115500Y67516D01*
X82400Y105184D02*
X83970Y106754D01*
Y108075D01*
X84125Y108230D01*
X86090Y104500D02*
X86340Y104250D01*
X86945D01*
X83400Y108800D02*
X83970Y108230D01*
X84590D02*
X86090Y106730D01*
Y104500D02*
Y106730D01*
X115500Y67100D02*
Y67516D01*
Y67100D02*
X116100Y66500D01*
X86945Y104250D02*
X87736D01*
X87983Y104497D01*
X88477D01*
X89191Y103783D01*
X90000D01*
X91800D01*
X118500Y65900D02*
X120270Y67670D01*
X120400Y68000D01*
Y69800D01*
X89510Y103293D02*
X90000Y103783D01*
X89510Y101400D02*
Y103293D01*
Y101400D02*
X90600Y100310D01*
Y99100D02*
Y100310D01*
X120400Y69800D02*
X121900Y71300D01*
Y73300D01*
X90600Y99100D02*
X91030Y98670D01*
Y95530D02*
Y98670D01*
X89600Y94100D02*
X91030Y95530D01*
X121900Y73300D02*
X122370Y73770D01*
Y76530D01*
X122000Y76900D02*
X122370Y76530D01*
X91800Y103783D02*
Y104000D01*
X91080Y104720D02*
X91800Y104000D01*
X91080Y104720D02*
Y107000D01*
X91600Y107730D02*
Y108500D01*
Y107730D02*
X92330Y107000D01*
X122000Y76900D02*
X122390Y77290D01*
Y78794D01*
X121584Y79600D02*
X122390Y78794D01*
X95684Y105898D02*
Y107000D01*
Y105898D02*
X96400Y105183D01*
X94400D02*
X96400D01*
X121584Y79600D02*
X121813Y79829D01*
Y81050D01*
X121684Y81179D02*
X121813Y81050D01*
X121684Y81179D02*
Y81500D01*
X96400Y105183D02*
X99727D01*
X100410Y104500D01*
X100800D01*
X121684Y81500D02*
Y82350D01*
X121584Y82450D02*
X121684Y82350D01*
X121584Y82450D02*
Y83300D01*
X126100Y84400D02*
Y85630D01*
X126153Y85683D01*
Y86913D01*
X125227D02*
X126153D01*
X124640Y87500D02*
X125227Y86913D01*
X124640Y87500D02*
Y90432D01*
X125086Y90878D01*
Y91170D01*
X125236D02*
X126153Y92087D01*
X120800Y91600D02*
Y92600D01*
Y93600D01*
X125250Y92989D02*
X126153Y92087D01*
X125250Y92989D02*
Y94450D01*
X125700Y94900D01*
X120800Y91103D02*
Y91600D01*
X119697Y90000D02*
X120800Y91103D01*
X119200Y90000D02*
X119697D01*
X125700Y94900D02*
X126130Y95330D01*
Y98180D01*
X125430Y98880D02*
X126130Y98180D01*
X125430Y98880D02*
Y100030D01*
X125900Y100500D01*
X119452Y97170D02*
Y97822D01*
X113152Y97170D02*
Y98022D01*
X125900Y100500D02*
X126573Y101173D01*
Y104911D01*
X126000Y105484D02*
X126573Y104911D01*
X126000Y105484D02*
Y106200D01*
X124200Y108000D02*
X126000Y106200D01*
X76175Y73576D02*
Y75255D01*
X76031Y73433D02*
X76175Y73576D01*
X74974Y73433D02*
X76031D01*
X74783Y73625D02*
X74974Y73433D01*
X74783Y73625D02*
Y73750D01*
X74959Y73927D01*
X75250D01*
X75387Y74064D02*
Y75255D01*
X64300Y64300D02*
Y70190D01*
X66983Y72873D01*
X70309D01*
X43495Y80400D02*
X43842D01*
X44067Y80625D01*
Y80987D01*
X43784Y81270D02*
X44067Y80987D01*
X113800Y77600D02*
X114480Y76920D01*
Y74920D02*
Y76920D01*
X71030Y64550D02*
Y67040D01*
X71844Y67854D01*
Y69113D01*
X58780Y63210D02*
X60598Y65028D01*
X61518D01*
X61820Y65330D01*
Y70190D01*
X65881Y74251D01*
X70309D01*
X59380Y61750D02*
Y63229D01*
X60893Y64743D01*
X62753D01*
X63430Y65420D01*
Y71436D01*
X66049Y74054D01*
X70309D01*
X65407Y64580D02*
Y65739D01*
X49500Y66900D02*
X51000Y68400D01*
X49500Y64280D02*
Y66900D01*
X65380Y61750D02*
Y63320D01*
X65407Y63347D01*
X85597Y63137D02*
Y65523D01*
X85380Y61750D02*
Y62920D01*
X59700Y104900D02*
X60130Y104470D01*
Y97940D02*
Y104470D01*
Y97940D02*
X61600Y96470D01*
Y88250D02*
Y96470D01*
Y88250D02*
X61950Y87900D01*
Y84100D02*
Y87900D01*
Y84100D02*
X62790Y83260D01*
Y73200D02*
Y83260D01*
X61570Y71980D02*
X62790Y73200D01*
X61570Y68090D02*
Y71980D01*
X60700Y104900D02*
X62217Y103383D01*
Y89250D02*
Y103383D01*
X62029Y89062D02*
X62217Y89250D01*
X62029Y88438D02*
Y89062D01*
Y88438D02*
X62217Y88250D01*
Y84753D02*
Y88250D01*
Y84753D02*
X63700Y83270D01*
Y80960D02*
Y83270D01*
Y80960D02*
X65610Y79050D01*
Y75830D02*
Y79050D01*
X65360Y75580D02*
X65610Y75830D01*
X53916Y108074D02*
Y108400D01*
Y108074D02*
X55590Y106400D01*
X53916Y108400D02*
X54816Y109300D01*
X56500D01*
X57120Y108680D01*
Y107490D02*
Y108680D01*
X56420Y106790D02*
X57120Y107490D01*
X56420Y105180D02*
Y106790D01*
Y105180D02*
X56700Y104900D01*
X56810Y105790D02*
Y106400D01*
Y105790D02*
X57700Y104900D01*
X56810Y106400D02*
X58190Y107780D01*
Y107906D01*
X58684Y108400D01*
X53710Y95105D02*
Y96500D01*
Y95105D02*
X54016Y94800D01*
X57340Y96500D02*
Y98540D01*
X57700Y98900D01*
X52184Y94800D02*
X52490Y95105D01*
Y96500D01*
X53850Y97860D01*
X52000Y107216D02*
X52400Y106816D01*
X52000Y107216D02*
Y109260D01*
X52500Y109760D01*
X58500D01*
X59080Y109180D01*
Y107890D02*
Y109180D01*
X58130Y106940D02*
X59080Y107890D01*
X58130Y104600D02*
Y106940D01*
X58000Y104470D02*
X58130Y104600D01*
X56130Y104470D02*
X58000D01*
X55700Y104900D02*
X56130Y104470D01*
X115100Y75900D02*
X115980Y75020D01*
Y69625D02*
Y75020D01*
X115839Y69484D02*
X115980Y69625D01*
X115500Y69484D02*
X115839D01*
X59017Y78625D02*
X60052Y77590D01*
X59017Y78625D02*
Y79500D01*
X59317Y79800D01*
X59785D01*
X60110Y80125D01*
Y84750D01*
X59780Y85080D02*
X60110Y84750D01*
X58680Y85080D02*
X59780D01*
X53590Y90170D02*
X58680Y85080D01*
X53590Y90170D02*
Y93140D01*
X55130Y94680D01*
Y103470D01*
X53700Y104900D02*
X55130Y103470D01*
X113370Y71170D02*
X113800Y71600D01*
X113370Y69300D02*
Y71170D01*
Y69300D02*
X113500Y69170D01*
X114210D01*
X114880Y68500D01*
Y67090D02*
Y68500D01*
Y67090D02*
X116100Y65870D01*
Y65500D02*
Y65870D01*
X93490Y96210D02*
Y97130D01*
X94030Y97670D01*
Y99720D01*
X94339Y100029D01*
Y101577D01*
X93716Y102200D02*
X94339Y101577D01*
X93716Y102200D02*
Y107000D01*
X87930Y84690D02*
Y97430D01*
X88600Y98100D01*
X89600D02*
Y98471D01*
X89171Y98900D02*
X89600Y98471D01*
X89171Y98900D02*
Y99250D01*
X88891Y99530D02*
X89171Y99250D01*
X88350Y99530D02*
X88891D01*
X87655Y98835D02*
X88350Y99530D01*
X87655Y86105D02*
Y98835D01*
X71420Y96600D02*
X71670Y96850D01*
Y97670D01*
X72100Y98100D01*
X67100Y94790D02*
X67690Y95380D01*
Y96890D01*
X68900Y98100D01*
X67000Y90590D02*
X68030Y91620D01*
Y95450D01*
X98210Y88207D02*
Y94530D01*
X88170Y96670D02*
X88600Y97100D01*
X88170Y88180D02*
Y96670D01*
Y88180D02*
X88510Y87840D01*
X78260Y99779D02*
Y101467D01*
X78383Y101590D01*
Y102683D01*
X77166Y103900D02*
X78383Y102683D01*
X76600Y103900D02*
X77166D01*
X76671Y90529D02*
X79100Y88100D01*
X76671Y90529D02*
Y98375D01*
X76826Y98530D01*
X78140D01*
X78610Y99000D01*
Y101360D01*
X91303Y102120D02*
X91800Y102617D01*
X85100Y98100D02*
X85440Y98440D01*
Y102470D01*
X90467Y102370D02*
X90510D01*
X90263Y102617D02*
X90510Y102370D01*
X90000Y102617D02*
X90263D01*
X93930Y104017D02*
X94400D01*
X93930D02*
Y106390D01*
X95000Y107460D01*
X98300D01*
X100625Y105135D01*
X101045D01*
X101430Y104750D01*
Y99270D02*
Y104750D01*
Y99270D02*
X102600Y98100D01*
X96600Y88100D02*
Y95530D01*
X98207Y97137D01*
Y102603D01*
X96793Y104017D02*
X98207Y102603D01*
X96400Y104017D02*
X96793D01*
X65884Y92200D02*
X66300Y92616D01*
Y97100D01*
X48560Y87820D02*
X49110Y88370D01*
X49200D02*
Y88800D01*
Y89400D01*
X49530Y89730D01*
Y93654D01*
X48100Y95084D02*
X49530Y93654D01*
X46500Y88116D02*
X47420Y89036D01*
Y96240D01*
X49200Y98020D01*
Y99000D01*
X49720Y99520D01*
X51720D01*
X52130Y99110D01*
Y97300D02*
Y99110D01*
X51780Y96950D02*
X52130Y97300D01*
X51780Y92720D02*
Y96950D01*
Y92720D02*
X53000Y91500D01*
X48700Y90100D02*
Y92516D01*
X48100Y93116D02*
X48700Y92516D01*
X46100Y89684D02*
X46500Y90084D01*
X46100Y87380D02*
Y89684D01*
Y87380D02*
X46390Y87090D01*
X46716Y75700D02*
X47120Y76104D01*
Y80230D01*
X46970Y80380D02*
X47120Y80230D01*
X46970Y80380D02*
Y81770D01*
X47300Y82100D01*
Y82900D01*
X47800Y80184D02*
X48684Y79300D01*
X47800Y80184D02*
Y81300D01*
X48684Y79300D02*
X49100Y78884D01*
Y76116D02*
Y78884D01*
X48684Y75700D02*
X49100Y76116D01*
X46716Y77500D02*
Y79300D01*
X53500Y82400D02*
X54516D01*
X54800Y80400D02*
Y82684D01*
X55500Y83384D01*
Y81416D02*
Y82490D01*
Y80600D02*
Y81416D01*
Y80600D02*
X55700Y80400D01*
X57400Y82700D02*
Y83384D01*
Y82700D02*
X59700Y80400D01*
X57400Y81416D02*
X58010Y80806D01*
Y78270D02*
Y80806D01*
Y78270D02*
X60800Y75480D01*
Y73020D02*
Y75480D01*
X114500Y88000D02*
Y89370D01*
X114200Y89670D02*
X114500Y89370D01*
X46410Y73710D02*
X46800Y74100D01*
X46410Y72090D02*
Y73710D01*
Y72090D02*
X46700Y71800D01*
Y70800D02*
X47130Y71230D01*
Y72770D01*
X46800Y73100D02*
X47130Y72770D01*
X48870Y73470D02*
X48874Y73466D01*
Y73088D02*
Y73466D01*
X117300Y66900D02*
Y68000D01*
X118500Y66900D02*
Y68000D01*
X103400Y78900D02*
X103710Y78590D01*
Y77200D02*
Y78590D01*
X103470Y76960D02*
X103710Y77200D01*
X103470Y76250D02*
Y76960D01*
X103200Y75980D02*
X103470Y76250D01*
X102380Y75980D02*
X103200D01*
X102160Y76200D02*
X102380Y75980D01*
X102160Y76200D02*
Y79050D01*
X100330Y80880D02*
X102160Y79050D01*
X100330Y80880D02*
Y82880D01*
X100720Y83270D01*
Y87960D01*
X113152Y94180D02*
Y95778D01*
X117300Y76260D02*
X117710Y76670D01*
Y83250D01*
X117835Y83375D01*
X118915D01*
X119190Y83100D01*
Y81250D02*
Y83100D01*
Y81250D02*
X119340Y81100D01*
X120110D01*
Y84086D01*
X121604Y85580D01*
Y94626D01*
X121010Y95220D02*
X121604Y94626D01*
X119452Y95220D02*
Y95578D01*
X84500Y103750D02*
X85055D01*
X84000Y104250D02*
X84500Y103750D01*
X84000Y104250D02*
Y106200D01*
X69800Y102600D02*
Y106200D01*
X70397Y103650D02*
X70855D01*
X46250Y70250D02*
X46700Y69800D01*
X46250Y70250D02*
Y71260D01*
X48720Y74500D02*
X48874Y74346D01*
Y74112D02*
Y74346D01*
X41900Y90500D02*
X42097Y90697D01*
Y99197D01*
X43000Y100100D01*
X42000D02*
X42397Y100497D01*
Y100703D01*
X42430Y100736D01*
Y105970D01*
X42100Y106300D02*
X42430Y105970D01*
X43000Y103100D02*
X43430Y103530D01*
Y104890D01*
X42730Y105590D02*
X43430Y104890D01*
X42730Y105590D02*
Y106520D01*
X42875Y106665D01*
X43455D01*
X43530Y106590D01*
X109400Y80700D02*
X109900Y81200D01*
X110600D01*
X110900Y81500D01*
Y82400D01*
X111800Y83300D01*
X108797Y78203D02*
X109300Y77700D01*
X108797Y78203D02*
Y81303D01*
X109003D01*
X109400Y81700D01*
X116020Y81210D02*
Y82480D01*
X114200Y84300D02*
X116020Y82480D01*
X112976Y81124D02*
X113400Y80700D01*
X112976Y81124D02*
Y82696D01*
X113365Y83085D01*
Y83935D01*
X113000Y84300D02*
X113365Y83935D01*
X85670Y98530D02*
X86100Y98100D01*
X85670Y98530D02*
Y102224D01*
X85910Y102464D01*
Y106290D01*
X84400Y107800D02*
X85910Y106290D01*
X80100Y99100D02*
X81490Y100490D01*
Y106890D01*
X82400Y107800D01*
X80400D02*
Y108800D01*
X101840Y106200D02*
X104029Y104011D01*
Y98529D02*
Y104011D01*
X103600Y98100D02*
X104029Y98529D01*
X74000Y107800D02*
X74430Y107370D01*
X75000D01*
X75800Y106570D01*
Y105592D02*
Y106570D01*
Y105592D02*
X76636Y104756D01*
X76814D01*
X77460Y104110D01*
X80610D01*
X80970Y103750D01*
Y101370D02*
Y103750D01*
X79890Y100290D02*
X80970Y101370D01*
X72000Y107800D02*
Y108800D01*
X108890Y73110D02*
X109400Y72600D01*
X108890Y73110D02*
Y76020D01*
X43050Y63106D02*
X46943Y67000D01*
X48960D01*
X49583Y67623D01*
Y71323D01*
X50680Y72420D01*
Y74370D01*
X51310Y75000D01*
Y78810D01*
X52430Y79930D01*
Y85444D01*
X51404Y86470D02*
X52430Y85444D01*
X51404Y86470D02*
Y87716D01*
X51000Y88120D02*
X51404Y87716D01*
X51000Y88120D02*
Y89980D01*
X62800Y90500D02*
Y91500D01*
X114730Y77030D02*
X115200Y77500D01*
X114730Y71400D02*
Y77030D01*
Y71400D02*
X114840Y71290D01*
X121900Y68800D02*
Y69300D01*
X121800Y68700D02*
X121900Y68800D01*
X121800Y68200D02*
Y68700D01*
X71670Y93530D02*
X72100Y93100D01*
X71670Y93530D02*
Y94340D01*
X72000Y94670D01*
X72375D01*
X72670Y94965D01*
Y98390D01*
X72530Y98530D02*
X72670Y98390D01*
X72000Y98530D02*
X72530D01*
X71670Y98860D02*
X72000Y98530D01*
X71670Y98860D02*
Y104360D01*
X71710Y104400D01*
Y106901D01*
X72430Y107621D01*
Y108910D01*
X72750Y109230D01*
X76720D01*
X76939Y109011D01*
Y107791D02*
Y109011D01*
Y107791D02*
X78680Y106050D01*
X62396Y88680D02*
Y92096D01*
X62800Y92500D01*
X59500Y82900D02*
X59700Y83100D01*
Y84400D01*
X107270Y83210D02*
Y85410D01*
Y83210D02*
X108120Y82360D01*
Y77286D02*
Y82360D01*
Y77286D02*
X109400Y76006D01*
Y75700D02*
Y76006D01*
X111000Y85700D02*
Y86900D01*
X109800Y88100D02*
X111000Y86900D01*
X89600Y93100D02*
X90030D01*
X93029Y96099D01*
Y98393D01*
X92750Y98671D02*
X93029Y98393D01*
X92375Y98671D02*
X92750D01*
X92171Y98875D02*
X92375Y98671D01*
X92171Y98875D02*
Y99375D01*
X93310Y100514D01*
Y106259D01*
X93142Y106427D02*
X93310Y106259D01*
X93142Y106427D02*
Y108442D01*
X93600Y108900D01*
X99700Y95090D02*
Y104400D01*
X100430Y107430D02*
X100800Y107800D01*
X100430Y105870D02*
Y107430D01*
Y105870D02*
X100800Y105500D01*
X121630Y74870D02*
X122000Y74500D01*
X121630Y74870D02*
Y77530D01*
X122000Y77900D01*
X95600Y87100D02*
X96380Y86320D01*
Y81330D02*
Y86320D01*
X65000Y84700D02*
Y85600D01*
Y84700D02*
X65200Y84500D01*
X77310Y84910D02*
X78100Y85700D01*
Y87100D01*
X57960Y90140D02*
X58800Y89300D01*
X57960Y90140D02*
Y90904D01*
X75100Y90700D02*
Y98100D01*
X62600Y85600D02*
X62990Y85990D01*
Y87850D01*
X62800Y88040D02*
X62990Y87850D01*
X62800Y88040D02*
Y89300D01*
X65600Y107800D02*
X67900Y105500D01*
Y103700D02*
Y105500D01*
X47150Y109560D02*
X51200Y105510D01*
Y100880D02*
Y105510D01*
Y100880D02*
X52440Y99640D01*
X52270Y100330D02*
X53700Y98900D01*
X52270Y100330D02*
Y105420D01*
X52880Y106030D01*
X46380Y106890D02*
X47390Y105880D01*
X46380Y106890D02*
Y108500D01*
X46010Y108870D02*
X46380Y108500D01*
X43670Y108870D02*
X46010D01*
X43300Y108500D02*
X43670Y108870D01*
X61700Y104900D02*
X63256Y103344D01*
Y86250D02*
Y103344D01*
Y86250D02*
X63450Y86056D01*
X64150D01*
X64344Y86250D01*
Y86544D01*
X64970Y87170D01*
X65460D01*
X66137Y86493D01*
X113830Y85220D02*
X114330Y85720D01*
X113830Y79780D02*
Y85220D01*
X113197Y79147D02*
X113830Y79780D01*
X113197Y74203D02*
Y79147D01*
Y74203D02*
X113800Y73600D01*
X112380Y67020D02*
X113800Y65600D01*
X112380Y67020D02*
Y69690D01*
X111990Y70080D02*
X112380Y69690D01*
X110500Y70080D02*
X111990D01*
X110119Y70461D02*
X110500Y70080D01*
X110119Y70461D02*
Y76021D01*
X108618Y77522D02*
X110119Y76021D01*
X108618Y77522D02*
Y82275D01*
X107517Y83376D02*
X108618Y82275D01*
X107517Y83376D02*
Y87670D01*
X107101Y88087D02*
X107517Y87670D01*
X106112Y88087D02*
X107101D01*
X105971Y88228D02*
X106112Y88087D01*
X105971Y88228D02*
Y91529D01*
X105156Y92344D02*
X105971Y91529D01*
X105156Y92344D02*
Y104641D01*
X104913Y104883D02*
X105156Y104641D01*
X104913Y104883D02*
Y105547D01*
X104010Y106450D02*
X104913Y105547D01*
X66600Y107800D02*
X69210Y105190D01*
Y98950D02*
Y105190D01*
Y98950D02*
X69330Y98830D01*
Y90470D02*
Y98830D01*
Y90470D02*
X71622Y88178D01*
Y82388D02*
Y88178D01*
Y82388D02*
X75680Y78330D01*
X114570Y66500D02*
X114800D01*
X113800Y67270D02*
X114570Y66500D01*
X113800Y67270D02*
Y67600D01*
X114800Y66160D02*
Y66500D01*
Y66160D02*
X116000Y64960D01*
X116180D01*
X116810Y65590D01*
Y77440D01*
X115090Y79160D02*
X116810Y77440D01*
X115090Y79160D02*
Y80650D01*
X115250Y80810D01*
X116110D01*
X116400Y81100D01*
Y82446D01*
X116053Y82793D02*
X116400Y82446D01*
X116053Y82793D02*
Y83284D01*
X116199Y83429D01*
Y85431D01*
X115330Y86300D02*
X116199Y85431D01*
X115330Y86300D02*
Y88990D01*
X113650Y90670D02*
X115330Y88990D01*
X112300Y90670D02*
X113650D01*
X111800Y90170D02*
X112300Y90670D01*
X111800Y84300D02*
Y90170D01*
X111976Y82276D02*
X113000Y83300D01*
X111976Y70424D02*
Y82276D01*
Y70424D02*
X113800Y68600D01*
Y69600D02*
X114230Y70030D01*
Y75000D01*
X114054Y75176D02*
X114230Y75000D01*
X113575Y75176D02*
X114054D01*
X113376Y75375D02*
X113575Y75176D01*
X113376Y75375D02*
Y77875D01*
X113525Y78024D01*
X114004D01*
X114230Y78250D01*
Y80920D01*
X114200Y80950D02*
X114230Y80920D01*
X114200Y80950D02*
Y83300D01*
X76740Y89460D02*
X78100Y88100D01*
X76740Y89460D02*
Y89710D01*
X46320Y85230D02*
X49970Y88880D01*
X46320Y75300D02*
Y85230D01*
Y75300D02*
X48670D01*
X49404Y74566D01*
Y68004D02*
Y74566D01*
X49020Y67620D02*
X49404Y68004D01*
X46420Y67620D02*
X49020D01*
X45800Y67000D02*
X46420Y67620D01*
X102600Y91100D02*
X102858Y90843D01*
Y81152D02*
Y90843D01*
Y81152D02*
X103000Y81010D01*
X103850D01*
X114910Y78790D02*
Y81860D01*
Y78790D02*
X115200Y78500D01*
X75978Y68172D02*
Y69113D01*
Y68172D02*
X76030Y68120D01*
Y66615D02*
Y68120D01*
Y66615D02*
X76209Y66436D01*
Y64048D02*
Y66436D01*
Y64048D02*
X76280Y63977D01*
X65160Y63440D02*
Y70740D01*
X66700Y72280D01*
X69070D01*
X75405Y72530D02*
X77750Y74875D01*
Y75255D01*
X52000Y64400D02*
Y65400D01*
X55000Y68400D01*
X79640Y102540D02*
X80600Y103500D01*
X79640Y100070D02*
Y102540D01*
Y100070D02*
X79670Y100039D01*
Y98750D02*
Y100039D01*
Y98750D02*
X79820Y98600D01*
X81600D01*
X85100Y95100D01*
X81650Y82040D02*
X82340Y82730D01*
Y94000D01*
X78670Y97670D02*
X82340Y94000D01*
X78670Y97670D02*
Y98375D01*
X78825Y98530D01*
X79300D01*
X79730Y98100D01*
X80100D01*
X87997Y83827D02*
X88170Y84000D01*
Y87375D01*
X88325Y87530D01*
X88625D01*
X88760Y87665D01*
Y91560D01*
X88600Y91720D02*
X88760Y91560D01*
X88600Y91720D02*
Y92100D01*
X97900Y106800D02*
X98596D01*
X100440Y104956D01*
X100964D01*
X101170Y104750D01*
Y96530D02*
Y104750D01*
Y96530D02*
X102600Y95100D01*
X109363Y87537D02*
X109800Y87100D01*
X109363Y87537D02*
Y96183D01*
X104460Y104977D02*
Y105600D01*
Y104977D02*
X104977Y104460D01*
Y92084D02*
Y104460D01*
X104573Y91680D02*
X104977Y92084D01*
X104573Y87777D02*
Y91680D01*
Y87777D02*
X105520Y86830D01*
X106890D01*
X107220Y86500D01*
Y86030D02*
Y86500D01*
X107020Y85830D02*
X107220Y86030D01*
X107020Y81330D02*
Y85830D01*
Y81330D02*
X107810Y80540D01*
Y72880D02*
Y80540D01*
Y72880D02*
X108500Y72190D01*
X109625D01*
X109810Y72375D01*
Y73350D01*
X118800Y102050D02*
X119700Y101150D01*
Y96925D02*
Y101150D01*
X119698Y96923D02*
X119700Y96925D01*
X119250Y96923D02*
X119698D01*
X118940Y97233D02*
X119250Y96923D01*
X118940Y97233D02*
Y97822D01*
X72020Y106770D02*
X72190Y106940D01*
X73000D01*
X73550Y107490D01*
Y108024D01*
X73750Y108224D01*
X75420D01*
X75500Y107640D01*
X76060Y107080D01*
Y105590D02*
Y107080D01*
Y105590D02*
X76250Y105400D01*
X76830D01*
X77360Y104870D01*
X118250Y100540D02*
X119196Y99594D01*
Y97822D02*
Y99594D01*
X64700Y104900D02*
X65870Y103730D01*
Y99860D02*
Y103730D01*
X108380Y99080D02*
Y100700D01*
X110598Y99080D02*
X110848Y98830D01*
Y98022D02*
Y98830D01*
X47700Y103010D02*
Y104900D01*
Y103010D02*
X50250Y100460D01*
X113800Y100407D02*
Y103210D01*
X112384Y98991D02*
X113800Y100407D01*
X112384Y98022D02*
Y98991D01*
X110800Y73600D02*
X111230Y74030D01*
Y79977D01*
X110937Y80270D02*
X111230Y79977D01*
X108976Y80270D02*
X110937D01*
X108976D02*
Y81124D01*
X109464D01*
X109950Y81610D01*
Y82050D01*
X111410Y83510D01*
Y90040D01*
X113400Y92030D01*
Y96560D01*
X112640Y97320D02*
X113400Y96560D01*
X112640Y97320D02*
Y98022D01*
X77100Y85900D02*
Y87100D01*
X107980Y85640D02*
Y92234D01*
X108630Y92884D01*
Y107211D01*
X108200Y107641D02*
X108630Y107211D01*
X108200Y107641D02*
Y108000D01*
X108860Y92620D02*
Y104990D01*
X109700Y105830D01*
Y107500D01*
X110200Y108000D01*
X83110Y97570D02*
Y99430D01*
X84420Y100740D01*
X110650Y99820D02*
Y107450D01*
X111200Y108000D01*
X119200D02*
X119630Y107570D01*
Y103910D02*
Y107570D01*
X116200Y100480D02*
X119630Y103910D01*
X116200Y94910D02*
Y100480D01*
X118770Y95080D02*
X118940Y95250D01*
Y95578D01*
X76100Y88100D02*
X76530Y87670D01*
Y84880D02*
Y87670D01*
Y84880D02*
X76910Y84500D01*
X77430D01*
X78280Y85350D01*
X100470Y85520D02*
Y87393D01*
X99760Y88103D02*
X100470Y87393D01*
X99760Y88103D02*
Y93830D01*
X100920Y94990D01*
Y103420D01*
X117250Y100900D02*
X120700Y104350D01*
X120200Y108000D02*
X120700Y107500D01*
X119196Y96063D02*
X120700Y97567D01*
X119196Y95578D02*
Y96063D01*
X110848Y95778D02*
Y96380D01*
X112384Y95778D02*
Y96266D01*
X112000Y96650D02*
X112384Y96266D01*
X110540Y96650D02*
X112000D01*
X110200Y92020D02*
Y107000D01*
X94600Y88100D02*
Y95396D01*
X97170Y97966D01*
Y102250D01*
X112200Y101100D02*
Y107000D01*
X99630Y94050D02*
X100090Y94510D01*
Y102839D01*
X113200Y102650D02*
Y107000D01*
X114750Y95695D02*
Y106550D01*
X115200Y107000D01*
X93100Y87600D02*
X93600Y87100D01*
X93100Y87600D02*
Y91140D01*
X91570Y92670D02*
X93100Y91140D01*
X89375Y92670D02*
X91570D01*
X89171Y92874D02*
X89375Y92670D01*
X89171Y92874D02*
Y93375D01*
X89326Y93530D01*
X89890D01*
X92030Y95670D01*
Y98560D01*
X91920Y98670D02*
X92030Y98560D01*
X91375Y98670D02*
X91920D01*
X91171Y98874D02*
X91375Y98670D01*
X91171Y98874D02*
Y100820D01*
X93600Y88100D02*
X93940Y88440D01*
Y95580D01*
X95171Y96811D01*
Y99391D01*
X96160Y100380D01*
X112640Y95290D02*
Y95778D01*
Y95290D02*
X112860Y95070D01*
X115000D02*
Y99540D01*
X118700Y103240D01*
Y108130D01*
X119000Y108430D01*
X119500D01*
X119630Y108300D01*
Y107900D02*
Y108300D01*
Y107900D02*
X120200Y107330D01*
Y107000D02*
Y107330D01*
X112896Y95778D02*
Y96630D01*
X123770Y105710D02*
X124130Y105350D01*
X123770Y105710D02*
Y107430D01*
X123200Y108000D02*
X123770Y107430D01*
X93170Y98530D02*
X93600Y98100D01*
X93170Y98530D02*
Y99990D01*
X93490Y100310D01*
Y106420D01*
X93321Y106589D02*
X93490Y106420D01*
X93321Y106589D02*
Y107400D01*
X94421Y108500D01*
X95460D01*
X105820Y109480D02*
X106090Y109750D01*
X106950D01*
X107200Y109500D01*
Y108000D02*
Y109500D01*
X105630Y96630D02*
X106950Y95310D01*
X105630Y96630D02*
Y107430D01*
X106200Y108000D01*
X66235Y108020D02*
X68204Y109989D01*
X66235Y107575D02*
Y108020D01*
Y107575D02*
X68900Y104910D01*
Y98844D02*
Y104910D01*
Y98844D02*
X69147Y98597D01*
Y89683D02*
Y98597D01*
Y89683D02*
X70980Y87850D01*
X74100Y88100D02*
X74630Y88630D01*
Y99900D01*
X75570Y100840D01*
X115360Y102250D02*
X116630Y103520D01*
Y107570D01*
X116200Y108000D02*
X116630Y107570D01*
X86100Y96100D02*
X87270Y97270D01*
Y103400D01*
X107770Y103150D02*
Y108250D01*
X108020Y108500D01*
X108380D01*
X108630Y108250D01*
Y107570D02*
Y108250D01*
Y107570D02*
X109200Y107000D01*
X108200Y103200D02*
Y107000D01*
X107019Y102019D02*
X108200Y103200D01*
X86140Y102780D02*
Y103125D01*
X86335Y103320D01*
X86500D01*
X86640Y103180D01*
Y96935D02*
Y103180D01*
X86375Y96670D02*
X86640Y96935D01*
X85670Y96670D02*
X86375D01*
X85100Y96100D02*
X85670Y96670D01*
X50000Y64400D02*
X50910Y65310D01*
X75960Y63875D02*
Y65780D01*
Y63875D02*
X76111Y63724D01*
X76250D01*
X76380Y63594D01*
Y63160D02*
Y63594D01*
X84360Y93360D02*
X85100Y94100D01*
X84360Y90460D02*
Y93360D01*
Y90460D02*
X84850Y89970D01*
Y87930D02*
Y89970D01*
X127030Y81330D02*
Y87520D01*
X126100Y80400D02*
X127030Y81330D01*
X77100Y91340D02*
Y98100D01*
Y91340D02*
X82090Y86350D01*
Y84760D02*
Y86350D01*
X75670Y98670D02*
X76100Y99100D01*
X75670Y97875D02*
Y98670D01*
Y97875D02*
X76190Y97355D01*
Y89400D02*
Y97355D01*
Y89400D02*
X76670Y88920D01*
Y87890D02*
Y88920D01*
Y87890D02*
X77000Y87560D01*
X78250D01*
X78530Y87280D01*
Y83560D02*
Y87280D01*
X75670Y85241D02*
Y96640D01*
X100189Y91689D02*
X102600Y94100D01*
X100189Y91073D02*
Y91689D01*
Y91073D02*
X102679Y88583D01*
Y80760D02*
Y88583D01*
Y80760D02*
X102829Y80610D01*
X106246D01*
X94600Y97620D02*
Y98100D01*
X93740Y96760D02*
X94600Y97620D01*
X93740Y89950D02*
Y96760D01*
X93520Y89730D02*
X93740Y89950D01*
X104820Y91125D02*
Y91230D01*
Y91125D02*
X105710Y90235D01*
Y88170D02*
Y90235D01*
Y88170D02*
X106800Y87080D01*
X113795Y85825D02*
X113960Y85990D01*
X114810D01*
X115910Y84890D01*
Y83506D02*
Y84890D01*
X93600Y99100D02*
Y100041D01*
X93856Y100297D01*
X116450Y91280D02*
Y96260D01*
Y91280D02*
X117010Y90720D01*
Y89365D02*
Y90720D01*
Y89365D02*
X117094Y89280D01*
Y86685D02*
Y89280D01*
X116556Y86146D02*
X117094Y86685D01*
X116556Y82625D02*
Y86146D01*
Y82625D02*
X117100Y82081D01*
Y81800D02*
Y82081D01*
X116340Y83000D02*
X116378Y83038D01*
Y86082D01*
X115930Y86530D02*
X116378Y86082D01*
X115930Y86530D02*
Y98430D01*
X94600Y99100D02*
Y100610D01*
X49000Y64400D02*
X49460Y63940D01*
X53250D01*
X53500Y64190D01*
Y65830D01*
X54590Y66920D01*
X58310D01*
X59770Y68380D01*
X75710Y66810D02*
X75780Y66880D01*
X75710Y65530D02*
Y66810D01*
Y65530D02*
X75780Y65460D01*
Y63640D02*
Y65460D01*
X75630Y63490D02*
X75780Y63640D01*
X43540Y85600D02*
X43860Y85280D01*
Y84459D02*
Y85280D01*
X43090Y83689D02*
X43860Y84459D01*
X43090Y81630D02*
Y83689D01*
X42750Y81290D02*
X43090Y81630D01*
X41370Y81290D02*
X42750D01*
X41370D02*
Y91560D01*
X41910Y92100D01*
Y97050D01*
X41540Y97420D02*
X41910Y97050D01*
X70150Y103400D02*
Y103889D01*
X70411Y104150D01*
X70855D01*
X43540Y86100D02*
X44040Y85600D01*
Y83090D02*
Y85600D01*
X43820Y82870D02*
X44040Y83090D01*
X70855Y104650D02*
X71460D01*
X43540Y86600D02*
X43754D01*
X44161Y87007D01*
Y87540D01*
X44029Y87672D02*
X44161Y87540D01*
X44029Y87672D02*
Y88921D01*
X43820Y89130D02*
X44029Y88921D01*
X84610Y92270D02*
X85100Y92760D01*
Y93100D01*
X43540Y87100D02*
X43790D01*
Y87310D01*
X43910Y87430D01*
X86530Y83300D02*
Y93670D01*
X86100Y94100D02*
X86530Y93670D01*
X43495Y78400D02*
X43962D01*
X44052Y78490D01*
X85110Y80050D02*
X85530Y80470D01*
Y95390D01*
X85250Y95670D02*
X85530Y95390D01*
X84875Y95670D02*
X85250D01*
X84670Y95875D02*
X84875Y95670D01*
X84670Y95875D02*
Y102610D01*
X85630Y103570D01*
Y104125D01*
X85505Y104250D02*
X85630Y104125D01*
X85055Y104250D02*
X85505D01*
X42705Y78900D02*
X43100D01*
X40970Y80635D02*
X42705Y78900D01*
X84317Y104750D02*
X85055D01*
X40970Y80635D02*
Y98070D01*
X88000Y106200D02*
Y107290D01*
X90500Y109790D01*
X100840D01*
X101630Y109000D01*
Y107130D02*
Y109000D01*
Y107130D02*
X104210Y104550D01*
Y95710D02*
Y104550D01*
X103600Y95100D02*
X104210Y95710D01*
X43495Y79400D02*
X43685Y79590D01*
X43790D01*
X44430Y80230D01*
Y83566D01*
X44250Y83746D02*
X44430Y83566D01*
X44250Y83746D02*
Y86660D01*
X43495Y79900D02*
X43790D01*
X44250Y80360D01*
Y81550D01*
X43490Y82310D02*
X44250Y81550D01*
X43490Y82310D02*
Y83703D01*
X104660Y92370D02*
Y93040D01*
X103600Y94100D02*
X104660Y93040D01*
X41470Y72750D02*
X42650D01*
X40720Y73500D02*
X41470Y72750D01*
X43866Y107022D02*
X45199Y105690D01*
X46700D01*
X74790Y105520D02*
Y106910D01*
Y105520D02*
X75800Y104510D01*
Y103204D02*
Y104510D01*
Y103204D02*
X76500Y102504D01*
X78075D01*
X78204Y102375D01*
Y101894D02*
Y102375D01*
X78010Y101700D02*
X78204Y101894D01*
X78010Y99190D02*
X78100Y99100D01*
X43440Y72250D02*
X44900Y73710D01*
Y86230D01*
X78100Y91710D02*
X80360Y89450D01*
X78100Y91710D02*
Y98100D01*
X105160Y105130D02*
X105410Y104880D01*
Y96490D02*
Y104880D01*
Y96490D02*
X107700Y94200D01*
Y84270D02*
Y94200D01*
Y84270D02*
X109040Y82930D01*
X110230D01*
X110600Y83300D01*
X50700Y92190D02*
Y98900D01*
X51410Y98190D01*
Y88211D02*
Y98190D01*
Y88211D02*
X51583Y88038D01*
Y86977D02*
Y88038D01*
Y86977D02*
X52650Y85910D01*
Y79510D02*
Y85910D01*
Y79510D02*
X54350Y77810D01*
Y70410D02*
Y77810D01*
Y70410D02*
X56390Y68370D01*
X47330Y107300D02*
X48600D01*
X50270Y105630D01*
Y101330D02*
Y105630D01*
Y101330D02*
X52700Y98900D01*
X109150Y85340D02*
Y103380D01*
X108840Y85030D02*
X109150Y85340D01*
X108840Y83860D02*
Y85030D01*
Y83860D02*
X109400Y83300D01*
X49700Y98900D02*
X50130Y99330D01*
X51000D01*
X51270Y99060D01*
Y98625D02*
Y99060D01*
Y98625D02*
X51590Y98305D01*
Y90940D02*
Y98305D01*
Y90940D02*
X54500Y88030D01*
Y86260D02*
Y88030D01*
Y86260D02*
X56660Y84100D01*
Y70700D02*
Y84100D01*
X63435Y97635D02*
X64700Y98900D01*
X63435Y86375D02*
Y97635D01*
Y86375D02*
X63575Y86235D01*
X64025D01*
X64165Y86375D01*
Y86625D01*
X65000Y87460D01*
X67090D01*
X71443Y83107D01*
Y82203D02*
Y83107D01*
Y82203D02*
X71804Y81843D01*
Y80473D02*
Y81843D01*
Y80473D02*
X74270Y78007D01*
X77353D01*
X81374Y73986D01*
Y67945D02*
Y73986D01*
Y67945D02*
X81790Y67530D01*
X74700Y63520D02*
X75104Y63924D01*
Y68188D01*
X75387Y68471D01*
Y69113D01*
X72100Y88800D02*
Y92100D01*
X98820Y91260D02*
Y93860D01*
X99680Y94720D01*
X111360Y95310D02*
X111360Y95310D01*
Y95778D01*
X72100Y84950D02*
Y87100D01*
X71806Y84656D02*
X72100Y84950D01*
X71806Y82621D02*
Y84656D01*
Y82621D02*
X72037Y82390D01*
X77030D01*
X79000Y80420D01*
X81600D01*
Y81430D01*
X82570Y82400D01*
Y88470D01*
X83330Y89230D01*
X100442Y91208D02*
X100510Y91140D01*
X100442Y91208D02*
Y91572D01*
X101540Y92670D01*
X102810D01*
X103140Y93000D01*
Y94250D01*
X103470Y94580D01*
X104250D01*
X104730Y95060D01*
X111610D02*
Y95772D01*
X111616Y95778D01*
X111360Y99077D02*
X111515Y99231D01*
X111360Y98022D02*
Y99077D01*
X109610Y92160D02*
Y92700D01*
Y92160D02*
X110000Y91770D01*
X110375D01*
X111872Y93267D01*
Y95778D01*
X110590Y87710D02*
Y90590D01*
X112128Y92128D01*
Y95778D01*
X43440Y71750D02*
X45110Y73420D01*
Y87080D01*
X44210Y87980D02*
X45110Y87080D01*
X44210Y87980D02*
Y91240D01*
X43490Y91960D02*
X44210Y91240D01*
X43490Y91960D02*
Y97190D01*
X43740Y97440D01*
X105810Y72170D02*
Y73190D01*
X105400Y73600D02*
X105810Y73190D01*
X58800Y94500D02*
X59210Y94910D01*
Y95750D01*
X58960Y96000D02*
X59210Y95750D01*
X58710Y96000D02*
X58960D01*
X58210Y95500D02*
X58710Y96000D01*
X58210Y90500D02*
Y95500D01*
Y90500D02*
X60290Y88420D01*
Y80052D02*
Y88420D01*
X59642Y79404D02*
X60290Y80052D01*
X59350Y79404D02*
X59642D01*
X59196Y79250D02*
X59350Y79404D01*
X59196Y78750D02*
Y79250D01*
Y78750D02*
X61050Y76896D01*
Y65584D02*
Y76896D01*
X58800Y93500D02*
X61416Y90884D01*
Y88076D02*
Y90884D01*
Y88076D02*
X61765Y87726D01*
Y83900D02*
Y87726D01*
X118540Y77960D02*
Y83120D01*
X118090Y77510D02*
X118540Y77960D01*
X118090Y65500D02*
Y77510D01*
Y65500D02*
X118470Y65120D01*
X122010D01*
X122890Y66000D01*
Y69700D01*
X123020Y69830D01*
X125000D01*
X125530Y70360D01*
Y71030D01*
X126100Y71600D01*
X62800Y94500D02*
Y95500D01*
X123415Y72600D02*
X125100D01*
X122890Y73125D02*
X123415Y72600D01*
X122890Y73125D02*
Y78590D01*
X123600Y79300D01*
Y84900D01*
X110933Y81059D02*
X111150Y81276D01*
X110933Y80527D02*
Y81059D01*
Y80527D02*
X111480Y79980D01*
Y79180D02*
Y79980D01*
X103600Y93100D02*
X104394Y92306D01*
Y87432D02*
Y92306D01*
Y87432D02*
X106021Y85806D01*
X106810D01*
Y86027D01*
X106963Y86180D01*
X102600Y92100D02*
X103036Y91664D01*
Y81964D02*
Y91664D01*
Y81964D02*
X103500Y81500D01*
X102100Y104300D02*
X103100Y103300D01*
Y97600D02*
Y103300D01*
Y97600D02*
X103600Y97100D01*
X76945Y74805D02*
X76962Y74823D01*
Y75255D01*
X77553D02*
Y76220D01*
X77946Y76086D02*
X78200Y76340D01*
X77946Y75255D02*
Y76086D01*
X65800Y83100D02*
X66310Y83610D01*
X70670D01*
X71265Y83015D01*
Y81893D02*
Y83015D01*
Y81893D02*
X71610Y81548D01*
Y80260D02*
Y81548D01*
Y80260D02*
X74041Y77829D01*
X77121D01*
X78450Y76500D01*
Y75562D02*
Y76500D01*
X78143Y75255D02*
X78450Y75562D01*
X84100Y92110D02*
Y95690D01*
X82690Y97100D02*
X84100Y95690D01*
X51596Y70004D02*
X52000Y69600D01*
X51596Y70004D02*
Y74026D01*
X51960Y74390D01*
X52250D01*
X52410Y74550D01*
Y77390D01*
X87000Y79160D02*
Y94200D01*
X86100Y95100D02*
X87000Y94200D01*
X56000Y70700D02*
X56410Y71110D01*
Y82070D01*
X79000Y83050D02*
X79100Y83150D01*
Y87100D01*
X52000Y71800D02*
X52558D01*
X56238Y68120D01*
X57000D01*
X57610Y68730D01*
Y74074D01*
X57190Y74494D02*
X57610Y74074D01*
X57190Y74494D02*
Y76760D01*
X74009Y75999D02*
X74970Y76960D01*
X74009Y75255D02*
Y75999D01*
X74206Y74308D02*
Y75255D01*
X72510Y78490D02*
X72767D01*
X73957Y77300D01*
X75045D01*
X75220Y77125D01*
Y76763D02*
Y77125D01*
X74797Y76340D02*
X75220Y76763D01*
X74797Y75255D02*
Y76340D01*
X52000Y78800D02*
X53590Y77210D01*
Y71760D02*
Y77210D01*
X74994Y74246D02*
Y75255D01*
X75584Y77324D02*
X75590Y77330D01*
X75584Y75255D02*
Y77324D01*
X51590Y76390D02*
X52000Y76800D01*
X51590Y74556D02*
Y76390D01*
X51212Y74178D02*
X51590Y74556D01*
X51212Y73422D02*
Y74178D01*
X75135Y73680D02*
X75625D01*
X75781Y73836D01*
Y75255D01*
X52000Y73800D02*
X53340Y75140D01*
X76372Y75255D02*
Y76897D01*
X76568Y74183D02*
X76570Y74181D01*
X76568Y74183D02*
Y75255D01*
X71450Y68650D02*
Y69113D01*
X77553Y68043D02*
Y69113D01*
X77500Y67990D02*
X77553Y68043D01*
X94100Y70700D02*
X94750Y70050D01*
Y65691D02*
Y70050D01*
X94200Y65141D02*
X94750Y65691D01*
X105500Y66400D02*
Y67500D01*
Y65300D02*
Y66400D01*
X72041Y74821D02*
Y75255D01*
X71990Y74770D02*
X72041Y74821D01*
X71990Y73003D02*
Y74770D01*
X103910Y73960D02*
X104750Y73120D01*
Y70050D02*
Y73120D01*
Y70050D02*
X109500Y65300D01*
X73025Y73165D02*
Y75255D01*
X103800Y74250D02*
X104240D01*
X104990Y72200D02*
Y73500D01*
Y72200D02*
X105690Y71500D01*
X106700D01*
X108900Y69300D01*
Y68100D02*
Y69300D01*
X73419Y72771D02*
Y75255D01*
Y72771D02*
X74120Y72070D01*
X101460Y70911D02*
X102659D01*
X103320Y71572D01*
Y73770D01*
X103800Y74250D01*
X104240D02*
X104990Y73500D01*
X108900Y68100D02*
X109500Y67500D01*
X101850Y65250D02*
X102400Y64700D01*
X100990Y65250D02*
X101850D01*
X98130Y68110D02*
X100990Y65250D01*
X98130Y68110D02*
Y70100D01*
X97500Y70730D02*
X98130Y70100D01*
X96500Y70730D02*
X97500D01*
X95900Y71330D02*
X96500Y70730D01*
X95900Y71330D02*
Y72574D01*
X95594Y72880D02*
X95900Y72574D01*
X95180Y72880D02*
X95594D01*
X95180D02*
Y75550D01*
X95500Y75870D01*
X77124Y75794D02*
Y76804D01*
Y75794D02*
X77159Y75760D01*
Y75255D02*
Y75760D01*
X96400Y67500D02*
X96810Y67090D01*
Y66100D02*
Y67090D01*
X94590Y63880D02*
X96810Y66100D01*
X93500Y63880D02*
X94590D01*
X92880Y64500D02*
X93500Y63880D01*
X92880Y64500D02*
Y75500D01*
X93070Y75690D01*
X93570D01*
X75978Y75255D02*
Y75968D01*
X96400Y68500D02*
X96990Y67910D01*
Y65410D02*
Y67910D01*
X95120Y63540D02*
X96990Y65410D01*
X92270Y63540D02*
X95120D01*
X86220Y69590D02*
X92270Y63540D01*
X86220Y69590D02*
Y75900D01*
X76765Y75255D02*
Y75965D01*
X72435Y75255D02*
Y77391D01*
X94400Y77300D02*
Y77690D01*
X93200Y76100D02*
X94400Y77300D01*
X72238Y74572D02*
Y75255D01*
X93660Y74580D02*
X94785Y75705D01*
Y78526D01*
X94400Y78910D02*
X94785Y78526D01*
X73813Y74087D02*
Y75255D01*
Y74087D02*
X74350Y74000D01*
X74600Y74250D01*
Y75255D01*
X70757Y79200D02*
X70860Y79097D01*
Y75255D02*
Y79097D01*
X61300Y77100D02*
X62200Y78000D01*
X61300Y65375D02*
Y77100D01*
X61000Y65210D02*
X61300Y65375D01*
X60290Y65920D02*
X61000Y65210D01*
X60290Y65920D02*
Y71400D01*
X58200Y73490D02*
X60290Y71400D01*
X71350Y74690D02*
X71450Y74790D01*
Y75255D01*
X71647D02*
Y76080D01*
X61960D02*
X62604Y76724D01*
Y78296D01*
X62440Y78460D02*
X62604Y78296D01*
X61660Y78460D02*
X62440D01*
X61200Y78000D02*
X61660Y78460D01*
X72220Y78310D02*
X72466Y78064D01*
X72941D01*
X73616Y77389D01*
Y75255D02*
Y77389D01*
X122100Y66900D02*
X122660Y67460D01*
Y70000D01*
X123260Y70600D01*
X125100D01*
X43440Y77261D02*
X44690Y78511D01*
Y83875D01*
X44602Y83962D02*
X44690Y83875D01*
X43440Y73250D02*
X43820Y73630D01*
Y76990D01*
X44070Y77240D01*
X90910Y79710D02*
X91600Y80400D01*
Y87100D01*
X118200Y108000D02*
X119020Y108820D01*
X120000D01*
X120710Y108110D01*
Y107820D02*
Y108110D01*
Y107820D02*
X120960Y107570D01*
X121304D01*
X121624Y107250D01*
Y106746D02*
Y107250D01*
Y106746D02*
X123580Y104790D01*
X125515D01*
X126395Y103910D01*
Y103120D02*
Y103910D01*
X124630Y101355D02*
X126395Y103120D01*
X124630Y92250D02*
Y101355D01*
X124280Y91900D02*
X124630Y92250D01*
X124100Y91900D02*
X124280D01*
X123800Y91600D02*
X124100Y91900D01*
X123800Y91600D02*
X124010Y91390D01*
Y74010D02*
Y91390D01*
X123300Y73300D02*
X124010Y74010D01*
X123200Y89900D02*
Y91192D01*
X123197Y91194D02*
X123200Y91192D01*
X123197Y91194D02*
Y91997D01*
X123800Y92600D01*
X123120Y93280D02*
X123800Y92600D01*
X123120Y93280D02*
Y102080D01*
X43270Y88370D02*
Y95230D01*
X42276Y96224D02*
X43270Y95230D01*
X42276Y96224D02*
Y97030D01*
X43430Y98184D01*
Y100530D01*
X42576D02*
X43430D01*
X42576Y99996D02*
Y100530D01*
X42250Y99670D02*
X42576Y99996D01*
X41750Y99670D02*
X42250D01*
X41570Y99850D02*
X41750Y99670D01*
X41570Y99850D02*
Y106470D01*
X41944Y106844D01*
X43639D01*
X45122Y105360D01*
X47516D01*
X63700Y104900D02*
Y106850D01*
X61640Y108910D02*
X63700Y106850D01*
X60050Y108910D02*
X61640D01*
X59890Y108750D02*
X60050Y108910D01*
X59890Y107910D02*
Y108750D01*
Y107910D02*
X60300Y107500D01*
X43540Y87600D02*
X43850Y87910D01*
Y88490D01*
X43570Y88770D02*
X43850Y88490D01*
X43570Y88770D02*
Y90430D01*
X65250Y98480D02*
Y102350D01*
X62700Y104900D02*
X65250Y102350D01*
X62700Y104900D02*
Y106100D01*
X60300Y108500D02*
X62700Y106100D01*
X92600Y87100D02*
X93030Y86670D01*
X93830D01*
X94160Y87000D01*
Y95209D01*
X96171Y97220D01*
Y99530D01*
X96660Y100019D01*
Y101220D01*
X95930Y101950D02*
X96660Y101220D01*
X95930Y101950D02*
Y104340D01*
X98620D01*
X115000Y103710D02*
X115630Y104340D01*
Y108690D01*
X116040Y109100D01*
X121100D01*
X122200Y108000D01*
X99700Y72217D02*
Y75816D01*
X100884Y77000D01*
X101220Y76664D01*
Y73936D02*
Y76664D01*
X100800Y73516D02*
X101220Y73936D01*
X100800Y73516D02*
X101186D01*
X103670Y76000D01*
Y76760D01*
X103890Y76980D01*
Y79710D01*
X103400Y80200D02*
X103890Y79710D01*
X99970Y84446D02*
X100316Y84100D01*
X99970Y84446D02*
Y87000D01*
X99370Y87600D02*
X99970Y87000D01*
X96320Y87600D02*
X99370D01*
X96170Y87750D02*
X96320Y87600D01*
X96170Y87750D02*
Y95813D01*
X98029Y97671D01*
Y101771D01*
X96900Y102900D02*
X98029Y101771D01*
D56*
X96400Y104017D02*
D03*
Y105183D02*
D03*
X94400Y104017D02*
D03*
Y105183D02*
D03*
X91800Y102617D02*
D03*
Y103783D02*
D03*
X90000Y102617D02*
D03*
Y103783D02*
D03*
D57*
X96398Y69566D02*
D03*
X96400Y75917D02*
D03*
X99700Y69583D02*
D03*
D58*
X95497Y72200D02*
D03*
X96398D02*
D03*
X97300D02*
D03*
X97302Y73283D02*
D03*
X96400D02*
D03*
X95498D02*
D03*
X98798Y72217D02*
D03*
X99700D02*
D03*
X100602D02*
D03*
D59*
X43100Y80900D02*
D03*
Y80400D02*
D03*
Y79900D02*
D03*
Y79400D02*
D03*
Y78900D02*
D03*
Y78400D02*
D03*
Y77900D02*
D03*
X43145Y88100D02*
D03*
Y87600D02*
D03*
Y87100D02*
D03*
Y86600D02*
D03*
Y86100D02*
D03*
Y85600D02*
D03*
Y85100D02*
D03*
X43045Y73750D02*
D03*
Y73250D02*
D03*
Y72750D02*
D03*
Y72250D02*
D03*
Y71750D02*
D03*
Y71250D02*
D03*
Y70750D02*
D03*
D60*
X77946Y69113D02*
D03*
X78143D02*
D03*
Y75255D02*
D03*
X77946D02*
D03*
X70860D02*
D03*
X71057D02*
D03*
X71254D02*
D03*
X71450D02*
D03*
X71647D02*
D03*
X71844D02*
D03*
X72041D02*
D03*
X72238D02*
D03*
X72435D02*
D03*
X72632D02*
D03*
X72828D02*
D03*
X73025D02*
D03*
X73222D02*
D03*
X73419D02*
D03*
X73616D02*
D03*
X73813D02*
D03*
X74009D02*
D03*
X74206D02*
D03*
X74403D02*
D03*
X74600D02*
D03*
X74797D02*
D03*
X74994D02*
D03*
X75191D02*
D03*
X75387D02*
D03*
X75584D02*
D03*
X75781D02*
D03*
X75978D02*
D03*
X76175D02*
D03*
X76372D02*
D03*
X76568D02*
D03*
X76765D02*
D03*
X76962D02*
D03*
X77159D02*
D03*
X77356D02*
D03*
X77553D02*
D03*
X77750D02*
D03*
Y69113D02*
D03*
X77553D02*
D03*
X77356D02*
D03*
X77159D02*
D03*
X76962D02*
D03*
X76765D02*
D03*
X76568D02*
D03*
X76372D02*
D03*
X76175D02*
D03*
X75978D02*
D03*
X75781D02*
D03*
X75584D02*
D03*
X75387D02*
D03*
X75191D02*
D03*
X74994D02*
D03*
X74797D02*
D03*
X74600D02*
D03*
X74403D02*
D03*
X74206D02*
D03*
X74009D02*
D03*
X73813D02*
D03*
X73616D02*
D03*
X73419D02*
D03*
X73222D02*
D03*
X73025D02*
D03*
X72828D02*
D03*
X72632D02*
D03*
X72435D02*
D03*
X72238D02*
D03*
X72041D02*
D03*
X71844D02*
D03*
X71647D02*
D03*
X71450D02*
D03*
X71254D02*
D03*
X71057D02*
D03*
X70860D02*
D03*
D61*
X78694Y74645D02*
D03*
Y74448D02*
D03*
Y74251D02*
D03*
Y74054D02*
D03*
Y73857D02*
D03*
Y73661D02*
D03*
Y73464D02*
D03*
Y73267D02*
D03*
Y73070D02*
D03*
Y72873D02*
D03*
Y72676D02*
D03*
Y72480D02*
D03*
Y72283D02*
D03*
Y72086D02*
D03*
Y71889D02*
D03*
Y71692D02*
D03*
Y71495D02*
D03*
Y71298D02*
D03*
Y71102D02*
D03*
Y70905D02*
D03*
Y70708D02*
D03*
Y70511D02*
D03*
Y70314D02*
D03*
Y70117D02*
D03*
Y69920D02*
D03*
Y69724D02*
D03*
X70309D02*
D03*
Y69920D02*
D03*
Y70117D02*
D03*
Y70314D02*
D03*
Y70511D02*
D03*
Y70708D02*
D03*
Y70905D02*
D03*
Y71102D02*
D03*
Y71298D02*
D03*
Y71495D02*
D03*
Y71692D02*
D03*
Y71889D02*
D03*
Y72086D02*
D03*
Y72283D02*
D03*
Y72480D02*
D03*
Y72676D02*
D03*
Y72873D02*
D03*
Y73070D02*
D03*
Y73267D02*
D03*
Y73464D02*
D03*
Y73661D02*
D03*
Y73857D02*
D03*
Y74054D02*
D03*
Y74251D02*
D03*
Y74448D02*
D03*
Y74645D02*
D03*
D62*
X48126Y74112D02*
D03*
X48874D02*
D03*
Y73088D02*
D03*
X48500D02*
D03*
X48126D02*
D03*
D63*
X70855Y105150D02*
D03*
Y104650D02*
D03*
Y104150D02*
D03*
Y103650D02*
D03*
X72745Y105150D02*
D03*
Y104650D02*
D03*
Y104150D02*
D03*
Y103650D02*
D03*
X85055Y105250D02*
D03*
Y104750D02*
D03*
Y104250D02*
D03*
Y103750D02*
D03*
X86945Y105250D02*
D03*
Y104750D02*
D03*
Y104250D02*
D03*
Y103750D02*
D03*
D64*
X119452Y97822D02*
D03*
X119196D02*
D03*
X118940D02*
D03*
X118684D02*
D03*
X118428D02*
D03*
X118172D02*
D03*
X117916D02*
D03*
X117660D02*
D03*
X117404D02*
D03*
X117148D02*
D03*
X119452Y95578D02*
D03*
X119196D02*
D03*
X118940D02*
D03*
X118684D02*
D03*
X118428D02*
D03*
X118172D02*
D03*
X117916D02*
D03*
X117660D02*
D03*
X117404D02*
D03*
X117148D02*
D03*
X113152Y98022D02*
D03*
X112896D02*
D03*
X112640D02*
D03*
X112384D02*
D03*
X112128D02*
D03*
X111872D02*
D03*
X111616D02*
D03*
X111360D02*
D03*
X111104D02*
D03*
X110848D02*
D03*
X113152Y95778D02*
D03*
X112896D02*
D03*
X112640D02*
D03*
X112384D02*
D03*
X112128D02*
D03*
X111872D02*
D03*
X111616D02*
D03*
X111360D02*
D03*
X111104D02*
D03*
X110848D02*
D03*
D65*
X62880Y61750D02*
D03*
X80380D02*
D03*
X86880D02*
D03*
X86380D02*
D03*
X85880D02*
D03*
X85380D02*
D03*
X84880D02*
D03*
X84380D02*
D03*
X83880D02*
D03*
X83380D02*
D03*
X82880D02*
D03*
X82380D02*
D03*
X81880D02*
D03*
X79880D02*
D03*
X79380D02*
D03*
X78880D02*
D03*
X78380D02*
D03*
X77880D02*
D03*
X77380D02*
D03*
X76880D02*
D03*
X76380D02*
D03*
X75880D02*
D03*
X75380D02*
D03*
X74880D02*
D03*
X74380D02*
D03*
X73880D02*
D03*
X73380D02*
D03*
X72880D02*
D03*
X72380D02*
D03*
X71880D02*
D03*
X71380D02*
D03*
X70880D02*
D03*
X70380D02*
D03*
X69880D02*
D03*
X69380D02*
D03*
X68880D02*
D03*
X68380D02*
D03*
X67880D02*
D03*
X67380D02*
D03*
X66880D02*
D03*
X66380D02*
D03*
X65880D02*
D03*
X65380D02*
D03*
X64880D02*
D03*
X64380D02*
D03*
X63880D02*
D03*
X63380D02*
D03*
X61380D02*
D03*
X60880D02*
D03*
X60380D02*
D03*
X59880D02*
D03*
X59380D02*
D03*
X58880D02*
D03*
X58380D02*
D03*
X57880D02*
D03*
X57380D02*
D03*
X56880D02*
D03*
X56380D02*
D03*
D66*
X48130Y69570D02*
Y70830D01*
X47580Y69020D02*
X48130Y69570D01*
X45850Y69020D02*
X47580D01*
X45150Y68320D02*
X45850Y69020D01*
X45150Y66978D02*
Y68320D01*
X43050Y64878D02*
X45150Y66978D01*
X48126Y73375D02*
X48376Y73586D01*
X48126Y73088D02*
Y73375D01*
X125086Y88122D02*
X127130Y90166D01*
Y92500D01*
X126570Y93060D02*
X127130Y92500D01*
X126540Y93060D02*
X126570D01*
X125700Y93900D02*
X126540Y93060D01*
D67*
X43145Y85100D02*
X43550D01*
X42760D02*
X43145D01*
X43100Y77900D02*
X43505D01*
X42715D02*
X43100D01*
X43045Y70750D02*
X43450D01*
X42660D02*
X43045D01*
X43100Y80400D02*
X43495D01*
X42705D02*
X43100D01*
Y80900D02*
X43495D01*
X42705D02*
X43100D01*
X43145Y85600D02*
X43540D01*
X42750D02*
X43145D01*
Y86100D02*
X43540D01*
X42750D02*
X43145D01*
Y86600D02*
X43540D01*
X42750D02*
X43145D01*
Y87100D02*
X43540D01*
X42750D02*
X43145D01*
X43100Y78400D02*
X43495D01*
X42705D02*
X43100D01*
Y78900D02*
X43495D01*
X42705D02*
X43100D01*
Y79400D02*
X43495D01*
X42705D02*
X43100D01*
Y79900D02*
X43495D01*
X42705D02*
X43100D01*
X43045Y72750D02*
X43440D01*
X42650D02*
X43045D01*
Y72250D02*
X43440D01*
X42650D02*
X43045D01*
Y71750D02*
X43440D01*
X42650D02*
X43045D01*
Y71250D02*
X43440D01*
X42650D02*
X43045D01*
Y73750D02*
X43440D01*
X42650D02*
X43045D01*
Y73250D02*
X43440D01*
X42650D02*
X43045D01*
X43145Y88100D02*
X43540D01*
X42750D02*
X43145D01*
Y87600D02*
X43540D01*
X42750D02*
X43145D01*
D68*
X43654Y67938D02*
D03*
X41254D02*
D03*
X88600Y99100D02*
D03*
X89600D02*
D03*
Y98100D02*
D03*
X88600D02*
D03*
X90600D02*
D03*
Y99100D02*
D03*
X91600Y98100D02*
D03*
Y99100D02*
D03*
X92600Y98100D02*
D03*
Y99100D02*
D03*
X93600D02*
D03*
Y98100D02*
D03*
X94600Y99100D02*
D03*
Y98100D02*
D03*
X97600Y99100D02*
D03*
Y98100D02*
D03*
X95600D02*
D03*
X96600D02*
D03*
Y99100D02*
D03*
X95600D02*
D03*
X102600Y98100D02*
D03*
X103600Y99100D02*
D03*
Y98100D02*
D03*
X89600Y97100D02*
D03*
X88600D02*
D03*
X89600Y96100D02*
D03*
X88600D02*
D03*
X89600Y92100D02*
D03*
X88600D02*
D03*
X89600Y93100D02*
D03*
X88600D02*
D03*
Y94100D02*
D03*
X89600D02*
D03*
X88600Y95100D02*
D03*
X89600D02*
D03*
Y87100D02*
D03*
X88600D02*
D03*
X103600D02*
D03*
X95600Y88100D02*
D03*
X96600D02*
D03*
Y87100D02*
D03*
X95600D02*
D03*
X97600D02*
D03*
X94600D02*
D03*
Y88100D02*
D03*
X93600Y87100D02*
D03*
Y88100D02*
D03*
X92600D02*
D03*
Y87100D02*
D03*
X91600Y88100D02*
D03*
Y87100D02*
D03*
X90600Y88100D02*
D03*
Y87100D02*
D03*
X103600Y95100D02*
D03*
X102600D02*
D03*
X103600Y94100D02*
D03*
X102600D02*
D03*
Y93100D02*
D03*
X103600D02*
D03*
X102600Y92100D02*
D03*
X103600D02*
D03*
X102600Y91100D02*
D03*
Y96100D02*
D03*
X103600D02*
D03*
X102600Y97100D02*
D03*
X103600D02*
D03*
X86100D02*
D03*
X85100D02*
D03*
X86100Y96100D02*
D03*
X85100D02*
D03*
Y91100D02*
D03*
X86100Y92100D02*
D03*
X85100D02*
D03*
X86100Y93100D02*
D03*
X85100D02*
D03*
Y94100D02*
D03*
X86100D02*
D03*
X85100Y95100D02*
D03*
X86100D02*
D03*
X73100Y87100D02*
D03*
Y88100D02*
D03*
X74100Y87100D02*
D03*
Y88100D02*
D03*
X75100Y87100D02*
D03*
Y88100D02*
D03*
X76100D02*
D03*
Y87100D02*
D03*
X77100Y88100D02*
D03*
Y87100D02*
D03*
X80100D02*
D03*
X78100D02*
D03*
X79100D02*
D03*
Y88100D02*
D03*
X78100D02*
D03*
X86100Y87100D02*
D03*
X71100D02*
D03*
X72100D02*
D03*
Y95100D02*
D03*
X71100D02*
D03*
X72100Y94100D02*
D03*
X71100D02*
D03*
Y93100D02*
D03*
X72100D02*
D03*
X71100Y92100D02*
D03*
X72100D02*
D03*
X71100Y96100D02*
D03*
X72100D02*
D03*
X71100Y97100D02*
D03*
X72100D02*
D03*
X86100Y98100D02*
D03*
Y99100D02*
D03*
X85100Y98100D02*
D03*
X78100Y99100D02*
D03*
X79100D02*
D03*
Y98100D02*
D03*
X78100D02*
D03*
X80100D02*
D03*
Y99100D02*
D03*
X77100Y98100D02*
D03*
Y99100D02*
D03*
X76100Y98100D02*
D03*
Y99100D02*
D03*
X75100D02*
D03*
Y98100D02*
D03*
X74100Y99100D02*
D03*
Y98100D02*
D03*
X73100Y99100D02*
D03*
Y98100D02*
D03*
X71100D02*
D03*
X72100D02*
D03*
Y99100D02*
D03*
X71100D02*
D03*
X103200Y107500D02*
D03*
X126200D02*
D03*
D69*
X94200Y73500D02*
D03*
Y74500D02*
D03*
X94100Y70700D02*
D03*
Y71700D02*
D03*
X123500Y65800D02*
D03*
Y66800D02*
D03*
X120400Y69800D02*
D03*
Y71800D02*
D03*
X115100Y75900D02*
D03*
Y74900D02*
D03*
X101900Y81300D02*
D03*
Y82300D02*
D03*
X100700Y81300D02*
D03*
Y82300D02*
D03*
X122100Y66900D02*
D03*
Y65900D02*
D03*
X128200Y94800D02*
D03*
Y95800D02*
D03*
X116100Y65500D02*
D03*
Y66500D02*
D03*
X70700Y81300D02*
D03*
Y82300D02*
D03*
X69400Y81300D02*
D03*
Y82300D02*
D03*
X50300Y73000D02*
D03*
Y74000D02*
D03*
X65400Y106300D02*
D03*
X66400D02*
D03*
X118500Y66900D02*
D03*
Y65900D02*
D03*
X117300Y66900D02*
D03*
Y65900D02*
D03*
X46800Y74100D02*
D03*
Y73100D02*
D03*
X44900Y89500D02*
D03*
Y88500D02*
D03*
X59500Y81900D02*
D03*
Y82900D02*
D03*
X80600Y103500D02*
D03*
Y104500D02*
D03*
X125000Y66300D02*
D03*
X127000D02*
D03*
X97900Y106800D02*
D03*
X96900D02*
D03*
X48300Y84800D02*
D03*
X47300D02*
D03*
X109800Y87100D02*
D03*
Y88100D02*
D03*
X109300Y78700D02*
D03*
Y77700D02*
D03*
X114800Y65500D02*
D03*
Y66500D02*
D03*
X111800Y84300D02*
D03*
Y83300D02*
D03*
X42100Y106300D02*
D03*
X43100D02*
D03*
X42900Y90500D02*
D03*
X41900D02*
D03*
X114200Y83300D02*
D03*
Y84300D02*
D03*
X113000Y83300D02*
D03*
Y84300D02*
D03*
X109400Y83300D02*
D03*
Y84300D02*
D03*
X110600Y83300D02*
D03*
Y84300D02*
D03*
X45700Y108500D02*
D03*
X44700D02*
D03*
X65600Y107800D02*
D03*
X66600D02*
D03*
X45700Y107300D02*
D03*
X44700D02*
D03*
X42100Y107500D02*
D03*
Y108500D02*
D03*
X43300Y107500D02*
D03*
Y108500D02*
D03*
X116900Y79300D02*
D03*
Y78300D02*
D03*
X118100Y79300D02*
D03*
Y78300D02*
D03*
X120400Y68000D02*
D03*
Y66000D02*
D03*
X118100Y80600D02*
D03*
X117100D02*
D03*
X118100Y81800D02*
D03*
X117100D02*
D03*
X118100Y83000D02*
D03*
X117100D02*
D03*
X118100Y84200D02*
D03*
X117100D02*
D03*
X63800Y85600D02*
D03*
Y86600D02*
D03*
X87200Y108800D02*
D03*
X86200D02*
D03*
Y107500D02*
D03*
X87200D02*
D03*
X62600Y85600D02*
D03*
Y86600D02*
D03*
X65000Y85600D02*
D03*
Y86600D02*
D03*
X45800Y67000D02*
D03*
Y68000D02*
D03*
X61400Y85600D02*
D03*
Y86600D02*
D03*
X115200Y78500D02*
D03*
Y77500D02*
D03*
X122000Y74500D02*
D03*
Y75500D02*
D03*
Y77900D02*
D03*
Y76900D02*
D03*
X100800Y107800D02*
D03*
Y106800D02*
D03*
X68700Y108700D02*
D03*
Y107700D02*
D03*
X69900D02*
D03*
Y108700D02*
D03*
X100800Y105500D02*
D03*
Y104500D02*
D03*
D70*
X127100Y93900D02*
D03*
Y95900D02*
D03*
Y94900D02*
D03*
Y96900D02*
D03*
D71*
X125086Y89894D02*
D03*
Y90878D02*
D03*
Y89106D02*
D03*
X43050Y63894D02*
D03*
Y62122D02*
D03*
Y63106D02*
D03*
D72*
X125086Y88122D02*
D03*
X43050Y64878D02*
D03*
D73*
X126153Y86913D02*
D03*
Y92087D02*
D03*
X41983Y60913D02*
D03*
Y66087D02*
D03*
D74*
X102284Y84100D02*
D03*
X104200Y69616D02*
D03*
X57400Y81416D02*
D03*
X55500D02*
D03*
X56500Y90484D02*
D03*
X46500Y90084D02*
D03*
X48100Y93116D02*
D03*
X123200Y83584D02*
D03*
X48684Y77500D02*
D03*
X46716Y79300D02*
D03*
X116700Y86916D02*
D03*
X112500Y88284D02*
D03*
X48684Y75700D02*
D03*
X118616Y76700D02*
D03*
X52400Y108784D02*
D03*
X115500Y67516D02*
D03*
X106216Y69200D02*
D03*
X55984Y94800D02*
D03*
X56716Y108400D02*
D03*
X55884D02*
D03*
X115400Y72284D02*
D03*
X106216Y71100D02*
D03*
X50216Y94800D02*
D03*
X63916Y94500D02*
D03*
X84800Y82784D02*
D03*
X67900D02*
D03*
X63916Y96400D02*
D03*
X82400Y105184D02*
D03*
X63916Y90300D02*
D03*
Y92200D02*
D03*
X83000Y82784D02*
D03*
X81200D02*
D03*
X79400D02*
D03*
X77600D02*
D03*
X75800D02*
D03*
X74000D02*
D03*
X72200D02*
D03*
X108384Y90500D02*
D03*
Y88500D02*
D03*
X95684Y107000D02*
D03*
X108384Y86200D02*
D03*
Y84300D02*
D03*
X86600Y82784D02*
D03*
X88400D02*
D03*
X90200D02*
D03*
X92000D02*
D03*
X93800D02*
D03*
X95600D02*
D03*
X97400D02*
D03*
X99200D02*
D03*
X103516Y83400D02*
D03*
X121584Y79600D02*
D03*
Y83300D02*
D03*
X126000Y105484D02*
D03*
X121684Y81500D02*
D03*
X98900Y75484D02*
D03*
X102484Y79300D02*
D03*
X100800Y75484D02*
D03*
X98916Y77000D02*
D03*
X97700Y77300D02*
D03*
X97684Y79300D02*
D03*
X104100Y67884D02*
D03*
X102300Y71484D02*
D03*
D75*
X100316Y84100D02*
D03*
X46716Y77500D02*
D03*
X48684Y79300D02*
D03*
X46716Y75700D02*
D03*
X120584Y76700D02*
D03*
X108184Y69200D02*
D03*
X54016Y94800D02*
D03*
X58684Y108400D02*
D03*
X53916D02*
D03*
X108184Y71100D02*
D03*
X52184Y94800D02*
D03*
X65884Y94500D02*
D03*
Y96400D02*
D03*
Y90300D02*
D03*
Y92200D02*
D03*
X106416Y90500D02*
D03*
Y88500D02*
D03*
X93716Y107000D02*
D03*
X106416Y86200D02*
D03*
Y84300D02*
D03*
X105484Y83400D02*
D03*
X119616Y79600D02*
D03*
Y83300D02*
D03*
X119716Y81500D02*
D03*
X100516Y79300D02*
D03*
X100884Y77000D02*
D03*
X95731Y77300D02*
D03*
X95716Y79300D02*
D03*
D76*
X104200Y71584D02*
D03*
X57400Y83384D02*
D03*
X55500D02*
D03*
X56500Y88516D02*
D03*
X46500Y88116D02*
D03*
X48100Y95084D02*
D03*
X123200Y81616D02*
D03*
X116700Y88884D02*
D03*
X112500Y86316D02*
D03*
X52400Y106816D02*
D03*
X115500Y69484D02*
D03*
X115400Y70316D02*
D03*
X84800Y80816D02*
D03*
X67900D02*
D03*
X82400Y103216D02*
D03*
X83000Y80816D02*
D03*
X81200D02*
D03*
X79400D02*
D03*
X77600D02*
D03*
X75800D02*
D03*
X74000D02*
D03*
X72200D02*
D03*
X86600D02*
D03*
X88400D02*
D03*
X90200D02*
D03*
X92000D02*
D03*
X93800D02*
D03*
X95600D02*
D03*
X97400D02*
D03*
X99200D02*
D03*
X126000Y103516D02*
D03*
X98900Y73516D02*
D03*
X100800D02*
D03*
X104100Y65916D02*
D03*
X102300Y69516D02*
D03*
D77*
X103400Y80200D02*
D03*
X107400D02*
D03*
X92900Y102900D02*
D03*
X96900D02*
D03*
X52000Y87500D02*
D03*
Y91500D02*
D03*
X50700Y84400D02*
D03*
X54700D02*
D03*
X53000Y87500D02*
D03*
Y91500D02*
D03*
X109400Y75700D02*
D03*
X105400D02*
D03*
X51000Y87500D02*
D03*
Y91500D02*
D03*
X59700Y80400D02*
D03*
X55700D02*
D03*
X50800D02*
D03*
X54800D02*
D03*
X55000Y87500D02*
D03*
Y91500D02*
D03*
X55700Y84400D02*
D03*
X59700D02*
D03*
X54000Y91500D02*
D03*
Y87500D02*
D03*
X50900Y75400D02*
D03*
Y79400D02*
D03*
X49800Y75400D02*
D03*
Y79400D02*
D03*
X119200Y90000D02*
D03*
Y86000D02*
D03*
X127700Y74700D02*
D03*
Y70700D02*
D03*
X111000Y85700D02*
D03*
Y89700D02*
D03*
X45800Y75400D02*
D03*
Y79400D02*
D03*
Y84500D02*
D03*
Y80500D02*
D03*
X112600Y90200D02*
D03*
X116600D02*
D03*
X118100Y90000D02*
D03*
Y86000D02*
D03*
X49800Y80500D02*
D03*
Y84500D02*
D03*
X66500Y104800D02*
D03*
Y100800D02*
D03*
X120400Y74200D02*
D03*
X116400D02*
D03*
X120400Y73200D02*
D03*
X116400D02*
D03*
X64300Y108500D02*
D03*
X60300D02*
D03*
X43900Y96600D02*
D03*
Y92600D02*
D03*
X64300Y107500D02*
D03*
X60300D02*
D03*
X46400Y96500D02*
D03*
Y92500D02*
D03*
X41500Y96600D02*
D03*
Y92600D02*
D03*
X120400Y75200D02*
D03*
X116400D02*
D03*
X109400Y73600D02*
D03*
X105400D02*
D03*
X109400Y72600D02*
D03*
X105400D02*
D03*
X64400Y106300D02*
D03*
X60400D02*
D03*
X109400Y74600D02*
D03*
X105400D02*
D03*
X56000Y69600D02*
D03*
X52000D02*
D03*
Y70700D02*
D03*
X56000D02*
D03*
X50700Y69800D02*
D03*
X46700D02*
D03*
X117300Y68000D02*
D03*
Y72000D02*
D03*
X58800Y91500D02*
D03*
X62800D02*
D03*
X46700Y70800D02*
D03*
X50700D02*
D03*
X46700Y71800D02*
D03*
X50700D02*
D03*
X58800Y92500D02*
D03*
X62800D02*
D03*
X118500Y68000D02*
D03*
Y72000D02*
D03*
X58800Y95500D02*
D03*
X62800D02*
D03*
Y90500D02*
D03*
X58800D02*
D03*
Y94500D02*
D03*
X62800D02*
D03*
X58800Y93500D02*
D03*
X62800D02*
D03*
X77800Y102100D02*
D03*
Y106100D02*
D03*
X58800Y89300D02*
D03*
X62800D02*
D03*
X48000Y64400D02*
D03*
Y68400D02*
D03*
X65200Y84500D02*
D03*
X61200D02*
D03*
X47000Y68400D02*
D03*
Y64400D02*
D03*
X89100Y109200D02*
D03*
Y105200D02*
D03*
X69800Y106200D02*
D03*
X73800D02*
D03*
Y102600D02*
D03*
X69800D02*
D03*
X123300Y69300D02*
D03*
Y73300D02*
D03*
X123200Y85900D02*
D03*
Y89900D02*
D03*
X55000Y68400D02*
D03*
Y64400D02*
D03*
X54000Y68400D02*
D03*
Y64400D02*
D03*
X53000D02*
D03*
Y68400D02*
D03*
X52000Y64400D02*
D03*
Y68400D02*
D03*
X51000Y64400D02*
D03*
Y68400D02*
D03*
X50000D02*
D03*
Y64400D02*
D03*
X49000D02*
D03*
Y68400D02*
D03*
X97600Y108900D02*
D03*
X93600D02*
D03*
X121800Y68200D02*
D03*
X125800D02*
D03*
X123600Y78400D02*
D03*
Y74400D02*
D03*
X121900Y73300D02*
D03*
Y69300D02*
D03*
X99700Y104400D02*
D03*
Y108400D02*
D03*
X92700Y104900D02*
D03*
Y108900D02*
D03*
X107500Y81500D02*
D03*
X103500D02*
D03*
X123600Y84900D02*
D03*
X119600D02*
D03*
X88000Y106200D02*
D03*
X84000D02*
D03*
X115500Y80400D02*
D03*
Y84400D02*
D03*
X84000Y102700D02*
D03*
X88000D02*
D03*
X102100Y108300D02*
D03*
Y104300D02*
D03*
X122200Y85900D02*
D03*
Y89900D02*
D03*
X121200Y85900D02*
D03*
Y89900D02*
D03*
X56000Y71800D02*
D03*
X52000D02*
D03*
X56000Y72800D02*
D03*
X52000D02*
D03*
X56000Y73800D02*
D03*
X52000D02*
D03*
X56000Y74800D02*
D03*
X52000D02*
D03*
X56000Y75800D02*
D03*
X52000D02*
D03*
X56000Y76800D02*
D03*
X52000D02*
D03*
X63200Y82000D02*
D03*
Y78000D02*
D03*
X56000Y77800D02*
D03*
X52000D02*
D03*
X56000Y78800D02*
D03*
X52000D02*
D03*
X62200Y82000D02*
D03*
Y78000D02*
D03*
X61200Y82000D02*
D03*
Y78000D02*
D03*
X107300Y77600D02*
D03*
X103300D02*
D03*
X103400Y78900D02*
D03*
X107400D02*
D03*
X66200Y78000D02*
D03*
Y82000D02*
D03*
X102400Y64700D02*
D03*
Y68700D02*
D03*
X65200Y78000D02*
D03*
Y82000D02*
D03*
X101400Y64700D02*
D03*
Y68700D02*
D03*
X96400Y66500D02*
D03*
X100400D02*
D03*
X96400Y67500D02*
D03*
X100400D02*
D03*
X64200Y78000D02*
D03*
Y82000D02*
D03*
X96400Y68500D02*
D03*
X100400D02*
D03*
X65800Y83100D02*
D03*
X61800D02*
D03*
X59600Y75000D02*
D03*
Y79000D02*
D03*
X58600Y75000D02*
D03*
Y79000D02*
D03*
X57600Y75000D02*
D03*
Y79000D02*
D03*
X93200Y80100D02*
D03*
Y76100D02*
D03*
X109500Y67500D02*
D03*
X105500D02*
D03*
X109500Y66400D02*
D03*
X105500D02*
D03*
X109500Y65300D02*
D03*
X105500D02*
D03*
X57200Y73700D02*
D03*
Y69700D02*
D03*
D78*
X125100Y74600D02*
D03*
X126100D02*
D03*
X125100Y73600D02*
D03*
X126100D02*
D03*
X125100Y72600D02*
D03*
X126100D02*
D03*
X125100Y71600D02*
D03*
X126100D02*
D03*
X125100Y70600D02*
D03*
X105200Y107000D02*
D03*
Y108000D02*
D03*
X106200Y107000D02*
D03*
Y108000D02*
D03*
X107200Y107000D02*
D03*
Y108000D02*
D03*
X108200Y107000D02*
D03*
Y108000D02*
D03*
X109200Y107000D02*
D03*
Y108000D02*
D03*
X110200Y107000D02*
D03*
Y108000D02*
D03*
X111200Y107000D02*
D03*
Y108000D02*
D03*
X112200Y107000D02*
D03*
Y108000D02*
D03*
X113200Y107000D02*
D03*
Y108000D02*
D03*
X114200Y107000D02*
D03*
Y108000D02*
D03*
X115200Y107000D02*
D03*
Y108000D02*
D03*
X116200Y107000D02*
D03*
Y108000D02*
D03*
X117200Y107000D02*
D03*
Y108000D02*
D03*
X118200Y107000D02*
D03*
Y108000D02*
D03*
X119200Y107000D02*
D03*
Y108000D02*
D03*
X120200Y107000D02*
D03*
Y108000D02*
D03*
X121200Y107000D02*
D03*
Y108000D02*
D03*
X122200Y107000D02*
D03*
Y108000D02*
D03*
X123200Y107000D02*
D03*
Y108000D02*
D03*
X124200Y107000D02*
D03*
X125700Y93900D02*
D03*
Y94900D02*
D03*
Y95900D02*
D03*
X42000Y100100D02*
D03*
X43000Y101100D02*
D03*
X42000D02*
D03*
X43000Y102100D02*
D03*
X42000D02*
D03*
X43000Y103100D02*
D03*
X42000D02*
D03*
X43000Y104100D02*
D03*
X42000D02*
D03*
X109400Y81700D02*
D03*
X110400Y80700D02*
D03*
Y81700D02*
D03*
X111400Y80700D02*
D03*
Y81700D02*
D03*
X112400Y80700D02*
D03*
Y81700D02*
D03*
X113400Y80700D02*
D03*
Y81700D02*
D03*
X126100Y78400D02*
D03*
Y79400D02*
D03*
Y80400D02*
D03*
Y81400D02*
D03*
Y82400D02*
D03*
Y83400D02*
D03*
Y84400D02*
D03*
X125100Y77400D02*
D03*
Y78400D02*
D03*
Y79400D02*
D03*
Y80400D02*
D03*
Y81400D02*
D03*
Y82400D02*
D03*
Y83400D02*
D03*
Y84400D02*
D03*
X84400Y107800D02*
D03*
X83400Y108800D02*
D03*
Y107800D02*
D03*
X82400Y108800D02*
D03*
Y107800D02*
D03*
X81400Y108800D02*
D03*
Y107800D02*
D03*
X80400Y108800D02*
D03*
Y107800D02*
D03*
X76000D02*
D03*
X75000Y108800D02*
D03*
Y107800D02*
D03*
X74000Y108800D02*
D03*
Y107800D02*
D03*
X73000Y108800D02*
D03*
Y107800D02*
D03*
X72000Y108800D02*
D03*
Y107800D02*
D03*
X42700Y96608D02*
D03*
X45100D02*
D03*
X104100Y76408D02*
D03*
X102800D02*
D03*
X120800Y93600D02*
D03*
Y92600D02*
D03*
Y91600D02*
D03*
X123800Y94600D02*
D03*
Y93600D02*
D03*
Y92600D02*
D03*
Y91600D02*
D03*
X113800Y65600D02*
D03*
Y66600D02*
D03*
Y67600D02*
D03*
Y68600D02*
D03*
Y69600D02*
D03*
Y70600D02*
D03*
Y71600D02*
D03*
Y72600D02*
D03*
Y73600D02*
D03*
Y74600D02*
D03*
Y75600D02*
D03*
Y76600D02*
D03*
Y77600D02*
D03*
Y78600D02*
D03*
X110800Y65600D02*
D03*
Y66600D02*
D03*
Y67600D02*
D03*
Y68600D02*
D03*
Y69600D02*
D03*
Y70600D02*
D03*
Y71600D02*
D03*
Y72600D02*
D03*
Y73600D02*
D03*
Y74600D02*
D03*
Y75600D02*
D03*
Y76600D02*
D03*
Y77600D02*
D03*
X46700Y98900D02*
D03*
X47700D02*
D03*
X48700D02*
D03*
X49700D02*
D03*
X50700D02*
D03*
X51700D02*
D03*
X52700D02*
D03*
X53700D02*
D03*
X54700D02*
D03*
X55700D02*
D03*
X56700D02*
D03*
X57700D02*
D03*
X58700D02*
D03*
X59700D02*
D03*
X60700D02*
D03*
X61700D02*
D03*
X62700D02*
D03*
X63700D02*
D03*
X64700D02*
D03*
X45700Y104900D02*
D03*
X46700D02*
D03*
X47700D02*
D03*
X48700D02*
D03*
X49700D02*
D03*
X50700D02*
D03*
X51700D02*
D03*
X52700D02*
D03*
X53700D02*
D03*
X54700D02*
D03*
X55700D02*
D03*
X56700D02*
D03*
X57700D02*
D03*
X58700D02*
D03*
X59700D02*
D03*
X60700D02*
D03*
X61700D02*
D03*
X62700D02*
D03*
X63700D02*
D03*
X64700D02*
D03*
D79*
X126100Y70600D02*
D03*
X125700Y96900D02*
D03*
X43000Y100100D02*
D03*
X126100Y77400D02*
D03*
X42700Y92592D02*
D03*
X45100D02*
D03*
X104100Y72392D02*
D03*
X102800D02*
D03*
X45700Y98900D02*
D03*
X115200Y73500D02*
D03*
X78200Y107500D02*
D03*
Y109000D02*
D03*
D80*
X124200Y108000D02*
D03*
X109400Y80700D02*
D03*
X84400Y108800D02*
D03*
X76000D02*
D03*
X120800Y94600D02*
D03*
X110800Y78600D02*
D03*
X67600Y79200D02*
D03*
D81*
X42055Y76850D02*
D03*
X42105Y81950D02*
D03*
X42100Y84050D02*
D03*
X42150Y89150D02*
D03*
X42000Y69700D02*
D03*
X42050Y74800D02*
D03*
D82*
X53500Y82900D02*
D03*
Y82400D02*
D03*
X51900Y81900D02*
D03*
Y82400D02*
D03*
D83*
X53500Y81900D02*
D03*
X51900Y82900D02*
D03*
D84*
X48200Y90100D02*
D03*
X48700D02*
D03*
X49200Y88800D02*
D03*
X48700D02*
D03*
X115000Y86600D02*
D03*
X114500D02*
D03*
X48300Y81300D02*
D03*
X47800D02*
D03*
X114000Y88000D02*
D03*
X114500D02*
D03*
X47300Y82900D02*
D03*
X47800D02*
D03*
D85*
X49200Y90100D02*
D03*
X48200Y88800D02*
D03*
X114000Y86600D02*
D03*
X47300Y81300D02*
D03*
X115000Y88000D02*
D03*
X48300Y82900D02*
D03*
D86*
X125900Y99500D02*
D03*
Y100500D02*
D03*
D87*
Y101500D02*
D03*
D88*
X67900Y101700D02*
D03*
X76600Y103900D02*
D03*
X75300D02*
D03*
X90400Y106500D02*
D03*
X91600D02*
D03*
D89*
X67900Y103700D02*
D03*
X47400Y108500D02*
D03*
X76600Y105900D02*
D03*
X75300D02*
D03*
X90400Y108500D02*
D03*
X91600D02*
D03*
D90*
X49400D02*
D03*
D91*
X56810Y106400D02*
D03*
X55590D02*
D03*
X109600Y68890D02*
D03*
Y70110D02*
D03*
X53710Y96500D02*
D03*
X52490D02*
D03*
X67100Y94790D02*
D03*
Y96010D02*
D03*
X67000Y90590D02*
D03*
Y91810D02*
D03*
X105100Y88890D02*
D03*
Y90110D02*
D03*
Y84690D02*
D03*
Y85910D02*
D03*
X94400Y78910D02*
D03*
Y77690D02*
D03*
D92*
X94200Y69259D02*
D03*
D93*
Y65141D02*
D03*
D94*
X77296Y68550D02*
D03*
X74210Y68280D02*
D03*
X74206Y64680D02*
D03*
X76130Y62890D02*
D03*
X73750Y64670D02*
D03*
X68980Y69313D02*
D03*
X71000Y71100D02*
D03*
X95343Y72630D02*
D03*
X98798Y73000D02*
D03*
X125670Y85310D02*
D03*
X85350Y63940D02*
D03*
Y71040D02*
D03*
X78109Y71620D02*
D03*
X84853Y69500D02*
D03*
X79520Y70800D02*
D03*
X78230Y71102D02*
D03*
X83290Y71130D02*
D03*
Y64310D02*
D03*
X73380Y64930D02*
D03*
X74000Y63640D02*
D03*
X57380Y63814D02*
D03*
Y63730D02*
D03*
X62900Y63200D02*
D03*
X55290Y65040D02*
D03*
X79880Y63270D02*
D03*
X42050Y70750D02*
D03*
X84380Y64670D02*
D03*
X66880Y64490D02*
D03*
X78234Y72676D02*
D03*
X67630Y62880D02*
D03*
X69880Y63317D02*
D03*
X70130Y65000D02*
D03*
X84380Y72470D02*
D03*
X64880Y62970D02*
D03*
Y64120D02*
D03*
X85860Y72470D02*
D03*
X80460Y65040D02*
D03*
X84380Y63790D02*
D03*
X69880Y65000D02*
D03*
X79779Y70509D02*
D03*
X79780Y72330D02*
D03*
X75584Y69940D02*
D03*
X79779Y72331D02*
D03*
X79780Y70510D02*
D03*
X76909Y69940D02*
D03*
X76880Y63410D02*
D03*
X76130Y63470D02*
D03*
X72880Y63570D02*
D03*
X74783Y71350D02*
D03*
X41320Y80900D02*
D03*
X43820Y80740D02*
D03*
X60520Y63160D02*
D03*
X65407Y64580D02*
D03*
Y65739D02*
D03*
X85597Y65523D02*
D03*
X84000Y103750D02*
D03*
X63416Y64216D02*
D03*
X59700Y63200D02*
D03*
X56100Y66300D02*
D03*
X58130Y64130D02*
D03*
X61480Y63310D02*
D03*
X69050Y109620D02*
D03*
X74790Y106910D02*
D03*
X45010Y68810D02*
D03*
X90000Y67490D02*
D03*
X96171Y96471D02*
D03*
X48130Y70830D02*
D03*
X76335Y71475D02*
D03*
X77553Y70257D02*
D03*
X93170Y75420D02*
D03*
X75191Y75720D02*
D03*
X98050Y72630D02*
D03*
X73390Y67520D02*
D03*
X74300Y70133D02*
D03*
X68750Y65000D02*
D03*
X71190Y63750D02*
D03*
X75110Y63580D02*
D03*
X82300Y66310D02*
D03*
X82050Y69290D02*
D03*
X74403Y69580D02*
D03*
X92600Y89810D02*
D03*
X107960Y92910D02*
D03*
X106770Y109500D02*
D03*
X113200Y109600D02*
D03*
X114140D02*
D03*
X122570D02*
D03*
X78030Y63464D02*
D03*
X73438Y64402D02*
D03*
X70770Y73270D02*
D03*
X82880Y62960D02*
D03*
X82690Y63620D02*
D03*
X111104Y93753D02*
D03*
X58380Y62920D02*
D03*
X87570Y104660D02*
D03*
X88230Y104250D02*
D03*
X111104Y100500D02*
D03*
X111626Y96920D02*
D03*
X117404D02*
D03*
X97302Y73708D02*
D03*
X86380Y62920D02*
D03*
X123610Y87910D02*
D03*
X54640Y72040D02*
D03*
X83880Y69897D02*
D03*
X77980Y70314D02*
D03*
X82600Y71410D02*
D03*
X84130Y63550D02*
D03*
X82049Y64511D02*
D03*
X80380Y64240D02*
D03*
X78600Y64890D02*
D03*
X75530Y67560D02*
D03*
Y64070D02*
D03*
X72230Y63225D02*
D03*
X71543Y63213D02*
D03*
X70630Y63250D02*
D03*
X70130Y62970D02*
D03*
X69380Y64750D02*
D03*
X69680Y68340D02*
D03*
X69770Y70314D02*
D03*
X70890Y70261D02*
D03*
X68210Y64180D02*
D03*
Y68215D02*
D03*
X69228Y70206D02*
D03*
X67380Y63660D02*
D03*
X68500Y64730D02*
D03*
Y68089D02*
D03*
X71140Y70518D02*
D03*
X66630Y63530D02*
D03*
Y68060D02*
D03*
X67130Y68560D02*
D03*
X66380Y70500D02*
D03*
X70770Y71692D02*
D03*
X65880Y63690D02*
D03*
Y70720D02*
D03*
X69850Y71890D02*
D03*
X66220Y71340D02*
D03*
X71380Y73520D02*
D03*
X119220Y67440D02*
D03*
X121610Y98310D02*
D03*
X117660D02*
D03*
X82440Y63940D02*
D03*
X69940Y68738D02*
D03*
X71254Y69580D02*
D03*
X86340Y105250D02*
D03*
X92250Y104580D02*
D03*
X90100Y98529D02*
D03*
X65521Y71830D02*
D03*
X69750Y73320D02*
D03*
X79420Y99800D02*
D03*
X84536Y89244D02*
D03*
X42050Y75570D02*
D03*
X48500Y72700D02*
D03*
X43610Y101530D02*
D03*
X69030Y76080D02*
D03*
X71254D02*
D03*
X95498Y73892D02*
D03*
X72140Y104150D02*
D03*
X91080Y107000D02*
D03*
X92330D02*
D03*
X113152Y97170D02*
D03*
X119452D02*
D03*
X64300Y64300D02*
D03*
X43784Y81270D02*
D03*
X114480Y74920D02*
D03*
X71030Y64550D02*
D03*
X58780Y63210D02*
D03*
X49500Y64280D02*
D03*
X85380Y62920D02*
D03*
X61570Y68090D02*
D03*
X65360Y75580D02*
D03*
X57340Y96500D02*
D03*
X53850Y97860D02*
D03*
X93490Y96210D02*
D03*
X87655Y86105D02*
D03*
X71420Y96600D02*
D03*
X68900Y98100D02*
D03*
X68030Y95450D02*
D03*
X98210Y94530D02*
D03*
Y88207D02*
D03*
X88510Y87840D02*
D03*
X78260Y99779D02*
D03*
X78610Y101360D02*
D03*
X91303Y102120D02*
D03*
X66300Y97100D02*
D03*
X48560Y87820D02*
D03*
X46390Y87090D02*
D03*
X55500Y82490D02*
D03*
X60800Y73020D02*
D03*
X114200Y89670D02*
D03*
X48870Y73470D02*
D03*
X100720Y87960D02*
D03*
X113152Y94180D02*
D03*
X117300Y76260D02*
D03*
X70397Y102600D02*
D03*
X46250Y71260D02*
D03*
X48720Y74500D02*
D03*
X43530Y106590D02*
D03*
X116020Y81210D02*
D03*
X101840Y106200D02*
D03*
X79890Y100290D02*
D03*
X108890Y76020D02*
D03*
X51000Y89980D02*
D03*
X114840Y71290D02*
D03*
X78680Y106050D02*
D03*
X62396Y88680D02*
D03*
X107270Y85410D02*
D03*
X99700Y95090D02*
D03*
X96380Y81330D02*
D03*
X77310Y84910D02*
D03*
X57960Y90904D02*
D03*
X75100Y90700D02*
D03*
X47150Y109560D02*
D03*
X52440Y99640D02*
D03*
X52880Y106030D02*
D03*
X66137Y86493D02*
D03*
X114330Y85720D02*
D03*
X75680Y78330D02*
D03*
X49970Y88880D02*
D03*
X103850Y81010D02*
D03*
X114910Y81860D02*
D03*
X76280Y63977D02*
D03*
X65160Y63440D02*
D03*
X69070Y72280D02*
D03*
X75405Y72530D02*
D03*
X81650Y82040D02*
D03*
X87997Y83827D02*
D03*
X104460Y105600D02*
D03*
X109810Y73350D02*
D03*
X118800Y102050D02*
D03*
X72020Y106770D02*
D03*
X77360Y104870D02*
D03*
X118250Y100540D02*
D03*
X65870Y99860D02*
D03*
X108380Y100700D02*
D03*
Y99080D02*
D03*
X110598D02*
D03*
X50250Y100460D02*
D03*
X113800Y103210D02*
D03*
X77100Y85900D02*
D03*
X107980Y85640D02*
D03*
X108860Y92620D02*
D03*
X83110Y97570D02*
D03*
X84420Y100740D02*
D03*
X110650Y99820D02*
D03*
X116200Y94910D02*
D03*
X118290D02*
D03*
X78280Y85350D02*
D03*
X100470Y85520D02*
D03*
X100920Y103420D02*
D03*
X117250Y100900D02*
D03*
X110848Y96380D02*
D03*
X110540Y96650D02*
D03*
X110200Y92020D02*
D03*
X97170Y102250D02*
D03*
X112200Y101100D02*
D03*
X99630Y94050D02*
D03*
X100090Y102839D02*
D03*
X113200Y102650D02*
D03*
X114750Y95695D02*
D03*
X91171Y100820D02*
D03*
X96160Y100380D02*
D03*
X112860Y95070D02*
D03*
X115000D02*
D03*
X112896Y96630D02*
D03*
X124130Y105350D02*
D03*
X95460Y108500D02*
D03*
X105820Y109480D02*
D03*
X106950Y95310D02*
D03*
X68204Y109989D02*
D03*
X70980Y87850D02*
D03*
X75570Y100840D02*
D03*
X115360Y102250D02*
D03*
X87270Y103400D02*
D03*
X107770Y103150D02*
D03*
X107019Y102019D02*
D03*
X50910Y65310D02*
D03*
X75960Y65780D02*
D03*
X76380Y63160D02*
D03*
X84850Y87930D02*
D03*
X127030Y87520D02*
D03*
X82090Y84760D02*
D03*
X78530Y83560D02*
D03*
X75670Y96640D02*
D03*
Y85241D02*
D03*
X106246Y80610D02*
D03*
X93520Y89730D02*
D03*
X104820Y91230D02*
D03*
X106800Y87080D02*
D03*
X113795Y85825D02*
D03*
X115910Y83506D02*
D03*
X93856Y100297D02*
D03*
X116450Y96260D02*
D03*
X115930Y98430D02*
D03*
X94600Y100610D02*
D03*
X59770Y68380D02*
D03*
X75780Y66880D02*
D03*
X75630Y63490D02*
D03*
X41540Y97420D02*
D03*
X70150Y103400D02*
D03*
X43820Y82870D02*
D03*
X71460Y104650D02*
D03*
X43820Y89130D02*
D03*
X84610Y92270D02*
D03*
X43910Y87430D02*
D03*
X86530Y83300D02*
D03*
X44052Y78490D02*
D03*
X85110Y80050D02*
D03*
X40970Y98070D02*
D03*
X84317Y104750D02*
D03*
X44250Y86660D02*
D03*
X43490Y83703D02*
D03*
X104660Y92370D02*
D03*
X46700Y105690D02*
D03*
X80360Y89450D02*
D03*
X105160Y105130D02*
D03*
X50700Y92190D02*
D03*
X56390Y68370D02*
D03*
X109150Y103380D02*
D03*
X56660Y70700D02*
D03*
X81790Y67530D02*
D03*
X74700Y63520D02*
D03*
X72100Y88800D02*
D03*
X98820Y91260D02*
D03*
X99680Y94720D02*
D03*
X111360Y95310D02*
D03*
X83330Y89230D02*
D03*
X100510Y91140D02*
D03*
X104730Y95060D02*
D03*
X111610D02*
D03*
X111515Y99231D02*
D03*
X109610Y92700D02*
D03*
X110590Y87710D02*
D03*
X43740Y97440D02*
D03*
X105810Y72170D02*
D03*
X61050Y65584D02*
D03*
X61765Y83900D02*
D03*
X118540Y83120D02*
D03*
X111150Y81276D02*
D03*
X111480Y79180D02*
D03*
X106963Y86180D02*
D03*
X76945Y74805D02*
D03*
X77553Y76220D02*
D03*
X78200Y76340D02*
D03*
X84100Y92110D02*
D03*
X82690Y97100D02*
D03*
X52410Y77390D02*
D03*
X87000Y79160D02*
D03*
X56410Y82070D02*
D03*
X79000Y83050D02*
D03*
X48376Y73586D02*
D03*
X57190Y76760D02*
D03*
X74970Y76960D02*
D03*
X74206Y74308D02*
D03*
X72510Y78490D02*
D03*
X53590Y71760D02*
D03*
X74994Y74246D02*
D03*
X75590Y77330D02*
D03*
X51212Y73422D02*
D03*
X75135Y73680D02*
D03*
X53340Y75140D02*
D03*
X76372Y76897D02*
D03*
X76570Y74181D02*
D03*
X71450Y68650D02*
D03*
X77500Y67990D02*
D03*
X71990Y73003D02*
D03*
X103910Y73960D02*
D03*
X74120Y72070D02*
D03*
X101460Y70911D02*
D03*
X95500Y75870D02*
D03*
X86220Y75900D02*
D03*
X72435Y77391D02*
D03*
X72238Y74572D02*
D03*
X93660Y74580D02*
D03*
X70757Y79200D02*
D03*
X58200Y73490D02*
D03*
X71350Y74690D02*
D03*
X71647Y76080D02*
D03*
X61960D02*
D03*
X72220Y78310D02*
D03*
X44602Y83962D02*
D03*
X44070Y77240D02*
D03*
X90910Y79710D02*
D03*
X123120Y102080D02*
D03*
X47516Y105360D02*
D03*
X43570Y90430D02*
D03*
X65250Y98480D02*
D03*
X98620Y104340D02*
D03*
X115000Y103710D02*
D03*
M02*
