G04*
G04 #@! TF.GenerationSoftware,Altium Limited,Altium Designer,19.1.7 (138)*
G04*
G04 Layer_Color=16711935*
%FSLAX24Y24*%
%MOIN*%
G70*
G01*
G75*
%ADD18R,3.1550X0.3000*%
%ADD28O,0.0440X0.2040*%
%ADD29C,0.0640*%
%ADD30C,0.0512*%
%ADD31C,0.0690*%
%ADD32C,0.0670*%
%ADD33R,0.0670X0.0670*%
%ADD34C,0.1536*%
%ADD35C,0.0572*%
%ADD36R,0.0572X0.0572*%
%ADD37R,0.0572X0.0572*%
%ADD38C,0.0591*%
%ADD39C,0.0631*%
%ADD40R,0.0631X0.0631*%
%ADD41R,0.0631X0.0631*%
%ADD42R,0.1240X0.1040*%
%ADD43O,0.0827X0.0434*%
%ADD44O,0.0827X0.0434*%
%ADD45O,0.0434X0.0827*%
%ADD46O,0.0434X0.0827*%
%ADD47C,0.0709*%
%ADD48R,0.0709X0.0709*%
%ADD49R,0.0768X0.0768*%
%ADD50C,0.0768*%
%ADD51R,0.0768X0.0768*%
%ADD52C,0.0552*%
%ADD53C,0.0827*%
%ADD54R,0.0827X0.0827*%
%ADD55C,0.0276*%
D18*
X71605Y61300D02*
D03*
D28*
X80380Y61750D02*
D03*
X79880D02*
D03*
X86880D02*
D03*
X86380D02*
D03*
X85880D02*
D03*
X85380D02*
D03*
X84880D02*
D03*
X84380D02*
D03*
X83880D02*
D03*
X83380D02*
D03*
X82880D02*
D03*
X82380D02*
D03*
X81880D02*
D03*
X79380D02*
D03*
X78880D02*
D03*
X78380D02*
D03*
X77880D02*
D03*
X77380D02*
D03*
X76880D02*
D03*
X76380D02*
D03*
X75880D02*
D03*
X75380D02*
D03*
X74880D02*
D03*
X74380D02*
D03*
X73880D02*
D03*
X73380D02*
D03*
X72880D02*
D03*
X72380D02*
D03*
X71880D02*
D03*
X71380D02*
D03*
X70880D02*
D03*
X70380D02*
D03*
X69880D02*
D03*
X69380D02*
D03*
X68880D02*
D03*
X68380D02*
D03*
X67880D02*
D03*
X67380D02*
D03*
X66880D02*
D03*
X66380D02*
D03*
X65880D02*
D03*
X65380D02*
D03*
X64880D02*
D03*
X64380D02*
D03*
X63880D02*
D03*
X63380D02*
D03*
X62880D02*
D03*
X61380D02*
D03*
X60880D02*
D03*
X60380D02*
D03*
X59880D02*
D03*
X59380D02*
D03*
X58880D02*
D03*
X58380D02*
D03*
X57880D02*
D03*
X57380D02*
D03*
X56880D02*
D03*
X56380D02*
D03*
D29*
X43654Y67938D02*
D03*
X41254D02*
D03*
X88600Y99100D02*
D03*
X89600D02*
D03*
Y98100D02*
D03*
X88600D02*
D03*
X90600D02*
D03*
Y99100D02*
D03*
X91600Y98100D02*
D03*
Y99100D02*
D03*
X92600Y98100D02*
D03*
Y99100D02*
D03*
X93600D02*
D03*
Y98100D02*
D03*
X94600Y99100D02*
D03*
Y98100D02*
D03*
X97600Y99100D02*
D03*
Y98100D02*
D03*
X95600D02*
D03*
X96600D02*
D03*
Y99100D02*
D03*
X95600D02*
D03*
X102600Y98100D02*
D03*
X103600Y99100D02*
D03*
Y98100D02*
D03*
X89600Y97100D02*
D03*
X88600D02*
D03*
X89600Y96100D02*
D03*
X88600D02*
D03*
X89600Y92100D02*
D03*
X88600D02*
D03*
X89600Y93100D02*
D03*
X88600D02*
D03*
Y94100D02*
D03*
X89600D02*
D03*
X88600Y95100D02*
D03*
X89600D02*
D03*
Y87100D02*
D03*
X88600D02*
D03*
X103600D02*
D03*
X95600Y88100D02*
D03*
X96600D02*
D03*
Y87100D02*
D03*
X95600D02*
D03*
X97600D02*
D03*
X94600D02*
D03*
Y88100D02*
D03*
X93600Y87100D02*
D03*
Y88100D02*
D03*
X92600D02*
D03*
Y87100D02*
D03*
X91600Y88100D02*
D03*
Y87100D02*
D03*
X90600Y88100D02*
D03*
Y87100D02*
D03*
X103600Y95100D02*
D03*
X102600D02*
D03*
X103600Y94100D02*
D03*
X102600D02*
D03*
Y93100D02*
D03*
X103600D02*
D03*
X102600Y92100D02*
D03*
X103600D02*
D03*
X102600Y91100D02*
D03*
Y96100D02*
D03*
X103600D02*
D03*
X102600Y97100D02*
D03*
X103600D02*
D03*
X86100D02*
D03*
X85100D02*
D03*
X86100Y96100D02*
D03*
X85100D02*
D03*
Y91100D02*
D03*
X86100Y92100D02*
D03*
X85100D02*
D03*
X86100Y93100D02*
D03*
X85100D02*
D03*
Y94100D02*
D03*
X86100D02*
D03*
X85100Y95100D02*
D03*
X86100D02*
D03*
X73100Y87100D02*
D03*
Y88100D02*
D03*
X74100Y87100D02*
D03*
Y88100D02*
D03*
X75100Y87100D02*
D03*
Y88100D02*
D03*
X76100D02*
D03*
Y87100D02*
D03*
X77100Y88100D02*
D03*
Y87100D02*
D03*
X80100D02*
D03*
X78100D02*
D03*
X79100D02*
D03*
Y88100D02*
D03*
X78100D02*
D03*
X86100Y87100D02*
D03*
X71100D02*
D03*
X72100D02*
D03*
Y95100D02*
D03*
X71100D02*
D03*
X72100Y94100D02*
D03*
X71100D02*
D03*
Y93100D02*
D03*
X72100D02*
D03*
X71100Y92100D02*
D03*
X72100D02*
D03*
X71100Y96100D02*
D03*
X72100D02*
D03*
X71100Y97100D02*
D03*
X72100D02*
D03*
X86100Y98100D02*
D03*
Y99100D02*
D03*
X85100Y98100D02*
D03*
X78100Y99100D02*
D03*
X79100D02*
D03*
Y98100D02*
D03*
X78100D02*
D03*
X80100D02*
D03*
Y99100D02*
D03*
X77100Y98100D02*
D03*
Y99100D02*
D03*
X76100Y98100D02*
D03*
Y99100D02*
D03*
X75100D02*
D03*
Y98100D02*
D03*
X74100Y99100D02*
D03*
Y98100D02*
D03*
X73100Y99100D02*
D03*
Y98100D02*
D03*
X71100D02*
D03*
X72100D02*
D03*
Y99100D02*
D03*
X71100D02*
D03*
X103200Y107500D02*
D03*
X126200D02*
D03*
D30*
X94200Y73500D02*
D03*
Y74500D02*
D03*
X94100Y70700D02*
D03*
Y71700D02*
D03*
X123500Y65800D02*
D03*
Y66800D02*
D03*
X120400Y69800D02*
D03*
Y71800D02*
D03*
X115100Y75900D02*
D03*
Y74900D02*
D03*
X101900Y81300D02*
D03*
Y82300D02*
D03*
X100700Y81300D02*
D03*
Y82300D02*
D03*
X122100Y66900D02*
D03*
Y65900D02*
D03*
X128200Y94800D02*
D03*
Y95800D02*
D03*
X116100Y65500D02*
D03*
Y66500D02*
D03*
X70700Y81300D02*
D03*
Y82300D02*
D03*
X69400Y81300D02*
D03*
Y82300D02*
D03*
X50300Y73000D02*
D03*
Y74000D02*
D03*
X65400Y106300D02*
D03*
X66400D02*
D03*
X118500Y66900D02*
D03*
Y65900D02*
D03*
X117300Y66900D02*
D03*
Y65900D02*
D03*
X46800Y74100D02*
D03*
Y73100D02*
D03*
X44900Y89500D02*
D03*
Y88500D02*
D03*
X59500Y81900D02*
D03*
Y82900D02*
D03*
X80600Y103500D02*
D03*
Y104500D02*
D03*
X125000Y66300D02*
D03*
X127000D02*
D03*
X97900Y106800D02*
D03*
X96900D02*
D03*
X48300Y84800D02*
D03*
X47300D02*
D03*
X109800Y87100D02*
D03*
Y88100D02*
D03*
X109300Y78700D02*
D03*
Y77700D02*
D03*
X114800Y65500D02*
D03*
Y66500D02*
D03*
X111800Y84300D02*
D03*
Y83300D02*
D03*
X42100Y106300D02*
D03*
X43100D02*
D03*
X42900Y90500D02*
D03*
X41900D02*
D03*
X114200Y83300D02*
D03*
Y84300D02*
D03*
X113000Y83300D02*
D03*
Y84300D02*
D03*
X109400Y83300D02*
D03*
Y84300D02*
D03*
X110600Y83300D02*
D03*
Y84300D02*
D03*
X45700Y108500D02*
D03*
X44700D02*
D03*
X65600Y107800D02*
D03*
X66600D02*
D03*
X45700Y107300D02*
D03*
X44700D02*
D03*
X42100Y107500D02*
D03*
Y108500D02*
D03*
X43300Y107500D02*
D03*
Y108500D02*
D03*
X116900Y79300D02*
D03*
Y78300D02*
D03*
X118100Y79300D02*
D03*
Y78300D02*
D03*
X120400Y68000D02*
D03*
Y66000D02*
D03*
X118100Y80600D02*
D03*
X117100D02*
D03*
X118100Y81800D02*
D03*
X117100D02*
D03*
X118100Y83000D02*
D03*
X117100D02*
D03*
X118100Y84200D02*
D03*
X117100D02*
D03*
X63800Y85600D02*
D03*
Y86600D02*
D03*
X87200Y108800D02*
D03*
X86200D02*
D03*
Y107500D02*
D03*
X87200D02*
D03*
X62600Y85600D02*
D03*
Y86600D02*
D03*
X65000Y85600D02*
D03*
Y86600D02*
D03*
X45800Y67000D02*
D03*
Y68000D02*
D03*
X61400Y85600D02*
D03*
Y86600D02*
D03*
X115200Y78500D02*
D03*
Y77500D02*
D03*
X122000Y74500D02*
D03*
Y75500D02*
D03*
Y77900D02*
D03*
Y76900D02*
D03*
X100800Y107800D02*
D03*
Y106800D02*
D03*
X68700Y108700D02*
D03*
Y107700D02*
D03*
X69900D02*
D03*
Y108700D02*
D03*
X100800Y105500D02*
D03*
Y104500D02*
D03*
D31*
X127100Y93900D02*
D03*
Y95900D02*
D03*
Y94900D02*
D03*
Y96900D02*
D03*
D32*
X125086Y89894D02*
D03*
Y90878D02*
D03*
Y89106D02*
D03*
X43050Y63894D02*
D03*
Y62122D02*
D03*
Y63106D02*
D03*
D33*
X125086Y88122D02*
D03*
X43050Y64878D02*
D03*
D34*
X126153Y86913D02*
D03*
Y92087D02*
D03*
X41983Y60913D02*
D03*
Y66087D02*
D03*
D35*
X102284Y84100D02*
D03*
X104200Y69616D02*
D03*
X57400Y81416D02*
D03*
X55500D02*
D03*
X56500Y90484D02*
D03*
X46500Y90084D02*
D03*
X48100Y93116D02*
D03*
X123200Y83584D02*
D03*
X48684Y77500D02*
D03*
X46716Y79300D02*
D03*
X116700Y86916D02*
D03*
X112500Y88284D02*
D03*
X48684Y75700D02*
D03*
X118616Y76700D02*
D03*
X52400Y108784D02*
D03*
X115500Y67516D02*
D03*
X106216Y69200D02*
D03*
X55984Y94800D02*
D03*
X56716Y108400D02*
D03*
X55884D02*
D03*
X115400Y72284D02*
D03*
X106216Y71100D02*
D03*
X50216Y94800D02*
D03*
X63916Y94500D02*
D03*
X84800Y82784D02*
D03*
X67900D02*
D03*
X63916Y96400D02*
D03*
X82400Y105184D02*
D03*
X63916Y90300D02*
D03*
Y92200D02*
D03*
X83000Y82784D02*
D03*
X81200D02*
D03*
X79400D02*
D03*
X77600D02*
D03*
X75800D02*
D03*
X74000D02*
D03*
X72200D02*
D03*
X108384Y90500D02*
D03*
Y88500D02*
D03*
X95684Y107000D02*
D03*
X108384Y86200D02*
D03*
Y84300D02*
D03*
X86600Y82784D02*
D03*
X88400D02*
D03*
X90200D02*
D03*
X92000D02*
D03*
X93800D02*
D03*
X95600D02*
D03*
X97400D02*
D03*
X99200D02*
D03*
X103516Y83400D02*
D03*
X121584Y79600D02*
D03*
Y83300D02*
D03*
X126000Y105484D02*
D03*
X121684Y81500D02*
D03*
X98900Y75484D02*
D03*
X102484Y79300D02*
D03*
X100800Y75484D02*
D03*
X98916Y77000D02*
D03*
X97700Y77300D02*
D03*
X97684Y79300D02*
D03*
X104100Y67884D02*
D03*
X102300Y71484D02*
D03*
D36*
X100316Y84100D02*
D03*
X46716Y77500D02*
D03*
X48684Y79300D02*
D03*
X46716Y75700D02*
D03*
X120584Y76700D02*
D03*
X108184Y69200D02*
D03*
X54016Y94800D02*
D03*
X58684Y108400D02*
D03*
X53916D02*
D03*
X108184Y71100D02*
D03*
X52184Y94800D02*
D03*
X65884Y94500D02*
D03*
Y96400D02*
D03*
Y90300D02*
D03*
Y92200D02*
D03*
X106416Y90500D02*
D03*
Y88500D02*
D03*
X93716Y107000D02*
D03*
X106416Y86200D02*
D03*
Y84300D02*
D03*
X105484Y83400D02*
D03*
X119616Y79600D02*
D03*
Y83300D02*
D03*
X119716Y81500D02*
D03*
X100516Y79300D02*
D03*
X100884Y77000D02*
D03*
X95731Y77300D02*
D03*
X95716Y79300D02*
D03*
D37*
X104200Y71584D02*
D03*
X57400Y83384D02*
D03*
X55500D02*
D03*
X56500Y88516D02*
D03*
X46500Y88116D02*
D03*
X48100Y95084D02*
D03*
X123200Y81616D02*
D03*
X116700Y88884D02*
D03*
X112500Y86316D02*
D03*
X52400Y106816D02*
D03*
X115500Y69484D02*
D03*
X115400Y70316D02*
D03*
X84800Y80816D02*
D03*
X67900D02*
D03*
X82400Y103216D02*
D03*
X83000Y80816D02*
D03*
X81200D02*
D03*
X79400D02*
D03*
X77600D02*
D03*
X75800D02*
D03*
X74000D02*
D03*
X72200D02*
D03*
X86600D02*
D03*
X88400D02*
D03*
X90200D02*
D03*
X92000D02*
D03*
X93800D02*
D03*
X95600D02*
D03*
X97400D02*
D03*
X99200D02*
D03*
X126000Y103516D02*
D03*
X98900Y73516D02*
D03*
X100800D02*
D03*
X104100Y65916D02*
D03*
X102300Y69516D02*
D03*
D38*
X103400Y80200D02*
D03*
X107400D02*
D03*
X92900Y102900D02*
D03*
X96900D02*
D03*
X52000Y87500D02*
D03*
Y91500D02*
D03*
X50700Y84400D02*
D03*
X54700D02*
D03*
X53000Y87500D02*
D03*
Y91500D02*
D03*
X109400Y75700D02*
D03*
X105400D02*
D03*
X51000Y87500D02*
D03*
Y91500D02*
D03*
X59700Y80400D02*
D03*
X55700D02*
D03*
X50800D02*
D03*
X54800D02*
D03*
X55000Y87500D02*
D03*
Y91500D02*
D03*
X55700Y84400D02*
D03*
X59700D02*
D03*
X54000Y91500D02*
D03*
Y87500D02*
D03*
X50900Y75400D02*
D03*
Y79400D02*
D03*
X49800Y75400D02*
D03*
Y79400D02*
D03*
X119200Y90000D02*
D03*
Y86000D02*
D03*
X127700Y74700D02*
D03*
Y70700D02*
D03*
X111000Y85700D02*
D03*
Y89700D02*
D03*
X45800Y75400D02*
D03*
Y79400D02*
D03*
Y84500D02*
D03*
Y80500D02*
D03*
X112600Y90200D02*
D03*
X116600D02*
D03*
X118100Y90000D02*
D03*
Y86000D02*
D03*
X49800Y80500D02*
D03*
Y84500D02*
D03*
X66500Y104800D02*
D03*
Y100800D02*
D03*
X120400Y74200D02*
D03*
X116400D02*
D03*
X120400Y73200D02*
D03*
X116400D02*
D03*
X64300Y108500D02*
D03*
X60300D02*
D03*
X43900Y96600D02*
D03*
Y92600D02*
D03*
X64300Y107500D02*
D03*
X60300D02*
D03*
X46400Y96500D02*
D03*
Y92500D02*
D03*
X41500Y96600D02*
D03*
Y92600D02*
D03*
X120400Y75200D02*
D03*
X116400D02*
D03*
X109400Y73600D02*
D03*
X105400D02*
D03*
X109400Y72600D02*
D03*
X105400D02*
D03*
X64400Y106300D02*
D03*
X60400D02*
D03*
X109400Y74600D02*
D03*
X105400D02*
D03*
X56000Y69600D02*
D03*
X52000D02*
D03*
Y70700D02*
D03*
X56000D02*
D03*
X50700Y69800D02*
D03*
X46700D02*
D03*
X117300Y68000D02*
D03*
Y72000D02*
D03*
X58800Y91500D02*
D03*
X62800D02*
D03*
X46700Y70800D02*
D03*
X50700D02*
D03*
X46700Y71800D02*
D03*
X50700D02*
D03*
X58800Y92500D02*
D03*
X62800D02*
D03*
X118500Y68000D02*
D03*
Y72000D02*
D03*
X58800Y95500D02*
D03*
X62800D02*
D03*
Y90500D02*
D03*
X58800D02*
D03*
Y94500D02*
D03*
X62800D02*
D03*
X58800Y93500D02*
D03*
X62800D02*
D03*
X77800Y102100D02*
D03*
Y106100D02*
D03*
X58800Y89300D02*
D03*
X62800D02*
D03*
X48000Y64400D02*
D03*
Y68400D02*
D03*
X65200Y84500D02*
D03*
X61200D02*
D03*
X47000Y68400D02*
D03*
Y64400D02*
D03*
X89100Y109200D02*
D03*
Y105200D02*
D03*
X69800Y106200D02*
D03*
X73800D02*
D03*
Y102600D02*
D03*
X69800D02*
D03*
X123300Y69300D02*
D03*
Y73300D02*
D03*
X123200Y85900D02*
D03*
Y89900D02*
D03*
X55000Y68400D02*
D03*
Y64400D02*
D03*
X54000Y68400D02*
D03*
Y64400D02*
D03*
X53000D02*
D03*
Y68400D02*
D03*
X52000Y64400D02*
D03*
Y68400D02*
D03*
X51000Y64400D02*
D03*
Y68400D02*
D03*
X50000D02*
D03*
Y64400D02*
D03*
X49000D02*
D03*
Y68400D02*
D03*
X97600Y108900D02*
D03*
X93600D02*
D03*
X121800Y68200D02*
D03*
X125800D02*
D03*
X123600Y78400D02*
D03*
Y74400D02*
D03*
X121900Y73300D02*
D03*
Y69300D02*
D03*
X99700Y104400D02*
D03*
Y108400D02*
D03*
X92700Y104900D02*
D03*
Y108900D02*
D03*
X107500Y81500D02*
D03*
X103500D02*
D03*
X123600Y84900D02*
D03*
X119600D02*
D03*
X88000Y106200D02*
D03*
X84000D02*
D03*
X115500Y80400D02*
D03*
Y84400D02*
D03*
X84000Y102700D02*
D03*
X88000D02*
D03*
X102100Y108300D02*
D03*
Y104300D02*
D03*
X122200Y85900D02*
D03*
Y89900D02*
D03*
X121200Y85900D02*
D03*
Y89900D02*
D03*
X56000Y71800D02*
D03*
X52000D02*
D03*
X56000Y72800D02*
D03*
X52000D02*
D03*
X56000Y73800D02*
D03*
X52000D02*
D03*
X56000Y74800D02*
D03*
X52000D02*
D03*
X56000Y75800D02*
D03*
X52000D02*
D03*
X56000Y76800D02*
D03*
X52000D02*
D03*
X63200Y82000D02*
D03*
Y78000D02*
D03*
X56000Y77800D02*
D03*
X52000D02*
D03*
X56000Y78800D02*
D03*
X52000D02*
D03*
X62200Y82000D02*
D03*
Y78000D02*
D03*
X61200Y82000D02*
D03*
Y78000D02*
D03*
X107300Y77600D02*
D03*
X103300D02*
D03*
X103400Y78900D02*
D03*
X107400D02*
D03*
X66200Y78000D02*
D03*
Y82000D02*
D03*
X102400Y64700D02*
D03*
Y68700D02*
D03*
X65200Y78000D02*
D03*
Y82000D02*
D03*
X101400Y64700D02*
D03*
Y68700D02*
D03*
X96400Y66500D02*
D03*
X100400D02*
D03*
X96400Y67500D02*
D03*
X100400D02*
D03*
X64200Y78000D02*
D03*
Y82000D02*
D03*
X96400Y68500D02*
D03*
X100400D02*
D03*
X65800Y83100D02*
D03*
X61800D02*
D03*
X59600Y75000D02*
D03*
Y79000D02*
D03*
X58600Y75000D02*
D03*
Y79000D02*
D03*
X57600Y75000D02*
D03*
Y79000D02*
D03*
X93200Y80100D02*
D03*
Y76100D02*
D03*
X109500Y67500D02*
D03*
X105500D02*
D03*
X109500Y66400D02*
D03*
X105500D02*
D03*
X109500Y65300D02*
D03*
X105500D02*
D03*
X57200Y73700D02*
D03*
Y69700D02*
D03*
D39*
X125100Y74600D02*
D03*
X126100D02*
D03*
X125100Y73600D02*
D03*
X126100D02*
D03*
X125100Y72600D02*
D03*
X126100D02*
D03*
X125100Y71600D02*
D03*
X126100D02*
D03*
X125100Y70600D02*
D03*
X105200Y107000D02*
D03*
Y108000D02*
D03*
X106200Y107000D02*
D03*
Y108000D02*
D03*
X107200Y107000D02*
D03*
Y108000D02*
D03*
X108200Y107000D02*
D03*
Y108000D02*
D03*
X109200Y107000D02*
D03*
Y108000D02*
D03*
X110200Y107000D02*
D03*
Y108000D02*
D03*
X111200Y107000D02*
D03*
Y108000D02*
D03*
X112200Y107000D02*
D03*
Y108000D02*
D03*
X113200Y107000D02*
D03*
Y108000D02*
D03*
X114200Y107000D02*
D03*
Y108000D02*
D03*
X115200Y107000D02*
D03*
Y108000D02*
D03*
X116200Y107000D02*
D03*
Y108000D02*
D03*
X117200Y107000D02*
D03*
Y108000D02*
D03*
X118200Y107000D02*
D03*
Y108000D02*
D03*
X119200Y107000D02*
D03*
Y108000D02*
D03*
X120200Y107000D02*
D03*
Y108000D02*
D03*
X121200Y107000D02*
D03*
Y108000D02*
D03*
X122200Y107000D02*
D03*
Y108000D02*
D03*
X123200Y107000D02*
D03*
Y108000D02*
D03*
X124200Y107000D02*
D03*
X125700Y93900D02*
D03*
Y94900D02*
D03*
Y95900D02*
D03*
X42000Y100100D02*
D03*
X43000Y101100D02*
D03*
X42000D02*
D03*
X43000Y102100D02*
D03*
X42000D02*
D03*
X43000Y103100D02*
D03*
X42000D02*
D03*
X43000Y104100D02*
D03*
X42000D02*
D03*
X109400Y81700D02*
D03*
X110400Y80700D02*
D03*
Y81700D02*
D03*
X111400Y80700D02*
D03*
Y81700D02*
D03*
X112400Y80700D02*
D03*
Y81700D02*
D03*
X113400Y80700D02*
D03*
Y81700D02*
D03*
X126100Y78400D02*
D03*
Y79400D02*
D03*
Y80400D02*
D03*
Y81400D02*
D03*
Y82400D02*
D03*
Y83400D02*
D03*
Y84400D02*
D03*
X125100Y77400D02*
D03*
Y78400D02*
D03*
Y79400D02*
D03*
Y80400D02*
D03*
Y81400D02*
D03*
Y82400D02*
D03*
Y83400D02*
D03*
Y84400D02*
D03*
X84400Y107800D02*
D03*
X83400Y108800D02*
D03*
Y107800D02*
D03*
X82400Y108800D02*
D03*
Y107800D02*
D03*
X81400Y108800D02*
D03*
Y107800D02*
D03*
X80400Y108800D02*
D03*
Y107800D02*
D03*
X76000D02*
D03*
X75000Y108800D02*
D03*
Y107800D02*
D03*
X74000Y108800D02*
D03*
Y107800D02*
D03*
X73000Y108800D02*
D03*
Y107800D02*
D03*
X72000Y108800D02*
D03*
Y107800D02*
D03*
X42700Y96608D02*
D03*
X45100D02*
D03*
X104100Y76408D02*
D03*
X102800D02*
D03*
X120800Y93600D02*
D03*
Y92600D02*
D03*
Y91600D02*
D03*
X123800Y94600D02*
D03*
Y93600D02*
D03*
Y92600D02*
D03*
Y91600D02*
D03*
X113800Y65600D02*
D03*
Y66600D02*
D03*
Y67600D02*
D03*
Y68600D02*
D03*
Y69600D02*
D03*
Y70600D02*
D03*
Y71600D02*
D03*
Y72600D02*
D03*
Y73600D02*
D03*
Y74600D02*
D03*
Y75600D02*
D03*
Y76600D02*
D03*
Y77600D02*
D03*
Y78600D02*
D03*
X110800Y65600D02*
D03*
Y66600D02*
D03*
Y67600D02*
D03*
Y68600D02*
D03*
Y69600D02*
D03*
Y70600D02*
D03*
Y71600D02*
D03*
Y72600D02*
D03*
Y73600D02*
D03*
Y74600D02*
D03*
Y75600D02*
D03*
Y76600D02*
D03*
Y77600D02*
D03*
X46700Y98900D02*
D03*
X47700D02*
D03*
X48700D02*
D03*
X49700D02*
D03*
X50700D02*
D03*
X51700D02*
D03*
X52700D02*
D03*
X53700D02*
D03*
X54700D02*
D03*
X55700D02*
D03*
X56700D02*
D03*
X57700D02*
D03*
X58700D02*
D03*
X59700D02*
D03*
X60700D02*
D03*
X61700D02*
D03*
X62700D02*
D03*
X63700D02*
D03*
X64700D02*
D03*
X45700Y104900D02*
D03*
X46700D02*
D03*
X47700D02*
D03*
X48700D02*
D03*
X49700D02*
D03*
X50700D02*
D03*
X51700D02*
D03*
X52700D02*
D03*
X53700D02*
D03*
X54700D02*
D03*
X55700D02*
D03*
X56700D02*
D03*
X57700D02*
D03*
X58700D02*
D03*
X59700D02*
D03*
X60700D02*
D03*
X61700D02*
D03*
X62700D02*
D03*
X63700D02*
D03*
X64700D02*
D03*
D40*
X126100Y70600D02*
D03*
X125700Y96900D02*
D03*
X43000Y100100D02*
D03*
X126100Y77400D02*
D03*
X42700Y92592D02*
D03*
X45100D02*
D03*
X104100Y72392D02*
D03*
X102800D02*
D03*
X45700Y98900D02*
D03*
X115200Y73500D02*
D03*
X78200Y107500D02*
D03*
Y109000D02*
D03*
D41*
X124200Y108000D02*
D03*
X109400Y80700D02*
D03*
X84400Y108800D02*
D03*
X76000D02*
D03*
X120800Y94600D02*
D03*
X110800Y78600D02*
D03*
X67600Y79200D02*
D03*
D42*
X42055Y76850D02*
D03*
X42105Y81950D02*
D03*
X42100Y84050D02*
D03*
X42150Y89150D02*
D03*
X42000Y69700D02*
D03*
X42050Y74800D02*
D03*
D43*
X53500Y82900D02*
D03*
Y82400D02*
D03*
X51900Y81900D02*
D03*
Y82400D02*
D03*
D44*
X53500Y81900D02*
D03*
X51900Y82900D02*
D03*
D45*
X48200Y90100D02*
D03*
X48700D02*
D03*
X49200Y88800D02*
D03*
X48700D02*
D03*
X115000Y86600D02*
D03*
X114500D02*
D03*
X48300Y81300D02*
D03*
X47800D02*
D03*
X114000Y88000D02*
D03*
X114500D02*
D03*
X47300Y82900D02*
D03*
X47800D02*
D03*
D46*
X49200Y90100D02*
D03*
X48200Y88800D02*
D03*
X114000Y86600D02*
D03*
X47300Y81300D02*
D03*
X115000Y88000D02*
D03*
X48300Y82900D02*
D03*
D47*
X125900Y99500D02*
D03*
Y100500D02*
D03*
D48*
Y101500D02*
D03*
D49*
X67900Y101700D02*
D03*
X76600Y103900D02*
D03*
X75300D02*
D03*
X90400Y106500D02*
D03*
X91600D02*
D03*
D50*
X67900Y103700D02*
D03*
X47400Y108500D02*
D03*
X76600Y105900D02*
D03*
X75300D02*
D03*
X90400Y108500D02*
D03*
X91600D02*
D03*
D51*
X49400D02*
D03*
D52*
X56810Y106400D02*
D03*
X55590D02*
D03*
X109600Y68890D02*
D03*
Y70110D02*
D03*
X53710Y96500D02*
D03*
X52490D02*
D03*
X67100Y94790D02*
D03*
Y96010D02*
D03*
X67000Y90590D02*
D03*
Y91810D02*
D03*
X105100Y88890D02*
D03*
Y90110D02*
D03*
Y84690D02*
D03*
Y85910D02*
D03*
X94400Y78910D02*
D03*
Y77690D02*
D03*
D53*
X94200Y69259D02*
D03*
D54*
Y65141D02*
D03*
D55*
X77296Y68550D02*
D03*
X74210Y68280D02*
D03*
X74206Y64680D02*
D03*
X76130Y62890D02*
D03*
X73750Y64670D02*
D03*
X68980Y69313D02*
D03*
X71000Y71100D02*
D03*
X95343Y72630D02*
D03*
X98798Y73000D02*
D03*
X125670Y85310D02*
D03*
X85350Y63940D02*
D03*
Y71040D02*
D03*
X78109Y71620D02*
D03*
X84853Y69500D02*
D03*
X79520Y70800D02*
D03*
X78230Y71102D02*
D03*
X83290Y71130D02*
D03*
Y64310D02*
D03*
X73380Y64930D02*
D03*
X74000Y63640D02*
D03*
X57380Y63814D02*
D03*
Y63730D02*
D03*
X62900Y63200D02*
D03*
X55290Y65040D02*
D03*
X79880Y63270D02*
D03*
X42050Y70750D02*
D03*
X84380Y64670D02*
D03*
X66880Y64490D02*
D03*
X78234Y72676D02*
D03*
X67630Y62880D02*
D03*
X69880Y63317D02*
D03*
X70130Y65000D02*
D03*
X84380Y72470D02*
D03*
X64880Y62970D02*
D03*
Y64120D02*
D03*
X85860Y72470D02*
D03*
X80460Y65040D02*
D03*
X84380Y63790D02*
D03*
X69880Y65000D02*
D03*
X79779Y70509D02*
D03*
X79780Y72330D02*
D03*
X75584Y69940D02*
D03*
X79779Y72331D02*
D03*
X79780Y70510D02*
D03*
X76909Y69940D02*
D03*
X76880Y63410D02*
D03*
X76130Y63470D02*
D03*
X72880Y63570D02*
D03*
X74783Y71350D02*
D03*
X41320Y80900D02*
D03*
X43820Y80740D02*
D03*
X60520Y63160D02*
D03*
X65407Y64580D02*
D03*
Y65739D02*
D03*
X85597Y65523D02*
D03*
X84000Y103750D02*
D03*
X63416Y64216D02*
D03*
X59700Y63200D02*
D03*
X56100Y66300D02*
D03*
X58130Y64130D02*
D03*
X61480Y63310D02*
D03*
X69050Y109620D02*
D03*
X74790Y106910D02*
D03*
X45010Y68810D02*
D03*
X90000Y67490D02*
D03*
X96171Y96471D02*
D03*
X48130Y70830D02*
D03*
X76335Y71475D02*
D03*
X77553Y70257D02*
D03*
X93170Y75420D02*
D03*
X75191Y75720D02*
D03*
X98050Y72630D02*
D03*
X73390Y67520D02*
D03*
X74300Y70133D02*
D03*
X68750Y65000D02*
D03*
X71190Y63750D02*
D03*
X75110Y63580D02*
D03*
X82300Y66310D02*
D03*
X82050Y69290D02*
D03*
X74403Y69580D02*
D03*
X92600Y89810D02*
D03*
X107960Y92910D02*
D03*
X106770Y109500D02*
D03*
X113200Y109600D02*
D03*
X114140D02*
D03*
X122570D02*
D03*
X78030Y63464D02*
D03*
X73438Y64402D02*
D03*
X70770Y73270D02*
D03*
X82880Y62960D02*
D03*
X82690Y63620D02*
D03*
X111104Y93753D02*
D03*
X58380Y62920D02*
D03*
X87570Y104660D02*
D03*
X88230Y104250D02*
D03*
X111104Y100500D02*
D03*
X111626Y96920D02*
D03*
X117404D02*
D03*
X97302Y73708D02*
D03*
X86380Y62920D02*
D03*
X123610Y87910D02*
D03*
X54640Y72040D02*
D03*
X83880Y69897D02*
D03*
X77980Y70314D02*
D03*
X82600Y71410D02*
D03*
X84130Y63550D02*
D03*
X82049Y64511D02*
D03*
X80380Y64240D02*
D03*
X78600Y64890D02*
D03*
X75530Y67560D02*
D03*
Y64070D02*
D03*
X72230Y63225D02*
D03*
X71543Y63213D02*
D03*
X70630Y63250D02*
D03*
X70130Y62970D02*
D03*
X69380Y64750D02*
D03*
X69680Y68340D02*
D03*
X69770Y70314D02*
D03*
X70890Y70261D02*
D03*
X68210Y64180D02*
D03*
Y68215D02*
D03*
X69228Y70206D02*
D03*
X67380Y63660D02*
D03*
X68500Y64730D02*
D03*
Y68089D02*
D03*
X71140Y70518D02*
D03*
X66630Y63530D02*
D03*
Y68060D02*
D03*
X67130Y68560D02*
D03*
X66380Y70500D02*
D03*
X70770Y71692D02*
D03*
X65880Y63690D02*
D03*
Y70720D02*
D03*
X69850Y71890D02*
D03*
X66220Y71340D02*
D03*
X71380Y73520D02*
D03*
X119220Y67440D02*
D03*
X121610Y98310D02*
D03*
X117660D02*
D03*
X82440Y63940D02*
D03*
X69940Y68738D02*
D03*
X71254Y69580D02*
D03*
X86340Y105250D02*
D03*
X92250Y104580D02*
D03*
X90100Y98529D02*
D03*
X65521Y71830D02*
D03*
X69750Y73320D02*
D03*
X79420Y99800D02*
D03*
X84536Y89244D02*
D03*
X42050Y75570D02*
D03*
X48500Y72700D02*
D03*
X43610Y101530D02*
D03*
X69030Y76080D02*
D03*
X71254D02*
D03*
X95498Y73892D02*
D03*
X72140Y104150D02*
D03*
X91080Y107000D02*
D03*
X92330D02*
D03*
X113152Y97170D02*
D03*
X119452D02*
D03*
X64300Y64300D02*
D03*
X43784Y81270D02*
D03*
X114480Y74920D02*
D03*
X71030Y64550D02*
D03*
X58780Y63210D02*
D03*
X49500Y64280D02*
D03*
X85380Y62920D02*
D03*
X61570Y68090D02*
D03*
X65360Y75580D02*
D03*
X57340Y96500D02*
D03*
X53850Y97860D02*
D03*
X93490Y96210D02*
D03*
X87655Y86105D02*
D03*
X71420Y96600D02*
D03*
X68900Y98100D02*
D03*
X68030Y95450D02*
D03*
X98210Y94530D02*
D03*
Y88207D02*
D03*
X88510Y87840D02*
D03*
X78260Y99779D02*
D03*
X78610Y101360D02*
D03*
X91303Y102120D02*
D03*
X66300Y97100D02*
D03*
X48560Y87820D02*
D03*
X46390Y87090D02*
D03*
X55500Y82490D02*
D03*
X60800Y73020D02*
D03*
X114200Y89670D02*
D03*
X48870Y73470D02*
D03*
X100720Y87960D02*
D03*
X113152Y94180D02*
D03*
X117300Y76260D02*
D03*
X70397Y102600D02*
D03*
X46250Y71260D02*
D03*
X48720Y74500D02*
D03*
X43530Y106590D02*
D03*
X116020Y81210D02*
D03*
X101840Y106200D02*
D03*
X79890Y100290D02*
D03*
X108890Y76020D02*
D03*
X51000Y89980D02*
D03*
X114840Y71290D02*
D03*
X78680Y106050D02*
D03*
X62396Y88680D02*
D03*
X107270Y85410D02*
D03*
X99700Y95090D02*
D03*
X96380Y81330D02*
D03*
X77310Y84910D02*
D03*
X57960Y90904D02*
D03*
X75100Y90700D02*
D03*
X47150Y109560D02*
D03*
X52440Y99640D02*
D03*
X52880Y106030D02*
D03*
X66137Y86493D02*
D03*
X114330Y85720D02*
D03*
X75680Y78330D02*
D03*
X49970Y88880D02*
D03*
X103850Y81010D02*
D03*
X114910Y81860D02*
D03*
X76280Y63977D02*
D03*
X65160Y63440D02*
D03*
X69070Y72280D02*
D03*
X75405Y72530D02*
D03*
X81650Y82040D02*
D03*
X87997Y83827D02*
D03*
X104460Y105600D02*
D03*
X109810Y73350D02*
D03*
X118800Y102050D02*
D03*
X72020Y106770D02*
D03*
X77360Y104870D02*
D03*
X118250Y100540D02*
D03*
X65870Y99860D02*
D03*
X108380Y100700D02*
D03*
Y99080D02*
D03*
X110598D02*
D03*
X50250Y100460D02*
D03*
X113800Y103210D02*
D03*
X77100Y85900D02*
D03*
X107980Y85640D02*
D03*
X108860Y92620D02*
D03*
X83110Y97570D02*
D03*
X84420Y100740D02*
D03*
X110650Y99820D02*
D03*
X116200Y94910D02*
D03*
X118290D02*
D03*
X78280Y85350D02*
D03*
X100470Y85520D02*
D03*
X100920Y103420D02*
D03*
X117250Y100900D02*
D03*
X110848Y96380D02*
D03*
X110540Y96650D02*
D03*
X110200Y92020D02*
D03*
X97170Y102250D02*
D03*
X112200Y101100D02*
D03*
X99630Y94050D02*
D03*
X100090Y102839D02*
D03*
X113200Y102650D02*
D03*
X114750Y95695D02*
D03*
X91171Y100820D02*
D03*
X96160Y100380D02*
D03*
X112860Y95070D02*
D03*
X115000D02*
D03*
X112896Y96630D02*
D03*
X124130Y105350D02*
D03*
X95460Y108500D02*
D03*
X105820Y109480D02*
D03*
X106950Y95310D02*
D03*
X68204Y109989D02*
D03*
X70980Y87850D02*
D03*
X75570Y100840D02*
D03*
X115360Y102250D02*
D03*
X87270Y103400D02*
D03*
X107770Y103150D02*
D03*
X107019Y102019D02*
D03*
X50910Y65310D02*
D03*
X75960Y65780D02*
D03*
X76380Y63160D02*
D03*
X84850Y87930D02*
D03*
X127030Y87520D02*
D03*
X82090Y84760D02*
D03*
X78530Y83560D02*
D03*
X75670Y96640D02*
D03*
Y85241D02*
D03*
X106246Y80610D02*
D03*
X93520Y89730D02*
D03*
X104820Y91230D02*
D03*
X106800Y87080D02*
D03*
X113795Y85825D02*
D03*
X115910Y83506D02*
D03*
X93856Y100297D02*
D03*
X116450Y96260D02*
D03*
X115930Y98430D02*
D03*
X94600Y100610D02*
D03*
X59770Y68380D02*
D03*
X75780Y66880D02*
D03*
X75630Y63490D02*
D03*
X41540Y97420D02*
D03*
X70150Y103400D02*
D03*
X43820Y82870D02*
D03*
X71460Y104650D02*
D03*
X43820Y89130D02*
D03*
X84610Y92270D02*
D03*
X43910Y87430D02*
D03*
X86530Y83300D02*
D03*
X44052Y78490D02*
D03*
X85110Y80050D02*
D03*
X40970Y98070D02*
D03*
X84317Y104750D02*
D03*
X44250Y86660D02*
D03*
X43490Y83703D02*
D03*
X104660Y92370D02*
D03*
X46700Y105690D02*
D03*
X80360Y89450D02*
D03*
X105160Y105130D02*
D03*
X50700Y92190D02*
D03*
X56390Y68370D02*
D03*
X109150Y103380D02*
D03*
X56660Y70700D02*
D03*
X81790Y67530D02*
D03*
X74700Y63520D02*
D03*
X72100Y88800D02*
D03*
X98820Y91260D02*
D03*
X99680Y94720D02*
D03*
X111360Y95310D02*
D03*
X83330Y89230D02*
D03*
X100510Y91140D02*
D03*
X104730Y95060D02*
D03*
X111610D02*
D03*
X111515Y99231D02*
D03*
X109610Y92700D02*
D03*
X110590Y87710D02*
D03*
X43740Y97440D02*
D03*
X105810Y72170D02*
D03*
X61050Y65584D02*
D03*
X61765Y83900D02*
D03*
X118540Y83120D02*
D03*
X111150Y81276D02*
D03*
X111480Y79180D02*
D03*
X106963Y86180D02*
D03*
X76945Y74805D02*
D03*
X77553Y76220D02*
D03*
X78200Y76340D02*
D03*
X84100Y92110D02*
D03*
X82690Y97100D02*
D03*
X52410Y77390D02*
D03*
X87000Y79160D02*
D03*
X56410Y82070D02*
D03*
X79000Y83050D02*
D03*
X48376Y73586D02*
D03*
X57190Y76760D02*
D03*
X74970Y76960D02*
D03*
X74206Y74308D02*
D03*
X72510Y78490D02*
D03*
X53590Y71760D02*
D03*
X74994Y74246D02*
D03*
X75590Y77330D02*
D03*
X51212Y73422D02*
D03*
X75135Y73680D02*
D03*
X53340Y75140D02*
D03*
X76372Y76897D02*
D03*
X76570Y74181D02*
D03*
X71450Y68650D02*
D03*
X77500Y67990D02*
D03*
X71990Y73003D02*
D03*
X103910Y73960D02*
D03*
X74120Y72070D02*
D03*
X101460Y70911D02*
D03*
X95500Y75870D02*
D03*
X86220Y75900D02*
D03*
X72435Y77391D02*
D03*
X72238Y74572D02*
D03*
X93660Y74580D02*
D03*
X70757Y79200D02*
D03*
X58200Y73490D02*
D03*
X71350Y74690D02*
D03*
X71647Y76080D02*
D03*
X61960D02*
D03*
X72220Y78310D02*
D03*
X44602Y83962D02*
D03*
X44070Y77240D02*
D03*
X90910Y79710D02*
D03*
X123120Y102080D02*
D03*
X47516Y105360D02*
D03*
X43570Y90430D02*
D03*
X65250Y98480D02*
D03*
X98620Y104340D02*
D03*
X115000Y103710D02*
D03*
M02*
