G04*
G04 #@! TF.GenerationSoftware,Altium Limited,Altium Designer,19.1.7 (138)*
G04*
G04 Layer_Color=32768*
%FSLAX24Y24*%
%MOIN*%
G70*
G01*
G75*
%ADD96C,0.0039*%
%ADD97C,0.0020*%
D96*
X74600Y71003D02*
Y71397D01*
X74403Y71200D02*
X74797D01*
X53303Y82400D02*
X53697D01*
X53500Y82203D02*
Y82597D01*
X51703Y82400D02*
X52097D01*
X51900Y82203D02*
Y82597D01*
X48700Y89903D02*
Y90297D01*
X48503Y90100D02*
X48897D01*
X48700Y88603D02*
Y88997D01*
X48503Y88800D02*
X48897D01*
X114500Y86403D02*
Y86797D01*
X114303Y86600D02*
X114697D01*
X47800Y81103D02*
Y81497D01*
X47603Y81300D02*
X47997D01*
X114500Y87803D02*
Y88197D01*
X114303Y88000D02*
X114697D01*
X47800Y82703D02*
Y83097D01*
X47603Y82900D02*
X47997D01*
X71800Y104203D02*
Y104597D01*
X71603Y104400D02*
X71997D01*
X70324Y105483D02*
X73276D01*
X70324Y103317D02*
X73276D01*
X70324D02*
Y105483D01*
X73276Y103317D02*
Y105483D01*
X86000Y104303D02*
Y104697D01*
X85803Y104500D02*
X86197D01*
X84524Y105583D02*
X87476D01*
X84524Y103417D02*
X87476D01*
X84524D02*
Y105583D01*
X87476Y103417D02*
Y105583D01*
X122103Y93100D02*
X122497D01*
X122300Y92903D02*
Y93297D01*
X112300Y71903D02*
Y72297D01*
X112103Y72100D02*
X112497D01*
X55200Y101703D02*
Y102097D01*
X55003Y101900D02*
X55397D01*
D97*
X96839Y103728D02*
Y105472D01*
X95961Y103728D02*
Y105472D01*
Y103728D02*
X96839D01*
X95961Y105472D02*
X96839D01*
X94839Y103728D02*
Y105472D01*
X93961Y103728D02*
Y105472D01*
Y103728D02*
X94839D01*
X93961Y105472D02*
X94839D01*
X92239Y102328D02*
Y104072D01*
X91361Y102328D02*
Y104072D01*
Y102328D02*
X92239D01*
X91361Y104072D02*
X92239D01*
X90439Y102328D02*
Y104072D01*
X89561Y102328D02*
Y104072D01*
Y102328D02*
X90439D01*
X89561Y104072D02*
X90439D01*
X97135Y70052D02*
X97820D01*
X97135Y69210D02*
Y70052D01*
X95662Y69210D02*
X97135D01*
X95662D02*
Y70052D01*
X94977D02*
X95662D01*
X94977D02*
Y71714D01*
X95213D01*
Y72556D01*
X97583D01*
Y71714D02*
Y72556D01*
Y71714D02*
X97820D01*
Y70052D02*
Y71714D01*
X47811Y72773D02*
Y74427D01*
Y72773D02*
X49189D01*
Y74427D01*
X47811D02*
X49189D01*
X94979Y75431D02*
X95664D01*
Y76273D01*
X97136D01*
Y75431D02*
Y76273D01*
Y75431D02*
X97821D01*
Y73769D02*
Y75431D01*
X97585Y73769D02*
X97821D01*
X97585Y72927D02*
Y73769D01*
X95215Y72927D02*
X97585D01*
X95215D02*
Y73769D01*
X94979D02*
X95215D01*
X94979D02*
Y75431D01*
X100436Y70069D02*
X101121D01*
X100436Y69227D02*
Y70069D01*
X98964Y69227D02*
X100436D01*
X98964D02*
Y70069D01*
X98279D02*
X98964D01*
X98279D02*
Y71731D01*
X98515D01*
Y72573D01*
X100885D01*
Y71731D02*
Y72573D01*
Y71731D02*
X101121D01*
Y70069D02*
Y71731D01*
M02*
