G04*
G04 #@! TF.GenerationSoftware,Altium Limited,Altium Designer,19.1.7 (138)*
G04*
G04 Layer_Color=65535*
%FSLAX24Y24*%
%MOIN*%
G70*
G01*
G75*
%ADD10C,0.0098*%
%ADD11C,0.0079*%
%ADD12C,0.0050*%
%ADD13C,0.0236*%
%ADD14C,0.0100*%
%ADD15C,0.0080*%
%ADD16R,0.1063X0.0315*%
%ADD17R,0.1102X0.0315*%
G36*
X71175Y74980D02*
X70742D01*
Y74546D01*
X70899D01*
X71175Y74822D01*
Y74980D01*
D02*
G37*
D10*
X124604Y88122D02*
G03*
X124604Y88122I-49J0D01*
G01*
X43973Y64878D02*
G03*
X43973Y64878I-49J0D01*
G01*
X70279Y74917D02*
G03*
X70279Y74917I-49J0D01*
G01*
X67950Y100826D02*
G03*
X67950Y100826I-49J0D01*
G01*
X50324Y108500D02*
G03*
X50324Y108500I-49J0D01*
G01*
X76650Y103026D02*
G03*
X76650Y103026I-49J0D01*
G01*
X75350D02*
G03*
X75350Y103026I-49J0D01*
G01*
X72794Y103315D02*
G03*
X72794Y103315I-49J0D01*
G01*
X90450Y105626D02*
G03*
X90450Y105626I-49J0D01*
G01*
X91650D02*
G03*
X91650Y105626I-49J0D01*
G01*
X86994Y103415D02*
G03*
X86994Y103415I-49J0D01*
G01*
X116922Y95578D02*
G03*
X116922Y95578I-49J0D01*
G01*
X110622Y95778D02*
G03*
X110622Y95778I-49J0D01*
G01*
X120849Y95112D02*
G03*
X120849Y95112I-49J0D01*
G01*
X110849Y79112D02*
G03*
X110849Y79112I-49J0D01*
G01*
X45237Y98900D02*
G03*
X45237Y98900I-49J0D01*
G01*
X67649Y80007D02*
G03*
X67649Y80007I-49J0D01*
G01*
X114442Y73500D02*
G03*
X114442Y73500I-49J0D01*
G01*
X77442Y107500D02*
G03*
X77442Y107500I-49J0D01*
G01*
Y109000D02*
G03*
X77442Y109000I-49J0D01*
G01*
D11*
X102016Y84427D02*
G03*
X100636Y84523I-716J-327D01*
G01*
Y83677D02*
G03*
X102016Y83773I664J423D01*
G01*
X104527Y69884D02*
G03*
X104623Y71264I-327J716D01*
G01*
X103777D02*
G03*
X103873Y69884I423J-664D01*
G01*
X97339Y72605D02*
G03*
X97339Y72605I-39J0D01*
G01*
X70742Y74546D02*
G03*
X71175Y74980I0J433D01*
G01*
X52969Y81644D02*
G03*
X52969Y83156I531J756D01*
G01*
X57727Y81684D02*
G03*
X57823Y83064I-327J716D01*
G01*
X56977D02*
G03*
X57073Y81684I423J-664D01*
G01*
X55827D02*
G03*
X55923Y83064I-327J716D01*
G01*
X55077D02*
G03*
X55173Y81684I423J-664D01*
G01*
X56173Y90216D02*
G03*
X56077Y88836I327J-716D01*
G01*
X56923D02*
G03*
X56827Y90216I-423J664D01*
G01*
X46173Y89816D02*
G03*
X46077Y88436I327J-716D01*
G01*
X46923D02*
G03*
X46827Y89816I-423J664D01*
G01*
X52432Y83156D02*
G03*
X52432Y81644I-531J-756D01*
G01*
X48427Y93384D02*
G03*
X48523Y94764I-327J716D01*
G01*
X47677D02*
G03*
X47773Y93384I423J-664D01*
G01*
X49456Y89569D02*
G03*
X47944Y89569I-756J531D01*
G01*
Y89332D02*
G03*
X49456Y89332I756J-531D01*
G01*
X122873Y83316D02*
G03*
X122777Y81936I327J-716D01*
G01*
X123623D02*
G03*
X123527Y83316I-423J664D01*
G01*
X113744Y87132D02*
G03*
X115256Y87132I756J-531D01*
G01*
X48416Y77827D02*
G03*
X47036Y77923I-716J-327D01*
G01*
Y77077D02*
G03*
X48416Y77173I664J423D01*
G01*
X46984Y78973D02*
G03*
X48364Y78877I716J327D01*
G01*
Y79723D02*
G03*
X46984Y79627I-664J-423D01*
G01*
X117027Y87184D02*
G03*
X117123Y88564I-327J716D01*
G01*
X116277D02*
G03*
X116373Y87184I423J-664D01*
G01*
X112173Y88016D02*
G03*
X112077Y86636I327J-716D01*
G01*
X112923D02*
G03*
X112827Y88016I-423J664D01*
G01*
X48416Y76027D02*
G03*
X47036Y76123I-716J-327D01*
G01*
Y75277D02*
G03*
X48416Y75373I664J423D01*
G01*
X47044Y81832D02*
G03*
X48556Y81832I756J-531D01*
G01*
X115256Y87469D02*
G03*
X113744Y87469I-756J531D01*
G01*
X48556Y82368D02*
G03*
X47044Y82368I-756J531D01*
G01*
X118884Y76373D02*
G03*
X120264Y76277I716J327D01*
G01*
Y77123D02*
G03*
X118884Y77027I-664J-423D01*
G01*
X52073Y108516D02*
G03*
X51977Y107136I327J-716D01*
G01*
X52823D02*
G03*
X52727Y108516I-423J664D01*
G01*
X115827Y67784D02*
G03*
X115923Y69164I-327J716D01*
G01*
X115077D02*
G03*
X115173Y67784I423J-664D01*
G01*
X106484Y68873D02*
G03*
X107864Y68777I716J327D01*
G01*
Y69623D02*
G03*
X106484Y69527I-664J-423D01*
G01*
X56655Y106802D02*
G03*
X55732Y106796I-459J-402D01*
G01*
X55736Y106004D02*
G03*
X56659Y105998I464J396D01*
G01*
X110002Y69045D02*
G03*
X109996Y69968I-402J459D01*
G01*
X109204Y69964D02*
G03*
X109198Y69041I396J-464D01*
G01*
X55716Y95127D02*
G03*
X54336Y95223I-716J-327D01*
G01*
Y94377D02*
G03*
X55716Y94473I664J423D01*
G01*
X56984Y108073D02*
G03*
X58364Y107977I716J327D01*
G01*
Y108823D02*
G03*
X56984Y108727I-664J-423D01*
G01*
X55616Y108727D02*
G03*
X54236Y108823I-716J-327D01*
G01*
Y107977D02*
G03*
X55616Y108073I664J423D01*
G01*
X115073Y72016D02*
G03*
X114977Y70636I327J-716D01*
G01*
X115823D02*
G03*
X115727Y72016I-423J664D01*
G01*
X106484Y70773D02*
G03*
X107864Y70677I716J327D01*
G01*
Y71523D02*
G03*
X106484Y71427I-664J-423D01*
G01*
X53555Y96902D02*
G03*
X52632Y96896I-459J-402D01*
G01*
X52636Y96104D02*
G03*
X53559Y96098I464J396D01*
G01*
X50484Y94473D02*
G03*
X51864Y94377I716J327D01*
G01*
Y95223D02*
G03*
X50484Y95127I-664J-423D01*
G01*
X67502Y94945D02*
G03*
X67496Y95868I-402J459D01*
G01*
X66704Y95864D02*
G03*
X66698Y94941I396J-464D01*
G01*
X64184Y94173D02*
G03*
X65564Y94077I716J327D01*
G01*
Y94923D02*
G03*
X64184Y94827I-664J-423D01*
G01*
X84473Y82516D02*
G03*
X84377Y81136I327J-716D01*
G01*
X85223D02*
G03*
X85127Y82516I-423J664D01*
G01*
X67573D02*
G03*
X67477Y81136I327J-716D01*
G01*
X68323D02*
G03*
X68227Y82516I-423J664D01*
G01*
X64184Y96073D02*
G03*
X65564Y95977I716J327D01*
G01*
Y96823D02*
G03*
X64184Y96727I-664J-423D01*
G01*
X82073Y104916D02*
G03*
X81977Y103536I327J-716D01*
G01*
X82823D02*
G03*
X82727Y104916I-423J664D01*
G01*
X64184Y89973D02*
G03*
X65564Y89877I716J327D01*
G01*
Y90723D02*
G03*
X64184Y90627I-664J-423D01*
G01*
X67402Y90745D02*
G03*
X67396Y91668I-402J459D01*
G01*
X66604Y91664D02*
G03*
X66598Y90741I396J-464D01*
G01*
X64184Y91873D02*
G03*
X65564Y91777I716J327D01*
G01*
Y92623D02*
G03*
X64184Y92527I-664J-423D01*
G01*
X82673Y82516D02*
G03*
X82577Y81136I327J-716D01*
G01*
X83423D02*
G03*
X83327Y82516I-423J664D01*
G01*
X80873D02*
G03*
X80777Y81136I327J-716D01*
G01*
X81623D02*
G03*
X81527Y82516I-423J664D01*
G01*
X79073D02*
G03*
X78977Y81136I327J-716D01*
G01*
X79823D02*
G03*
X79727Y82516I-423J664D01*
G01*
X77273D02*
G03*
X77177Y81136I327J-716D01*
G01*
X78023D02*
G03*
X77927Y82516I-423J664D01*
G01*
X75473D02*
G03*
X75377Y81136I327J-716D01*
G01*
X76223D02*
G03*
X76127Y82516I-423J664D01*
G01*
X73673D02*
G03*
X73577Y81136I327J-716D01*
G01*
X74423D02*
G03*
X74327Y82516I-423J664D01*
G01*
X71873D02*
G03*
X71777Y81136I327J-716D01*
G01*
X72623D02*
G03*
X72527Y82516I-423J664D01*
G01*
X108116Y90827D02*
G03*
X106736Y90923I-716J-327D01*
G01*
Y90077D02*
G03*
X108116Y90173I664J423D01*
G01*
X105502Y89045D02*
G03*
X105496Y89968I-402J459D01*
G01*
X104704Y89964D02*
G03*
X104698Y89041I396J-464D01*
G01*
X108116Y88827D02*
G03*
X106736Y88923I-716J-327D01*
G01*
Y88077D02*
G03*
X108116Y88173I664J423D01*
G01*
X95416Y107327D02*
G03*
X94036Y107423I-716J-327D01*
G01*
Y106577D02*
G03*
X95416Y106673I664J423D01*
G01*
X108116Y86527D02*
G03*
X106736Y86623I-716J-327D01*
G01*
Y85777D02*
G03*
X108116Y85873I664J423D01*
G01*
X105502Y84845D02*
G03*
X105496Y85768I-402J459D01*
G01*
X104704Y85764D02*
G03*
X104698Y84841I396J-464D01*
G01*
X108116Y84627D02*
G03*
X106736Y84723I-716J-327D01*
G01*
Y83877D02*
G03*
X108116Y83973I664J423D01*
G01*
X86273Y82516D02*
G03*
X86177Y81136I327J-716D01*
G01*
X87023D02*
G03*
X86927Y82516I-423J664D01*
G01*
X88073D02*
G03*
X87977Y81136I327J-716D01*
G01*
X88823D02*
G03*
X88727Y82516I-423J664D01*
G01*
X89873D02*
G03*
X89777Y81136I327J-716D01*
G01*
X90623D02*
G03*
X90527Y82516I-423J664D01*
G01*
X91673D02*
G03*
X91577Y81136I327J-716D01*
G01*
X92423D02*
G03*
X92327Y82516I-423J664D01*
G01*
X93473D02*
G03*
X93377Y81136I327J-716D01*
G01*
X94223D02*
G03*
X94127Y82516I-423J664D01*
G01*
X95273D02*
G03*
X95177Y81136I327J-716D01*
G01*
X96023D02*
G03*
X95927Y82516I-423J664D01*
G01*
X97073D02*
G03*
X96977Y81136I327J-716D01*
G01*
X97823D02*
G03*
X97727Y82516I-423J664D01*
G01*
X98873D02*
G03*
X98777Y81136I327J-716D01*
G01*
X99623D02*
G03*
X99527Y82516I-423J664D01*
G01*
X103784Y83073D02*
G03*
X105164Y82977I716J327D01*
G01*
Y83823D02*
G03*
X103784Y83727I-664J-423D01*
G01*
X121316Y79927D02*
G03*
X119936Y80023I-716J-327D01*
G01*
Y79177D02*
G03*
X121316Y79273I664J423D01*
G01*
Y83627D02*
G03*
X119936Y83723I-716J-327D01*
G01*
Y82877D02*
G03*
X121316Y82973I664J423D01*
G01*
X125673Y105216D02*
G03*
X125577Y103836I327J-716D01*
G01*
X126423D02*
G03*
X126327Y105216I-423J664D01*
G01*
X121416Y81827D02*
G03*
X120036Y81923I-716J-327D01*
G01*
Y81077D02*
G03*
X121416Y81173I664J423D01*
G01*
X117001Y96483D02*
G03*
X117001Y96917I0J217D01*
G01*
X110701Y96683D02*
G03*
X110701Y97117I0J217D01*
G01*
X122050Y95128D02*
G03*
X122550Y95128I250J0D01*
G01*
X112050Y79068D02*
G03*
X112550Y79068I250J0D01*
G01*
X44767Y101650D02*
G03*
X44767Y102150I0J250D01*
G01*
X95538Y72878D02*
G03*
X95538Y72878I-39J0D01*
G01*
X98573Y75216D02*
G03*
X98477Y73836I327J-716D01*
G01*
X99323D02*
G03*
X99227Y75216I-423J664D01*
G01*
X102216Y79627D02*
G03*
X100836Y79723I-716J-327D01*
G01*
Y78877D02*
G03*
X102216Y78973I664J423D01*
G01*
X100641Y72622D02*
G03*
X100641Y72622I-39J0D01*
G01*
X100473Y75216D02*
G03*
X100377Y73836I327J-716D01*
G01*
X101223D02*
G03*
X101127Y75216I-423J664D01*
G01*
X99184Y76673D02*
G03*
X100564Y76577I716J327D01*
G01*
Y77423D02*
G03*
X99184Y77327I-664J-423D01*
G01*
X97432Y77627D02*
G03*
X96052Y77723I-716J-327D01*
G01*
Y76877D02*
G03*
X97432Y76973I664J423D01*
G01*
X93998Y78755D02*
G03*
X94004Y77832I402J-459D01*
G01*
X94796Y77836D02*
G03*
X94802Y78759I-396J464D01*
G01*
X97416Y79627D02*
G03*
X96036Y79723I-716J-327D01*
G01*
Y78877D02*
G03*
X97416Y78973I664J423D01*
G01*
X103773Y67616D02*
G03*
X103677Y66236I327J-716D01*
G01*
X104523D02*
G03*
X104427Y67616I-423J664D01*
G01*
X101973Y71216D02*
G03*
X101877Y69836I327J-716D01*
G01*
X102723D02*
G03*
X102627Y71216I-423J664D01*
G01*
X93700Y73000D02*
Y75000D01*
Y73000D02*
X94700D01*
Y75000D01*
X93700D02*
X94700D01*
X93600Y70200D02*
Y72200D01*
Y70200D02*
X94600D01*
Y72200D01*
X93600D02*
X94600D01*
X130200Y92085D02*
Y92354D01*
X130074D02*
X130200D01*
X130074Y92085D02*
Y92354D01*
X130200Y86915D02*
Y92085D01*
X124688Y86915D02*
X125247D01*
X127058D02*
X130200D01*
X124688Y92085D02*
X125247D01*
X127058D02*
X130200D01*
X124688Y91138D02*
Y92085D01*
X124688Y90154D02*
Y90618D01*
X124688Y88594D02*
Y88846D01*
Y86915D02*
Y87650D01*
Y89366D02*
Y89634D01*
X130074Y86646D02*
Y86915D01*
Y86646D02*
X130200D01*
Y86915D01*
X104200Y79800D02*
Y80600D01*
X106600D01*
Y79800D02*
Y80600D01*
X104200Y79800D02*
X106600D01*
X103800Y80200D02*
X104200D01*
X106600D02*
X107000D01*
X93700Y102500D02*
Y103300D01*
X96100D01*
Y102500D02*
Y103300D01*
X93700Y102500D02*
X96100D01*
X93300Y102900D02*
X93700D01*
X96100D02*
X96500D01*
X123000Y65300D02*
Y67300D01*
Y65300D02*
X124000D01*
Y67300D01*
X123000D02*
X124000D01*
X119650Y69050D02*
X121150D01*
X119650D02*
Y72550D01*
X121150D01*
Y69050D02*
Y72550D01*
X115600Y74400D02*
Y76400D01*
X114600D02*
X115600D01*
X114600Y74400D02*
Y76400D01*
Y74400D02*
X115600D01*
X126600Y70100D02*
Y75100D01*
X124600Y70100D02*
Y75100D01*
Y70100D02*
X126600D01*
X124600Y75100D02*
X126600D01*
X104700Y108500D02*
X124700D01*
X104700Y106500D02*
X124700D01*
Y108500D01*
X104700Y106500D02*
Y108500D01*
X101400Y80800D02*
Y82800D01*
Y80800D02*
X102400D01*
Y82800D01*
X101400D02*
X102400D01*
X100200Y80800D02*
Y82800D01*
Y80800D02*
X101200D01*
Y82800D01*
X100200D02*
X101200D01*
X122600Y65400D02*
Y67400D01*
X121600D02*
X122600D01*
X121600Y65400D02*
Y67400D01*
Y65400D02*
X122600D01*
X43668Y60913D02*
Y66087D01*
X41400Y61606D02*
Y65394D01*
X42888Y60913D02*
X43668D01*
X42888Y66087D02*
X43668D01*
X125200Y97400D02*
X126200D01*
Y93400D02*
Y97400D01*
X125200Y93400D02*
Y97400D01*
Y93400D02*
X126200D01*
X127700Y94300D02*
Y96300D01*
Y94300D02*
X128700D01*
Y96300D01*
X127700D02*
X128700D01*
X115600Y65000D02*
Y67000D01*
Y65000D02*
X116600D01*
Y67000D01*
X115600D02*
X116600D01*
X70200Y80800D02*
Y82800D01*
Y80800D02*
X71200D01*
Y82800D01*
X70200D02*
X71200D01*
X68900Y80800D02*
Y82800D01*
Y80800D02*
X69900D01*
Y82800D01*
X68900D02*
X69900D01*
X49800Y72500D02*
Y74500D01*
Y72500D02*
X50800D01*
Y74500D01*
X49800D02*
X50800D01*
X70742Y69468D02*
X78301D01*
X70742Y74980D02*
X78301D01*
Y69468D02*
Y74980D01*
X70742Y69468D02*
Y74980D01*
X41500Y104600D02*
X43500D01*
X41500Y99600D02*
X43500D01*
X41500D02*
Y104600D01*
X43500Y99600D02*
Y104600D01*
X113900Y80200D02*
Y82200D01*
X108900Y80200D02*
Y82200D01*
X113900D01*
X108900Y80200D02*
X113900D01*
X124600Y76900D02*
X126600D01*
X124600Y84900D02*
X126600D01*
Y76900D02*
Y84900D01*
X124600Y76900D02*
Y84900D01*
X79900Y107300D02*
Y109300D01*
X84900Y107300D02*
Y109300D01*
X79900Y107300D02*
X84900D01*
X79900Y109300D02*
X84900D01*
X71500Y107300D02*
Y109300D01*
X76500Y107300D02*
Y109300D01*
X71500Y107300D02*
X76500D01*
X71500Y109300D02*
X76500D01*
X64900Y106800D02*
X66900D01*
X64900Y105800D02*
Y106800D01*
Y105800D02*
X66900D01*
Y106800D01*
X119000Y65400D02*
Y67400D01*
X118000D02*
X119000D01*
X118000Y65400D02*
Y67400D01*
Y65400D02*
X119000D01*
X117800D02*
Y67400D01*
X116800D02*
X117800D01*
X116800Y65400D02*
Y67400D01*
Y65400D02*
X117800D01*
X47300Y72600D02*
Y74600D01*
X46300D02*
X47300D01*
X46300Y72600D02*
Y74600D01*
Y72600D02*
X47300D01*
X45400Y88000D02*
Y90000D01*
X44400D02*
X45400D01*
X44400Y88000D02*
Y90000D01*
Y88000D02*
X45400D01*
X59000Y81400D02*
Y83400D01*
Y81400D02*
X60000D01*
Y83400D01*
X59000D02*
X60000D01*
X51600Y88300D02*
X52400D01*
X51600D02*
Y90700D01*
X52400D01*
Y88300D02*
Y90700D01*
X52000Y87900D02*
Y88300D01*
Y90700D02*
Y91100D01*
X51500Y84000D02*
Y84800D01*
X53900D01*
Y84000D02*
Y84800D01*
X51500Y84000D02*
X53900D01*
X51100Y84400D02*
X51500D01*
X53900D02*
X54300D01*
X52969Y81644D02*
Y81711D01*
Y83089D02*
Y83156D01*
X52600Y88300D02*
X53400D01*
X52600D02*
Y90700D01*
X53400D01*
Y88300D02*
Y90700D01*
X53000Y87900D02*
Y88300D01*
Y90700D02*
Y91100D01*
X108600Y75300D02*
Y76100D01*
X106200Y75300D02*
X108600D01*
X106200D02*
Y76100D01*
X108600D01*
Y75700D02*
X109000D01*
X105800D02*
X106200D01*
X50600Y88300D02*
X51400D01*
X50600D02*
Y90700D01*
X51400D01*
Y88300D02*
Y90700D01*
X51000Y87900D02*
Y88300D01*
Y90700D02*
Y91100D01*
X58900Y80000D02*
Y80800D01*
X56500Y80000D02*
X58900D01*
X56500D02*
Y80800D01*
X58900D01*
Y80400D02*
X59300D01*
X56100D02*
X56500D01*
X80100Y103000D02*
Y105000D01*
Y103000D02*
X81100D01*
Y105000D01*
X80100D02*
X81100D01*
X51600Y80000D02*
Y80800D01*
X54000D01*
Y80000D02*
Y80800D01*
X51600Y80000D02*
X54000D01*
X51200Y80400D02*
X51600D01*
X54000D02*
X54400D01*
X52432Y83089D02*
Y83156D01*
Y81644D02*
Y81711D01*
X54600Y88300D02*
X55400D01*
X54600D02*
Y90700D01*
X55400D01*
Y88300D02*
Y90700D01*
X55000Y87900D02*
Y88300D01*
Y90700D02*
Y91100D01*
X49389Y89569D02*
X49456D01*
X47944D02*
X48011D01*
X56500Y84000D02*
Y84800D01*
X58900D01*
Y84000D02*
Y84800D01*
X56500Y84000D02*
X58900D01*
X56100Y84400D02*
X56500D01*
X58900D02*
X59300D01*
X53600Y90700D02*
X54400D01*
Y88300D02*
Y90700D01*
X53600Y88300D02*
X54400D01*
X53600D02*
Y90700D01*
X54000D02*
Y91100D01*
Y87900D02*
Y88300D01*
X47944Y89332D02*
X48011D01*
X49389D02*
X49456D01*
X126845Y98453D02*
Y102547D01*
X125231D02*
X127042D01*
X125231Y98453D02*
Y102547D01*
Y98453D02*
X127042D01*
Y102547D01*
X124250Y65550D02*
Y67050D01*
X127750D01*
Y65550D02*
Y67050D01*
X124250Y65550D02*
X127750D01*
X50500Y76200D02*
X51300D01*
X50500D02*
Y78600D01*
X51300D01*
Y76200D02*
Y78600D01*
X50900Y75800D02*
Y76200D01*
Y78600D02*
Y79000D01*
X49400Y76200D02*
X50200D01*
X49400D02*
Y78600D01*
X50200D01*
Y76200D02*
Y78600D01*
X49800Y75800D02*
Y76200D01*
Y78600D02*
Y79000D01*
X118800Y89200D02*
X119600D01*
Y86800D02*
Y89200D01*
X118800Y86800D02*
X119600D01*
X118800D02*
Y89200D01*
X119200D02*
Y89600D01*
Y86400D02*
Y86800D01*
X127300Y73900D02*
X128100D01*
Y71500D02*
Y73900D01*
X127300Y71500D02*
X128100D01*
X127300D02*
Y73900D01*
X127700D02*
Y74300D01*
Y71100D02*
Y71500D01*
X113744Y87132D02*
X113811D01*
X115189D02*
X115256D01*
X110600Y86500D02*
X111400D01*
X110600D02*
Y88900D01*
X111400D01*
Y86500D02*
Y88900D01*
X111000Y86100D02*
Y86500D01*
Y88900D02*
Y89300D01*
X45400Y76200D02*
X46200D01*
X45400D02*
Y78600D01*
X46200D01*
Y76200D02*
Y78600D01*
X45800Y75800D02*
Y76200D01*
Y78600D02*
Y79000D01*
X45400Y83700D02*
X46200D01*
Y81300D02*
Y83700D01*
X45400Y81300D02*
X46200D01*
X45400D02*
Y83700D01*
X45800D02*
Y84100D01*
Y80900D02*
Y81300D01*
X113400Y89800D02*
Y90600D01*
X115800D01*
Y89800D02*
Y90600D01*
X113400Y89800D02*
X115800D01*
X113000Y90200D02*
X113400D01*
X115800D02*
X116200D01*
X47044Y81832D02*
X47111D01*
X48489D02*
X48556D01*
X117700Y89200D02*
X118500D01*
Y86800D02*
Y89200D01*
X117700Y86800D02*
X118500D01*
X117700D02*
Y89200D01*
X118100D02*
Y89600D01*
Y86400D02*
Y86800D01*
X115189Y87469D02*
X115256D01*
X113744D02*
X113811D01*
X49400Y81300D02*
X50200D01*
X49400D02*
Y83700D01*
X50200D01*
Y81300D02*
Y83700D01*
X49800Y80900D02*
Y81300D01*
Y83700D02*
Y84100D01*
X48489Y82368D02*
X48556D01*
X47044D02*
X47111D01*
X96400Y106300D02*
X98400D01*
Y107300D01*
X96400D02*
X98400D01*
X96400Y106300D02*
Y107300D01*
X46800Y84300D02*
X48800D01*
Y85300D01*
X46800D02*
X48800D01*
X46800Y84300D02*
Y85300D01*
X109300Y86600D02*
Y88600D01*
Y86600D02*
X110300D01*
Y88600D01*
X109300D02*
X110300D01*
X109800Y77200D02*
Y79200D01*
X108800D02*
X109800D01*
X108800Y77200D02*
Y79200D01*
Y77200D02*
X109800D01*
X114300Y65000D02*
Y67000D01*
Y65000D02*
X115300D01*
Y67000D01*
X114300D02*
X115300D01*
X112300Y82800D02*
Y84800D01*
X111300D02*
X112300D01*
X111300Y82800D02*
Y84800D01*
Y82800D02*
X112300D01*
X41600Y106800D02*
X43600D01*
X41600Y105800D02*
Y106800D01*
Y105800D02*
X43600D01*
Y106800D01*
X41400Y90000D02*
X43400D01*
Y91000D01*
X41400D02*
X43400D01*
X41400Y90000D02*
Y91000D01*
X113700Y82800D02*
Y84800D01*
Y82800D02*
X114700D01*
Y84800D01*
X113700D02*
X114700D01*
X112500Y82800D02*
Y84800D01*
Y82800D02*
X113500D01*
Y84800D01*
X112500D02*
X113500D01*
X108900Y82800D02*
Y84800D01*
Y82800D02*
X109900D01*
Y84800D01*
X108900D02*
X109900D01*
X110100Y82800D02*
Y84800D01*
Y82800D02*
X111100D01*
Y84800D01*
X110100D02*
X111100D01*
X44200Y108000D02*
X46200D01*
Y109000D01*
X44200D02*
X46200D01*
X44200Y108000D02*
Y109000D01*
X67400Y101015D02*
Y104385D01*
X68400D01*
Y101015D02*
Y104385D01*
X67400Y101015D02*
X68400D01*
X65100Y108300D02*
X67100D01*
X65100Y107300D02*
Y108300D01*
Y107300D02*
X67100D01*
Y108300D01*
X44200Y106800D02*
X46200D01*
Y107800D01*
X44200D02*
X46200D01*
X44200Y106800D02*
Y107800D01*
X66100Y104000D02*
X66900D01*
Y101600D02*
Y104000D01*
X66100Y101600D02*
X66900D01*
X66100D02*
Y104000D01*
X66500D02*
Y104400D01*
Y101200D02*
Y101600D01*
X119600Y73800D02*
Y74600D01*
X117200Y73800D02*
X119600D01*
X117200D02*
Y74600D01*
X119600D01*
Y74200D02*
X120000D01*
X116800D02*
X117200D01*
X119600Y72800D02*
Y73600D01*
X117200Y72800D02*
X119600D01*
X117200D02*
Y73600D01*
X119600D01*
Y73200D02*
X120000D01*
X116800D02*
X117200D01*
X63500Y108100D02*
Y108900D01*
X61100Y108100D02*
X63500D01*
X61100D02*
Y108900D01*
X63500D01*
Y108500D02*
X63900D01*
X60700D02*
X61100D01*
X43500Y95800D02*
X44300D01*
Y93400D02*
Y95800D01*
X43500Y93400D02*
X44300D01*
X43500D02*
Y95800D01*
X43900D02*
Y96200D01*
Y93000D02*
Y93400D01*
X63500Y107100D02*
Y107900D01*
X61100Y107100D02*
X63500D01*
X61100D02*
Y107900D01*
X63500D01*
Y107500D02*
X63900D01*
X60700D02*
X61100D01*
X46000Y95700D02*
X46800D01*
Y93300D02*
Y95700D01*
X46000Y93300D02*
X46800D01*
X46000D02*
Y95700D01*
X46400D02*
Y96100D01*
Y92900D02*
Y93300D01*
X41100Y95800D02*
X41900D01*
Y93400D02*
Y95800D01*
X41100Y93400D02*
X41900D01*
X41100D02*
Y95800D01*
X41500D02*
Y96200D01*
Y93000D02*
Y93400D01*
X42168Y93222D02*
Y95978D01*
X43232Y93222D02*
Y95978D01*
X42168D02*
X43232D01*
X44569Y93222D02*
Y95978D01*
X45631Y93222D02*
Y95978D01*
X44569D02*
X45631D01*
X41600Y107000D02*
Y109000D01*
Y107000D02*
X42600D01*
Y109000D01*
X41600D02*
X42600D01*
X46715Y108000D02*
X50085D01*
X46715D02*
Y109000D01*
X50085D01*
Y108000D02*
Y109000D01*
X42800Y107000D02*
Y109000D01*
Y107000D02*
X43800D01*
Y109000D01*
X42800D02*
X43800D01*
X119600Y74800D02*
Y75600D01*
X117200Y74800D02*
X119600D01*
X117200D02*
Y75600D01*
X119600D01*
Y75200D02*
X120000D01*
X116800D02*
X117200D01*
X108600Y73200D02*
Y74000D01*
X106200Y73200D02*
X108600D01*
X106200D02*
Y74000D01*
X108600D01*
Y73600D02*
X109000D01*
X105800D02*
X106200D01*
X117400Y77800D02*
Y79800D01*
X116400D02*
X117400D01*
X116400Y77800D02*
Y79800D01*
Y77800D02*
X117400D01*
X118600D02*
Y79800D01*
X117600D02*
X118600D01*
X117600Y77800D02*
Y79800D01*
Y77800D02*
X118600D01*
X108600Y72200D02*
Y73000D01*
X106200Y72200D02*
X108600D01*
X106200D02*
Y73000D01*
X108600D01*
Y72600D02*
X109000D01*
X105800D02*
X106200D01*
X63600Y105900D02*
Y106700D01*
X61200Y105900D02*
X63600D01*
X61200D02*
Y106700D01*
X63600D01*
Y106300D02*
X64000D01*
X60800D02*
X61200D01*
X108600Y74200D02*
Y75000D01*
X106200Y74200D02*
X108600D01*
X106200D02*
Y75000D01*
X108600D01*
Y74600D02*
X109000D01*
X105800D02*
X106200D01*
X103568Y73022D02*
Y75778D01*
X104632Y73022D02*
Y75778D01*
X103568D02*
X104632D01*
X102268Y73022D02*
Y75778D01*
X103331Y73022D02*
Y75778D01*
X102268D02*
X103331D01*
X119650Y68750D02*
X121150D01*
Y65250D02*
Y68750D01*
X119650Y65250D02*
X121150D01*
X119650D02*
Y68750D01*
X116600Y80100D02*
X118600D01*
Y81100D01*
X116600D02*
X118600D01*
X116600Y80100D02*
Y81100D01*
Y81300D02*
X118600D01*
Y82300D01*
X116600D02*
X118600D01*
X116600Y81300D02*
Y82300D01*
Y82500D02*
X118600D01*
Y83500D01*
X116600D02*
X118600D01*
X116600Y82500D02*
Y83500D01*
Y83700D02*
X118600D01*
Y84700D01*
X116600D02*
X118600D01*
X116600Y83700D02*
Y84700D01*
X55200Y69200D02*
Y70000D01*
X52800Y69200D02*
X55200D01*
X52800D02*
Y70000D01*
X55200D01*
Y69600D02*
X55600D01*
X52400D02*
X52800D01*
Y70300D02*
Y71100D01*
X55200D01*
Y70300D02*
Y71100D01*
X52800Y70300D02*
X55200D01*
X52400Y70700D02*
X52800D01*
X55200D02*
X55600D01*
X49900Y69400D02*
Y70200D01*
X47500Y69400D02*
X49900D01*
X47500D02*
Y70200D01*
X49900D01*
Y69800D02*
X50300D01*
X47100D02*
X47500D01*
X116900Y68800D02*
X117700D01*
X116900D02*
Y71200D01*
X117700D01*
Y68800D02*
Y71200D01*
X117300Y68400D02*
Y68800D01*
Y71200D02*
Y71600D01*
X59600Y91100D02*
Y91900D01*
X62000D01*
Y91100D02*
Y91900D01*
X59600Y91100D02*
X62000D01*
X59200Y91500D02*
X59600D01*
X62000D02*
X62400D01*
X47500Y70400D02*
Y71200D01*
X49900D01*
Y70400D02*
Y71200D01*
X47500Y70400D02*
X49900D01*
X47100Y70800D02*
X47500D01*
X49900D02*
X50300D01*
X47500Y71400D02*
Y72200D01*
X49900D01*
Y71400D02*
Y72200D01*
X47500Y71400D02*
X49900D01*
X47100Y71800D02*
X47500D01*
X49900D02*
X50300D01*
X59600Y92100D02*
Y92900D01*
X62000D01*
Y92100D02*
Y92900D01*
X59600Y92100D02*
X62000D01*
X59200Y92500D02*
X59600D01*
X62000D02*
X62400D01*
X118100Y68800D02*
X118900D01*
X118100D02*
Y71200D01*
X118900D01*
Y68800D02*
Y71200D01*
X118500Y68400D02*
Y68800D01*
Y71200D02*
Y71600D01*
X59600Y95100D02*
Y95900D01*
X62000D01*
Y95100D02*
Y95900D01*
X59600Y95100D02*
X62000D01*
X59200Y95500D02*
X59600D01*
X62000D02*
X62400D01*
X62000Y90100D02*
Y90900D01*
X59600Y90100D02*
X62000D01*
X59600D02*
Y90900D01*
X62000D01*
Y90500D02*
X62400D01*
X59200D02*
X59600D01*
Y94100D02*
Y94900D01*
X62000D01*
Y94100D02*
Y94900D01*
X59600Y94100D02*
X62000D01*
X59200Y94500D02*
X59600D01*
X62000D02*
X62400D01*
X59600Y93100D02*
Y93900D01*
X62000D01*
Y93100D02*
Y93900D01*
X59600Y93100D02*
X62000D01*
X59200Y93500D02*
X59600D01*
X62000D02*
X62400D01*
X76100Y103215D02*
Y106585D01*
X77100D01*
Y103215D02*
Y106585D01*
X76100Y103215D02*
X77100D01*
X74800D02*
Y106585D01*
X75800D01*
Y103215D02*
Y106585D01*
X74800Y103215D02*
X75800D01*
X77400Y102900D02*
X78200D01*
X77400D02*
Y105300D01*
X78200D01*
Y102900D02*
Y105300D01*
X77800Y102500D02*
Y102900D01*
Y105300D02*
Y105700D01*
X59600Y88900D02*
Y89700D01*
X62000D01*
Y88900D02*
Y89700D01*
X59600Y88900D02*
X62000D01*
X59200Y89300D02*
X59600D01*
X62000D02*
X62400D01*
X63300Y85100D02*
Y87100D01*
Y85100D02*
X64300D01*
Y87100D01*
X63300D02*
X64300D01*
X85700Y108300D02*
X87700D01*
Y109300D01*
X85700D02*
X87700D01*
X85700Y108300D02*
Y109300D01*
Y108000D02*
X87700D01*
X85700Y107000D02*
Y108000D01*
Y107000D02*
X87700D01*
Y108000D01*
X62100Y85100D02*
Y87100D01*
Y85100D02*
X63100D01*
Y87100D01*
X62100D02*
X63100D01*
X64500Y85100D02*
Y87100D01*
Y85100D02*
X65500D01*
Y87100D01*
X64500D02*
X65500D01*
X47600Y65200D02*
X48400D01*
X47600D02*
Y67600D01*
X48400D01*
Y65200D02*
Y67600D01*
X48000Y64800D02*
Y65200D01*
Y67600D02*
Y68000D01*
X45300Y66500D02*
Y68500D01*
Y66500D02*
X46300D01*
Y68500D01*
X45300D02*
X46300D01*
X60900Y85100D02*
Y87100D01*
Y85100D02*
X61900D01*
Y87100D01*
X60900D02*
X61900D01*
X64400Y84100D02*
Y84900D01*
X62000Y84100D02*
X64400D01*
X62000D02*
Y84900D01*
X64400D01*
Y84500D02*
X64800D01*
X61600D02*
X62000D01*
X46600Y67600D02*
X47400D01*
Y65200D02*
Y67600D01*
X46600Y65200D02*
X47400D01*
X46600D02*
Y67600D01*
X47000D02*
Y68000D01*
Y64800D02*
Y65200D01*
X88700Y108400D02*
X89500D01*
Y106000D02*
Y108400D01*
X88700Y106000D02*
X89500D01*
X88700D02*
Y108400D01*
X89100D02*
Y108800D01*
Y105600D02*
Y106000D01*
X71446Y105384D02*
X72154D01*
X71446Y103416D02*
X72154D01*
X71446D02*
Y105384D01*
X72154Y103416D02*
Y105384D01*
X70600Y105800D02*
Y106600D01*
X73000D01*
Y105800D02*
Y106600D01*
X70600Y105800D02*
X73000D01*
X70200Y106200D02*
X70600D01*
X73000D02*
X73400D01*
X73000Y102200D02*
Y103000D01*
X70600Y102200D02*
X73000D01*
X70600D02*
Y103000D01*
X73000D01*
Y102600D02*
X73400D01*
X70200D02*
X70600D01*
X122900Y70100D02*
X123700D01*
X122900D02*
Y72500D01*
X123700D01*
Y70100D02*
Y72500D01*
X123300Y69700D02*
Y70100D01*
Y72500D02*
Y72900D01*
X122800Y86700D02*
X123600D01*
X122800D02*
Y89100D01*
X123600D01*
Y86700D02*
Y89100D01*
X123200Y86300D02*
Y86700D01*
Y89100D02*
Y89500D01*
X54600Y67600D02*
X55400D01*
Y65200D02*
Y67600D01*
X54600Y65200D02*
X55400D01*
X54600D02*
Y67600D01*
X55000D02*
Y68000D01*
Y64800D02*
Y65200D01*
X53600Y67600D02*
X54400D01*
Y65200D02*
Y67600D01*
X53600Y65200D02*
X54400D01*
X53600D02*
Y67600D01*
X54000D02*
Y68000D01*
Y64800D02*
Y65200D01*
X52600D02*
X53400D01*
X52600D02*
Y67600D01*
X53400D01*
Y65200D02*
Y67600D01*
X53000Y64800D02*
Y65200D01*
Y67600D02*
Y68000D01*
X51600Y65200D02*
X52400D01*
X51600D02*
Y67600D01*
X52400D01*
Y65200D02*
Y67600D01*
X52000Y64800D02*
Y65200D01*
Y67600D02*
Y68000D01*
X50600Y65200D02*
X51400D01*
X50600D02*
Y67600D01*
X51400D01*
Y65200D02*
Y67600D01*
X51000Y64800D02*
Y65200D01*
Y67600D02*
Y68000D01*
X49600Y67600D02*
X50400D01*
Y65200D02*
Y67600D01*
X49600Y65200D02*
X50400D01*
X49600D02*
Y67600D01*
X50000D02*
Y68000D01*
Y64800D02*
Y65200D01*
X48600D02*
X49400D01*
X48600D02*
Y67600D01*
X49400D01*
Y65200D02*
Y67600D01*
X49000Y64800D02*
Y65200D01*
Y67600D02*
Y68000D01*
X96800Y108500D02*
Y109300D01*
X94400Y108500D02*
X96800D01*
X94400D02*
Y109300D01*
X96800D01*
Y108900D02*
X97200D01*
X94000D02*
X94400D01*
X122600Y67800D02*
Y68600D01*
X125000D01*
Y67800D02*
Y68600D01*
X122600Y67800D02*
X125000D01*
X122200Y68200D02*
X122600D01*
X125000D02*
X125400D01*
X115700Y77000D02*
Y79000D01*
X114700D02*
X115700D01*
X114700Y77000D02*
Y79000D01*
Y77000D02*
X115700D01*
X123200Y77600D02*
X124000D01*
Y75200D02*
Y77600D01*
X123200Y75200D02*
X124000D01*
X123200D02*
Y77600D01*
X123600D02*
Y78000D01*
Y74800D02*
Y75200D01*
X121500Y72500D02*
X122300D01*
Y70100D02*
Y72500D01*
X121500Y70100D02*
X122300D01*
X121500D02*
Y72500D01*
X121900D02*
Y72900D01*
Y69700D02*
Y70100D01*
X121500Y74000D02*
Y76000D01*
Y74000D02*
X122500D01*
Y76000D01*
X121500D02*
X122500D01*
Y76400D02*
Y78400D01*
X121500D02*
X122500D01*
X121500Y76400D02*
Y78400D01*
Y76400D02*
X122500D01*
X101300Y106300D02*
Y108300D01*
X100300D02*
X101300D01*
X100300Y106300D02*
Y108300D01*
Y106300D02*
X101300D01*
X69200Y107200D02*
Y109200D01*
X68200D02*
X69200D01*
X68200Y107200D02*
Y109200D01*
Y107200D02*
X69200D01*
X69400D02*
Y109200D01*
Y107200D02*
X70400D01*
Y109200D01*
X69400D02*
X70400D01*
X101300Y104000D02*
Y106000D01*
X100300D02*
X101300D01*
X100300Y104000D02*
Y106000D01*
Y104000D02*
X101300D01*
X99300Y105200D02*
X100100D01*
X99300D02*
Y107600D01*
X100100D01*
Y105200D02*
Y107600D01*
X99700Y104800D02*
Y105200D01*
Y107600D02*
Y108000D01*
X92300Y105700D02*
X93100D01*
X92300D02*
Y108100D01*
X93100D01*
Y105700D02*
Y108100D01*
X92700Y105300D02*
Y105700D01*
Y108100D02*
Y108500D01*
X89900Y105815D02*
Y109185D01*
X90900D01*
Y105815D02*
Y109185D01*
X89900Y105815D02*
X90900D01*
X91100D02*
Y109185D01*
X92100D01*
Y105815D02*
Y109185D01*
X91100Y105815D02*
X92100D01*
X106700Y81100D02*
Y81900D01*
X104300Y81100D02*
X106700D01*
X104300D02*
Y81900D01*
X106700D01*
Y81500D02*
X107100D01*
X103900D02*
X104300D01*
X122800Y84500D02*
Y85300D01*
X120400Y84500D02*
X122800D01*
X120400D02*
Y85300D01*
X122800D01*
Y84900D02*
X123200D01*
X120000D02*
X120400D01*
X87200Y105800D02*
Y106600D01*
X84800Y105800D02*
X87200D01*
X84800D02*
Y106600D01*
X87200D01*
Y106200D02*
X87600D01*
X84400D02*
X84800D01*
X115100Y81200D02*
X115900D01*
X115100D02*
Y83600D01*
X115900D01*
Y81200D02*
Y83600D01*
X115500Y80800D02*
Y81200D01*
Y83600D02*
Y84000D01*
X84800Y102300D02*
Y103100D01*
X87200D01*
Y102300D02*
Y103100D01*
X84800Y102300D02*
X87200D01*
X84400Y102700D02*
X84800D01*
X87200D02*
X87600D01*
X101700Y107500D02*
X102500D01*
Y105100D02*
Y107500D01*
X101700Y105100D02*
X102500D01*
X101700D02*
Y107500D01*
X102100D02*
Y107900D01*
Y104700D02*
Y105100D01*
X85646Y105484D02*
X86354D01*
X85646Y103516D02*
X86354D01*
X85646D02*
Y105484D01*
X86354Y103516D02*
Y105484D01*
X121800Y86700D02*
X122600D01*
X121800D02*
Y89100D01*
X122600D01*
Y86700D02*
Y89100D01*
X122200Y86300D02*
Y86700D01*
Y89100D02*
Y89500D01*
X120800Y86700D02*
X121600D01*
X120800D02*
Y89100D01*
X121600D01*
Y86700D02*
Y89100D01*
X121200Y86300D02*
Y86700D01*
Y89100D02*
Y89500D01*
X55200Y71400D02*
Y72200D01*
X52800Y71400D02*
X55200D01*
X52800D02*
Y72200D01*
X55200D01*
Y71800D02*
X55600D01*
X52400D02*
X52800D01*
X55200Y72400D02*
Y73200D01*
X52800Y72400D02*
X55200D01*
X52800D02*
Y73200D01*
X55200D01*
Y72800D02*
X55600D01*
X52400D02*
X52800D01*
X55200Y73400D02*
Y74200D01*
X52800Y73400D02*
X55200D01*
X52800D02*
Y74200D01*
X55200D01*
Y73800D02*
X55600D01*
X52400D02*
X52800D01*
X55200Y74400D02*
Y75200D01*
X52800Y74400D02*
X55200D01*
X52800D02*
Y75200D01*
X55200D01*
Y74800D02*
X55600D01*
X52400D02*
X52800D01*
X55200Y75400D02*
Y76200D01*
X52800Y75400D02*
X55200D01*
X52800D02*
Y76200D01*
X55200D01*
Y75800D02*
X55600D01*
X52400D02*
X52800D01*
X55200Y76400D02*
Y77200D01*
X52800Y76400D02*
X55200D01*
X52800D02*
Y77200D01*
X55200D01*
Y76800D02*
X55600D01*
X52400D02*
X52800D01*
X62800Y81200D02*
X63600D01*
Y78800D02*
Y81200D01*
X62800Y78800D02*
X63600D01*
X62800D02*
Y81200D01*
X63200D02*
Y81600D01*
Y78400D02*
Y78800D01*
X55200Y77400D02*
Y78200D01*
X52800Y77400D02*
X55200D01*
X52800D02*
Y78200D01*
X55200D01*
Y77800D02*
X55600D01*
X52400D02*
X52800D01*
X55200Y78400D02*
Y79200D01*
X52800Y78400D02*
X55200D01*
X52800D02*
Y79200D01*
X55200D01*
Y78800D02*
X55600D01*
X52400D02*
X52800D01*
X61800Y81200D02*
X62600D01*
Y78800D02*
Y81200D01*
X61800Y78800D02*
X62600D01*
X61800D02*
Y81200D01*
X62200D02*
Y81600D01*
Y78400D02*
Y78800D01*
X60800Y81200D02*
X61600D01*
Y78800D02*
Y81200D01*
X60800Y78800D02*
X61600D01*
X60800D02*
Y81200D01*
X61200D02*
Y81600D01*
Y78400D02*
Y78800D01*
X117001Y97350D02*
X119599D01*
X117001Y96050D02*
X119599D01*
Y97350D01*
X117001Y96917D02*
Y97350D01*
Y96050D02*
Y96483D01*
X110701Y97550D02*
X113299D01*
X110701Y96250D02*
X113299D01*
Y97550D01*
X110701Y97117D02*
Y97550D01*
Y96250D02*
Y96683D01*
X106500Y77200D02*
Y78000D01*
X104100Y77200D02*
X106500D01*
X104100D02*
Y78000D01*
X106500D01*
Y77600D02*
X106900D01*
X103700D02*
X104100D01*
X104200Y78500D02*
Y79300D01*
X106600D01*
Y78500D02*
Y79300D01*
X104200Y78500D02*
X106600D01*
X103800Y78900D02*
X104200D01*
X106600D02*
X107000D01*
X121257Y91072D02*
Y95128D01*
X123343Y91072D02*
Y95128D01*
X121257D02*
X122050D01*
X122550D02*
X123343D01*
X121257Y91072D02*
X123343D01*
X111257Y65132D02*
X113343D01*
X112550Y79068D02*
X113343D01*
X111257D02*
X112050D01*
X113343Y65132D02*
Y79068D01*
X111257Y65132D02*
Y79068D01*
X44767Y99361D02*
X65633D01*
X44767Y104439D02*
X65633D01*
X44767Y99361D02*
Y101650D01*
Y102150D02*
Y104439D01*
X65633Y99361D02*
Y104439D01*
X65800Y78800D02*
X66600D01*
X65800D02*
Y81200D01*
X66600D01*
Y78800D02*
Y81200D01*
X66200Y78400D02*
Y78800D01*
Y81200D02*
Y81600D01*
X102000Y65500D02*
X102800D01*
X102000D02*
Y67900D01*
X102800D01*
Y65500D02*
Y67900D01*
X102400Y65100D02*
Y65500D01*
Y67900D02*
Y68300D01*
X64800Y78800D02*
X65600D01*
X64800D02*
Y81200D01*
X65600D01*
Y78800D02*
Y81200D01*
X65200Y78400D02*
Y78800D01*
Y81200D02*
Y81600D01*
X101000Y65500D02*
X101800D01*
X101000D02*
Y67900D01*
X101800D01*
Y65500D02*
Y67900D01*
X101400Y65100D02*
Y65500D01*
Y67900D02*
Y68300D01*
X97200Y66100D02*
Y66900D01*
X99600D01*
Y66100D02*
Y66900D01*
X97200Y66100D02*
X99600D01*
X96800Y66500D02*
X97200D01*
X99600D02*
X100000D01*
X97200Y67100D02*
Y67900D01*
X99600D01*
Y67100D02*
Y67900D01*
X97200Y67100D02*
X99600D01*
X96800Y67500D02*
X97200D01*
X99600D02*
X100000D01*
X63800Y78800D02*
X64600D01*
X63800D02*
Y81200D01*
X64600D01*
Y78800D02*
Y81200D01*
X64200Y78400D02*
Y78800D01*
Y81200D02*
Y81600D01*
X97200Y68100D02*
Y68900D01*
X99600D01*
Y68100D02*
Y68900D01*
X97200Y68100D02*
X99600D01*
X96800Y68500D02*
X97200D01*
X99600D02*
X100000D01*
X65000Y82700D02*
Y83500D01*
X62600Y82700D02*
X65000D01*
X62600D02*
Y83500D01*
X65000D01*
Y83100D02*
X65400D01*
X62200D02*
X62600D01*
X59200Y75800D02*
X60000D01*
X59200D02*
Y78200D01*
X60000D01*
Y75800D02*
Y78200D01*
X59600Y75400D02*
Y75800D01*
Y78200D02*
Y78600D01*
X58200Y75800D02*
X59000D01*
X58200D02*
Y78200D01*
X59000D01*
Y75800D02*
Y78200D01*
X58600Y75400D02*
Y75800D01*
Y78200D02*
Y78600D01*
X57200Y75800D02*
X58000D01*
X57200D02*
Y78200D01*
X58000D01*
Y75800D02*
Y78200D01*
X57600Y75400D02*
Y75800D01*
Y78200D02*
Y78600D01*
X92800Y79300D02*
X93600D01*
Y76900D02*
Y79300D01*
X92800Y76900D02*
X93600D01*
X92800D02*
Y79300D01*
X93200D02*
Y79700D01*
Y76500D02*
Y76900D01*
X93649Y68243D02*
X94751D01*
Y66157D02*
Y68243D01*
X93649Y66157D02*
Y68243D01*
X108700Y67100D02*
Y67900D01*
X106300Y67100D02*
X108700D01*
X106300D02*
Y67900D01*
X108700D01*
Y67500D02*
X109100D01*
X105900D02*
X106300D01*
X108700Y66000D02*
Y66800D01*
X106300Y66000D02*
X108700D01*
X106300D02*
Y66800D01*
X108700D01*
Y66400D02*
X109100D01*
X105900D02*
X106300D01*
X108700Y64900D02*
Y65700D01*
X106300Y64900D02*
X108700D01*
X106300D02*
Y65700D01*
X108700D01*
Y65300D02*
X109100D01*
X105900D02*
X106300D01*
X56800Y72900D02*
X57600D01*
Y70500D02*
Y72900D01*
X56800Y70500D02*
X57600D01*
X56800D02*
Y72900D01*
X57200D02*
Y73300D01*
Y70100D02*
Y70500D01*
X67049Y78649D02*
Y79751D01*
Y78649D02*
X68151D01*
Y79751D01*
X67049D02*
X68151D01*
X114649Y72949D02*
X115751D01*
Y74051D01*
X114649D02*
X115751D01*
X114649Y72949D02*
Y74051D01*
X77649Y106949D02*
X78751D01*
Y108051D01*
X77649D02*
X78751D01*
X77649Y106949D02*
Y108051D01*
Y108449D02*
X78751D01*
Y109551D01*
X77649D02*
X78751D01*
X77649Y108449D02*
Y109551D01*
D12*
X48146Y72655D02*
G03*
X48146Y72655I-39J0D01*
G01*
Y72694D02*
G03*
X48146Y72694I-39J0D01*
G01*
X48162D02*
G03*
X48162Y72694I-56J0D01*
G01*
X48194D02*
G03*
X48194Y72694I-88J0D01*
G01*
X96065Y104336D02*
Y104864D01*
X96735Y104336D02*
Y104864D01*
X94065Y104336D02*
Y104864D01*
X94735Y104336D02*
Y104864D01*
X91465Y102936D02*
Y103464D01*
X92135Y102936D02*
Y103464D01*
X89665Y102936D02*
Y103464D01*
X90335Y102936D02*
Y103464D01*
X97091Y70151D02*
X97721D01*
X95076D02*
X95662D01*
X95076Y71615D02*
X95174D01*
X97619D02*
X97721D01*
X95076Y70151D02*
Y71615D01*
X97721Y70151D02*
Y71615D01*
X95077Y75332D02*
X95707D01*
X97136D02*
X97723D01*
X97624Y73868D02*
X97723D01*
X95077D02*
X95180D01*
X97723D02*
Y75332D01*
X95077Y73868D02*
Y75332D01*
X100393Y70168D02*
X101023D01*
X98377D02*
X98964D01*
X98377Y71632D02*
X98476D01*
X100920D02*
X101023D01*
X98377Y70168D02*
Y71632D01*
X101023Y70168D02*
Y71632D01*
D13*
X121769Y94734D02*
G03*
X121769Y94734I-118J0D01*
G01*
X111769Y78675D02*
G03*
X111769Y78675I-118J0D01*
G01*
X45279Y99754D02*
G03*
X45279Y99754I-118J0D01*
G01*
D14*
X41500Y81500D02*
Y84500D01*
X42700Y81500D02*
Y84500D01*
Y74300D02*
Y77300D01*
X41400Y74300D02*
Y77300D01*
X86400Y73900D02*
X86200D01*
X86300D01*
Y73400D01*
X86200Y73300D01*
X86100D01*
X86000Y73400D01*
X86600Y73700D02*
Y73400D01*
X86700Y73300D01*
X87000D01*
Y73700D01*
X87200Y73300D02*
Y73700D01*
X87500D01*
X87599Y73600D01*
Y73300D01*
X88099D02*
X87899D01*
X87799Y73400D01*
Y73600D01*
X87899Y73700D01*
X88099D01*
X88199Y73600D01*
Y73500D01*
X87799D01*
X89399Y73300D02*
X88999D01*
X89399Y73700D01*
Y73800D01*
X89299Y73900D01*
X89099D01*
X88999Y73800D01*
X89599D02*
X89699Y73900D01*
X89899D01*
X89999Y73800D01*
Y73400D01*
X89899Y73300D01*
X89699D01*
X89599Y73400D01*
Y73800D01*
X90599Y73300D02*
X90199D01*
X90599Y73700D01*
Y73800D01*
X90499Y73900D01*
X90299D01*
X90199Y73800D01*
X90798Y73300D02*
X90998D01*
X90898D01*
Y73900D01*
X90798Y73800D01*
X79700Y75500D02*
Y74900D01*
X80000D01*
X80100Y75000D01*
Y75100D01*
Y75200D01*
X80000Y75300D01*
X79700D01*
X80300D02*
Y75000D01*
X80400Y74900D01*
X80700D01*
Y74800D01*
X80600Y74700D01*
X80500D01*
X80700Y74900D02*
Y75300D01*
X81499Y74900D02*
Y75500D01*
X81799D01*
X81899Y75400D01*
Y75200D01*
X81799Y75100D01*
X81499D01*
X81699D02*
X81899Y74900D01*
X82399D02*
X82199D01*
X82099Y75000D01*
Y75200D01*
X82199Y75300D01*
X82399D01*
X82499Y75200D01*
Y75100D01*
X82099D01*
X82699Y75300D02*
X83099D01*
X82699Y74900D01*
X83099D01*
X83399D02*
X83599D01*
X83699Y75000D01*
Y75200D01*
X83599Y75300D01*
X83399D01*
X83299Y75200D01*
Y75000D01*
X83399Y74900D01*
X83899D02*
Y75300D01*
X84199D01*
X84299Y75200D01*
Y74900D01*
X84498D02*
X84698D01*
X84598D01*
Y75300D01*
X84498D01*
X85098Y75400D02*
Y75300D01*
X84998D01*
X85198D01*
X85098D01*
Y75000D01*
X85198Y74900D01*
X86098Y75500D02*
Y74900D01*
X86498D01*
X86698Y75500D02*
Y74900D01*
X87098D01*
X87697Y75400D02*
X87597Y75500D01*
X87398D01*
X87298Y75400D01*
Y75000D01*
X87398Y74900D01*
X87597D01*
X87697Y75000D01*
X87997Y74800D02*
X88097Y74900D01*
Y75000D01*
X87997D01*
Y74900D01*
X88097D01*
X87997Y74800D01*
X87897Y74700D01*
X89097Y74900D02*
Y75500D01*
X89297Y75300D01*
X89497Y75500D01*
Y74900D01*
X89697Y75500D02*
X89897D01*
X89797D01*
Y74900D01*
X89697D01*
X89897D01*
X90596Y75500D02*
X90197D01*
Y74900D01*
X90596D01*
X90197Y75200D02*
X90397D01*
X90796Y75500D02*
X91196D01*
X90996D01*
Y74900D01*
X79700Y75800D02*
Y76400D01*
X80000D01*
X80100Y76300D01*
Y76100D01*
X80000Y76000D01*
X79700D01*
X80700Y76300D02*
X80600Y76400D01*
X80400D01*
X80300Y76300D01*
Y75900D01*
X80400Y75800D01*
X80600D01*
X80700Y75900D01*
X80900Y76400D02*
Y75800D01*
X81200D01*
X81299Y75900D01*
Y76000D01*
X81200Y76100D01*
X80900D01*
X81200D01*
X81299Y76200D01*
Y76300D01*
X81200Y76400D01*
X80900D01*
X82099Y76200D02*
Y75900D01*
X82199Y75800D01*
X82299Y75900D01*
X82399Y75800D01*
X82499Y75900D01*
Y76200D01*
X82799D02*
X82999D01*
X83099Y76100D01*
Y75800D01*
X82799D01*
X82699Y75900D01*
X82799Y76000D01*
X83099D01*
X83299Y75800D02*
X83599D01*
X83699Y75900D01*
X83599Y76000D01*
X83399D01*
X83299Y76100D01*
X83399Y76200D01*
X83699D01*
X84498Y75800D02*
Y76200D01*
X84598D01*
X84698Y76100D01*
Y75800D01*
Y76100D01*
X84798Y76200D01*
X84898Y76100D01*
Y75800D01*
X85198Y76200D02*
X85398D01*
X85498Y76100D01*
Y75800D01*
X85198D01*
X85098Y75900D01*
X85198Y76000D01*
X85498D01*
X85698Y75800D02*
Y76200D01*
X85998D01*
X86098Y76100D01*
Y75800D01*
X86298Y76200D02*
Y75900D01*
X86398Y75800D01*
X86698D01*
Y76200D01*
X86998Y75800D02*
Y76300D01*
Y76100D01*
X86898D01*
X87098D01*
X86998D01*
Y76300D01*
X87098Y76400D01*
X87497Y76200D02*
X87697D01*
X87797Y76100D01*
Y75800D01*
X87497D01*
X87398Y75900D01*
X87497Y76000D01*
X87797D01*
X88397Y76200D02*
X88097D01*
X87997Y76100D01*
Y75900D01*
X88097Y75800D01*
X88397D01*
X88697Y76300D02*
Y76200D01*
X88597D01*
X88797D01*
X88697D01*
Y75900D01*
X88797Y75800D01*
X89097Y76200D02*
Y75900D01*
X89197Y75800D01*
X89497D01*
Y76200D01*
X89697D02*
Y75800D01*
Y76000D01*
X89797Y76100D01*
X89897Y76200D01*
X89997D01*
X90596Y75800D02*
X90397D01*
X90297Y75900D01*
Y76100D01*
X90397Y76200D01*
X90596D01*
X90696Y76100D01*
Y76000D01*
X90297D01*
X91296Y76400D02*
Y75800D01*
X90996D01*
X90896Y75900D01*
Y76100D01*
X90996Y76200D01*
X91296D01*
X79700Y77300D02*
Y76800D01*
X79800Y76700D01*
X80000D01*
X80100Y76800D01*
Y77300D01*
X80300Y76700D02*
Y77100D01*
X80600D01*
X80700Y77000D01*
Y76700D01*
X80900D02*
X81100D01*
X81000D01*
Y77100D01*
X80900D01*
X81399D02*
X81599Y76700D01*
X81799Y77100D01*
X82299Y76700D02*
X82099D01*
X81999Y76800D01*
Y77000D01*
X82099Y77100D01*
X82299D01*
X82399Y77000D01*
Y76900D01*
X81999D01*
X82599Y77100D02*
Y76700D01*
Y76900D01*
X82699Y77000D01*
X82799Y77100D01*
X82899D01*
X83199Y76700D02*
X83499D01*
X83599Y76800D01*
X83499Y76900D01*
X83299D01*
X83199Y77000D01*
X83299Y77100D01*
X83599D01*
X83799Y76700D02*
X83999D01*
X83899D01*
Y77100D01*
X83799D01*
X84398Y77200D02*
Y77100D01*
X84299D01*
X84498D01*
X84398D01*
Y76800D01*
X84498Y76700D01*
X84798Y77100D02*
Y76800D01*
X84898Y76700D01*
X85198D01*
Y76600D01*
X85098Y76500D01*
X84998D01*
X85198Y76700D02*
Y77100D01*
X85398D02*
X85498D01*
Y77000D01*
X85398D01*
Y77100D01*
Y76800D02*
X85498D01*
Y76700D01*
X85398D01*
Y76800D01*
X86498Y76700D02*
Y77100D01*
X86698Y77300D01*
X86898Y77100D01*
Y76700D01*
Y77000D01*
X86498D01*
X87098Y76700D02*
Y77300D01*
X87298Y77100D01*
X87497Y77300D01*
Y76700D01*
X88097Y77200D02*
X87997Y77300D01*
X87797D01*
X87697Y77200D01*
Y77100D01*
X87797Y77000D01*
X87997D01*
X88097Y76900D01*
Y76800D01*
X87997Y76700D01*
X87797D01*
X87697Y76800D01*
X88297Y77300D02*
Y76800D01*
X88397Y76700D01*
X88597D01*
X88697Y76800D01*
Y77300D01*
X88897Y76700D02*
Y77300D01*
X89097Y77100D01*
X89297Y77300D01*
Y76700D01*
X89497Y77300D02*
X89697D01*
X89597D01*
Y76700D01*
X89497D01*
X89697D01*
X90397Y77200D02*
X90297Y77300D01*
X90097D01*
X89997Y77200D01*
Y77100D01*
X90097Y77000D01*
X90297D01*
X90397Y76900D01*
Y76800D01*
X90297Y76700D01*
X90097D01*
X89997Y76800D01*
X79700Y77500D02*
Y78100D01*
X79900Y77900D01*
X80100Y78100D01*
Y77500D01*
X80600D02*
X80400D01*
X80300Y77600D01*
Y77800D01*
X80400Y77900D01*
X80600D01*
X80700Y77800D01*
Y77700D01*
X80300D01*
X80900Y77500D02*
Y77900D01*
X81200D01*
X81299Y77800D01*
Y77500D01*
X81599Y78000D02*
Y77900D01*
X81499D01*
X81699D01*
X81599D01*
Y77600D01*
X81699Y77500D01*
X82099D02*
X82299D01*
X82399Y77600D01*
Y77800D01*
X82299Y77900D01*
X82099D01*
X81999Y77800D01*
Y77600D01*
X82099Y77500D01*
X82599Y77900D02*
Y77500D01*
Y77700D01*
X82699Y77800D01*
X82799Y77900D01*
X82899D01*
X83199D02*
X83299D01*
Y77800D01*
X83199D01*
Y77900D01*
Y77600D02*
X83299D01*
Y77500D01*
X83199D01*
Y77600D01*
X84299Y77500D02*
Y78100D01*
X84498Y77900D01*
X84698Y78100D01*
Y77500D01*
X84998D02*
X85198D01*
X85298Y77600D01*
Y77800D01*
X85198Y77900D01*
X84998D01*
X84898Y77800D01*
Y77600D01*
X84998Y77500D01*
X85498D02*
X85698D01*
X85598D01*
Y78100D01*
X85498D01*
X86398D02*
Y77500D01*
X86098D01*
X85998Y77600D01*
Y77800D01*
X86098Y77900D01*
X86398D01*
X86698Y77500D02*
X86898D01*
X86998Y77600D01*
Y77800D01*
X86898Y77900D01*
X86698D01*
X86598Y77800D01*
Y77600D01*
X86698Y77500D01*
X87198Y77900D02*
X87398Y77500D01*
X87597Y77900D01*
X87797D02*
Y77600D01*
X87897Y77500D01*
X88197D01*
Y77400D01*
X88097Y77300D01*
X87997D01*
X88197Y77500D02*
Y77900D01*
X88497D02*
X88697D01*
X88797Y77800D01*
Y77500D01*
X88497D01*
X88397Y77600D01*
X88497Y77700D01*
X88797D01*
X88997Y77500D02*
Y77900D01*
X89297D01*
X89397Y77800D01*
Y77500D01*
X90197D02*
Y78100D01*
X90596Y77500D01*
Y78100D01*
X90796Y77500D02*
Y77600D01*
X90896D01*
Y77500D01*
X90796D01*
X91296D02*
Y77900D01*
X91496Y78100D01*
X91696Y77900D01*
Y77500D01*
Y77800D01*
X91296D01*
X91896Y77500D02*
Y77600D01*
X91996D01*
Y77500D01*
X91896D01*
X79700Y78300D02*
Y78700D01*
X79900Y78900D01*
X80100Y78700D01*
Y78300D01*
Y78600D01*
X79700D01*
X80300Y78700D02*
Y78400D01*
X80400Y78300D01*
X80700D01*
Y78700D01*
X81000Y78800D02*
Y78700D01*
X80900D01*
X81100D01*
X81000D01*
Y78400D01*
X81100Y78300D01*
X81399Y78900D02*
Y78300D01*
Y78600D01*
X81499Y78700D01*
X81699D01*
X81799Y78600D01*
Y78300D01*
X82099D02*
X82299D01*
X82399Y78400D01*
Y78600D01*
X82299Y78700D01*
X82099D01*
X81999Y78600D01*
Y78400D01*
X82099Y78300D01*
X82599Y78700D02*
Y78300D01*
Y78500D01*
X82699Y78600D01*
X82799Y78700D01*
X82899D01*
X83199D02*
X83299D01*
Y78600D01*
X83199D01*
Y78700D01*
Y78400D02*
X83299D01*
Y78300D01*
X83199D01*
Y78400D01*
X84698Y78800D02*
X84598Y78900D01*
X84398D01*
X84299Y78800D01*
Y78700D01*
X84398Y78600D01*
X84598D01*
X84698Y78500D01*
Y78400D01*
X84598Y78300D01*
X84398D01*
X84299Y78400D01*
X84898Y78900D02*
Y78300D01*
Y78600D01*
X84998Y78700D01*
X85198D01*
X85298Y78600D01*
Y78300D01*
X85598Y78700D02*
X85798D01*
X85898Y78600D01*
Y78300D01*
X85598D01*
X85498Y78400D01*
X85598Y78500D01*
X85898D01*
X86098Y78100D02*
Y78700D01*
X86398D01*
X86498Y78600D01*
Y78400D01*
X86398Y78300D01*
X86098D01*
X86798Y78700D02*
X86998D01*
X87098Y78600D01*
Y78300D01*
X86798D01*
X86698Y78400D01*
X86798Y78500D01*
X87098D01*
X87298Y78700D02*
Y78300D01*
Y78500D01*
X87398Y78600D01*
X87497Y78700D01*
X87597D01*
X88197Y78300D02*
X87997D01*
X87897Y78400D01*
Y78600D01*
X87997Y78700D01*
X88197D01*
X88297Y78600D01*
Y78500D01*
X87897D01*
X88497Y78300D02*
Y78700D01*
X88797D01*
X88897Y78600D01*
Y78300D01*
X89097D02*
Y78900D01*
Y78500D02*
X89397Y78700D01*
X89097Y78500D02*
X89397Y78300D01*
X89797D02*
X89997D01*
X90097Y78400D01*
Y78600D01*
X89997Y78700D01*
X89797D01*
X89697Y78600D01*
Y78400D01*
X89797Y78300D01*
X90896D02*
Y78900D01*
X91296Y78300D01*
Y78900D01*
X91496Y78300D02*
Y78400D01*
X91596D01*
Y78300D01*
X91496D01*
X91996Y78900D02*
Y78500D01*
X92196Y78300D01*
X92396Y78500D01*
Y78900D01*
X92596Y78300D02*
Y78400D01*
X92696D01*
Y78300D01*
X92596D01*
X79700Y79700D02*
Y79100D01*
X80000D01*
X80100Y79200D01*
Y79600D01*
X80000Y79700D01*
X79700D01*
X80300Y79100D02*
X80500D01*
X80400D01*
Y79500D01*
X80300D01*
X80800Y78900D02*
Y79500D01*
X81100D01*
X81200Y79400D01*
Y79200D01*
X81100Y79100D01*
X80800D01*
X81399D02*
X81599D01*
X81499D01*
Y79700D01*
X81399D01*
X81999Y79100D02*
X82199D01*
X82299Y79200D01*
Y79400D01*
X82199Y79500D01*
X81999D01*
X81899Y79400D01*
Y79200D01*
X81999Y79100D01*
X82499D02*
Y79500D01*
X82599D01*
X82699Y79400D01*
Y79100D01*
Y79400D01*
X82799Y79500D01*
X82899Y79400D01*
Y79100D01*
X83199Y79500D02*
X83399D01*
X83499Y79400D01*
Y79100D01*
X83199D01*
X83099Y79200D01*
X83199Y79300D01*
X83499D01*
X84299Y79100D02*
Y79700D01*
X84598D01*
X84698Y79600D01*
Y79400D01*
X84598Y79300D01*
X84299D01*
X85298Y79600D02*
X85198Y79700D01*
X84998D01*
X84898Y79600D01*
Y79200D01*
X84998Y79100D01*
X85198D01*
X85298Y79200D01*
X85498Y79700D02*
Y79100D01*
X85798D01*
X85898Y79200D01*
Y79300D01*
X85798Y79400D01*
X85498D01*
X85798D01*
X85898Y79500D01*
Y79600D01*
X85798Y79700D01*
X85498D01*
X91100Y92400D02*
Y92500D01*
X91000D01*
Y92400D01*
X91100D01*
X91200Y92500D01*
Y92700D01*
X91100Y92800D01*
X90900D01*
X90800Y92700D01*
Y92300D01*
X90900Y92200D01*
X91200D01*
X91400D02*
X91600D01*
X91500D01*
Y92800D01*
X91400Y92700D01*
X92300Y92800D02*
X92100Y92700D01*
X91900Y92500D01*
Y92300D01*
X92000Y92200D01*
X92200D01*
X92300Y92300D01*
Y92400D01*
X92200Y92500D01*
X91900D01*
X92499Y92700D02*
X92599Y92800D01*
X92799D01*
X92899Y92700D01*
Y92600D01*
X92799Y92500D01*
X92899Y92400D01*
Y92300D01*
X92799Y92200D01*
X92599D01*
X92499Y92300D01*
Y92400D01*
X92599Y92500D01*
X92499Y92600D01*
Y92700D01*
X92599Y92500D02*
X92799D01*
X93699Y92200D02*
Y92800D01*
X93899Y92600D01*
X94099Y92800D01*
Y92200D01*
X94299Y92800D02*
Y92200D01*
Y92500D01*
X94699D01*
Y92800D01*
Y92200D01*
X94899Y92600D02*
X95299D01*
X94899Y92200D01*
X95299D01*
X73400Y92100D02*
Y92200D01*
X73300D01*
Y92100D01*
X73400D01*
X73500Y92200D01*
Y92400D01*
X73400Y92500D01*
X73200D01*
X73100Y92400D01*
Y92000D01*
X73200Y91900D01*
X73500D01*
X73700D02*
X73900D01*
X73800D01*
Y92500D01*
X73700Y92400D01*
X74600Y92500D02*
X74400Y92400D01*
X74200Y92200D01*
Y92000D01*
X74300Y91900D01*
X74500D01*
X74600Y92000D01*
Y92100D01*
X74500Y92200D01*
X74200D01*
X74799Y92400D02*
X74899Y92500D01*
X75099D01*
X75199Y92400D01*
Y92300D01*
X75099Y92200D01*
X75199Y92100D01*
Y92000D01*
X75099Y91900D01*
X74899D01*
X74799Y92000D01*
Y92100D01*
X74899Y92200D01*
X74799Y92300D01*
Y92400D01*
X74899Y92200D02*
X75099D01*
X75999Y91900D02*
Y92500D01*
X76199Y92300D01*
X76399Y92500D01*
Y91900D01*
X76599Y92500D02*
Y91900D01*
Y92200D01*
X76999D01*
Y92500D01*
Y91900D01*
X77199Y92300D02*
X77599D01*
X77199Y91900D01*
X77599D01*
X91200Y93600D02*
X91100Y93700D01*
X90900D01*
X90800Y93600D01*
Y93500D01*
X90900Y93400D01*
X91100D01*
X91200Y93300D01*
Y93200D01*
X91100Y93100D01*
X90900D01*
X90800Y93200D01*
X91700Y93100D02*
X91500D01*
X91400Y93200D01*
Y93400D01*
X91500Y93500D01*
X91700D01*
X91800Y93400D01*
Y93300D01*
X91400D01*
X92399Y93500D02*
X92100D01*
X92000Y93400D01*
Y93200D01*
X92100Y93100D01*
X92399D01*
X92699D02*
X92899D01*
X92999Y93200D01*
Y93400D01*
X92899Y93500D01*
X92699D01*
X92599Y93400D01*
Y93200D01*
X92699Y93100D01*
X93199D02*
Y93500D01*
X93499D01*
X93599Y93400D01*
Y93100D01*
X94199Y93700D02*
Y93100D01*
X93899D01*
X93799Y93200D01*
Y93400D01*
X93899Y93500D01*
X94199D01*
X95399Y93600D02*
X95299Y93700D01*
X95099D01*
X94999Y93600D01*
Y93500D01*
X95099Y93400D01*
X95299D01*
X95399Y93300D01*
Y93200D01*
X95299Y93100D01*
X95099D01*
X94999Y93200D01*
X95598Y93700D02*
X95998D01*
X95798D01*
Y93100D01*
X96198D02*
Y93700D01*
X96398Y93500D01*
X96598Y93700D01*
Y93100D01*
X96798Y93600D02*
X96898Y93700D01*
X97098D01*
X97198Y93600D01*
Y93500D01*
X97098Y93400D01*
X96998D01*
X97098D01*
X97198Y93300D01*
Y93200D01*
X97098Y93100D01*
X96898D01*
X96798Y93200D01*
X97798Y93100D02*
X97398D01*
X97798Y93500D01*
Y93600D01*
X97698Y93700D01*
X97498D01*
X97398Y93600D01*
X98398Y93700D02*
X97998D01*
Y93400D01*
X98198D01*
X97998D01*
Y93100D01*
X98897D02*
Y93700D01*
X98597Y93400D01*
X98997D01*
X99797Y93100D02*
Y93700D01*
X99997Y93500D01*
X100197Y93700D01*
Y93100D01*
X100797Y93600D02*
X100697Y93700D01*
X100497D01*
X100397Y93600D01*
Y93200D01*
X100497Y93100D01*
X100697D01*
X100797Y93200D01*
X100997Y93100D02*
Y93700D01*
X101297D01*
X101397Y93600D01*
Y93400D01*
X101297Y93300D01*
X100997D01*
X101597Y93700D02*
Y93200D01*
X101696Y93100D01*
X101896D01*
X101996Y93200D01*
Y93700D01*
X73500Y93500D02*
X73100D01*
Y93200D01*
X73300D01*
X73100D01*
Y92900D01*
X73700D02*
X73900D01*
X73800D01*
Y93300D01*
X73700D01*
X74200D02*
Y92900D01*
Y93100D01*
X74300Y93200D01*
X74400Y93300D01*
X74500D01*
X74799Y92900D02*
X75099D01*
X75199Y93000D01*
X75099Y93100D01*
X74899D01*
X74799Y93200D01*
X74899Y93300D01*
X75199D01*
X75499Y93400D02*
Y93300D01*
X75399D01*
X75599D01*
X75499D01*
Y93000D01*
X75599Y92900D01*
X76899Y93400D02*
X76799Y93500D01*
X76599D01*
X76499Y93400D01*
Y93300D01*
X76599Y93200D01*
X76799D01*
X76899Y93100D01*
Y93000D01*
X76799Y92900D01*
X76599D01*
X76499Y93000D01*
X77099Y93500D02*
X77499D01*
X77299D01*
Y92900D01*
X77699D02*
Y93500D01*
X77898Y93300D01*
X78098Y93500D01*
Y92900D01*
X78298Y93400D02*
X78398Y93500D01*
X78598D01*
X78698Y93400D01*
Y93300D01*
X78598Y93200D01*
X78498D01*
X78598D01*
X78698Y93100D01*
Y93000D01*
X78598Y92900D01*
X78398D01*
X78298Y93000D01*
X79298Y92900D02*
X78898D01*
X79298Y93300D01*
Y93400D01*
X79198Y93500D01*
X78998D01*
X78898Y93400D01*
X79898Y93500D02*
X79498D01*
Y93200D01*
X79698D01*
X79498D01*
Y92900D01*
X80398D02*
Y93500D01*
X80098Y93200D01*
X80498D01*
X81297Y92900D02*
Y93500D01*
X81497Y93300D01*
X81697Y93500D01*
Y92900D01*
X82297Y93400D02*
X82197Y93500D01*
X81997D01*
X81897Y93400D01*
Y93000D01*
X81997Y92900D01*
X82197D01*
X82297Y93000D01*
X82497Y92900D02*
Y93500D01*
X82797D01*
X82897Y93400D01*
Y93200D01*
X82797Y93100D01*
X82497D01*
X83097Y93500D02*
Y93000D01*
X83197Y92900D01*
X83397D01*
X83497Y93000D01*
Y93500D01*
X82200Y98900D02*
Y98400D01*
X82300Y98300D01*
X82500D01*
X82600Y98400D01*
Y98900D01*
X82800Y98800D02*
X82900Y98900D01*
X83100D01*
X83200Y98800D01*
Y98700D01*
X83100Y98600D01*
X83000D01*
X83100D01*
X83200Y98500D01*
Y98400D01*
X83100Y98300D01*
X82900D01*
X82800Y98400D01*
X91100Y94500D02*
X91000Y94600D01*
X90800D01*
X90700Y94500D01*
Y94400D01*
X90800Y94300D01*
X91000D01*
X91100Y94200D01*
Y94100D01*
X91000Y94000D01*
X90800D01*
X90700Y94100D01*
X91300Y94600D02*
X91700D01*
X91500D01*
Y94000D01*
X91900D02*
Y94600D01*
X92100Y94400D01*
X92299Y94600D01*
Y94000D01*
X92499Y94500D02*
X92599Y94600D01*
X92799D01*
X92899Y94500D01*
Y94400D01*
X92799Y94300D01*
X92699D01*
X92799D01*
X92899Y94200D01*
Y94100D01*
X92799Y94000D01*
X92599D01*
X92499Y94100D01*
X93499Y94000D02*
X93099D01*
X93499Y94400D01*
Y94500D01*
X93399Y94600D01*
X93199D01*
X93099Y94500D01*
X94099Y94600D02*
X93699D01*
Y94300D01*
X93899D01*
X93699D01*
Y94000D01*
X94599D02*
Y94600D01*
X94299Y94300D01*
X94699D01*
X95898Y94500D02*
X95798Y94600D01*
X95598D01*
X95498Y94500D01*
Y94400D01*
X95598Y94300D01*
X95798D01*
X95898Y94200D01*
Y94100D01*
X95798Y94000D01*
X95598D01*
X95498Y94100D01*
X96198Y94000D02*
X96398D01*
X96498Y94100D01*
Y94300D01*
X96398Y94400D01*
X96198D01*
X96098Y94300D01*
Y94100D01*
X96198Y94000D01*
X97098Y94400D02*
X96798D01*
X96698Y94300D01*
Y94100D01*
X96798Y94000D01*
X97098D01*
X97298D02*
Y94600D01*
Y94200D02*
X97598Y94400D01*
X97298Y94200D02*
X97598Y94000D01*
X98198D02*
X97998D01*
X97898Y94100D01*
Y94300D01*
X97998Y94400D01*
X98198D01*
X98298Y94300D01*
Y94200D01*
X97898D01*
X98597Y94500D02*
Y94400D01*
X98497D01*
X98697D01*
X98597D01*
Y94100D01*
X98697Y94000D01*
X99397Y94600D02*
X99197Y94500D01*
X98997Y94300D01*
Y94100D01*
X99097Y94000D01*
X99297D01*
X99397Y94100D01*
Y94200D01*
X99297Y94300D01*
X98997D01*
X99897Y94000D02*
Y94600D01*
X99597Y94300D01*
X99997D01*
X100897Y94000D02*
Y94600D01*
X101097D02*
Y94000D01*
X100797Y94400D02*
X101097D01*
X101197D01*
X100797Y94200D02*
X101197D01*
X101796Y94000D02*
X101397D01*
X101796Y94400D01*
Y94500D01*
X101696Y94600D01*
X101497D01*
X101397Y94500D01*
X56130Y63780D02*
Y63300D01*
X56370D01*
X56450Y63380D01*
Y63460D01*
X56370Y63540D01*
X56130D01*
X56370D01*
X56450Y63620D01*
Y63700D01*
X56370Y63780D01*
X56130D01*
X56610Y63300D02*
X56770D01*
X56690D01*
Y63780D01*
X56610Y63700D01*
X60630Y63780D02*
Y63300D01*
X60870D01*
X60950Y63380D01*
Y63460D01*
X60870Y63540D01*
X60630D01*
X60870D01*
X60950Y63620D01*
Y63700D01*
X60870Y63780D01*
X60630D01*
X61110Y63300D02*
X61270D01*
X61190D01*
Y63780D01*
X61110Y63700D01*
X61510Y63300D02*
X61670D01*
X61590D01*
Y63780D01*
X61510Y63700D01*
X79380Y63780D02*
Y63300D01*
X79620D01*
X79700Y63380D01*
Y63460D01*
X79620Y63540D01*
X79380D01*
X79620D01*
X79700Y63620D01*
Y63700D01*
X79620Y63780D01*
X79380D01*
X80100Y63300D02*
Y63780D01*
X79860Y63540D01*
X80180D01*
X80340Y63380D02*
X80420Y63300D01*
X80580D01*
X80660Y63380D01*
Y63700D01*
X80580Y63780D01*
X80420D01*
X80340Y63700D01*
Y63620D01*
X80420Y63540D01*
X80660D01*
X86380Y63780D02*
Y63300D01*
X86620D01*
X86700Y63380D01*
Y63460D01*
X86620Y63540D01*
X86380D01*
X86620D01*
X86700Y63620D01*
Y63700D01*
X86620Y63780D01*
X86380D01*
X87180D02*
X87020Y63700D01*
X86860Y63540D01*
Y63380D01*
X86940Y63300D01*
X87100D01*
X87180Y63380D01*
Y63460D01*
X87100Y63540D01*
X86860D01*
X87660Y63300D02*
X87340D01*
X87660Y63620D01*
Y63700D01*
X87580Y63780D01*
X87420D01*
X87340Y63700D01*
X81630Y63780D02*
Y63300D01*
X81870D01*
X81950Y63380D01*
Y63460D01*
X81870Y63540D01*
X81630D01*
X81870D01*
X81950Y63620D01*
Y63700D01*
X81870Y63780D01*
X81630D01*
X82430D02*
X82110D01*
Y63540D01*
X82270Y63620D01*
X82350D01*
X82430Y63540D01*
Y63380D01*
X82350Y63300D01*
X82190D01*
X82110Y63380D01*
X82910Y63300D02*
X82590D01*
X82910Y63620D01*
Y63700D01*
X82830Y63780D01*
X82670D01*
X82590Y63700D01*
X62630Y63780D02*
Y63300D01*
X62870D01*
X62950Y63380D01*
Y63460D01*
X62870Y63540D01*
X62630D01*
X62870D01*
X62950Y63620D01*
Y63700D01*
X62870Y63780D01*
X62630D01*
X63110Y63300D02*
X63270D01*
X63190D01*
Y63780D01*
X63110Y63700D01*
X63750Y63300D02*
Y63780D01*
X63510Y63540D01*
X63830D01*
X128500Y96600D02*
X127900D01*
X128100Y96800D01*
X127900Y97000D01*
X128500D01*
Y97300D02*
Y97500D01*
X128400Y97600D01*
X128200D01*
X128100Y97500D01*
Y97300D01*
X128200Y97200D01*
X128400D01*
X128500Y97300D01*
Y97800D02*
Y98000D01*
Y97900D01*
X127900D01*
Y97800D01*
X128500Y98599D02*
Y98399D01*
X128400Y98299D01*
X128200D01*
X128100Y98399D01*
Y98599D01*
X128200Y98699D01*
X128300D01*
Y98299D01*
X128100Y98899D02*
X128500Y99299D01*
X128300Y99099D01*
X128100Y99299D01*
X128500Y98899D01*
Y100399D02*
X127900D01*
X128200Y100099D01*
Y100499D01*
X128700Y101298D02*
X128100D01*
Y101598D01*
X128200Y101698D01*
X128400D01*
X128500Y101598D01*
Y101298D01*
Y101898D02*
Y102098D01*
Y101998D01*
X128100D01*
Y101898D01*
X128500Y102398D02*
X128100D01*
Y102698D01*
X128200Y102798D01*
X128500D01*
X128600Y87200D02*
X128000D01*
Y87500D01*
X128100Y87600D01*
X128300D01*
X128400Y87500D01*
Y87200D01*
Y87400D02*
X128600Y87600D01*
Y87800D02*
X128000D01*
Y88100D01*
X128100Y88200D01*
X128300D01*
X128400Y88100D01*
Y87800D01*
X128600Y88999D02*
X128000D01*
Y89299D01*
X128100Y89399D01*
X128300D01*
X128400Y89299D01*
Y88999D01*
X128600Y89699D02*
Y89899D01*
X128500Y89999D01*
X128300D01*
X128200Y89899D01*
Y89699D01*
X128300Y89599D01*
X128500D01*
X128600Y89699D01*
X128200Y90199D02*
X128500D01*
X128600Y90299D01*
X128500Y90399D01*
X128600Y90499D01*
X128500Y90599D01*
X128200D01*
X128600Y91099D02*
Y90899D01*
X128500Y90799D01*
X128300D01*
X128200Y90899D01*
Y91099D01*
X128300Y91199D01*
X128400D01*
Y90799D01*
X128200Y91399D02*
X128600D01*
X128400D01*
X128300Y91499D01*
X128200Y91599D01*
Y91699D01*
X96399Y70783D02*
X96499Y70683D01*
X96698D01*
X96798Y70783D01*
Y70883D01*
X96698Y70983D01*
X96499D01*
X96399Y71083D01*
Y71183D01*
X96499Y71283D01*
X96698D01*
X96798Y71183D01*
X95899Y71283D02*
Y70683D01*
X96199Y70983D01*
X95799D01*
X94000Y102600D02*
Y103200D01*
X94300D01*
X94400Y103100D01*
Y102900D01*
X94300Y102800D01*
X94000D01*
X94200D02*
X94400Y102600D01*
X94600D02*
X94800D01*
X94700D01*
Y103200D01*
X94600Y103100D01*
X95100Y102600D02*
X95300D01*
X95200D01*
Y103200D01*
X95100Y103100D01*
X95599D02*
X95699Y103200D01*
X95899D01*
X95999Y103100D01*
Y102700D01*
X95899Y102600D01*
X95699D01*
X95599Y102700D01*
Y103100D01*
X104400Y79800D02*
Y80400D01*
X104700D01*
X104800Y80300D01*
Y80100D01*
X104700Y80000D01*
X104400D01*
X104600D02*
X104800Y79800D01*
X105000D02*
X105200D01*
X105100D01*
Y80400D01*
X105000Y80300D01*
X105500D02*
X105600Y80400D01*
X105800D01*
X105900Y80300D01*
Y79900D01*
X105800Y79800D01*
X105600D01*
X105500Y79900D01*
Y80300D01*
X106099Y79900D02*
X106199Y79800D01*
X106399D01*
X106499Y79900D01*
Y80300D01*
X106399Y80400D01*
X106199D01*
X106099Y80300D01*
Y80200D01*
X106199Y80100D01*
X106499D01*
X104400Y71000D02*
X104500Y71100D01*
Y71300D01*
X104400Y71400D01*
X104000D01*
X103900Y71300D01*
Y71100D01*
X104000Y71000D01*
X104400Y70800D02*
X104500Y70700D01*
Y70500D01*
X104400Y70400D01*
X104300D01*
X104200Y70500D01*
X104100Y70400D01*
X104000D01*
X103900Y70500D01*
Y70700D01*
X104000Y70800D01*
X104100D01*
X104200Y70700D01*
X104300Y70800D01*
X104400D01*
X104200Y70700D02*
Y70500D01*
X104400Y70200D02*
X104500Y70100D01*
Y69900D01*
X104400Y69801D01*
X104000D01*
X103900Y69900D01*
Y70100D01*
X104000Y70200D01*
X104400D01*
X100900Y84300D02*
X100800Y84400D01*
X100600D01*
X100500Y84300D01*
Y83900D01*
X100600Y83800D01*
X100800D01*
X100900Y83900D01*
X101100Y84400D02*
X101500D01*
Y84300D01*
X101100Y83900D01*
Y83800D01*
X101700Y83900D02*
X101800Y83800D01*
X102000D01*
X102099Y83900D01*
Y84300D01*
X102000Y84400D01*
X101800D01*
X101700Y84300D01*
Y84200D01*
X101800Y84100D01*
X102099D01*
X108300Y108900D02*
Y109500D01*
X108600D01*
X108700Y109400D01*
Y109200D01*
X108600Y109100D01*
X108300D01*
X108500D02*
X108700Y108900D01*
X109000Y109300D02*
X109200D01*
X109300Y109200D01*
Y108900D01*
X109000D01*
X108900Y109000D01*
X109000Y109100D01*
X109300D01*
X109500Y108900D02*
X109800D01*
X109899Y109000D01*
X109800Y109100D01*
X109600D01*
X109500Y109200D01*
X109600Y109300D01*
X109899D01*
X110099Y108700D02*
Y109300D01*
X110399D01*
X110499Y109200D01*
Y109000D01*
X110399Y108900D01*
X110099D01*
X110699Y109500D02*
Y108900D01*
X110999D01*
X111099Y109000D01*
Y109100D01*
Y109200D01*
X110999Y109300D01*
X110699D01*
X111599Y108900D02*
X111399D01*
X111299Y109000D01*
Y109200D01*
X111399Y109300D01*
X111599D01*
X111699Y109200D01*
Y109100D01*
X111299D01*
X111899Y109300D02*
Y108900D01*
Y109100D01*
X111999Y109200D01*
X112099Y109300D01*
X112199D01*
X112499D02*
Y108900D01*
Y109100D01*
X112599Y109200D01*
X112699Y109300D01*
X112799D01*
X113098D02*
Y109000D01*
X113198Y108900D01*
X113498D01*
Y108800D01*
X113398Y108700D01*
X113298D01*
X113498Y108900D02*
Y109300D01*
X114298Y108900D02*
Y109500D01*
X114598D01*
X114698Y109400D01*
Y109200D01*
X114598Y109100D01*
X114298D01*
X114898Y108900D02*
X115098D01*
X114998D01*
Y109300D01*
X114898D01*
X116397Y108900D02*
X115998D01*
X116397Y109300D01*
Y109400D01*
X116297Y109500D01*
X116097D01*
X115998Y109400D01*
X116597Y109200D02*
X116997D01*
X116797Y109400D02*
Y109000D01*
X118197Y109400D02*
X118097Y109500D01*
X117897D01*
X117797Y109400D01*
Y109000D01*
X117897Y108900D01*
X118097D01*
X118197Y109000D01*
Y109200D01*
X117997D01*
X118397Y108900D02*
Y109500D01*
X118697D01*
X118797Y109400D01*
Y109200D01*
X118697Y109100D01*
X118397D01*
X118997Y109500D02*
X119196D01*
X119097D01*
Y108900D01*
X118997D01*
X119196D01*
X119796Y109500D02*
X119596D01*
X119496Y109400D01*
Y109000D01*
X119596Y108900D01*
X119796D01*
X119896Y109000D01*
Y109400D01*
X119796Y109500D01*
X120996Y108900D02*
Y109500D01*
X120696Y109200D01*
X121096D01*
X121296Y109400D02*
X121396Y109500D01*
X121596D01*
X121696Y109400D01*
Y109000D01*
X121596Y108900D01*
X121396D01*
X121296Y109000D01*
Y109400D01*
X122495Y108700D02*
Y109300D01*
X122795D01*
X122895Y109200D01*
Y109000D01*
X122795Y108900D01*
X122495D01*
X123095D02*
X123295D01*
X123195D01*
Y109300D01*
X123095D01*
X123595Y108900D02*
Y109300D01*
X123895D01*
X123995Y109200D01*
Y108900D01*
X41845Y71350D02*
X41745Y71250D01*
Y71050D01*
X41845Y70950D01*
X41945D01*
X42045Y71050D01*
Y71250D01*
X42145Y71350D01*
X42245D01*
X42345Y71250D01*
Y71050D01*
X42245Y70950D01*
X42345Y71550D02*
Y71750D01*
Y71650D01*
X41745D01*
Y71550D01*
X42345Y72150D02*
Y72350D01*
X42245Y72450D01*
X42045D01*
X41945Y72350D01*
Y72150D01*
X42045Y72050D01*
X42245D01*
X42345Y72150D01*
X41845Y72749D02*
X41945D01*
Y72649D01*
Y72849D01*
Y72749D01*
X42245D01*
X42345Y72849D01*
X41845Y73549D02*
X41745Y73449D01*
Y73249D01*
X41845Y73149D01*
X42245D01*
X42345Y73249D01*
Y73449D01*
X42245Y73549D01*
X41905Y78350D02*
X41805Y78250D01*
Y78050D01*
X41905Y77950D01*
X42005D01*
X42105Y78050D01*
Y78250D01*
X42205Y78350D01*
X42305D01*
X42405Y78250D01*
Y78050D01*
X42305Y77950D01*
X42405Y78550D02*
Y78750D01*
Y78650D01*
X41805D01*
Y78550D01*
X42405Y79150D02*
Y79350D01*
X42305Y79450D01*
X42105D01*
X42005Y79350D01*
Y79150D01*
X42105Y79050D01*
X42305D01*
X42405Y79150D01*
X41905Y79749D02*
X42005D01*
Y79649D01*
Y79849D01*
Y79749D01*
X42305D01*
X42405Y79849D01*
X41805Y80149D02*
X42405D01*
Y80449D01*
X42305Y80549D01*
X42205D01*
X42105Y80449D01*
Y80149D01*
Y80449D01*
X42005Y80549D01*
X41905D01*
X41805Y80449D01*
Y80149D01*
X41845Y85700D02*
X41745Y85600D01*
Y85400D01*
X41845Y85300D01*
X41945D01*
X42045Y85400D01*
Y85600D01*
X42145Y85700D01*
X42245D01*
X42345Y85600D01*
Y85400D01*
X42245Y85300D01*
X42345Y85900D02*
Y86100D01*
Y86000D01*
X41745D01*
Y85900D01*
X42345Y86500D02*
Y86700D01*
X42245Y86800D01*
X42045D01*
X41945Y86700D01*
Y86500D01*
X42045Y86400D01*
X42245D01*
X42345Y86500D01*
X41845Y87099D02*
X41945D01*
Y86999D01*
Y87199D01*
Y87099D01*
X42245D01*
X42345Y87199D01*
Y87499D02*
X41945D01*
X41745Y87699D01*
X41945Y87899D01*
X42345D01*
X42045D01*
Y87499D01*
X41700Y61800D02*
X42200D01*
X42300Y61900D01*
Y62100D01*
X42200Y62200D01*
X41700D01*
X41800Y62800D02*
X41700Y62700D01*
Y62500D01*
X41800Y62400D01*
X41900D01*
X42000Y62500D01*
Y62700D01*
X42100Y62800D01*
X42200D01*
X42300Y62700D01*
Y62500D01*
X42200Y62400D01*
X41700Y63000D02*
X42300D01*
Y63300D01*
X42200Y63399D01*
X42100D01*
X42000Y63300D01*
Y63000D01*
Y63300D01*
X41900Y63399D01*
X41800D01*
X41700Y63300D01*
Y63000D01*
Y63899D02*
Y63699D01*
X41800Y63599D01*
X42200D01*
X42300Y63699D01*
Y63899D01*
X42200Y63999D01*
X41800D01*
X41700Y63899D01*
Y64199D02*
Y64599D01*
Y64399D01*
X42300D01*
X41800Y65199D02*
X41700Y65099D01*
Y64899D01*
X41800Y64799D01*
X42200D01*
X42300Y64899D01*
Y65099D01*
X42200Y65199D01*
X42000D01*
Y64999D01*
X128000Y94500D02*
X128600D01*
X128400Y94700D01*
X128600Y94900D01*
X128000D01*
X128600Y95500D02*
Y95100D01*
X128200Y95500D01*
X128100D01*
X128000Y95400D01*
Y95200D01*
X128100Y95100D01*
X128000Y96099D02*
Y95700D01*
X128300D01*
X128200Y95900D01*
Y96000D01*
X128300Y96099D01*
X128500D01*
X128600Y96000D01*
Y95800D01*
X128500Y95700D01*
X122400Y67300D02*
X121800D01*
X122000Y67100D01*
X121800Y66900D01*
X122400D01*
X121800Y66300D02*
Y66700D01*
X122200Y66300D01*
X122300D01*
X122400Y66400D01*
Y66600D01*
X122300Y66700D01*
X121800Y65800D02*
X122400D01*
X122100Y66100D01*
Y65701D01*
X125300Y96200D02*
X125900D01*
Y95900D01*
X125800Y95800D01*
X125600D01*
X125500Y95900D01*
Y96200D01*
X125900Y95600D02*
X125300D01*
X125500Y95400D01*
X125300Y95200D01*
X125900D01*
X125300Y95000D02*
X125900D01*
Y94700D01*
X125800Y94601D01*
X125600D01*
X125500Y94700D01*
Y95000D01*
X125900Y71500D02*
X125500D01*
X125300Y71700D01*
X125500Y71900D01*
X125900D01*
X125600D01*
Y71500D01*
X125300Y72100D02*
X125800D01*
X125900Y72200D01*
Y72400D01*
X125800Y72500D01*
X125300D01*
X125400Y73099D02*
X125300Y73000D01*
Y72800D01*
X125400Y72700D01*
X125500D01*
X125600Y72800D01*
Y73000D01*
X125700Y73099D01*
X125800D01*
X125900Y73000D01*
Y72800D01*
X125800Y72700D01*
X125300Y73299D02*
X125900D01*
Y73599D01*
X125800Y73699D01*
X125700D01*
X125600Y73599D01*
Y73299D01*
Y73599D01*
X125500Y73699D01*
X125400D01*
X125300Y73599D01*
Y73299D01*
X72700Y72500D02*
Y72100D01*
X72900Y71900D01*
X73100Y72100D01*
Y72500D01*
X73300D02*
X73700D01*
X73500D01*
Y71900D01*
X74299Y72500D02*
X74100Y72400D01*
X73900Y72200D01*
Y72000D01*
X74000Y71900D01*
X74200D01*
X74299Y72000D01*
Y72100D01*
X74200Y72200D01*
X73900D01*
X74899Y71900D02*
X74499D01*
X74899Y72300D01*
Y72400D01*
X74799Y72500D01*
X74599D01*
X74499Y72400D01*
X75099Y71900D02*
X75299D01*
X75199D01*
Y72500D01*
X75099Y72400D01*
X75999Y71900D02*
X75599D01*
X75999Y72300D01*
Y72400D01*
X75899Y72500D01*
X75699D01*
X75599Y72400D01*
X76199Y72500D02*
Y71900D01*
X76599D01*
X93900Y78700D02*
Y78600D01*
X94100Y78400D01*
X94300Y78600D01*
Y78700D01*
X94100Y78400D02*
Y78100D01*
X94500Y78600D02*
X94600Y78700D01*
X94800D01*
X94900Y78600D01*
Y78500D01*
X94800Y78400D01*
X94900Y78300D01*
Y78200D01*
X94800Y78100D01*
X94600D01*
X94500Y78200D01*
Y78300D01*
X94600Y78400D01*
X94500Y78500D01*
Y78600D01*
X94600Y78400D02*
X94800D01*
X67500Y95200D02*
Y95300D01*
X67300Y95500D01*
X67100Y95300D01*
Y95200D01*
X67300Y95500D02*
Y95800D01*
X66900Y95200D02*
X66500D01*
Y95300D01*
X66900Y95700D01*
Y95800D01*
X105500Y89200D02*
Y89300D01*
X105300Y89500D01*
X105100Y89300D01*
Y89200D01*
X105300Y89500D02*
Y89800D01*
X104500Y89200D02*
X104700Y89300D01*
X104900Y89500D01*
Y89700D01*
X104800Y89800D01*
X104600D01*
X104500Y89700D01*
Y89600D01*
X104600Y89500D01*
X104900D01*
X105600Y85000D02*
Y85100D01*
X105400Y85300D01*
X105200Y85100D01*
Y85000D01*
X105400Y85300D02*
Y85600D01*
X104600Y85000D02*
X105000D01*
Y85300D01*
X104800Y85200D01*
X104700D01*
X104600Y85300D01*
Y85500D01*
X104700Y85600D01*
X104900D01*
X105000Y85500D01*
X67500Y91000D02*
Y91100D01*
X67300Y91300D01*
X67100Y91100D01*
Y91000D01*
X67300Y91300D02*
Y91600D01*
X66600D02*
Y91000D01*
X66900Y91300D01*
X66500D01*
X110100Y69100D02*
Y69200D01*
X109900Y69400D01*
X109700Y69200D01*
Y69100D01*
X109900Y69400D02*
Y69700D01*
X109500Y69200D02*
X109400Y69100D01*
X109200D01*
X109100Y69200D01*
Y69300D01*
X109200Y69400D01*
X109300D01*
X109200D01*
X109100Y69500D01*
Y69600D01*
X109200Y69700D01*
X109400D01*
X109500Y69600D01*
X53500Y96900D02*
X53400D01*
X53200Y96700D01*
X53400Y96500D01*
X53500D01*
X53200Y96700D02*
X52900D01*
Y95900D02*
Y96300D01*
X53300Y95900D01*
X53400D01*
X53500Y96000D01*
Y96200D01*
X53400Y96300D01*
X56500Y106800D02*
X56400D01*
X56200Y106600D01*
X56400Y106400D01*
X56500D01*
X56200Y106600D02*
X55900D01*
Y106200D02*
Y106000D01*
Y106100D01*
X56500D01*
X56400Y106200D01*
X109600Y79100D02*
X109000D01*
X109200Y78900D01*
X109000Y78700D01*
X109600D01*
X109000Y78100D02*
Y78500D01*
X109400Y78100D01*
X109500D01*
X109600Y78200D01*
Y78400D01*
X109500Y78500D01*
Y77900D02*
X109600Y77800D01*
Y77600D01*
X109500Y77501D01*
X109400D01*
X109300Y77600D01*
Y77700D01*
Y77600D01*
X109200Y77501D01*
X109100D01*
X109000Y77600D01*
Y77800D01*
X109100Y77900D01*
X41800Y106500D02*
Y105900D01*
X42000Y106100D01*
X42200Y105900D01*
Y106500D01*
X42800Y105900D02*
X42400D01*
X42800Y106300D01*
Y106400D01*
X42700Y106500D01*
X42500D01*
X42400Y106400D01*
X43399Y105900D02*
X43000D01*
X43399Y106300D01*
Y106400D01*
X43300Y106500D01*
X43100D01*
X43000Y106400D01*
X91300Y106500D02*
X91900D01*
X91700Y106700D01*
X91900Y106900D01*
X91300D01*
X91900Y107500D02*
Y107100D01*
X91500Y107500D01*
X91400D01*
X91300Y107400D01*
Y107200D01*
X91400Y107100D01*
X91900Y107700D02*
Y107900D01*
Y107800D01*
X91300D01*
X91400Y107700D01*
X91300Y108199D02*
X91900D01*
Y108499D01*
X91800Y108599D01*
X91700D01*
X91600Y108499D01*
Y108199D01*
Y108499D01*
X91500Y108599D01*
X91400D01*
X91300Y108499D01*
Y108199D01*
X90100Y106500D02*
X90700D01*
X90500Y106700D01*
X90700Y106900D01*
X90100D01*
X90700Y107500D02*
Y107100D01*
X90300Y107500D01*
X90200D01*
X90100Y107400D01*
Y107200D01*
X90200Y107100D01*
X90700Y107700D02*
Y107900D01*
Y107800D01*
X90100D01*
X90200Y107700D01*
X90700Y108199D02*
X90300D01*
X90100Y108399D01*
X90300Y108599D01*
X90700D01*
X90400D01*
Y108199D01*
X118600Y83900D02*
Y84500D01*
X118400Y84300D01*
X118200Y84500D01*
Y83900D01*
X117600Y84500D02*
X118000D01*
X117600Y84100D01*
Y84000D01*
X117700Y83900D01*
X117900D01*
X118000Y84000D01*
X117400D02*
X117300Y83900D01*
X117100D01*
X117001Y84000D01*
Y84400D01*
X117100Y84500D01*
X117300D01*
X117400Y84400D01*
Y84000D01*
X116801Y83900D02*
Y84500D01*
X116501D01*
X116401Y84400D01*
Y84000D01*
X116501Y83900D01*
X116801D01*
X118500Y82800D02*
Y83400D01*
X118300Y83200D01*
X118100Y83400D01*
Y82800D01*
X117500Y83400D02*
X117900D01*
X117500Y83000D01*
Y82900D01*
X117600Y82800D01*
X117800D01*
X117900Y82900D01*
X117300D02*
X117200Y82800D01*
X117000D01*
X116901Y82900D01*
Y83300D01*
X117000Y83400D01*
X117200D01*
X117300Y83300D01*
Y82900D01*
X116301D02*
X116401Y82800D01*
X116601D01*
X116701Y82900D01*
Y83300D01*
X116601Y83400D01*
X116401D01*
X116301Y83300D01*
X118500Y81600D02*
Y82200D01*
X118300Y82000D01*
X118100Y82200D01*
Y81600D01*
X117500Y82200D02*
X117900D01*
X117500Y81800D01*
Y81700D01*
X117600Y81600D01*
X117800D01*
X117900Y81700D01*
X117300D02*
X117200Y81600D01*
X117000D01*
X116901Y81700D01*
Y82100D01*
X117000Y82200D01*
X117200D01*
X117300Y82100D01*
Y81700D01*
X116701Y81600D02*
Y82200D01*
X116401D01*
X116301Y82100D01*
Y82000D01*
X116401Y81900D01*
X116701D01*
X116401D01*
X116301Y81800D01*
Y81700D01*
X116401Y81600D01*
X116701D01*
X118600Y80200D02*
Y80800D01*
X118400Y80600D01*
X118200Y80800D01*
Y80200D01*
X117600Y80800D02*
X118000D01*
X117600Y80400D01*
Y80300D01*
X117700Y80200D01*
X117900D01*
X118000Y80300D01*
X117400D02*
X117300Y80200D01*
X117100D01*
X117001Y80300D01*
Y80700D01*
X117100Y80800D01*
X117300D01*
X117400Y80700D01*
Y80300D01*
X116801Y80800D02*
Y80400D01*
X116601Y80200D01*
X116401Y80400D01*
Y80800D01*
Y80500D01*
X116801D01*
X101100Y106100D02*
X100500D01*
X100700Y105900D01*
X100500Y105700D01*
X101100D01*
X100500Y105500D02*
Y105300D01*
Y105400D01*
X101100D01*
X101000Y105500D01*
X100600Y105000D02*
X100500Y104900D01*
Y104700D01*
X100600Y104600D01*
X101000D01*
X101100Y104700D01*
Y104900D01*
X101000Y105000D01*
X100900D01*
X100800Y104900D01*
Y104600D01*
X101100Y104401D02*
X100500D01*
Y104101D01*
X100600Y104001D01*
X101000D01*
X101100Y104101D01*
Y104401D01*
X100900Y108400D02*
X100300D01*
X100500Y108200D01*
X100300Y108000D01*
X100900D01*
X100300Y107800D02*
Y107600D01*
Y107700D01*
X100900D01*
X100800Y107800D01*
X100400Y107300D02*
X100300Y107200D01*
Y107000D01*
X100400Y106900D01*
X100800D01*
X100900Y107000D01*
Y107200D01*
X100800Y107300D01*
X100700D01*
X100600Y107200D01*
Y106900D01*
X100800Y106301D02*
X100900Y106401D01*
Y106601D01*
X100800Y106701D01*
X100400D01*
X100300Y106601D01*
Y106401D01*
X100400Y106301D01*
X122300Y78400D02*
X121700D01*
X121900Y78200D01*
X121700Y78000D01*
X122300D01*
X121700Y77800D02*
Y77600D01*
Y77700D01*
X122300D01*
X122200Y77800D01*
X121800Y77300D02*
X121700Y77200D01*
Y77000D01*
X121800Y76900D01*
X122200D01*
X122300Y77000D01*
Y77200D01*
X122200Y77300D01*
X122100D01*
X122000Y77200D01*
Y76900D01*
X122300Y76701D02*
X121700D01*
Y76401D01*
X121800Y76301D01*
X121900D01*
X122000Y76401D01*
Y76701D01*
Y76401D01*
X122100Y76301D01*
X122200D01*
X122300Y76401D01*
Y76701D01*
X121700Y74000D02*
X122300D01*
X122100Y74200D01*
X122300Y74400D01*
X121700D01*
X122300Y74600D02*
Y74800D01*
Y74700D01*
X121700D01*
X121800Y74600D01*
X122200Y75100D02*
X122300Y75200D01*
Y75400D01*
X122200Y75500D01*
X121800D01*
X121700Y75400D01*
Y75200D01*
X121800Y75100D01*
X121900D01*
X122000Y75200D01*
Y75500D01*
X122300Y75699D02*
X121900D01*
X121700Y75899D01*
X121900Y76099D01*
X122300D01*
X122000D01*
Y75699D01*
X68900Y109200D02*
X68300D01*
X68500Y109000D01*
X68300Y108800D01*
X68900D01*
X68300Y108600D02*
Y108400D01*
Y108500D01*
X68900D01*
X68800Y108600D01*
Y108100D02*
X68900Y108000D01*
Y107800D01*
X68800Y107700D01*
X68700D01*
X68600Y107800D01*
X68500Y107700D01*
X68400D01*
X68300Y107800D01*
Y108000D01*
X68400Y108100D01*
X68500D01*
X68600Y108000D01*
X68700Y108100D01*
X68800D01*
X68600Y108000D02*
Y107800D01*
X68900Y107501D02*
X68300D01*
Y107201D01*
X68400Y107101D01*
X68500D01*
X68600Y107201D01*
Y107501D01*
Y107201D01*
X68700Y107101D01*
X68800D01*
X68900Y107201D01*
Y107501D01*
X69600Y107100D02*
X70200D01*
X70000Y107300D01*
X70200Y107500D01*
X69600D01*
X70200Y107700D02*
Y107900D01*
Y107800D01*
X69600D01*
X69700Y107700D01*
Y108200D02*
X69600Y108300D01*
Y108500D01*
X69700Y108600D01*
X69800D01*
X69900Y108500D01*
X70000Y108600D01*
X70100D01*
X70200Y108500D01*
Y108300D01*
X70100Y108200D01*
X70000D01*
X69900Y108300D01*
X69800Y108200D01*
X69700D01*
X69900Y108300D02*
Y108500D01*
X70200Y108799D02*
X69800D01*
X69600Y108999D01*
X69800Y109199D01*
X70200D01*
X69900D01*
Y108799D01*
X117200Y79600D02*
X116600D01*
X116800Y79400D01*
X116600Y79200D01*
X117200D01*
X116600Y79000D02*
Y78800D01*
Y78900D01*
X117200D01*
X117100Y79000D01*
X117200Y78500D02*
Y78100D01*
X117100D01*
X116700Y78500D01*
X116600D01*
X117200Y77901D02*
X116600D01*
Y77601D01*
X116700Y77501D01*
X116800D01*
X116900Y77601D01*
Y77901D01*
Y77601D01*
X117000Y77501D01*
X117100D01*
X117200Y77601D01*
Y77901D01*
X118400Y79600D02*
X117800D01*
X118000Y79400D01*
X117800Y79200D01*
X118400D01*
X117800Y79000D02*
Y78800D01*
Y78900D01*
X118400D01*
X118300Y79000D01*
X118400Y78500D02*
Y78100D01*
X118300D01*
X117900Y78500D01*
X117800D01*
Y77901D02*
X118200D01*
X118400Y77701D01*
X118200Y77501D01*
X117800D01*
X118100D01*
Y77901D01*
X115400Y78700D02*
X114800D01*
X115000Y78500D01*
X114800Y78300D01*
X115400D01*
X114800Y78100D02*
Y77900D01*
Y78000D01*
X115400D01*
X115300Y78100D01*
X115400Y77200D02*
X115300Y77400D01*
X115100Y77600D01*
X114900D01*
X114800Y77500D01*
Y77300D01*
X114900Y77200D01*
X115000D01*
X115100Y77300D01*
Y77600D01*
X87600Y108500D02*
Y109100D01*
X87400Y108900D01*
X87200Y109100D01*
Y108500D01*
X87000Y109100D02*
X86800D01*
X86900D01*
Y108500D01*
X87000Y108600D01*
X86100Y108500D02*
X86500D01*
Y108800D01*
X86300Y108700D01*
X86200D01*
X86100Y108800D01*
Y109000D01*
X86200Y109100D01*
X86400D01*
X86500Y109000D01*
X85901Y108500D02*
Y109100D01*
X85601D01*
X85501Y109000D01*
Y108900D01*
X85601Y108800D01*
X85901D01*
X85601D01*
X85501Y108700D01*
Y108600D01*
X85601Y108500D01*
X85901D01*
X85800Y107700D02*
Y107100D01*
X86000Y107300D01*
X86200Y107100D01*
Y107700D01*
X86400Y107100D02*
X86600D01*
X86500D01*
Y107700D01*
X86400Y107600D01*
X87300Y107700D02*
X86900D01*
Y107400D01*
X87100Y107500D01*
X87200D01*
X87300Y107400D01*
Y107200D01*
X87200Y107100D01*
X87000D01*
X86900Y107200D01*
X87499Y107100D02*
Y107500D01*
X87699Y107700D01*
X87899Y107500D01*
Y107100D01*
Y107400D01*
X87499D01*
X45500Y66700D02*
X46100D01*
X45900Y66900D01*
X46100Y67100D01*
X45500D01*
X46100Y67300D02*
Y67500D01*
Y67400D01*
X45500D01*
X45600Y67300D01*
X46100Y68100D02*
X45500D01*
X45800Y67800D01*
Y68200D01*
X76300Y103700D02*
X76900D01*
X76700Y103900D01*
X76900Y104100D01*
X76300D01*
X76900Y104300D02*
Y104500D01*
Y104400D01*
X76300D01*
X76400Y104300D01*
Y104800D02*
X76300Y104900D01*
Y105100D01*
X76400Y105200D01*
X76500D01*
X76600Y105100D01*
Y105000D01*
Y105100D01*
X76700Y105200D01*
X76800D01*
X76900Y105100D01*
Y104900D01*
X76800Y104800D01*
X76300Y105399D02*
X76900D01*
Y105699D01*
X76800Y105799D01*
X76700D01*
X76600Y105699D01*
Y105399D01*
Y105699D01*
X76500Y105799D01*
X76400D01*
X76300Y105699D01*
Y105399D01*
X75000Y103900D02*
X75600D01*
X75400Y104100D01*
X75600Y104300D01*
X75000D01*
X75600Y104500D02*
Y104700D01*
Y104600D01*
X75000D01*
X75100Y104500D01*
Y105000D02*
X75000Y105100D01*
Y105300D01*
X75100Y105400D01*
X75200D01*
X75300Y105300D01*
Y105200D01*
Y105300D01*
X75400Y105400D01*
X75500D01*
X75600Y105300D01*
Y105100D01*
X75500Y105000D01*
X75600Y105599D02*
X75200D01*
X75000Y105799D01*
X75200Y105999D01*
X75600D01*
X75300D01*
Y105599D01*
X63500Y85200D02*
X64100D01*
X63900Y85400D01*
X64100Y85600D01*
X63500D01*
X64100Y85800D02*
Y86000D01*
Y85900D01*
X63500D01*
X63600Y85800D01*
X64100Y86700D02*
Y86300D01*
X63700Y86700D01*
X63600D01*
X63500Y86600D01*
Y86400D01*
X63600Y86300D01*
X63500Y86899D02*
X64100D01*
Y87199D01*
X64000Y87299D01*
X63600D01*
X63500Y87199D01*
Y86899D01*
X62300Y85100D02*
X62900D01*
X62700Y85300D01*
X62900Y85500D01*
X62300D01*
X62900Y85700D02*
Y85900D01*
Y85800D01*
X62300D01*
X62400Y85700D01*
X62900Y86600D02*
Y86200D01*
X62500Y86600D01*
X62400D01*
X62300Y86500D01*
Y86300D01*
X62400Y86200D01*
Y87199D02*
X62300Y87099D01*
Y86899D01*
X62400Y86799D01*
X62800D01*
X62900Y86899D01*
Y87099D01*
X62800Y87199D01*
X64700Y85100D02*
X65300D01*
X65100Y85300D01*
X65300Y85500D01*
X64700D01*
X65300Y85700D02*
Y85900D01*
Y85800D01*
X64700D01*
X64800Y85700D01*
X65300Y86600D02*
Y86200D01*
X64900Y86600D01*
X64800D01*
X64700Y86500D01*
Y86300D01*
X64800Y86200D01*
X64700Y86799D02*
X65300D01*
Y87099D01*
X65200Y87199D01*
X65100D01*
X65000Y87099D01*
Y86799D01*
Y87099D01*
X64900Y87199D01*
X64800D01*
X64700Y87099D01*
Y86799D01*
X61100Y85100D02*
X61700D01*
X61500Y85300D01*
X61700Y85500D01*
X61100D01*
X61700Y85700D02*
Y85900D01*
Y85800D01*
X61100D01*
X61200Y85700D01*
X61700Y86600D02*
Y86200D01*
X61300Y86600D01*
X61200D01*
X61100Y86500D01*
Y86300D01*
X61200Y86200D01*
X61700Y86799D02*
X61300D01*
X61100Y86999D01*
X61300Y87199D01*
X61700D01*
X61400D01*
Y86799D01*
X48600Y84400D02*
Y85000D01*
X48400Y84800D01*
X48200Y85000D01*
Y84400D01*
X48000Y85000D02*
X47800D01*
X47900D01*
Y84400D01*
X48000Y84500D01*
X47500Y85000D02*
X47300D01*
X47400D01*
Y84400D01*
X47500Y84500D01*
X45200Y89700D02*
X44600D01*
X44800Y89500D01*
X44600Y89300D01*
X45200D01*
X44600Y89100D02*
Y88900D01*
Y89000D01*
X45200D01*
X45100Y89100D01*
Y88600D02*
X45200Y88500D01*
Y88300D01*
X45100Y88200D01*
X44700D01*
X44600Y88300D01*
Y88500D01*
X44700Y88600D01*
X45100D01*
X97900Y106500D02*
Y107100D01*
X97700Y106900D01*
X97500Y107100D01*
Y106500D01*
X97300Y107000D02*
X97200Y107100D01*
X97000D01*
X96900Y107000D01*
Y106600D01*
X97000Y106500D01*
X97200D01*
X97300Y106600D01*
Y106700D01*
X97200Y106800D01*
X96900D01*
X80200Y103500D02*
X80800D01*
X80600Y103700D01*
X80800Y103900D01*
X80200D01*
X80300Y104100D02*
X80200Y104200D01*
Y104400D01*
X80300Y104500D01*
X80400D01*
X80500Y104400D01*
X80600Y104500D01*
X80700D01*
X80800Y104400D01*
Y104200D01*
X80700Y104100D01*
X80600D01*
X80500Y104200D01*
X80400Y104100D01*
X80300D01*
X80500Y104200D02*
Y104400D01*
X109500Y87100D02*
X110100D01*
X109900Y87300D01*
X110100Y87500D01*
X109500D01*
Y87700D02*
Y88100D01*
X109600D01*
X110000Y87700D01*
X110100D01*
X59200Y82000D02*
X59800D01*
X59600Y82200D01*
X59800Y82400D01*
X59200D01*
Y83000D02*
X59300Y82800D01*
X59500Y82600D01*
X59700D01*
X59800Y82700D01*
Y82900D01*
X59700Y83000D01*
X59600D01*
X59500Y82900D01*
Y82600D01*
X65300Y108000D02*
Y107400D01*
X65500Y107600D01*
X65700Y107400D01*
Y108000D01*
X66300D02*
X65900D01*
Y107700D01*
X66100Y107800D01*
X66200D01*
X66300Y107700D01*
Y107500D01*
X66200Y107400D01*
X66000D01*
X65900Y107500D01*
X66500Y107400D02*
Y107800D01*
X66700Y108000D01*
X66899Y107800D01*
Y107400D01*
Y107700D01*
X66500D01*
X112700Y83100D02*
X113300D01*
X113100Y83300D01*
X113300Y83500D01*
X112700D01*
X113300Y84000D02*
X112700D01*
X113000Y83700D01*
Y84100D01*
X112800Y84699D02*
X112700Y84600D01*
Y84400D01*
X112800Y84300D01*
X113200D01*
X113300Y84400D01*
Y84600D01*
X113200Y84699D01*
X114000Y83200D02*
X114600D01*
X114400Y83400D01*
X114600Y83600D01*
X114000D01*
X114600Y84100D02*
X114000D01*
X114300Y83800D01*
Y84200D01*
X114000Y84400D02*
X114600D01*
Y84700D01*
X114500Y84799D01*
X114400D01*
X114300Y84700D01*
Y84400D01*
Y84700D01*
X114200Y84799D01*
X114100D01*
X114000Y84700D01*
Y84400D01*
X112100Y84500D02*
X111500D01*
X111700Y84300D01*
X111500Y84100D01*
X112100D01*
X111500Y83600D02*
X112100D01*
X111800Y83900D01*
Y83500D01*
X111500Y83300D02*
X111900D01*
X112100Y83100D01*
X111900Y82901D01*
X111500D01*
X111800D01*
Y83300D01*
X110400Y83000D02*
X111000D01*
X110800Y83200D01*
X111000Y83400D01*
X110400D01*
X110500Y83600D02*
X110400Y83700D01*
Y83900D01*
X110500Y84000D01*
X110600D01*
X110700Y83900D01*
Y83800D01*
Y83900D01*
X110800Y84000D01*
X110900D01*
X111000Y83900D01*
Y83700D01*
X110900Y83600D01*
X110500Y84599D02*
X110400Y84500D01*
Y84300D01*
X110500Y84200D01*
X110900D01*
X111000Y84300D01*
Y84500D01*
X110900Y84599D01*
X109100Y83200D02*
X109700D01*
X109500Y83400D01*
X109700Y83600D01*
X109100D01*
X109200Y83800D02*
X109100Y83900D01*
Y84100D01*
X109200Y84200D01*
X109300D01*
X109400Y84100D01*
Y84000D01*
Y84100D01*
X109500Y84200D01*
X109600D01*
X109700Y84100D01*
Y83900D01*
X109600Y83800D01*
X109100Y84400D02*
X109700D01*
Y84700D01*
X109600Y84799D01*
X109500D01*
X109400Y84700D01*
Y84400D01*
Y84700D01*
X109300Y84799D01*
X109200D01*
X109100Y84700D01*
Y84400D01*
X114500Y65300D02*
X115100D01*
X114900Y65500D01*
X115100Y65700D01*
X114500D01*
X114600Y65900D02*
X114500Y66000D01*
Y66200D01*
X114600Y66300D01*
X114700D01*
X114800Y66200D01*
Y66100D01*
Y66200D01*
X114900Y66300D01*
X115000D01*
X115100Y66200D01*
Y66000D01*
X115000Y65900D01*
X115100Y66500D02*
X114700D01*
X114500Y66700D01*
X114700Y66899D01*
X115100D01*
X114800D01*
Y66500D01*
X43000Y107200D02*
X43600D01*
X43400Y107400D01*
X43600Y107600D01*
X43000D01*
X43600Y108200D02*
Y107800D01*
X43200Y108200D01*
X43100D01*
X43000Y108100D01*
Y107900D01*
X43100Y107800D01*
X43000Y108400D02*
X43600D01*
Y108700D01*
X43500Y108799D01*
X43400D01*
X43300Y108700D01*
Y108400D01*
Y108700D01*
X43200Y108799D01*
X43100D01*
X43000Y108700D01*
Y108400D01*
X41800Y107300D02*
X42400D01*
X42200Y107500D01*
X42400Y107700D01*
X41800D01*
X42400Y108300D02*
Y107900D01*
X42000Y108300D01*
X41900D01*
X41800Y108200D01*
Y108000D01*
X41900Y107900D01*
X42400Y108500D02*
X42000D01*
X41800Y108700D01*
X42000Y108899D01*
X42400D01*
X42100D01*
Y108500D01*
X46000Y107000D02*
Y107600D01*
X45800Y107400D01*
X45600Y107600D01*
Y107000D01*
X45400Y107600D02*
X45200D01*
X45300D01*
Y107000D01*
X45400Y107100D01*
X44500D02*
X44600Y107000D01*
X44800D01*
X44900Y107100D01*
Y107500D01*
X44800Y107600D01*
X44600D01*
X44500Y107500D01*
X45800Y108200D02*
Y108800D01*
X45600Y108600D01*
X45400Y108800D01*
Y108200D01*
X45200Y108800D02*
X45000D01*
X45100D01*
Y108200D01*
X45200Y108300D01*
X44700Y108200D02*
Y108800D01*
X44400D01*
X44300Y108700D01*
Y108600D01*
X44400Y108500D01*
X44700D01*
X44400D01*
X44300Y108400D01*
Y108300D01*
X44400Y108200D01*
X44700D01*
X43200Y90300D02*
Y90900D01*
X43000Y90700D01*
X42800Y90900D01*
Y90300D01*
X42600Y90900D02*
X42400D01*
X42500D01*
Y90300D01*
X42600Y90400D01*
X42100Y90900D02*
Y90500D01*
X41900Y90300D01*
X41700Y90500D01*
Y90900D01*
Y90600D01*
X42100D01*
X126800Y98600D02*
Y99000D01*
X126600Y99200D01*
X126400Y99000D01*
Y98600D01*
X126200Y99200D02*
Y98600D01*
X125900D01*
X125800Y98700D01*
Y98900D01*
X125900Y99000D01*
X126200D01*
X126000D02*
X125800Y99200D01*
X125600D02*
X125400D01*
X125500D01*
Y98600D01*
X125600Y98700D01*
X99500Y98700D02*
Y98200D01*
X99600Y98100D01*
X99800D01*
X99900Y98200D01*
Y98700D01*
X100400Y98100D02*
Y98700D01*
X100100Y98400D01*
X100500D01*
X73600Y94400D02*
X73500Y94500D01*
X73300D01*
X73200Y94400D01*
Y94300D01*
X73300Y94200D01*
X73500D01*
X73600Y94100D01*
Y94000D01*
X73500Y93900D01*
X73300D01*
X73200Y94000D01*
X73800Y94500D02*
X74200D01*
X74000D01*
Y93900D01*
X74400D02*
Y94500D01*
X74600Y94300D01*
X74799Y94500D01*
Y93900D01*
X74999Y94400D02*
X75099Y94500D01*
X75299D01*
X75399Y94400D01*
Y94300D01*
X75299Y94200D01*
X75199D01*
X75299D01*
X75399Y94100D01*
Y94000D01*
X75299Y93900D01*
X75099D01*
X74999Y94000D01*
X75999Y93900D02*
X75599D01*
X75999Y94300D01*
Y94400D01*
X75899Y94500D01*
X75699D01*
X75599Y94400D01*
X76599Y94500D02*
X76199D01*
Y94200D01*
X76399D01*
X76199D01*
Y93900D01*
X77099D02*
Y94500D01*
X76799Y94200D01*
X77199D01*
X78398Y94400D02*
X78298Y94500D01*
X78098D01*
X77998Y94400D01*
Y94300D01*
X78098Y94200D01*
X78298D01*
X78398Y94100D01*
Y94000D01*
X78298Y93900D01*
X78098D01*
X77998Y94000D01*
X78698Y93900D02*
X78898D01*
X78998Y94000D01*
Y94200D01*
X78898Y94300D01*
X78698D01*
X78598Y94200D01*
Y94000D01*
X78698Y93900D01*
X79598Y94300D02*
X79298D01*
X79198Y94200D01*
Y94000D01*
X79298Y93900D01*
X79598D01*
X79798D02*
Y94500D01*
Y94100D02*
X80098Y94300D01*
X79798Y94100D02*
X80098Y93900D01*
X80698D02*
X80498D01*
X80398Y94000D01*
Y94200D01*
X80498Y94300D01*
X80698D01*
X80798Y94200D01*
Y94100D01*
X80398D01*
X81097Y94400D02*
Y94300D01*
X80997D01*
X81197D01*
X81097D01*
Y94000D01*
X81197Y93900D01*
X81897Y94500D02*
X81697Y94400D01*
X81497Y94200D01*
Y94000D01*
X81597Y93900D01*
X81797D01*
X81897Y94000D01*
Y94100D01*
X81797Y94200D01*
X81497D01*
X82397Y93900D02*
Y94500D01*
X82097Y94200D01*
X82497D01*
X83397Y93900D02*
Y94500D01*
X83597D02*
Y93900D01*
X83297Y94300D02*
X83597D01*
X83697D01*
X83297Y94100D02*
X83697D01*
X83897Y94400D02*
X83997Y94500D01*
X84196D01*
X84296Y94400D01*
Y94000D01*
X84196Y93900D01*
X83997D01*
X83897Y94000D01*
Y94400D01*
X112500Y73600D02*
X112000D01*
X111900Y73500D01*
Y73300D01*
X112000Y73200D01*
X112500D01*
X111900Y72600D02*
Y73000D01*
X112300Y72600D01*
X112400D01*
X112500Y72700D01*
Y72900D01*
X112400Y73000D01*
X52500Y101400D02*
X53000D01*
X53100Y101500D01*
Y101700D01*
X53000Y101800D01*
X52500D01*
X53100Y102000D02*
Y102200D01*
Y102100D01*
X52500D01*
X52600Y102000D01*
X67700Y102400D02*
X67600Y102300D01*
Y102100D01*
X67700Y102000D01*
X67800D01*
X67900Y102100D01*
Y102300D01*
X68000Y102400D01*
X68100D01*
X68200Y102300D01*
Y102100D01*
X68100Y102000D01*
X67600Y102600D02*
X68200D01*
X68000Y102800D01*
X68200Y103000D01*
X67600D01*
X68200Y103599D02*
Y103200D01*
X67800Y103599D01*
X67700D01*
X67600Y103500D01*
Y103300D01*
X67700Y103200D01*
X48600Y108400D02*
X48700Y108300D01*
X48900D01*
X49000Y108400D01*
Y108500D01*
X48900Y108600D01*
X48700D01*
X48600Y108700D01*
Y108800D01*
X48700Y108900D01*
X48900D01*
X49000Y108800D01*
X48400Y108300D02*
Y108900D01*
X48200Y108700D01*
X48000Y108900D01*
Y108300D01*
X47800Y108900D02*
X47600D01*
X47700D01*
Y108300D01*
X47800Y108400D01*
X99700Y70500D02*
X99800Y70400D01*
X100000D01*
X100100Y70500D01*
Y70600D01*
X100000Y70700D01*
X99800D01*
X99700Y70800D01*
Y70900D01*
X99800Y71000D01*
X100000D01*
X100100Y70900D01*
X99500Y70500D02*
X99400Y70400D01*
X99200D01*
X99100Y70500D01*
Y70600D01*
X99200Y70700D01*
X99300D01*
X99200D01*
X99100Y70800D01*
Y70900D01*
X99200Y71000D01*
X99400D01*
X99500Y70900D01*
X96200Y75000D02*
X96100Y75100D01*
X95900D01*
X95800Y75000D01*
Y74900D01*
X95900Y74800D01*
X96100D01*
X96200Y74700D01*
Y74600D01*
X96100Y74500D01*
X95900D01*
X95800Y74600D01*
X96800Y74500D02*
X96400D01*
X96800Y74900D01*
Y75000D01*
X96700Y75100D01*
X96500D01*
X96400Y75000D01*
X62900Y81000D02*
X63500D01*
Y80700D01*
X63400Y80600D01*
X63200D01*
X63100Y80700D01*
Y81000D01*
Y80800D02*
X62900Y80600D01*
Y80400D02*
Y80200D01*
Y80300D01*
X63500D01*
X63400Y80400D01*
Y79900D02*
X63500Y79800D01*
Y79600D01*
X63400Y79500D01*
X63000D01*
X62900Y79600D01*
Y79800D01*
X63000Y79900D01*
X63400D01*
Y79301D02*
X63500Y79201D01*
Y79001D01*
X63400Y78901D01*
X63300D01*
X63200Y79001D01*
X63100Y78901D01*
X63000D01*
X62900Y79001D01*
Y79201D01*
X63000Y79301D01*
X63100D01*
X63200Y79201D01*
X63300Y79301D01*
X63400D01*
X63200Y79201D02*
Y79001D01*
X60900Y81000D02*
X61500D01*
Y80700D01*
X61400Y80600D01*
X61200D01*
X61100Y80700D01*
Y81000D01*
Y80800D02*
X60900Y80600D01*
Y80400D02*
Y80200D01*
Y80300D01*
X61500D01*
X61400Y80400D01*
Y79900D02*
X61500Y79800D01*
Y79600D01*
X61400Y79500D01*
X61000D01*
X60900Y79600D01*
Y79800D01*
X61000Y79900D01*
X61400D01*
X61500Y79301D02*
Y78901D01*
X61400D01*
X61000Y79301D01*
X60900D01*
X92900Y79300D02*
X93500D01*
Y79000D01*
X93400Y78900D01*
X93200D01*
X93100Y79000D01*
Y79300D01*
Y79100D02*
X92900Y78900D01*
Y78700D02*
Y78500D01*
Y78600D01*
X93500D01*
X93400Y78700D01*
Y78200D02*
X93500Y78100D01*
Y77900D01*
X93400Y77800D01*
X93000D01*
X92900Y77900D01*
Y78100D01*
X93000Y78200D01*
X93400D01*
X93500Y77201D02*
X93400Y77401D01*
X93200Y77601D01*
X93000D01*
X92900Y77501D01*
Y77301D01*
X93000Y77201D01*
X93100D01*
X93200Y77301D01*
Y77601D01*
X97400Y68200D02*
Y68800D01*
X97700D01*
X97800Y68700D01*
Y68500D01*
X97700Y68400D01*
X97400D01*
X97600D02*
X97800Y68200D01*
X98000D02*
X98200D01*
X98100D01*
Y68800D01*
X98000Y68700D01*
X98500D02*
X98600Y68800D01*
X98800D01*
X98900Y68700D01*
Y68300D01*
X98800Y68200D01*
X98600D01*
X98500Y68300D01*
Y68700D01*
X99499Y68800D02*
X99099D01*
Y68500D01*
X99299Y68600D01*
X99399D01*
X99499Y68500D01*
Y68300D01*
X99399Y68200D01*
X99199D01*
X99099Y68300D01*
X59900Y76000D02*
X59300D01*
Y76300D01*
X59400Y76400D01*
X59600D01*
X59700Y76300D01*
Y76000D01*
Y76200D02*
X59900Y76400D01*
Y76600D02*
Y76800D01*
Y76700D01*
X59300D01*
X59400Y76600D01*
Y77100D02*
X59300Y77200D01*
Y77400D01*
X59400Y77500D01*
X59800D01*
X59900Y77400D01*
Y77200D01*
X59800Y77100D01*
X59400D01*
X59900Y77999D02*
X59300D01*
X59600Y77699D01*
Y78099D01*
X55000Y79100D02*
Y78500D01*
X54700D01*
X54600Y78600D01*
Y78800D01*
X54700Y78900D01*
X55000D01*
X54800D02*
X54600Y79100D01*
X54400D02*
X54200D01*
X54300D01*
Y78500D01*
X54400Y78600D01*
X53900D02*
X53800Y78500D01*
X53600D01*
X53500Y78600D01*
Y79000D01*
X53600Y79100D01*
X53800D01*
X53900Y79000D01*
Y78600D01*
X53301D02*
X53201Y78500D01*
X53001D01*
X52901Y78600D01*
Y78700D01*
X53001Y78800D01*
X53101D01*
X53001D01*
X52901Y78900D01*
Y79000D01*
X53001Y79100D01*
X53201D01*
X53301Y79000D01*
X55100Y77100D02*
Y76500D01*
X54800D01*
X54700Y76600D01*
Y76800D01*
X54800Y76900D01*
X55100D01*
X54900D02*
X54700Y77100D01*
X54500D02*
X54300D01*
X54400D01*
Y76500D01*
X54500Y76600D01*
X54000D02*
X53900Y76500D01*
X53700D01*
X53600Y76600D01*
Y77000D01*
X53700Y77100D01*
X53900D01*
X54000Y77000D01*
Y76600D01*
X53001Y77100D02*
X53401D01*
X53001Y76700D01*
Y76600D01*
X53101Y76500D01*
X53301D01*
X53401Y76600D01*
X54900Y78100D02*
Y77500D01*
X54600D01*
X54500Y77600D01*
Y77800D01*
X54600Y77900D01*
X54900D01*
X54700D02*
X54500Y78100D01*
X54300D02*
X54100D01*
X54200D01*
Y77500D01*
X54300Y77600D01*
X53800D02*
X53700Y77500D01*
X53500D01*
X53400Y77600D01*
Y78000D01*
X53500Y78100D01*
X53700D01*
X53800Y78000D01*
Y77600D01*
X53201Y78100D02*
X53001D01*
X53101D01*
Y77500D01*
X53201Y77600D01*
X97400Y67200D02*
Y67800D01*
X97700D01*
X97800Y67700D01*
Y67500D01*
X97700Y67400D01*
X97400D01*
X97600D02*
X97800Y67200D01*
X98000D02*
X98200D01*
X98100D01*
Y67800D01*
X98000Y67700D01*
X98500D02*
X98600Y67800D01*
X98800D01*
X98900Y67700D01*
Y67300D01*
X98800Y67200D01*
X98600D01*
X98500Y67300D01*
Y67700D01*
X99099D02*
X99199Y67800D01*
X99399D01*
X99499Y67700D01*
Y67300D01*
X99399Y67200D01*
X99199D01*
X99099Y67300D01*
Y67700D01*
X54800Y74200D02*
Y73600D01*
X54500D01*
X54400Y73700D01*
Y73900D01*
X54500Y74000D01*
X54800D01*
X54600D02*
X54400Y74200D01*
X54200Y74100D02*
X54100Y74200D01*
X53900D01*
X53800Y74100D01*
Y73700D01*
X53900Y73600D01*
X54100D01*
X54200Y73700D01*
Y73800D01*
X54100Y73900D01*
X53800D01*
X53600Y74100D02*
X53500Y74200D01*
X53300D01*
X53201Y74100D01*
Y73700D01*
X53300Y73600D01*
X53500D01*
X53600Y73700D01*
Y73800D01*
X53500Y73900D01*
X53201D01*
X61900Y80800D02*
X62500D01*
Y80500D01*
X62400Y80400D01*
X62200D01*
X62100Y80500D01*
Y80800D01*
Y80600D02*
X61900Y80400D01*
X62000Y80200D02*
X61900Y80100D01*
Y79900D01*
X62000Y79800D01*
X62400D01*
X62500Y79900D01*
Y80100D01*
X62400Y80200D01*
X62300D01*
X62200Y80100D01*
Y79800D01*
X62400Y79600D02*
X62500Y79500D01*
Y79300D01*
X62400Y79201D01*
X62300D01*
X62200Y79300D01*
X62100Y79201D01*
X62000D01*
X61900Y79300D01*
Y79500D01*
X62000Y79600D01*
X62100D01*
X62200Y79500D01*
X62300Y79600D01*
X62400D01*
X62200Y79500D02*
Y79300D01*
X108200Y67800D02*
Y67200D01*
X107900D01*
X107800Y67300D01*
Y67500D01*
X107900Y67600D01*
X108200D01*
X108000D02*
X107800Y67800D01*
X107600Y67700D02*
X107500Y67800D01*
X107300D01*
X107200Y67700D01*
Y67300D01*
X107300Y67200D01*
X107500D01*
X107600Y67300D01*
Y67400D01*
X107500Y67500D01*
X107200D01*
X107000Y67200D02*
X106601D01*
Y67300D01*
X107000Y67700D01*
Y67800D01*
X108300Y66700D02*
Y66100D01*
X108000D01*
X107900Y66200D01*
Y66400D01*
X108000Y66500D01*
X108300D01*
X108100D02*
X107900Y66700D01*
X107700Y66600D02*
X107600Y66700D01*
X107400D01*
X107300Y66600D01*
Y66200D01*
X107400Y66100D01*
X107600D01*
X107700Y66200D01*
Y66300D01*
X107600Y66400D01*
X107300D01*
X106701Y66100D02*
X106900Y66200D01*
X107100Y66400D01*
Y66600D01*
X107000Y66700D01*
X106800D01*
X106701Y66600D01*
Y66500D01*
X106800Y66400D01*
X107100D01*
X108200Y65600D02*
Y65000D01*
X107900D01*
X107800Y65100D01*
Y65300D01*
X107900Y65400D01*
X108200D01*
X108000D02*
X107800Y65600D01*
X107600Y65500D02*
X107500Y65600D01*
X107300D01*
X107200Y65500D01*
Y65100D01*
X107300Y65000D01*
X107500D01*
X107600Y65100D01*
Y65200D01*
X107500Y65300D01*
X107200D01*
X106601Y65000D02*
X107000D01*
Y65300D01*
X106800Y65200D01*
X106700D01*
X106601Y65300D01*
Y65500D01*
X106700Y65600D01*
X106900D01*
X107000Y65500D01*
X51300Y65700D02*
X50700D01*
Y66000D01*
X50800Y66100D01*
X51000D01*
X51100Y66000D01*
Y65700D01*
Y65900D02*
X51300Y66100D01*
X51200Y66300D02*
X51300Y66400D01*
Y66600D01*
X51200Y66700D01*
X50800D01*
X50700Y66600D01*
Y66400D01*
X50800Y66300D01*
X50900D01*
X51000Y66400D01*
Y66700D01*
X51300Y67200D02*
X50700D01*
X51000Y66900D01*
Y67299D01*
X97700Y66200D02*
Y66800D01*
X98000D01*
X98100Y66700D01*
Y66500D01*
X98000Y66400D01*
X97700D01*
X97900D02*
X98100Y66200D01*
X98300Y66300D02*
X98400Y66200D01*
X98600D01*
X98700Y66300D01*
Y66700D01*
X98600Y66800D01*
X98400D01*
X98300Y66700D01*
Y66600D01*
X98400Y66500D01*
X98700D01*
X98900Y66700D02*
X99000Y66800D01*
X99200D01*
X99299Y66700D01*
Y66600D01*
X99200Y66500D01*
X99100D01*
X99200D01*
X99299Y66400D01*
Y66300D01*
X99200Y66200D01*
X99000D01*
X98900Y66300D01*
X49700Y67200D02*
X50300D01*
Y66900D01*
X50200Y66800D01*
X50000D01*
X49900Y66900D01*
Y67200D01*
Y67000D02*
X49700Y66800D01*
X49800Y66600D02*
X49700Y66500D01*
Y66300D01*
X49800Y66200D01*
X50200D01*
X50300Y66300D01*
Y66500D01*
X50200Y66600D01*
X50100D01*
X50000Y66500D01*
Y66200D01*
X49700Y65601D02*
Y66000D01*
X50100Y65601D01*
X50200D01*
X50300Y65700D01*
Y65900D01*
X50200Y66000D01*
X65500Y79400D02*
X64900D01*
Y79700D01*
X65000Y79800D01*
X65200D01*
X65300Y79700D01*
Y79400D01*
Y79600D02*
X65500Y79800D01*
X65400Y80000D02*
X65500Y80100D01*
Y80300D01*
X65400Y80400D01*
X65000D01*
X64900Y80300D01*
Y80100D01*
X65000Y80000D01*
X65100D01*
X65200Y80100D01*
Y80400D01*
X65500Y80600D02*
Y80800D01*
Y80700D01*
X64900D01*
X65000Y80600D01*
X53600Y67200D02*
X54200D01*
Y66900D01*
X54100Y66800D01*
X53900D01*
X53800Y66900D01*
Y67200D01*
Y67000D02*
X53600Y66800D01*
X53700Y66600D02*
X53600Y66500D01*
Y66300D01*
X53700Y66200D01*
X54100D01*
X54200Y66300D01*
Y66500D01*
X54100Y66600D01*
X54000D01*
X53900Y66500D01*
Y66200D01*
X54100Y66000D02*
X54200Y65900D01*
Y65700D01*
X54100Y65601D01*
X53700D01*
X53600Y65700D01*
Y65900D01*
X53700Y66000D01*
X54100D01*
X64500Y83400D02*
Y82800D01*
X64200D01*
X64100Y82900D01*
Y83100D01*
X64200Y83200D01*
X64500D01*
X64300D02*
X64100Y83400D01*
X63900Y82900D02*
X63800Y82800D01*
X63600D01*
X63500Y82900D01*
Y83000D01*
X63600Y83100D01*
X63500Y83200D01*
Y83300D01*
X63600Y83400D01*
X63800D01*
X63900Y83300D01*
Y83200D01*
X63800Y83100D01*
X63900Y83000D01*
Y82900D01*
X63800Y83100D02*
X63600D01*
X63300Y83300D02*
X63200Y83400D01*
X63000D01*
X62901Y83300D01*
Y82900D01*
X63000Y82800D01*
X63200D01*
X63300Y82900D01*
Y83000D01*
X63200Y83100D01*
X62901D01*
X54800Y76100D02*
Y75500D01*
X54500D01*
X54400Y75600D01*
Y75800D01*
X54500Y75900D01*
X54800D01*
X54600D02*
X54400Y76100D01*
X54200Y75600D02*
X54100Y75500D01*
X53900D01*
X53800Y75600D01*
Y75700D01*
X53900Y75800D01*
X53800Y75900D01*
Y76000D01*
X53900Y76100D01*
X54100D01*
X54200Y76000D01*
Y75900D01*
X54100Y75800D01*
X54200Y75700D01*
Y75600D01*
X54100Y75800D02*
X53900D01*
X53600Y75600D02*
X53500Y75500D01*
X53300D01*
X53201Y75600D01*
Y75700D01*
X53300Y75800D01*
X53201Y75900D01*
Y76000D01*
X53300Y76100D01*
X53500D01*
X53600Y76000D01*
Y75900D01*
X53500Y75800D01*
X53600Y75700D01*
Y75600D01*
X53500Y75800D02*
X53300D01*
X53300Y65600D02*
X52700D01*
Y65900D01*
X52800Y66000D01*
X53000D01*
X53100Y65900D01*
Y65600D01*
Y65800D02*
X53300Y66000D01*
X52800Y66200D02*
X52700Y66300D01*
Y66500D01*
X52800Y66600D01*
X52900D01*
X53000Y66500D01*
X53100Y66600D01*
X53200D01*
X53300Y66500D01*
Y66300D01*
X53200Y66200D01*
X53100D01*
X53000Y66300D01*
X52900Y66200D01*
X52800D01*
X53000Y66300D02*
Y66500D01*
X52700Y66800D02*
Y67199D01*
X52800D01*
X53200Y66800D01*
X53300D01*
X54700Y67200D02*
X55300D01*
Y66900D01*
X55200Y66800D01*
X55000D01*
X54900Y66900D01*
Y67200D01*
Y67000D02*
X54700Y66800D01*
X55200Y66600D02*
X55300Y66500D01*
Y66300D01*
X55200Y66200D01*
X55100D01*
X55000Y66300D01*
X54900Y66200D01*
X54800D01*
X54700Y66300D01*
Y66500D01*
X54800Y66600D01*
X54900D01*
X55000Y66500D01*
X55100Y66600D01*
X55200D01*
X55000Y66500D02*
Y66300D01*
X55300Y65601D02*
X55200Y65800D01*
X55000Y66000D01*
X54800D01*
X54700Y65900D01*
Y65700D01*
X54800Y65601D01*
X54900D01*
X55000Y65700D01*
Y66000D01*
X64500Y79300D02*
X63900D01*
Y79600D01*
X64000Y79700D01*
X64200D01*
X64300Y79600D01*
Y79300D01*
Y79500D02*
X64500Y79700D01*
X64000Y79900D02*
X63900Y80000D01*
Y80200D01*
X64000Y80300D01*
X64100D01*
X64200Y80200D01*
X64300Y80300D01*
X64400D01*
X64500Y80200D01*
Y80000D01*
X64400Y79900D01*
X64300D01*
X64200Y80000D01*
X64100Y79900D01*
X64000D01*
X64200Y80000D02*
Y80200D01*
X63900Y80899D02*
Y80500D01*
X64200D01*
X64100Y80700D01*
Y80800D01*
X64200Y80899D01*
X64400D01*
X64500Y80800D01*
Y80600D01*
X64400Y80500D01*
X54800Y72000D02*
Y71400D01*
X54500D01*
X54400Y71500D01*
Y71700D01*
X54500Y71800D01*
X54800D01*
X54600D02*
X54400Y72000D01*
X54200Y71500D02*
X54100Y71400D01*
X53900D01*
X53800Y71500D01*
Y71600D01*
X53900Y71700D01*
X53800Y71800D01*
Y71900D01*
X53900Y72000D01*
X54100D01*
X54200Y71900D01*
Y71800D01*
X54100Y71700D01*
X54200Y71600D01*
Y71500D01*
X54100Y71700D02*
X53900D01*
X53300Y72000D02*
Y71400D01*
X53600Y71700D01*
X53201D01*
X56900Y72400D02*
X57500D01*
Y72100D01*
X57400Y72000D01*
X57200D01*
X57100Y72100D01*
Y72400D01*
Y72200D02*
X56900Y72000D01*
X57400Y71800D02*
X57500Y71700D01*
Y71500D01*
X57400Y71400D01*
X57300D01*
X57200Y71500D01*
X57100Y71400D01*
X57000D01*
X56900Y71500D01*
Y71700D01*
X57000Y71800D01*
X57100D01*
X57200Y71700D01*
X57300Y71800D01*
X57400D01*
X57200Y71700D02*
Y71500D01*
X57400Y71200D02*
X57500Y71100D01*
Y70900D01*
X57400Y70801D01*
X57300D01*
X57200Y70900D01*
Y71000D01*
Y70900D01*
X57100Y70801D01*
X57000D01*
X56900Y70900D01*
Y71100D01*
X57000Y71200D01*
X49300Y65700D02*
X48700D01*
Y66000D01*
X48800Y66100D01*
X49000D01*
X49100Y66000D01*
Y65700D01*
Y65900D02*
X49300Y66100D01*
X48800Y66300D02*
X48700Y66400D01*
Y66600D01*
X48800Y66700D01*
X48900D01*
X49000Y66600D01*
X49100Y66700D01*
X49200D01*
X49300Y66600D01*
Y66400D01*
X49200Y66300D01*
X49100D01*
X49000Y66400D01*
X48900Y66300D01*
X48800D01*
X49000Y66400D02*
Y66600D01*
X49300Y67299D02*
Y66900D01*
X48900Y67299D01*
X48800D01*
X48700Y67200D01*
Y67000D01*
X48800Y66900D01*
X52400Y65700D02*
X51800D01*
Y66000D01*
X51900Y66100D01*
X52100D01*
X52200Y66000D01*
Y65700D01*
Y65900D02*
X52400Y66100D01*
X51900Y66300D02*
X51800Y66400D01*
Y66600D01*
X51900Y66700D01*
X52000D01*
X52100Y66600D01*
X52200Y66700D01*
X52300D01*
X52400Y66600D01*
Y66400D01*
X52300Y66300D01*
X52200D01*
X52100Y66400D01*
X52000Y66300D01*
X51900D01*
X52100Y66400D02*
Y66600D01*
X52400Y66900D02*
Y67100D01*
Y67000D01*
X51800D01*
X51900Y66900D01*
X66500Y79200D02*
X65900D01*
Y79500D01*
X66000Y79600D01*
X66200D01*
X66300Y79500D01*
Y79200D01*
Y79400D02*
X66500Y79600D01*
X66000Y79800D02*
X65900Y79900D01*
Y80100D01*
X66000Y80200D01*
X66100D01*
X66200Y80100D01*
X66300Y80200D01*
X66400D01*
X66500Y80100D01*
Y79900D01*
X66400Y79800D01*
X66300D01*
X66200Y79900D01*
X66100Y79800D01*
X66000D01*
X66200Y79900D02*
Y80100D01*
X66000Y80400D02*
X65900Y80500D01*
Y80700D01*
X66000Y80799D01*
X66400D01*
X66500Y80700D01*
Y80500D01*
X66400Y80400D01*
X66000D01*
X54700Y75100D02*
Y74500D01*
X54400D01*
X54300Y74600D01*
Y74800D01*
X54400Y74900D01*
X54700D01*
X54500D02*
X54300Y75100D01*
X54100Y74500D02*
X53700D01*
Y74600D01*
X54100Y75000D01*
Y75100D01*
X53500Y75000D02*
X53400Y75100D01*
X53200D01*
X53101Y75000D01*
Y74600D01*
X53200Y74500D01*
X53400D01*
X53500Y74600D01*
Y74700D01*
X53400Y74800D01*
X53101D01*
X54700Y73100D02*
Y72500D01*
X54400D01*
X54300Y72600D01*
Y72800D01*
X54400Y72900D01*
X54700D01*
X54500D02*
X54300Y73100D01*
X54100Y72500D02*
X53700D01*
Y72600D01*
X54100Y73000D01*
Y73100D01*
X53500Y72600D02*
X53400Y72500D01*
X53200D01*
X53101Y72600D01*
Y72700D01*
X53200Y72800D01*
X53101Y72900D01*
Y73000D01*
X53200Y73100D01*
X53400D01*
X53500Y73000D01*
Y72900D01*
X53400Y72800D01*
X53500Y72700D01*
Y72600D01*
X53400Y72800D02*
X53200D01*
X101700Y66000D02*
X101100D01*
Y66300D01*
X101200Y66400D01*
X101400D01*
X101500Y66300D01*
Y66000D01*
Y66200D02*
X101700Y66400D01*
X101100Y66600D02*
Y67000D01*
X101200D01*
X101600Y66600D01*
X101700D01*
X101100Y67200D02*
Y67599D01*
X101200D01*
X101600Y67200D01*
X101700D01*
X57900Y76400D02*
X57300D01*
Y76700D01*
X57400Y76800D01*
X57600D01*
X57700Y76700D01*
Y76400D01*
Y76600D02*
X57900Y76800D01*
X57300Y77000D02*
Y77400D01*
X57400D01*
X57800Y77000D01*
X57900D01*
X57300Y77999D02*
X57400Y77800D01*
X57600Y77600D01*
X57800D01*
X57900Y77700D01*
Y77900D01*
X57800Y77999D01*
X57700D01*
X57600Y77900D01*
Y77600D01*
X102700Y66000D02*
X102100D01*
Y66300D01*
X102200Y66400D01*
X102400D01*
X102500Y66300D01*
Y66000D01*
Y66200D02*
X102700Y66400D01*
X102100Y66600D02*
Y67000D01*
X102200D01*
X102600Y66600D01*
X102700D01*
X102100Y67599D02*
Y67200D01*
X102400D01*
X102300Y67400D01*
Y67500D01*
X102400Y67599D01*
X102600D01*
X102700Y67500D01*
Y67300D01*
X102600Y67200D01*
X58900Y76500D02*
X58300D01*
Y76800D01*
X58400Y76900D01*
X58600D01*
X58700Y76800D01*
Y76500D01*
Y76700D02*
X58900Y76900D01*
X58300Y77100D02*
Y77500D01*
X58400D01*
X58800Y77100D01*
X58900D01*
Y78000D02*
X58300D01*
X58600Y77700D01*
Y78099D01*
X60000Y89000D02*
Y89600D01*
X60300D01*
X60400Y89500D01*
Y89300D01*
X60300Y89200D01*
X60000D01*
X60200D02*
X60400Y89000D01*
X60600Y89600D02*
X61000D01*
Y89500D01*
X60600Y89100D01*
Y89000D01*
X61200Y89500D02*
X61300Y89600D01*
X61500D01*
X61599Y89500D01*
Y89400D01*
X61500Y89300D01*
X61400D01*
X61500D01*
X61599Y89200D01*
Y89100D01*
X61500Y89000D01*
X61300D01*
X61200Y89100D01*
X122300Y85200D02*
Y84600D01*
X122000D01*
X121900Y84700D01*
Y84900D01*
X122000Y85000D01*
X122300D01*
X122100D02*
X121900Y85200D01*
X121700Y84600D02*
X121300D01*
Y84700D01*
X121700Y85100D01*
Y85200D01*
X120701D02*
X121100D01*
X120701Y84800D01*
Y84700D01*
X120800Y84600D01*
X121000D01*
X121100Y84700D01*
X115800Y81800D02*
X115200D01*
Y82100D01*
X115300Y82200D01*
X115500D01*
X115600Y82100D01*
Y81800D01*
Y82000D02*
X115800Y82200D01*
X115200Y82400D02*
Y82800D01*
X115300D01*
X115700Y82400D01*
X115800D01*
Y83000D02*
Y83200D01*
Y83100D01*
X115200D01*
X115300Y83000D01*
X117800Y88600D02*
X118400D01*
Y88300D01*
X118300Y88200D01*
X118100D01*
X118000Y88300D01*
Y88600D01*
Y88400D02*
X117800Y88200D01*
X118400Y88000D02*
Y87600D01*
X118300D01*
X117900Y88000D01*
X117800D01*
X118300Y87400D02*
X118400Y87300D01*
Y87100D01*
X118300Y87001D01*
X117900D01*
X117800Y87100D01*
Y87300D01*
X117900Y87400D01*
X118300D01*
X63100Y106600D02*
Y106000D01*
X62800D01*
X62700Y106100D01*
Y106300D01*
X62800Y106400D01*
X63100D01*
X62900D02*
X62700Y106600D01*
X62100Y106000D02*
X62300Y106100D01*
X62500Y106300D01*
Y106500D01*
X62400Y106600D01*
X62200D01*
X62100Y106500D01*
Y106400D01*
X62200Y106300D01*
X62500D01*
X61900Y106500D02*
X61800Y106600D01*
X61600D01*
X61501Y106500D01*
Y106100D01*
X61600Y106000D01*
X61800D01*
X61900Y106100D01*
Y106200D01*
X61800Y106300D01*
X61501D01*
X63900Y84800D02*
Y84200D01*
X63600D01*
X63500Y84300D01*
Y84500D01*
X63600Y84600D01*
X63900D01*
X63700D02*
X63500Y84800D01*
X62900Y84200D02*
X63100Y84300D01*
X63300Y84500D01*
Y84700D01*
X63200Y84800D01*
X63000D01*
X62900Y84700D01*
Y84600D01*
X63000Y84500D01*
X63300D01*
X62700Y84300D02*
X62600Y84200D01*
X62400D01*
X62301Y84300D01*
Y84400D01*
X62400Y84500D01*
X62301Y84600D01*
Y84700D01*
X62400Y84800D01*
X62600D01*
X62700Y84700D01*
Y84600D01*
X62600Y84500D01*
X62700Y84400D01*
Y84300D01*
X62600Y84500D02*
X62400D01*
X85200Y102400D02*
Y103000D01*
X85500D01*
X85600Y102900D01*
Y102700D01*
X85500Y102600D01*
X85200D01*
X85400D02*
X85600Y102400D01*
X86200Y103000D02*
X86000Y102900D01*
X85800Y102700D01*
Y102500D01*
X85900Y102400D01*
X86100D01*
X86200Y102500D01*
Y102600D01*
X86100Y102700D01*
X85800D01*
X86400Y103000D02*
X86799D01*
Y102900D01*
X86400Y102500D01*
Y102400D01*
X52100Y80100D02*
Y80700D01*
X52400D01*
X52500Y80600D01*
Y80400D01*
X52400Y80300D01*
X52100D01*
X52300D02*
X52500Y80100D01*
X53100Y80700D02*
X52900Y80600D01*
X52700Y80400D01*
Y80200D01*
X52800Y80100D01*
X53000D01*
X53100Y80200D01*
Y80300D01*
X53000Y80400D01*
X52700D01*
X53699Y80700D02*
X53500Y80600D01*
X53300Y80400D01*
Y80200D01*
X53400Y80100D01*
X53600D01*
X53699Y80200D01*
Y80300D01*
X53600Y80400D01*
X53300D01*
X52000Y84100D02*
Y84700D01*
X52300D01*
X52400Y84600D01*
Y84400D01*
X52300Y84300D01*
X52000D01*
X52200D02*
X52400Y84100D01*
X53000Y84700D02*
X52800Y84600D01*
X52600Y84400D01*
Y84200D01*
X52700Y84100D01*
X52900D01*
X53000Y84200D01*
Y84300D01*
X52900Y84400D01*
X52600D01*
X53599Y84700D02*
X53200D01*
Y84400D01*
X53400Y84500D01*
X53500D01*
X53599Y84400D01*
Y84200D01*
X53500Y84100D01*
X53300D01*
X53200Y84200D01*
X58500Y80700D02*
Y80100D01*
X58200D01*
X58100Y80200D01*
Y80400D01*
X58200Y80500D01*
X58500D01*
X58300D02*
X58100Y80700D01*
X57500Y80100D02*
X57700Y80200D01*
X57900Y80400D01*
Y80600D01*
X57800Y80700D01*
X57600D01*
X57500Y80600D01*
Y80500D01*
X57600Y80400D01*
X57900D01*
X57000Y80700D02*
Y80100D01*
X57300Y80400D01*
X56901D01*
X123200Y77200D02*
X123800D01*
Y76900D01*
X123700Y76800D01*
X123500D01*
X123400Y76900D01*
Y77200D01*
Y77000D02*
X123200Y76800D01*
X123800Y76200D02*
X123700Y76400D01*
X123500Y76600D01*
X123300D01*
X123200Y76500D01*
Y76300D01*
X123300Y76200D01*
X123400D01*
X123500Y76300D01*
Y76600D01*
X123200Y75601D02*
Y76000D01*
X123600Y75601D01*
X123700D01*
X123800Y75700D01*
Y75900D01*
X123700Y76000D01*
X51200Y88900D02*
X50600D01*
Y89200D01*
X50700Y89300D01*
X50900D01*
X51000Y89200D01*
Y88900D01*
Y89100D02*
X51200Y89300D01*
X50600Y89900D02*
X50700Y89700D01*
X50900Y89500D01*
X51100D01*
X51200Y89600D01*
Y89800D01*
X51100Y89900D01*
X51000D01*
X50900Y89800D01*
Y89500D01*
X51200Y90100D02*
Y90300D01*
Y90200D01*
X50600D01*
X50700Y90100D01*
X86800Y106500D02*
Y105900D01*
X86500D01*
X86400Y106000D01*
Y106200D01*
X86500Y106300D01*
X86800D01*
X86600D02*
X86400Y106500D01*
X85800Y105900D02*
X86000Y106000D01*
X86200Y106200D01*
Y106400D01*
X86100Y106500D01*
X85900D01*
X85800Y106400D01*
Y106300D01*
X85900Y106200D01*
X86200D01*
X85600Y106000D02*
X85500Y105900D01*
X85300D01*
X85201Y106000D01*
Y106400D01*
X85300Y106500D01*
X85500D01*
X85600Y106400D01*
Y106000D01*
X100000Y105600D02*
X99400D01*
Y105900D01*
X99500Y106000D01*
X99700D01*
X99800Y105900D01*
Y105600D01*
Y105800D02*
X100000Y106000D01*
X99400Y106600D02*
Y106200D01*
X99700D01*
X99600Y106400D01*
Y106500D01*
X99700Y106600D01*
X99900D01*
X100000Y106500D01*
Y106300D01*
X99900Y106200D01*
Y106800D02*
X100000Y106900D01*
Y107100D01*
X99900Y107199D01*
X99500D01*
X99400Y107100D01*
Y106900D01*
X99500Y106800D01*
X99600D01*
X99700Y106900D01*
Y107199D01*
X121500Y87200D02*
X120900D01*
Y87500D01*
X121000Y87600D01*
X121200D01*
X121300Y87500D01*
Y87200D01*
Y87400D02*
X121500Y87600D01*
X120900Y88200D02*
Y87800D01*
X121200D01*
X121100Y88000D01*
Y88100D01*
X121200Y88200D01*
X121400D01*
X121500Y88100D01*
Y87900D01*
X121400Y87800D01*
X121000Y88400D02*
X120900Y88500D01*
Y88700D01*
X121000Y88799D01*
X121100D01*
X121200Y88700D01*
X121300Y88799D01*
X121400D01*
X121500Y88700D01*
Y88500D01*
X121400Y88400D01*
X121300D01*
X121200Y88500D01*
X121100Y88400D01*
X121000D01*
X121200Y88500D02*
Y88700D01*
X51200Y76700D02*
X50600D01*
Y77000D01*
X50700Y77100D01*
X50900D01*
X51000Y77000D01*
Y76700D01*
Y76900D02*
X51200Y77100D01*
X50600Y77700D02*
Y77300D01*
X50900D01*
X50800Y77500D01*
Y77600D01*
X50900Y77700D01*
X51100D01*
X51200Y77600D01*
Y77400D01*
X51100Y77300D01*
X50600Y77900D02*
Y78299D01*
X50700D01*
X51100Y77900D01*
X51200D01*
X71000Y105900D02*
Y106500D01*
X71300D01*
X71400Y106400D01*
Y106200D01*
X71300Y106100D01*
X71000D01*
X71200D02*
X71400Y105900D01*
X72000Y106500D02*
X71600D01*
Y106200D01*
X71800Y106300D01*
X71900D01*
X72000Y106200D01*
Y106000D01*
X71900Y105900D01*
X71700D01*
X71600Y106000D01*
X72599Y106500D02*
X72400Y106400D01*
X72200Y106200D01*
Y106000D01*
X72300Y105900D01*
X72500D01*
X72599Y106000D01*
Y106100D01*
X72500Y106200D01*
X72200D01*
X113900Y89900D02*
Y90500D01*
X114200D01*
X114300Y90400D01*
Y90200D01*
X114200Y90100D01*
X113900D01*
X114100D02*
X114300Y89900D01*
X114900Y90500D02*
X114500D01*
Y90200D01*
X114700Y90300D01*
X114800D01*
X114900Y90200D01*
Y90000D01*
X114800Y89900D01*
X114600D01*
X114500Y90000D01*
X115499Y90500D02*
X115100D01*
Y90200D01*
X115300Y90300D01*
X115400D01*
X115499Y90200D01*
Y90000D01*
X115400Y89900D01*
X115200D01*
X115100Y90000D01*
X106300Y81900D02*
Y81300D01*
X106000D01*
X105900Y81400D01*
Y81600D01*
X106000Y81700D01*
X106300D01*
X106100D02*
X105900Y81900D01*
X105300Y81300D02*
X105700D01*
Y81600D01*
X105500Y81500D01*
X105400D01*
X105300Y81600D01*
Y81800D01*
X105400Y81900D01*
X105600D01*
X105700Y81800D01*
X104800Y81900D02*
Y81300D01*
X105100Y81600D01*
X104701D01*
X96400Y109300D02*
Y108700D01*
X96100D01*
X96000Y108800D01*
Y109000D01*
X96100Y109100D01*
X96400D01*
X96200D02*
X96000Y109300D01*
X95400Y108700D02*
X95800D01*
Y109000D01*
X95600Y108900D01*
X95500D01*
X95400Y109000D01*
Y109200D01*
X95500Y109300D01*
X95700D01*
X95800Y109200D01*
X95200Y108800D02*
X95100Y108700D01*
X94900D01*
X94801Y108800D01*
Y108900D01*
X94900Y109000D01*
X95000D01*
X94900D01*
X94801Y109100D01*
Y109200D01*
X94900Y109300D01*
X95100D01*
X95200Y109200D01*
X60100Y95200D02*
Y95800D01*
X60400D01*
X60500Y95700D01*
Y95500D01*
X60400Y95400D01*
X60100D01*
X60300D02*
X60500Y95200D01*
X61100Y95800D02*
X60700D01*
Y95500D01*
X60900Y95600D01*
X61000D01*
X61100Y95500D01*
Y95300D01*
X61000Y95200D01*
X60800D01*
X60700Y95300D01*
X61699Y95200D02*
X61300D01*
X61699Y95600D01*
Y95700D01*
X61600Y95800D01*
X61400D01*
X61300Y95700D01*
X60200Y94200D02*
Y94800D01*
X60500D01*
X60600Y94700D01*
Y94500D01*
X60500Y94400D01*
X60200D01*
X60400D02*
X60600Y94200D01*
X61200Y94800D02*
X60800D01*
Y94500D01*
X61000Y94600D01*
X61100D01*
X61200Y94500D01*
Y94300D01*
X61100Y94200D01*
X60900D01*
X60800Y94300D01*
X61400Y94200D02*
X61600D01*
X61500D01*
Y94800D01*
X61400Y94700D01*
X118800Y69200D02*
X118200D01*
Y69500D01*
X118300Y69600D01*
X118500D01*
X118600Y69500D01*
Y69200D01*
Y69400D02*
X118800Y69600D01*
X118200Y70200D02*
Y69800D01*
X118500D01*
X118400Y70000D01*
Y70100D01*
X118500Y70200D01*
X118700D01*
X118800Y70100D01*
Y69900D01*
X118700Y69800D01*
X118300Y70400D02*
X118200Y70500D01*
Y70700D01*
X118300Y70799D01*
X118700D01*
X118800Y70700D01*
Y70500D01*
X118700Y70400D01*
X118300D01*
X101800Y107000D02*
X102400D01*
Y106700D01*
X102300Y106600D01*
X102100D01*
X102000Y106700D01*
Y107000D01*
Y106800D02*
X101800Y106600D01*
Y106100D02*
X102400D01*
X102100Y106400D01*
Y106000D01*
X101900Y105800D02*
X101800Y105700D01*
Y105500D01*
X101900Y105401D01*
X102300D01*
X102400Y105500D01*
Y105700D01*
X102300Y105800D01*
X102200D01*
X102100Y105700D01*
Y105401D01*
X122500Y87200D02*
X121900D01*
Y87500D01*
X122000Y87600D01*
X122200D01*
X122300Y87500D01*
Y87200D01*
Y87400D02*
X122500Y87600D01*
Y88100D02*
X121900D01*
X122200Y87800D01*
Y88200D01*
X122000Y88400D02*
X121900Y88500D01*
Y88700D01*
X122000Y88799D01*
X122100D01*
X122200Y88700D01*
X122300Y88799D01*
X122400D01*
X122500Y88700D01*
Y88500D01*
X122400Y88400D01*
X122300D01*
X122200Y88500D01*
X122100Y88400D01*
X122000D01*
X122200Y88500D02*
Y88700D01*
X127400Y73400D02*
X128000D01*
Y73100D01*
X127900Y73000D01*
X127700D01*
X127600Y73100D01*
Y73400D01*
Y73200D02*
X127400Y73000D01*
Y72500D02*
X128000D01*
X127700Y72800D01*
Y72400D01*
X128000Y72200D02*
Y71801D01*
X127900D01*
X127500Y72200D01*
X127400D01*
X55300Y88800D02*
X54700D01*
Y89100D01*
X54800Y89200D01*
X55000D01*
X55100Y89100D01*
Y88800D01*
Y89000D02*
X55300Y89200D01*
Y89700D02*
X54700D01*
X55000Y89400D01*
Y89800D01*
X54700Y90399D02*
X54800Y90200D01*
X55000Y90000D01*
X55200D01*
X55300Y90100D01*
Y90300D01*
X55200Y90399D01*
X55100D01*
X55000Y90300D01*
Y90000D01*
X53600Y90200D02*
X54200D01*
Y89900D01*
X54100Y89800D01*
X53900D01*
X53800Y89900D01*
Y90200D01*
Y90000D02*
X53600Y89800D01*
Y89300D02*
X54200D01*
X53900Y89600D01*
Y89200D01*
X54200Y88601D02*
Y89000D01*
X53900D01*
X54000Y88800D01*
Y88700D01*
X53900Y88601D01*
X53700D01*
X53600Y88700D01*
Y88900D01*
X53700Y89000D01*
X45500Y83100D02*
X46100D01*
Y82800D01*
X46000Y82700D01*
X45800D01*
X45700Y82800D01*
Y83100D01*
Y82900D02*
X45500Y82700D01*
Y82200D02*
X46100D01*
X45800Y82500D01*
Y82100D01*
X45500Y81600D02*
X46100D01*
X45800Y81900D01*
Y81501D01*
X50100Y81700D02*
X49500D01*
Y82000D01*
X49600Y82100D01*
X49800D01*
X49900Y82000D01*
Y81700D01*
Y81900D02*
X50100Y82100D01*
Y82600D02*
X49500D01*
X49800Y82300D01*
Y82700D01*
X49600Y82900D02*
X49500Y83000D01*
Y83200D01*
X49600Y83299D01*
X49700D01*
X49800Y83200D01*
Y83100D01*
Y83200D01*
X49900Y83299D01*
X50000D01*
X50100Y83200D01*
Y83000D01*
X50000Y82900D01*
X60100Y93200D02*
Y93800D01*
X60400D01*
X60500Y93700D01*
Y93500D01*
X60400Y93400D01*
X60100D01*
X60300D02*
X60500Y93200D01*
X61000D02*
Y93800D01*
X60700Y93500D01*
X61100D01*
X61699Y93200D02*
X61300D01*
X61699Y93600D01*
Y93700D01*
X61600Y93800D01*
X61400D01*
X61300Y93700D01*
X54500Y69900D02*
Y69300D01*
X54200D01*
X54100Y69400D01*
Y69600D01*
X54200Y69700D01*
X54500D01*
X54300D02*
X54100Y69900D01*
X53600D02*
Y69300D01*
X53900Y69600D01*
X53500D01*
X53300Y69900D02*
X53100D01*
X53200D01*
Y69300D01*
X53300Y69400D01*
X118900Y88600D02*
X119500D01*
Y88300D01*
X119400Y88200D01*
X119200D01*
X119100Y88300D01*
Y88600D01*
Y88400D02*
X118900Y88200D01*
Y87700D02*
X119500D01*
X119200Y88000D01*
Y87600D01*
X119400Y87400D02*
X119500Y87300D01*
Y87100D01*
X119400Y87001D01*
X119000D01*
X118900Y87100D01*
Y87300D01*
X119000Y87400D01*
X119400D01*
X111300Y87000D02*
X110700D01*
Y87300D01*
X110800Y87400D01*
X111000D01*
X111100Y87300D01*
Y87000D01*
Y87200D02*
X111300Y87400D01*
X110800Y87600D02*
X110700Y87700D01*
Y87900D01*
X110800Y88000D01*
X110900D01*
X111000Y87900D01*
Y87800D01*
Y87900D01*
X111100Y88000D01*
X111200D01*
X111300Y87900D01*
Y87700D01*
X111200Y87600D01*
Y88200D02*
X111300Y88300D01*
Y88500D01*
X111200Y88599D01*
X110800D01*
X110700Y88500D01*
Y88300D01*
X110800Y88200D01*
X110900D01*
X111000Y88300D01*
Y88599D01*
X57100Y84100D02*
Y84700D01*
X57400D01*
X57500Y84600D01*
Y84400D01*
X57400Y84300D01*
X57100D01*
X57300D02*
X57500Y84100D01*
X57700Y84600D02*
X57800Y84700D01*
X58000D01*
X58100Y84600D01*
Y84500D01*
X58000Y84400D01*
X57900D01*
X58000D01*
X58100Y84300D01*
Y84200D01*
X58000Y84100D01*
X57800D01*
X57700Y84200D01*
X58300Y84600D02*
X58400Y84700D01*
X58600D01*
X58699Y84600D01*
Y84500D01*
X58600Y84400D01*
X58699Y84300D01*
Y84200D01*
X58600Y84100D01*
X58400D01*
X58300Y84200D01*
Y84300D01*
X58400Y84400D01*
X58300Y84500D01*
Y84600D01*
X58400Y84400D02*
X58600D01*
X108100Y76000D02*
Y75400D01*
X107800D01*
X107700Y75500D01*
Y75700D01*
X107800Y75800D01*
X108100D01*
X107900D02*
X107700Y76000D01*
X107500Y75500D02*
X107400Y75400D01*
X107200D01*
X107100Y75500D01*
Y75600D01*
X107200Y75700D01*
X107300D01*
X107200D01*
X107100Y75800D01*
Y75900D01*
X107200Y76000D01*
X107400D01*
X107500Y75900D01*
X106900Y75400D02*
X106501D01*
Y75500D01*
X106900Y75900D01*
Y76000D01*
X49400Y70100D02*
Y69500D01*
X49100D01*
X49000Y69600D01*
Y69800D01*
X49100Y69900D01*
X49400D01*
X49200D02*
X49000Y70100D01*
X48800Y69600D02*
X48700Y69500D01*
X48500D01*
X48400Y69600D01*
Y69700D01*
X48500Y69800D01*
X48600D01*
X48500D01*
X48400Y69900D01*
Y70000D01*
X48500Y70100D01*
X48700D01*
X48800Y70000D01*
X47801Y69500D02*
X48000Y69600D01*
X48200Y69800D01*
Y70000D01*
X48100Y70100D01*
X47900D01*
X47801Y70000D01*
Y69900D01*
X47900Y69800D01*
X48200D01*
X53300Y70400D02*
Y71000D01*
X53600D01*
X53700Y70900D01*
Y70700D01*
X53600Y70600D01*
X53300D01*
X53500D02*
X53700Y70400D01*
X53900Y70900D02*
X54000Y71000D01*
X54200D01*
X54300Y70900D01*
Y70800D01*
X54200Y70700D01*
X54100D01*
X54200D01*
X54300Y70600D01*
Y70500D01*
X54200Y70400D01*
X54000D01*
X53900Y70500D01*
X54899Y71000D02*
X54500D01*
Y70700D01*
X54700Y70800D01*
X54800D01*
X54899Y70700D01*
Y70500D01*
X54800Y70400D01*
X54600D01*
X54500Y70500D01*
X117700Y69300D02*
X117100D01*
Y69600D01*
X117200Y69700D01*
X117400D01*
X117500Y69600D01*
Y69300D01*
Y69500D02*
X117700Y69700D01*
X117200Y69900D02*
X117100Y70000D01*
Y70200D01*
X117200Y70300D01*
X117300D01*
X117400Y70200D01*
Y70100D01*
Y70200D01*
X117500Y70300D01*
X117600D01*
X117700Y70200D01*
Y70000D01*
X117600Y69900D01*
X117700Y70800D02*
X117100D01*
X117400Y70500D01*
Y70899D01*
X48000Y71500D02*
Y72100D01*
X48300D01*
X48400Y72000D01*
Y71800D01*
X48300Y71700D01*
X48000D01*
X48200D02*
X48400Y71500D01*
X48600Y72000D02*
X48700Y72100D01*
X48900D01*
X49000Y72000D01*
Y71900D01*
X48900Y71800D01*
X48800D01*
X48900D01*
X49000Y71700D01*
Y71600D01*
X48900Y71500D01*
X48700D01*
X48600Y71600D01*
X49200Y72000D02*
X49300Y72100D01*
X49500D01*
X49599Y72000D01*
Y71900D01*
X49500Y71800D01*
X49400D01*
X49500D01*
X49599Y71700D01*
Y71600D01*
X49500Y71500D01*
X49300D01*
X49200Y71600D01*
X47900Y70500D02*
Y71100D01*
X48200D01*
X48300Y71000D01*
Y70800D01*
X48200Y70700D01*
X47900D01*
X48100D02*
X48300Y70500D01*
X48500Y71000D02*
X48600Y71100D01*
X48800D01*
X48900Y71000D01*
Y70900D01*
X48800Y70800D01*
X48700D01*
X48800D01*
X48900Y70700D01*
Y70600D01*
X48800Y70500D01*
X48600D01*
X48500Y70600D01*
X49499Y70500D02*
X49100D01*
X49499Y70900D01*
Y71000D01*
X49400Y71100D01*
X49200D01*
X49100Y71000D01*
X50100Y76800D02*
X49500D01*
Y77100D01*
X49600Y77200D01*
X49800D01*
X49900Y77100D01*
Y76800D01*
Y77000D02*
X50100Y77200D01*
X49600Y77400D02*
X49500Y77500D01*
Y77700D01*
X49600Y77800D01*
X49700D01*
X49800Y77700D01*
Y77600D01*
Y77700D01*
X49900Y77800D01*
X50000D01*
X50100Y77700D01*
Y77500D01*
X50000Y77400D01*
X50100Y78000D02*
Y78200D01*
Y78100D01*
X49500D01*
X49600Y78000D01*
X48300Y65700D02*
X47700D01*
Y66000D01*
X47800Y66100D01*
X48000D01*
X48100Y66000D01*
Y65700D01*
Y65900D02*
X48300Y66100D01*
X47800Y66300D02*
X47700Y66400D01*
Y66600D01*
X47800Y66700D01*
X47900D01*
X48000Y66600D01*
Y66500D01*
Y66600D01*
X48100Y66700D01*
X48200D01*
X48300Y66600D01*
Y66400D01*
X48200Y66300D01*
X47800Y66900D02*
X47700Y67000D01*
Y67200D01*
X47800Y67299D01*
X48200D01*
X48300Y67200D01*
Y67000D01*
X48200Y66900D01*
X47800D01*
X60000Y92100D02*
Y92700D01*
X60300D01*
X60400Y92600D01*
Y92400D01*
X60300Y92300D01*
X60000D01*
X60200D02*
X60400Y92100D01*
X61000D02*
X60600D01*
X61000Y92500D01*
Y92600D01*
X60900Y92700D01*
X60700D01*
X60600Y92600D01*
X61200Y92200D02*
X61300Y92100D01*
X61500D01*
X61599Y92200D01*
Y92600D01*
X61500Y92700D01*
X61300D01*
X61200Y92600D01*
Y92500D01*
X61300Y92400D01*
X61599D01*
X46100Y76700D02*
X45500D01*
Y77000D01*
X45600Y77100D01*
X45800D01*
X45900Y77000D01*
Y76700D01*
Y76900D02*
X46100Y77100D01*
Y77700D02*
Y77300D01*
X45700Y77700D01*
X45600D01*
X45500Y77600D01*
Y77400D01*
X45600Y77300D01*
Y77900D02*
X45500Y78000D01*
Y78200D01*
X45600Y78299D01*
X45700D01*
X45800Y78200D01*
X45900Y78299D01*
X46000D01*
X46100Y78200D01*
Y78000D01*
X46000Y77900D01*
X45900D01*
X45800Y78000D01*
X45700Y77900D01*
X45600D01*
X45800Y78000D02*
Y78200D01*
X52300Y88700D02*
X51700D01*
Y89000D01*
X51800Y89100D01*
X52000D01*
X52100Y89000D01*
Y88700D01*
Y88900D02*
X52300Y89100D01*
Y89700D02*
Y89300D01*
X51900Y89700D01*
X51800D01*
X51700Y89600D01*
Y89400D01*
X51800Y89300D01*
X51700Y89900D02*
Y90299D01*
X51800D01*
X52200Y89900D01*
X52300D01*
X53300Y88800D02*
X52700D01*
Y89100D01*
X52800Y89200D01*
X53000D01*
X53100Y89100D01*
Y88800D01*
Y89000D02*
X53300Y89200D01*
Y89800D02*
Y89400D01*
X52900Y89800D01*
X52800D01*
X52700Y89700D01*
Y89500D01*
X52800Y89400D01*
X52700Y90399D02*
X52800Y90200D01*
X53000Y90000D01*
X53200D01*
X53300Y90100D01*
Y90300D01*
X53200Y90399D01*
X53100D01*
X53000Y90300D01*
Y90000D01*
X93000Y106200D02*
X92400D01*
Y106500D01*
X92500Y106600D01*
X92700D01*
X92800Y106500D01*
Y106200D01*
Y106400D02*
X93000Y106600D01*
Y107200D02*
Y106800D01*
X92600Y107200D01*
X92500D01*
X92400Y107100D01*
Y106900D01*
X92500Y106800D01*
X92400Y107799D02*
Y107400D01*
X92700D01*
X92600Y107600D01*
Y107700D01*
X92700Y107799D01*
X92900D01*
X93000Y107700D01*
Y107500D01*
X92900Y107400D01*
X72600Y102900D02*
Y102300D01*
X72300D01*
X72200Y102400D01*
Y102600D01*
X72300Y102700D01*
X72600D01*
X72400D02*
X72200Y102900D01*
X71600D02*
X72000D01*
X71600Y102500D01*
Y102400D01*
X71700Y102300D01*
X71900D01*
X72000Y102400D01*
X71100Y102900D02*
Y102300D01*
X71400Y102600D01*
X71001D01*
X124600Y68500D02*
Y67900D01*
X124300D01*
X124200Y68000D01*
Y68200D01*
X124300Y68300D01*
X124600D01*
X124400D02*
X124200Y68500D01*
X123600D02*
X124000D01*
X123600Y68100D01*
Y68000D01*
X123700Y67900D01*
X123900D01*
X124000Y68000D01*
X123400D02*
X123300Y67900D01*
X123100D01*
X123001Y68000D01*
Y68100D01*
X123100Y68200D01*
X123200D01*
X123100D01*
X123001Y68300D01*
Y68400D01*
X123100Y68500D01*
X123300D01*
X123400Y68400D01*
X46700Y67100D02*
X47300D01*
Y66800D01*
X47200Y66700D01*
X47000D01*
X46900Y66800D01*
Y67100D01*
Y66900D02*
X46700Y66700D01*
Y66100D02*
Y66500D01*
X47100Y66100D01*
X47200D01*
X47300Y66200D01*
Y66400D01*
X47200Y66500D01*
X46700Y65501D02*
Y65900D01*
X47100Y65501D01*
X47200D01*
X47300Y65600D01*
Y65800D01*
X47200Y65900D01*
X88800Y107800D02*
X89400D01*
Y107500D01*
X89300Y107400D01*
X89100D01*
X89000Y107500D01*
Y107800D01*
Y107600D02*
X88800Y107400D01*
Y106800D02*
Y107200D01*
X89200Y106800D01*
X89300D01*
X89400Y106900D01*
Y107100D01*
X89300Y107200D01*
X88800Y106600D02*
Y106400D01*
Y106500D01*
X89400D01*
X89300Y106600D01*
X121500Y72000D02*
X122100D01*
Y71700D01*
X122000Y71600D01*
X121800D01*
X121700Y71700D01*
Y72000D01*
Y71800D02*
X121500Y71600D01*
Y71000D02*
Y71400D01*
X121900Y71000D01*
X122000D01*
X122100Y71100D01*
Y71300D01*
X122000Y71400D01*
Y70800D02*
X122100Y70700D01*
Y70500D01*
X122000Y70401D01*
X121600D01*
X121500Y70500D01*
Y70700D01*
X121600Y70800D01*
X122000D01*
X104700Y78600D02*
Y79200D01*
X105000D01*
X105100Y79100D01*
Y78900D01*
X105000Y78800D01*
X104700D01*
X104900D02*
X105100Y78600D01*
X105300D02*
X105500D01*
X105400D01*
Y79200D01*
X105300Y79100D01*
X105800Y78700D02*
X105900Y78600D01*
X106100D01*
X106200Y78700D01*
Y79100D01*
X106100Y79200D01*
X105900D01*
X105800Y79100D01*
Y79000D01*
X105900Y78900D01*
X106200D01*
X106200Y77900D02*
Y77300D01*
X105900D01*
X105800Y77400D01*
Y77600D01*
X105900Y77700D01*
X106200D01*
X106000D02*
X105800Y77900D01*
X105600D02*
X105400D01*
X105500D01*
Y77300D01*
X105600Y77400D01*
X105100D02*
X105000Y77300D01*
X104800D01*
X104700Y77400D01*
Y77500D01*
X104800Y77600D01*
X104700Y77700D01*
Y77800D01*
X104800Y77900D01*
X105000D01*
X105100Y77800D01*
Y77700D01*
X105000Y77600D01*
X105100Y77500D01*
Y77400D01*
X105000Y77600D02*
X104800D01*
X122900Y72000D02*
X123500D01*
Y71700D01*
X123400Y71600D01*
X123200D01*
X123100Y71700D01*
Y72000D01*
Y71800D02*
X122900Y71600D01*
Y71400D02*
Y71200D01*
Y71300D01*
X123500D01*
X123400Y71400D01*
X123500Y70900D02*
Y70500D01*
X123400D01*
X123000Y70900D01*
X122900D01*
X122800Y88600D02*
X123400D01*
Y88300D01*
X123300Y88200D01*
X123100D01*
X123000Y88300D01*
Y88600D01*
Y88400D02*
X122800Y88200D01*
Y88000D02*
Y87800D01*
Y87900D01*
X123400D01*
X123300Y88000D01*
X123400Y87100D02*
X123300Y87300D01*
X123100Y87500D01*
X122900D01*
X122800Y87400D01*
Y87200D01*
X122900Y87100D01*
X123000D01*
X123100Y87200D01*
Y87500D01*
X61500Y90800D02*
Y90200D01*
X61200D01*
X61100Y90300D01*
Y90500D01*
X61200Y90600D01*
X61500D01*
X61300D02*
X61100Y90800D01*
X60900D02*
X60700D01*
X60800D01*
Y90200D01*
X60900Y90300D01*
X60000Y90200D02*
X60400D01*
Y90500D01*
X60200Y90400D01*
X60100D01*
X60000Y90500D01*
Y90700D01*
X60100Y90800D01*
X60300D01*
X60400Y90700D01*
X60200Y91200D02*
Y91800D01*
X60500D01*
X60600Y91700D01*
Y91500D01*
X60500Y91400D01*
X60200D01*
X60400D02*
X60600Y91200D01*
X60800D02*
X61000D01*
X60900D01*
Y91800D01*
X60800Y91700D01*
X61600Y91200D02*
Y91800D01*
X61300Y91500D01*
X61700D01*
X78100Y103400D02*
X77500D01*
Y103700D01*
X77600Y103800D01*
X77800D01*
X77900Y103700D01*
Y103400D01*
Y103600D02*
X78100Y103800D01*
Y104000D02*
Y104200D01*
Y104100D01*
X77500D01*
X77600Y104000D01*
Y104500D02*
X77500Y104600D01*
Y104800D01*
X77600Y104900D01*
X77700D01*
X77800Y104800D01*
Y104700D01*
Y104800D01*
X77900Y104900D01*
X78000D01*
X78100Y104800D01*
Y104600D01*
X78000Y104500D01*
X108100Y74900D02*
Y74300D01*
X107800D01*
X107700Y74400D01*
Y74600D01*
X107800Y74700D01*
X108100D01*
X107900D02*
X107700Y74900D01*
X107500D02*
X107300D01*
X107400D01*
Y74300D01*
X107500Y74400D01*
X106600Y74900D02*
X107000D01*
X106600Y74500D01*
Y74400D01*
X106700Y74300D01*
X106900D01*
X107000Y74400D01*
X107900Y72900D02*
Y72300D01*
X107600D01*
X107500Y72400D01*
Y72600D01*
X107600Y72700D01*
X107900D01*
X107700D02*
X107500Y72900D01*
X107300D02*
X107100D01*
X107200D01*
Y72300D01*
X107300Y72400D01*
X106800Y72900D02*
X106600D01*
X106700D01*
Y72300D01*
X106800Y72400D01*
X108000Y73900D02*
Y73300D01*
X107700D01*
X107600Y73400D01*
Y73600D01*
X107700Y73700D01*
X108000D01*
X107800D02*
X107600Y73900D01*
X107400D02*
X107200D01*
X107300D01*
Y73300D01*
X107400Y73400D01*
X106900D02*
X106800Y73300D01*
X106600D01*
X106500Y73400D01*
Y73800D01*
X106600Y73900D01*
X106800D01*
X106900Y73800D01*
Y73400D01*
X118700Y74500D02*
Y73900D01*
X118400D01*
X118300Y74000D01*
Y74200D01*
X118400Y74300D01*
X118700D01*
X118500D02*
X118300Y74500D01*
X118100Y74400D02*
X118000Y74500D01*
X117800D01*
X117700Y74400D01*
Y74000D01*
X117800Y73900D01*
X118000D01*
X118100Y74000D01*
Y74100D01*
X118000Y74200D01*
X117700D01*
X118800Y73500D02*
Y72900D01*
X118500D01*
X118400Y73000D01*
Y73200D01*
X118500Y73300D01*
X118800D01*
X118600D02*
X118400Y73500D01*
X118200Y73000D02*
X118100Y72900D01*
X117900D01*
X117800Y73000D01*
Y73100D01*
X117900Y73200D01*
X117800Y73300D01*
Y73400D01*
X117900Y73500D01*
X118100D01*
X118200Y73400D01*
Y73300D01*
X118100Y73200D01*
X118200Y73100D01*
Y73000D01*
X118100Y73200D02*
X117900D01*
X66200Y103100D02*
X66800D01*
Y102800D01*
X66700Y102700D01*
X66500D01*
X66400Y102800D01*
Y103100D01*
Y102900D02*
X66200Y102700D01*
X66800Y102500D02*
Y102100D01*
X66700D01*
X66300Y102500D01*
X66200D01*
X118900Y75500D02*
Y74900D01*
X118600D01*
X118500Y75000D01*
Y75200D01*
X118600Y75300D01*
X118900D01*
X118700D02*
X118500Y75500D01*
X117900Y74900D02*
X118100Y75000D01*
X118300Y75200D01*
Y75400D01*
X118200Y75500D01*
X118000D01*
X117900Y75400D01*
Y75300D01*
X118000Y75200D01*
X118300D01*
X41200Y94900D02*
X41800D01*
Y94600D01*
X41700Y94500D01*
X41500D01*
X41400Y94600D01*
Y94900D01*
Y94700D02*
X41200Y94500D01*
X41800Y93900D02*
Y94300D01*
X41500D01*
X41600Y94100D01*
Y94000D01*
X41500Y93900D01*
X41300D01*
X41200Y94000D01*
Y94200D01*
X41300Y94300D01*
X46000Y94900D02*
X46600D01*
Y94600D01*
X46500Y94500D01*
X46300D01*
X46200Y94600D01*
Y94900D01*
Y94700D02*
X46000Y94500D01*
Y94000D02*
X46600D01*
X46300Y94300D01*
Y93900D01*
X43600Y95000D02*
X44200D01*
Y94700D01*
X44100Y94600D01*
X43900D01*
X43800Y94700D01*
Y95000D01*
Y94800D02*
X43600Y94600D01*
X44100Y94400D02*
X44200Y94300D01*
Y94100D01*
X44100Y94000D01*
X44000D01*
X43900Y94100D01*
Y94200D01*
Y94100D01*
X43800Y94000D01*
X43700D01*
X43600Y94100D01*
Y94300D01*
X43700Y94400D01*
X62800Y108800D02*
Y108200D01*
X62500D01*
X62400Y108300D01*
Y108500D01*
X62500Y108600D01*
X62800D01*
X62600D02*
X62400Y108800D01*
X61800D02*
X62200D01*
X61800Y108400D01*
Y108300D01*
X61900Y108200D01*
X62100D01*
X62200Y108300D01*
X62600Y107800D02*
Y107200D01*
X62300D01*
X62200Y107300D01*
Y107500D01*
X62300Y107600D01*
X62600D01*
X62400D02*
X62200Y107800D01*
X62000D02*
X61800D01*
X61900D01*
Y107200D01*
X62000Y107300D01*
X48600Y90500D02*
Y90900D01*
X48500Y91000D01*
X48300D01*
X48200Y90900D01*
Y90500D01*
X48300Y90400D01*
X48500D01*
X48400Y90600D02*
X48600Y90400D01*
X48500D02*
X48600Y90500D01*
X48800Y90900D02*
X48900Y91000D01*
X49100D01*
X49200Y90900D01*
Y90800D01*
X49100Y90700D01*
X49200Y90600D01*
Y90500D01*
X49100Y90400D01*
X48900D01*
X48800Y90500D01*
Y90600D01*
X48900Y90700D01*
X48800Y90800D01*
Y90900D01*
X48900Y90700D02*
X49100D01*
X48900Y88500D02*
Y88100D01*
X49000Y88000D01*
X49200D01*
X49300Y88100D01*
Y88500D01*
X49200Y88600D01*
X49000D01*
X49100Y88400D02*
X48900Y88600D01*
X49000D02*
X48900Y88500D01*
X48700Y88000D02*
X48300D01*
Y88100D01*
X48700Y88500D01*
Y88600D01*
X114600Y86200D02*
Y85800D01*
X114700Y85700D01*
X114900D01*
X115000Y85800D01*
Y86200D01*
X114900Y86300D01*
X114700D01*
X114800Y86100D02*
X114600Y86300D01*
X114700D02*
X114600Y86200D01*
X114000Y85700D02*
X114200Y85800D01*
X114400Y86000D01*
Y86200D01*
X114300Y86300D01*
X114100D01*
X114000Y86200D01*
Y86100D01*
X114100Y86000D01*
X114400D01*
X114400Y88400D02*
Y88800D01*
X114300Y88900D01*
X114100D01*
X114000Y88800D01*
Y88400D01*
X114100Y88300D01*
X114300D01*
X114200Y88500D02*
X114400Y88300D01*
X114300D02*
X114400Y88400D01*
X115000Y88900D02*
X114600D01*
Y88600D01*
X114800Y88700D01*
X114900D01*
X115000Y88600D01*
Y88400D01*
X114900Y88300D01*
X114700D01*
X114600Y88400D01*
X53900Y82400D02*
X54300D01*
X54400Y82500D01*
Y82700D01*
X54300Y82800D01*
X53900D01*
X53800Y82700D01*
Y82500D01*
X54000Y82600D02*
X53800Y82400D01*
Y82500D02*
X53900Y82400D01*
X53800Y81900D02*
X54400D01*
X54100Y82200D01*
Y81800D01*
X51500Y82400D02*
X51100D01*
X51000Y82300D01*
Y82100D01*
X51100Y82000D01*
X51500D01*
X51600Y82100D01*
Y82300D01*
X51400Y82200D02*
X51600Y82400D01*
Y82300D02*
X51500Y82400D01*
X51100Y82600D02*
X51000Y82700D01*
Y82900D01*
X51100Y83000D01*
X51200D01*
X51300Y82900D01*
Y82800D01*
Y82900D01*
X51400Y83000D01*
X51500D01*
X51600Y82900D01*
Y82700D01*
X51500Y82600D01*
X47900Y81000D02*
Y80600D01*
X48000Y80500D01*
X48200D01*
X48300Y80600D01*
Y81000D01*
X48200Y81100D01*
X48000D01*
X48100Y80900D02*
X47900Y81100D01*
X48000D02*
X47900Y81000D01*
X47300Y81100D02*
X47700D01*
X47300Y80700D01*
Y80600D01*
X47400Y80500D01*
X47600D01*
X47700Y80600D01*
X47900Y83400D02*
Y83800D01*
X47800Y83900D01*
X47600D01*
X47500Y83800D01*
Y83400D01*
X47600Y83300D01*
X47800D01*
X47700Y83500D02*
X47900Y83300D01*
X47800D02*
X47900Y83400D01*
X48100Y83300D02*
X48300D01*
X48200D01*
Y83900D01*
X48100Y83800D01*
X74700Y108700D02*
Y108100D01*
X74400D01*
X74300Y108200D01*
Y108400D01*
X74400Y108500D01*
X74700D01*
X73700Y108200D02*
X73800Y108100D01*
X74000D01*
X74100Y108200D01*
Y108300D01*
X74000Y108400D01*
X73800D01*
X73700Y108500D01*
Y108600D01*
X73800Y108700D01*
X74000D01*
X74100Y108600D01*
X73200Y108700D02*
Y108100D01*
X73500Y108400D01*
X73101D01*
X83200Y108600D02*
Y108000D01*
X82900D01*
X82800Y108100D01*
Y108300D01*
X82900Y108400D01*
X83200D01*
X82200Y108100D02*
X82300Y108000D01*
X82500D01*
X82600Y108100D01*
Y108200D01*
X82500Y108300D01*
X82300D01*
X82200Y108400D01*
Y108500D01*
X82300Y108600D01*
X82500D01*
X82600Y108500D01*
X82000Y108100D02*
X81900Y108000D01*
X81700D01*
X81601Y108100D01*
Y108200D01*
X81700Y108300D01*
X81800D01*
X81700D01*
X81601Y108400D01*
Y108500D01*
X81700Y108600D01*
X81900D01*
X82000Y108500D01*
X110600Y80800D02*
Y81400D01*
X110900D01*
X111000Y81300D01*
Y81100D01*
X110900Y81000D01*
X110600D01*
X111600Y81300D02*
X111500Y81400D01*
X111300D01*
X111200Y81300D01*
Y81200D01*
X111300Y81100D01*
X111500D01*
X111600Y81000D01*
Y80900D01*
X111500Y80800D01*
X111300D01*
X111200Y80900D01*
X112199Y80800D02*
X111800D01*
X112199Y81200D01*
Y81300D01*
X112100Y81400D01*
X111900D01*
X111800Y81300D01*
X42800Y101400D02*
X42200D01*
Y101700D01*
X42300Y101800D01*
X42500D01*
X42600Y101700D01*
Y101400D01*
X42300Y102400D02*
X42200Y102300D01*
Y102100D01*
X42300Y102000D01*
X42400D01*
X42500Y102100D01*
Y102300D01*
X42600Y102400D01*
X42700D01*
X42800Y102300D01*
Y102100D01*
X42700Y102000D01*
X42800Y102600D02*
Y102800D01*
Y102700D01*
X42200D01*
X42300Y102600D01*
X125900Y79600D02*
X125300D01*
Y79900D01*
X125400Y80000D01*
X125600D01*
X125700Y79900D01*
Y79600D01*
X125900Y80600D02*
Y80200D01*
X125500Y80600D01*
X125400D01*
X125300Y80500D01*
Y80300D01*
X125400Y80200D01*
X48700Y73100D02*
X48100D01*
X48300Y73300D01*
X48100Y73500D01*
X48700D01*
X48100Y74100D02*
X48200Y73900D01*
X48400Y73700D01*
X48600D01*
X48700Y73800D01*
Y74000D01*
X48600Y74100D01*
X48500D01*
X48400Y74000D01*
Y73700D01*
X71500Y105000D02*
X72100D01*
X71900Y104800D01*
X72100Y104600D01*
X71500D01*
X72100Y104000D02*
Y104400D01*
X71800D01*
X71900Y104200D01*
Y104100D01*
X71800Y104000D01*
X71600D01*
X71500Y104100D01*
Y104300D01*
X71600Y104400D01*
X85700Y105000D02*
X86300D01*
X86100Y104800D01*
X86300Y104600D01*
X85700D01*
Y104100D02*
X86300D01*
X86000Y104400D01*
Y104000D01*
X121700Y93100D02*
Y93700D01*
X121900Y93500D01*
X122100Y93700D01*
Y93100D01*
X122300Y93600D02*
X122400Y93700D01*
X122600D01*
X122700Y93600D01*
Y93500D01*
X122600Y93400D01*
X122500D01*
X122600D01*
X122700Y93300D01*
Y93200D01*
X122600Y93100D01*
X122400D01*
X122300Y93200D01*
X118500Y96200D02*
X117900D01*
X118100Y96400D01*
X117900Y96600D01*
X118500D01*
Y97200D02*
Y96800D01*
X118100Y97200D01*
X118000D01*
X117900Y97100D01*
Y96900D01*
X118000Y96800D01*
X112300Y96400D02*
X111700D01*
X111900Y96600D01*
X111700Y96800D01*
X112300D01*
Y97000D02*
Y97200D01*
Y97100D01*
X111700D01*
X111800Y97000D01*
X65000Y106600D02*
Y106000D01*
X65400D01*
X66000Y106600D02*
X65600D01*
Y106000D01*
X66000D01*
X65600Y106300D02*
X65800D01*
X66200Y106600D02*
Y106000D01*
X66500D01*
X66599Y106100D01*
Y106500D01*
X66500Y106600D01*
X66200D01*
X67099Y106000D02*
Y106600D01*
X66799Y106300D01*
X67199D01*
X118800Y67400D02*
X118200D01*
Y67000D01*
X118800Y66400D02*
Y66800D01*
X118200D01*
Y66400D01*
X118500Y66800D02*
Y66600D01*
X118800Y66200D02*
X118200D01*
Y65900D01*
X118300Y65801D01*
X118700D01*
X118800Y65900D01*
Y66200D01*
X118700Y65601D02*
X118800Y65501D01*
Y65301D01*
X118700Y65201D01*
X118600D01*
X118500Y65301D01*
Y65401D01*
Y65301D01*
X118400Y65201D01*
X118300D01*
X118200Y65301D01*
Y65501D01*
X118300Y65601D01*
X117600Y67500D02*
X117000D01*
Y67100D01*
X117600Y66500D02*
Y66900D01*
X117000D01*
Y66500D01*
X117300Y66900D02*
Y66700D01*
X117600Y66300D02*
X117000D01*
Y66000D01*
X117100Y65901D01*
X117500D01*
X117600Y66000D01*
Y66300D01*
X117000Y65301D02*
Y65701D01*
X117400Y65301D01*
X117500D01*
X117600Y65401D01*
Y65601D01*
X117500Y65701D01*
X47100Y74600D02*
X46500D01*
Y74200D01*
X47100Y73600D02*
Y74000D01*
X46500D01*
Y73600D01*
X46800Y74000D02*
Y73800D01*
X47100Y73400D02*
X46500D01*
Y73100D01*
X46600Y73001D01*
X47000D01*
X47100Y73100D01*
Y73400D01*
X46500Y72801D02*
Y72601D01*
Y72701D01*
X47100D01*
X47000Y72801D01*
X94500Y67700D02*
X93900D01*
Y67400D01*
X94000Y67300D01*
X94400D01*
X94500Y67400D01*
Y67700D01*
Y66700D02*
Y67100D01*
X94200D01*
X94300Y66900D01*
Y66800D01*
X94200Y66700D01*
X94000D01*
X93900Y66800D01*
Y67000D01*
X94000Y67100D01*
X104300Y75000D02*
X103700D01*
Y74700D01*
X103800Y74600D01*
X104200D01*
X104300Y74700D01*
Y75000D01*
X103700Y74100D02*
X104300D01*
X104000Y74400D01*
Y74000D01*
X103100Y74900D02*
X102500D01*
Y74600D01*
X102600Y74500D01*
X103000D01*
X103100Y74600D01*
Y74900D01*
X103000Y74300D02*
X103100Y74200D01*
Y74000D01*
X103000Y73900D01*
X102900D01*
X102800Y74000D01*
Y74100D01*
Y74000D01*
X102700Y73900D01*
X102600D01*
X102500Y74000D01*
Y74200D01*
X102600Y74300D01*
X43000Y95100D02*
X42400D01*
Y94800D01*
X42500Y94700D01*
X42900D01*
X43000Y94800D01*
Y95100D01*
X42400Y94100D02*
Y94500D01*
X42800Y94100D01*
X42900D01*
X43000Y94200D01*
Y94400D01*
X42900Y94500D01*
X45400Y95000D02*
X44800D01*
Y94700D01*
X44900Y94600D01*
X45300D01*
X45400Y94700D01*
Y95000D01*
X44800Y94400D02*
Y94200D01*
Y94300D01*
X45400D01*
X45300Y94400D01*
X96316Y77500D02*
X96216Y77600D01*
X96016D01*
X95916Y77500D01*
Y77100D01*
X96016Y77000D01*
X96216D01*
X96316Y77100D01*
X96516Y77600D02*
X96915D01*
Y77500D01*
X96516Y77100D01*
Y77000D01*
X97115Y77500D02*
X97215Y77600D01*
X97415D01*
X97515Y77500D01*
Y77400D01*
X97415Y77300D01*
X97515Y77200D01*
Y77100D01*
X97415Y77000D01*
X97215D01*
X97115Y77100D01*
Y77200D01*
X97215Y77300D01*
X97115Y77400D01*
Y77500D01*
X97215Y77300D02*
X97415D01*
X96300Y79500D02*
X96200Y79600D01*
X96000D01*
X95900Y79500D01*
Y79100D01*
X96000Y79000D01*
X96200D01*
X96300Y79100D01*
X96500Y79600D02*
X96900D01*
Y79500D01*
X96500Y79100D01*
Y79000D01*
X97100Y79600D02*
X97499D01*
Y79500D01*
X97100Y79100D01*
Y79000D01*
X94000Y73500D02*
X93900Y73400D01*
Y73200D01*
X94000Y73100D01*
X94400D01*
X94500Y73200D01*
Y73400D01*
X94400Y73500D01*
X93900Y73700D02*
Y74100D01*
X94000D01*
X94400Y73700D01*
X94500D01*
X93900Y74699D02*
X94000Y74500D01*
X94200Y74300D01*
X94400D01*
X94500Y74400D01*
Y74600D01*
X94400Y74699D01*
X94300D01*
X94200Y74600D01*
Y74300D01*
X98700Y73900D02*
X98600Y73800D01*
Y73600D01*
X98700Y73500D01*
X99100D01*
X99200Y73600D01*
Y73800D01*
X99100Y73900D01*
X98600Y74100D02*
Y74500D01*
X98700D01*
X99100Y74100D01*
X99200D01*
X98600Y75099D02*
Y74700D01*
X98900D01*
X98800Y74900D01*
Y75000D01*
X98900Y75099D01*
X99100D01*
X99200Y75000D01*
Y74800D01*
X99100Y74700D01*
X93900Y70700D02*
X93800Y70600D01*
Y70400D01*
X93900Y70300D01*
X94300D01*
X94400Y70400D01*
Y70600D01*
X94300Y70700D01*
X93800Y70900D02*
Y71300D01*
X93900D01*
X94300Y70900D01*
X94400D01*
Y71800D02*
X93800D01*
X94100Y71500D01*
Y71899D01*
X100600Y74100D02*
X100500Y74000D01*
Y73800D01*
X100600Y73700D01*
X101000D01*
X101100Y73800D01*
Y74000D01*
X101000Y74100D01*
X100500Y74300D02*
Y74700D01*
X100600D01*
X101000Y74300D01*
X101100D01*
X100600Y74900D02*
X100500Y75000D01*
Y75200D01*
X100600Y75299D01*
X100700D01*
X100800Y75200D01*
Y75100D01*
Y75200D01*
X100900Y75299D01*
X101000D01*
X101100Y75200D01*
Y75000D01*
X101000Y74900D01*
X103900Y66500D02*
X103800Y66400D01*
Y66200D01*
X103900Y66100D01*
X104300D01*
X104400Y66200D01*
Y66400D01*
X104300Y66500D01*
X103800Y66700D02*
Y67100D01*
X103900D01*
X104300Y66700D01*
X104400D01*
Y67699D02*
Y67300D01*
X104000Y67699D01*
X103900D01*
X103800Y67600D01*
Y67400D01*
X103900Y67300D01*
X102100Y70200D02*
X102000Y70100D01*
Y69900D01*
X102100Y69800D01*
X102500D01*
X102600Y69900D01*
Y70100D01*
X102500Y70200D01*
X102000Y70400D02*
Y70800D01*
X102100D01*
X102500Y70400D01*
X102600D01*
Y71000D02*
Y71200D01*
Y71100D01*
X102000D01*
X102100Y71000D01*
X100300Y76800D02*
X100400Y76700D01*
X100600D01*
X100700Y76800D01*
Y77200D01*
X100600Y77300D01*
X100400D01*
X100300Y77200D01*
X100100Y76700D02*
X99700D01*
Y76800D01*
X100100Y77200D01*
Y77300D01*
X99500Y76800D02*
X99400Y76700D01*
X99200D01*
X99101Y76800D01*
Y77200D01*
X99200Y77300D01*
X99400D01*
X99500Y77200D01*
Y76800D01*
X101000Y79500D02*
X100900Y79600D01*
X100700D01*
X100600Y79500D01*
Y79100D01*
X100700Y79000D01*
X100900D01*
X101000Y79100D01*
X101600Y79600D02*
X101400Y79500D01*
X101200Y79300D01*
Y79100D01*
X101300Y79000D01*
X101500D01*
X101600Y79100D01*
Y79200D01*
X101500Y79300D01*
X101200D01*
X101800Y79100D02*
X101900Y79000D01*
X102100D01*
X102199Y79100D01*
Y79500D01*
X102100Y79600D01*
X101900D01*
X101800Y79500D01*
Y79400D01*
X101900Y79300D01*
X102199D01*
X126400Y66100D02*
X126500Y66000D01*
X126700D01*
X126800Y66100D01*
Y66500D01*
X126700Y66600D01*
X126500D01*
X126400Y66500D01*
X125800Y66000D02*
X126000Y66100D01*
X126200Y66300D01*
Y66500D01*
X126100Y66600D01*
X125900D01*
X125800Y66500D01*
Y66400D01*
X125900Y66300D01*
X126200D01*
X125600Y66100D02*
X125500Y66000D01*
X125300D01*
X125201Y66100D01*
Y66200D01*
X125300Y66300D01*
X125201Y66400D01*
Y66500D01*
X125300Y66600D01*
X125500D01*
X125600Y66500D01*
Y66400D01*
X125500Y66300D01*
X125600Y66200D01*
Y66100D01*
X125500Y66300D02*
X125300D01*
X123000Y82100D02*
X122900Y82000D01*
Y81800D01*
X123000Y81700D01*
X123400D01*
X123500Y81800D01*
Y82000D01*
X123400Y82100D01*
X122900Y82700D02*
X123000Y82500D01*
X123200Y82300D01*
X123400D01*
X123500Y82400D01*
Y82600D01*
X123400Y82700D01*
X123300D01*
X123200Y82600D01*
Y82300D01*
X122900Y82900D02*
Y83299D01*
X123000D01*
X123400Y82900D01*
X123500D01*
X112200Y86900D02*
X112100Y86800D01*
Y86600D01*
X112200Y86500D01*
X112600D01*
X112700Y86600D01*
Y86800D01*
X112600Y86900D01*
X112100Y87500D02*
X112200Y87300D01*
X112400Y87100D01*
X112600D01*
X112700Y87200D01*
Y87400D01*
X112600Y87500D01*
X112500D01*
X112400Y87400D01*
Y87100D01*
X112100Y88099D02*
X112200Y87900D01*
X112400Y87700D01*
X112600D01*
X112700Y87800D01*
Y88000D01*
X112600Y88099D01*
X112500D01*
X112400Y88000D01*
Y87700D01*
X116900Y88300D02*
X117000Y88400D01*
Y88600D01*
X116900Y88700D01*
X116500D01*
X116400Y88600D01*
Y88400D01*
X116500Y88300D01*
X117000Y87700D02*
X116900Y87900D01*
X116700Y88100D01*
X116500D01*
X116400Y88000D01*
Y87800D01*
X116500Y87700D01*
X116600D01*
X116700Y87800D01*
Y88100D01*
X117000Y87101D02*
Y87500D01*
X116700D01*
X116800Y87300D01*
Y87200D01*
X116700Y87101D01*
X116500D01*
X116400Y87200D01*
Y87400D01*
X116500Y87500D01*
X57700Y82800D02*
X57800Y82900D01*
Y83100D01*
X57700Y83200D01*
X57300D01*
X57200Y83100D01*
Y82900D01*
X57300Y82800D01*
X57800Y82200D02*
X57700Y82400D01*
X57500Y82600D01*
X57300D01*
X57200Y82500D01*
Y82300D01*
X57300Y82200D01*
X57400D01*
X57500Y82300D01*
Y82600D01*
X57200Y81700D02*
X57800D01*
X57500Y82000D01*
Y81601D01*
X55700Y82800D02*
X55800Y82900D01*
Y83100D01*
X55700Y83200D01*
X55300D01*
X55200Y83100D01*
Y82900D01*
X55300Y82800D01*
X55800Y82200D02*
X55700Y82400D01*
X55500Y82600D01*
X55300D01*
X55200Y82500D01*
Y82300D01*
X55300Y82200D01*
X55400D01*
X55500Y82300D01*
Y82600D01*
X55700Y82000D02*
X55800Y81900D01*
Y81700D01*
X55700Y81601D01*
X55600D01*
X55500Y81700D01*
Y81800D01*
Y81700D01*
X55400Y81601D01*
X55300D01*
X55200Y81700D01*
Y81900D01*
X55300Y82000D01*
X47300Y77700D02*
X47200Y77800D01*
X47000D01*
X46900Y77700D01*
Y77300D01*
X47000Y77200D01*
X47200D01*
X47300Y77300D01*
X47900Y77800D02*
X47700Y77700D01*
X47500Y77500D01*
Y77300D01*
X47600Y77200D01*
X47800D01*
X47900Y77300D01*
Y77400D01*
X47800Y77500D01*
X47500D01*
X48499Y77200D02*
X48100D01*
X48499Y77600D01*
Y77700D01*
X48400Y77800D01*
X48200D01*
X48100Y77700D01*
X48000Y79100D02*
X48100Y79000D01*
X48300D01*
X48400Y79100D01*
Y79500D01*
X48300Y79600D01*
X48100D01*
X48000Y79500D01*
X47400Y79000D02*
X47600Y79100D01*
X47800Y79300D01*
Y79500D01*
X47700Y79600D01*
X47500D01*
X47400Y79500D01*
Y79400D01*
X47500Y79300D01*
X47800D01*
X47200Y79600D02*
X47000D01*
X47100D01*
Y79000D01*
X47200Y79100D01*
X47300Y75900D02*
X47200Y76000D01*
X47000D01*
X46900Y75900D01*
Y75500D01*
X47000Y75400D01*
X47200D01*
X47300Y75500D01*
X47900Y76000D02*
X47700Y75900D01*
X47500Y75700D01*
Y75500D01*
X47600Y75400D01*
X47800D01*
X47900Y75500D01*
Y75600D01*
X47800Y75700D01*
X47500D01*
X48100Y75900D02*
X48200Y76000D01*
X48400D01*
X48499Y75900D01*
Y75500D01*
X48400Y75400D01*
X48200D01*
X48100Y75500D01*
Y75900D01*
X56300Y89100D02*
X56200Y89000D01*
Y88800D01*
X56300Y88700D01*
X56700D01*
X56800Y88800D01*
Y89000D01*
X56700Y89100D01*
X56200Y89700D02*
Y89300D01*
X56500D01*
X56400Y89500D01*
Y89600D01*
X56500Y89700D01*
X56700D01*
X56800Y89600D01*
Y89400D01*
X56700Y89300D01*
Y89900D02*
X56800Y90000D01*
Y90200D01*
X56700Y90299D01*
X56300D01*
X56200Y90200D01*
Y90000D01*
X56300Y89900D01*
X56400D01*
X56500Y90000D01*
Y90299D01*
X46200Y88700D02*
X46100Y88600D01*
Y88400D01*
X46200Y88300D01*
X46600D01*
X46700Y88400D01*
Y88600D01*
X46600Y88700D01*
X46100Y89300D02*
Y88900D01*
X46400D01*
X46300Y89100D01*
Y89200D01*
X46400Y89300D01*
X46600D01*
X46700Y89200D01*
Y89000D01*
X46600Y88900D01*
X46200Y89500D02*
X46100Y89600D01*
Y89800D01*
X46200Y89899D01*
X46300D01*
X46400Y89800D01*
X46500Y89899D01*
X46600D01*
X46700Y89800D01*
Y89600D01*
X46600Y89500D01*
X46500D01*
X46400Y89600D01*
X46300Y89500D01*
X46200D01*
X46400Y89600D02*
Y89800D01*
X48400Y94600D02*
X48500Y94700D01*
Y94900D01*
X48400Y95000D01*
X48000D01*
X47900Y94900D01*
Y94700D01*
X48000Y94600D01*
X48500Y94000D02*
Y94400D01*
X48200D01*
X48300Y94200D01*
Y94100D01*
X48200Y94000D01*
X48000D01*
X47900Y94100D01*
Y94300D01*
X48000Y94400D01*
X48500Y93800D02*
Y93401D01*
X48400D01*
X48000Y93800D01*
X47900D01*
X120384Y79200D02*
X120284Y79100D01*
Y78900D01*
X120384Y78800D01*
X120784D01*
X120884Y78900D01*
Y79100D01*
X120784Y79200D01*
X120284Y79800D02*
Y79400D01*
X120584D01*
X120484Y79600D01*
Y79700D01*
X120584Y79800D01*
X120784D01*
X120884Y79700D01*
Y79500D01*
X120784Y79400D01*
X120284Y80399D02*
X120384Y80200D01*
X120584Y80000D01*
X120784D01*
X120884Y80100D01*
Y80300D01*
X120784Y80399D01*
X120684D01*
X120584Y80300D01*
Y80000D01*
X120400Y82900D02*
X120300Y82800D01*
Y82600D01*
X120400Y82500D01*
X120800D01*
X120900Y82600D01*
Y82800D01*
X120800Y82900D01*
X120300Y83500D02*
Y83100D01*
X120600D01*
X120500Y83300D01*
Y83400D01*
X120600Y83500D01*
X120800D01*
X120900Y83400D01*
Y83200D01*
X120800Y83100D01*
X120300Y84099D02*
Y83700D01*
X120600D01*
X120500Y83900D01*
Y84000D01*
X120600Y84099D01*
X120800D01*
X120900Y84000D01*
Y83800D01*
X120800Y83700D01*
X65300Y92000D02*
X65400Y91900D01*
X65600D01*
X65700Y92000D01*
Y92400D01*
X65600Y92500D01*
X65400D01*
X65300Y92400D01*
X64700Y91900D02*
X65100D01*
Y92200D01*
X64900Y92100D01*
X64800D01*
X64700Y92200D01*
Y92400D01*
X64800Y92500D01*
X65000D01*
X65100Y92400D01*
X64200Y92500D02*
Y91900D01*
X64500Y92200D01*
X64101D01*
X95300Y104200D02*
X95200Y104100D01*
Y103900D01*
X95300Y103800D01*
X95700D01*
X95800Y103900D01*
Y104100D01*
X95700Y104200D01*
X95200Y104800D02*
Y104400D01*
X95500D01*
X95400Y104600D01*
Y104700D01*
X95500Y104800D01*
X95700D01*
X95800Y104700D01*
Y104500D01*
X95700Y104400D01*
X95300Y105000D02*
X95200Y105100D01*
Y105300D01*
X95300Y105399D01*
X95400D01*
X95500Y105300D01*
Y105200D01*
Y105300D01*
X95600Y105399D01*
X95700D01*
X95800Y105300D01*
Y105100D01*
X95700Y105000D01*
X93300Y104200D02*
X93200Y104100D01*
Y103900D01*
X93300Y103800D01*
X93700D01*
X93800Y103900D01*
Y104100D01*
X93700Y104200D01*
X93200Y104800D02*
Y104400D01*
X93500D01*
X93400Y104600D01*
Y104700D01*
X93500Y104800D01*
X93700D01*
X93800Y104700D01*
Y104500D01*
X93700Y104400D01*
X93800Y105399D02*
Y105000D01*
X93400Y105399D01*
X93300D01*
X93200Y105300D01*
Y105100D01*
X93300Y105000D01*
X88900Y102900D02*
X88800Y102800D01*
Y102600D01*
X88900Y102500D01*
X89300D01*
X89400Y102600D01*
Y102800D01*
X89300Y102900D01*
X88800Y103500D02*
Y103100D01*
X89100D01*
X89000Y103300D01*
Y103400D01*
X89100Y103500D01*
X89300D01*
X89400Y103400D01*
Y103200D01*
X89300Y103100D01*
X89400Y103700D02*
Y103900D01*
Y103800D01*
X88800D01*
X88900Y103700D01*
X90700Y102800D02*
X90600Y102700D01*
Y102500D01*
X90700Y102400D01*
X91100D01*
X91200Y102500D01*
Y102700D01*
X91100Y102800D01*
X90600Y103400D02*
Y103000D01*
X90900D01*
X90800Y103200D01*
Y103300D01*
X90900Y103400D01*
X91100D01*
X91200Y103300D01*
Y103100D01*
X91100Y103000D01*
X90700Y103600D02*
X90600Y103700D01*
Y103900D01*
X90700Y103999D01*
X91100D01*
X91200Y103900D01*
Y103700D01*
X91100Y103600D01*
X90700D01*
X82100Y103700D02*
X82000Y103600D01*
Y103400D01*
X82100Y103300D01*
X82500D01*
X82600Y103400D01*
Y103600D01*
X82500Y103700D01*
X82600Y104200D02*
X82000D01*
X82300Y103900D01*
Y104300D01*
X82500Y104500D02*
X82600Y104600D01*
Y104800D01*
X82500Y104899D01*
X82100D01*
X82000Y104800D01*
Y104600D01*
X82100Y104500D01*
X82200D01*
X82300Y104600D01*
Y104899D01*
X107100Y90800D02*
X107000Y90900D01*
X106800D01*
X106700Y90800D01*
Y90400D01*
X106800Y90300D01*
X107000D01*
X107100Y90400D01*
X107600Y90300D02*
Y90900D01*
X107300Y90600D01*
X107700D01*
X107900Y90800D02*
X108000Y90900D01*
X108200D01*
X108299Y90800D01*
Y90700D01*
X108200Y90600D01*
X108299Y90500D01*
Y90400D01*
X108200Y90300D01*
X108000D01*
X107900Y90400D01*
Y90500D01*
X108000Y90600D01*
X107900Y90700D01*
Y90800D01*
X108000Y90600D02*
X108200D01*
X107000Y88700D02*
X106900Y88800D01*
X106700D01*
X106600Y88700D01*
Y88300D01*
X106700Y88200D01*
X106900D01*
X107000Y88300D01*
X107500Y88200D02*
Y88800D01*
X107200Y88500D01*
X107600D01*
X107800Y88800D02*
X108199D01*
Y88700D01*
X107800Y88300D01*
Y88200D01*
X50200Y73000D02*
X50100Y72900D01*
Y72700D01*
X50200Y72600D01*
X50600D01*
X50700Y72700D01*
Y72900D01*
X50600Y73000D01*
X50700Y73500D02*
X50100D01*
X50400Y73200D01*
Y73600D01*
X50100Y74199D02*
X50200Y74000D01*
X50400Y73800D01*
X50600D01*
X50700Y73900D01*
Y74100D01*
X50600Y74199D01*
X50500D01*
X50400Y74100D01*
Y73800D01*
X84600Y81400D02*
X84500Y81300D01*
Y81100D01*
X84600Y81000D01*
X85000D01*
X85100Y81100D01*
Y81300D01*
X85000Y81400D01*
X85100Y81900D02*
X84500D01*
X84800Y81600D01*
Y82000D01*
X84500Y82599D02*
Y82200D01*
X84800D01*
X84700Y82400D01*
Y82500D01*
X84800Y82599D01*
X85000D01*
X85100Y82500D01*
Y82300D01*
X85000Y82200D01*
X65300Y90100D02*
X65400Y90000D01*
X65600D01*
X65700Y90100D01*
Y90500D01*
X65600Y90600D01*
X65400D01*
X65300Y90500D01*
X64800Y90600D02*
Y90000D01*
X65100Y90300D01*
X64700D01*
X64200Y90600D02*
Y90000D01*
X64500Y90300D01*
X64101D01*
X97200Y81500D02*
X97100Y81400D01*
Y81200D01*
X97200Y81100D01*
X97600D01*
X97700Y81200D01*
Y81400D01*
X97600Y81500D01*
X97700Y82000D02*
X97100D01*
X97400Y81700D01*
Y82100D01*
X97200Y82300D02*
X97100Y82400D01*
Y82600D01*
X97200Y82699D01*
X97300D01*
X97400Y82600D01*
Y82500D01*
Y82600D01*
X97500Y82699D01*
X97600D01*
X97700Y82600D01*
Y82400D01*
X97600Y82300D01*
X101700Y81300D02*
X101600Y81200D01*
Y81000D01*
X101700Y80900D01*
X102100D01*
X102200Y81000D01*
Y81200D01*
X102100Y81300D01*
X102200Y81800D02*
X101600D01*
X101900Y81500D01*
Y81900D01*
X102200Y82499D02*
Y82100D01*
X101800Y82499D01*
X101700D01*
X101600Y82400D01*
Y82200D01*
X101700Y82100D01*
X90000Y81500D02*
X89900Y81400D01*
Y81200D01*
X90000Y81100D01*
X90400D01*
X90500Y81200D01*
Y81400D01*
X90400Y81500D01*
X90500Y82000D02*
X89900D01*
X90200Y81700D01*
Y82100D01*
X90500Y82300D02*
Y82500D01*
Y82400D01*
X89900D01*
X90000Y82300D01*
X99000Y81400D02*
X98900Y81300D01*
Y81100D01*
X99000Y81000D01*
X99400D01*
X99500Y81100D01*
Y81300D01*
X99400Y81400D01*
X99500Y81900D02*
X98900D01*
X99200Y81600D01*
Y82000D01*
X99000Y82200D02*
X98900Y82300D01*
Y82500D01*
X99000Y82599D01*
X99400D01*
X99500Y82500D01*
Y82300D01*
X99400Y82200D01*
X99000D01*
X104900Y83200D02*
X105000Y83100D01*
X105200D01*
X105300Y83200D01*
Y83600D01*
X105200Y83700D01*
X105000D01*
X104900Y83600D01*
X104700Y83200D02*
X104600Y83100D01*
X104400D01*
X104300Y83200D01*
Y83300D01*
X104400Y83400D01*
X104500D01*
X104400D01*
X104300Y83500D01*
Y83600D01*
X104400Y83700D01*
X104600D01*
X104700Y83600D01*
X104100D02*
X104000Y83700D01*
X103800D01*
X103701Y83600D01*
Y83200D01*
X103800Y83100D01*
X104000D01*
X104100Y83200D01*
Y83300D01*
X104000Y83400D01*
X103701D01*
X100500Y81500D02*
X100400Y81400D01*
Y81200D01*
X100500Y81100D01*
X100900D01*
X101000Y81200D01*
Y81400D01*
X100900Y81500D01*
X100500Y81700D02*
X100400Y81800D01*
Y82000D01*
X100500Y82100D01*
X100600D01*
X100700Y82000D01*
Y81900D01*
Y82000D01*
X100800Y82100D01*
X100900D01*
X101000Y82000D01*
Y81800D01*
X100900Y81700D01*
X100500Y82300D02*
X100400Y82400D01*
Y82600D01*
X100500Y82699D01*
X100600D01*
X100700Y82600D01*
X100800Y82699D01*
X100900D01*
X101000Y82600D01*
Y82400D01*
X100900Y82300D01*
X100800D01*
X100700Y82400D01*
X100600Y82300D01*
X100500D01*
X100700Y82400D02*
Y82600D01*
X88000Y81500D02*
X87900Y81400D01*
Y81200D01*
X88000Y81100D01*
X88400D01*
X88500Y81200D01*
Y81400D01*
X88400Y81500D01*
X88000Y81700D02*
X87900Y81800D01*
Y82000D01*
X88000Y82100D01*
X88100D01*
X88200Y82000D01*
Y81900D01*
Y82000D01*
X88300Y82100D01*
X88400D01*
X88500Y82000D01*
Y81800D01*
X88400Y81700D01*
X87900Y82300D02*
Y82699D01*
X88000D01*
X88400Y82300D01*
X88500D01*
X86400Y81600D02*
X86300Y81500D01*
Y81300D01*
X86400Y81200D01*
X86800D01*
X86900Y81300D01*
Y81500D01*
X86800Y81600D01*
X86400Y81800D02*
X86300Y81900D01*
Y82100D01*
X86400Y82200D01*
X86500D01*
X86600Y82100D01*
Y82000D01*
Y82100D01*
X86700Y82200D01*
X86800D01*
X86900Y82100D01*
Y81900D01*
X86800Y81800D01*
X86300Y82799D02*
X86400Y82600D01*
X86600Y82400D01*
X86800D01*
X86900Y82500D01*
Y82700D01*
X86800Y82799D01*
X86700D01*
X86600Y82700D01*
Y82400D01*
X79200Y81400D02*
X79100Y81300D01*
Y81100D01*
X79200Y81000D01*
X79600D01*
X79700Y81100D01*
Y81300D01*
X79600Y81400D01*
X79200Y81600D02*
X79100Y81700D01*
Y81900D01*
X79200Y82000D01*
X79300D01*
X79400Y81900D01*
Y81800D01*
Y81900D01*
X79500Y82000D01*
X79600D01*
X79700Y81900D01*
Y81700D01*
X79600Y81600D01*
X79100Y82599D02*
Y82200D01*
X79400D01*
X79300Y82400D01*
Y82500D01*
X79400Y82599D01*
X79600D01*
X79700Y82500D01*
Y82300D01*
X79600Y82200D01*
X81000Y81400D02*
X80900Y81300D01*
Y81100D01*
X81000Y81000D01*
X81400D01*
X81500Y81100D01*
Y81300D01*
X81400Y81400D01*
X81000Y81600D02*
X80900Y81700D01*
Y81900D01*
X81000Y82000D01*
X81100D01*
X81200Y81900D01*
Y81800D01*
Y81900D01*
X81300Y82000D01*
X81400D01*
X81500Y81900D01*
Y81700D01*
X81400Y81600D01*
X81500Y82500D02*
X80900D01*
X81200Y82200D01*
Y82599D01*
X120400Y81100D02*
X120300Y81000D01*
Y80800D01*
X120400Y80700D01*
X120800D01*
X120900Y80800D01*
Y81000D01*
X120800Y81100D01*
X120400Y81300D02*
X120300Y81400D01*
Y81600D01*
X120400Y81700D01*
X120500D01*
X120600Y81600D01*
Y81500D01*
Y81600D01*
X120700Y81700D01*
X120800D01*
X120900Y81600D01*
Y81400D01*
X120800Y81300D01*
X120400Y81900D02*
X120300Y82000D01*
Y82200D01*
X120400Y82299D01*
X120500D01*
X120600Y82200D01*
Y82100D01*
Y82200D01*
X120700Y82299D01*
X120800D01*
X120900Y82200D01*
Y82000D01*
X120800Y81900D01*
X65200Y94300D02*
X65300Y94200D01*
X65500D01*
X65600Y94300D01*
Y94700D01*
X65500Y94800D01*
X65300D01*
X65200Y94700D01*
X65000Y94300D02*
X64900Y94200D01*
X64700D01*
X64600Y94300D01*
Y94400D01*
X64700Y94500D01*
X64800D01*
X64700D01*
X64600Y94600D01*
Y94700D01*
X64700Y94800D01*
X64900D01*
X65000Y94700D01*
X64001Y94800D02*
X64400D01*
X64001Y94400D01*
Y94300D01*
X64100Y94200D01*
X64300D01*
X64400Y94300D01*
X65200Y96100D02*
X65300Y96000D01*
X65500D01*
X65600Y96100D01*
Y96500D01*
X65500Y96600D01*
X65300D01*
X65200Y96500D01*
X65000Y96100D02*
X64900Y96000D01*
X64700D01*
X64600Y96100D01*
Y96200D01*
X64700Y96300D01*
X64800D01*
X64700D01*
X64600Y96400D01*
Y96500D01*
X64700Y96600D01*
X64900D01*
X65000Y96500D01*
X64400Y96600D02*
X64200D01*
X64300D01*
Y96000D01*
X64400Y96100D01*
X77400Y81400D02*
X77300Y81300D01*
Y81100D01*
X77400Y81000D01*
X77800D01*
X77900Y81100D01*
Y81300D01*
X77800Y81400D01*
X77400Y81600D02*
X77300Y81700D01*
Y81900D01*
X77400Y82000D01*
X77500D01*
X77600Y81900D01*
Y81800D01*
Y81900D01*
X77700Y82000D01*
X77800D01*
X77900Y81900D01*
Y81700D01*
X77800Y81600D01*
X77400Y82200D02*
X77300Y82300D01*
Y82500D01*
X77400Y82599D01*
X77800D01*
X77900Y82500D01*
Y82300D01*
X77800Y82200D01*
X77400D01*
X126400Y104300D02*
X126500Y104200D01*
X126700D01*
X126800Y104300D01*
Y104700D01*
X126700Y104800D01*
X126500D01*
X126400Y104700D01*
X125800Y104800D02*
X126200D01*
X125800Y104400D01*
Y104300D01*
X125900Y104200D01*
X126100D01*
X126200Y104300D01*
X125600Y104700D02*
X125500Y104800D01*
X125300D01*
X125201Y104700D01*
Y104300D01*
X125300Y104200D01*
X125500D01*
X125600Y104300D01*
Y104400D01*
X125500Y104500D01*
X125201D01*
X67600Y81500D02*
X67500Y81400D01*
Y81200D01*
X67600Y81100D01*
X68000D01*
X68100Y81200D01*
Y81400D01*
X68000Y81500D01*
X68100Y82100D02*
Y81700D01*
X67700Y82100D01*
X67600D01*
X67500Y82000D01*
Y81800D01*
X67600Y81700D01*
Y82300D02*
X67500Y82400D01*
Y82600D01*
X67600Y82699D01*
X67700D01*
X67800Y82600D01*
X67900Y82699D01*
X68000D01*
X68100Y82600D01*
Y82400D01*
X68000Y82300D01*
X67900D01*
X67800Y82400D01*
X67700Y82300D01*
X67600D01*
X67800Y82400D02*
Y82600D01*
X70400Y81400D02*
X70300Y81300D01*
Y81100D01*
X70400Y81000D01*
X70800D01*
X70900Y81100D01*
Y81300D01*
X70800Y81400D01*
X70900Y82000D02*
Y81600D01*
X70500Y82000D01*
X70400D01*
X70300Y81900D01*
Y81700D01*
X70400Y81600D01*
X70300Y82200D02*
Y82599D01*
X70400D01*
X70800Y82200D01*
X70900D01*
X72000Y81400D02*
X71900Y81300D01*
Y81100D01*
X72000Y81000D01*
X72400D01*
X72500Y81100D01*
Y81300D01*
X72400Y81400D01*
X72500Y82000D02*
Y81600D01*
X72100Y82000D01*
X72000D01*
X71900Y81900D01*
Y81700D01*
X72000Y81600D01*
X71900Y82599D02*
X72000Y82400D01*
X72200Y82200D01*
X72400D01*
X72500Y82300D01*
Y82500D01*
X72400Y82599D01*
X72300D01*
X72200Y82500D01*
Y82200D01*
X73800Y81300D02*
X73700Y81200D01*
Y81000D01*
X73800Y80900D01*
X74200D01*
X74300Y81000D01*
Y81200D01*
X74200Y81300D01*
X74300Y81900D02*
Y81500D01*
X73900Y81900D01*
X73800D01*
X73700Y81800D01*
Y81600D01*
X73800Y81500D01*
X73700Y82499D02*
Y82100D01*
X74000D01*
X73900Y82300D01*
Y82400D01*
X74000Y82499D01*
X74200D01*
X74300Y82400D01*
Y82200D01*
X74200Y82100D01*
X75600Y81400D02*
X75500Y81300D01*
Y81100D01*
X75600Y81000D01*
X76000D01*
X76100Y81100D01*
Y81300D01*
X76000Y81400D01*
X76100Y82000D02*
Y81600D01*
X75700Y82000D01*
X75600D01*
X75500Y81900D01*
Y81700D01*
X75600Y81600D01*
X76100Y82500D02*
X75500D01*
X75800Y82200D01*
Y82599D01*
X69300Y81400D02*
X69200Y81300D01*
Y81100D01*
X69300Y81000D01*
X69700D01*
X69800Y81100D01*
Y81300D01*
X69700Y81400D01*
X69800Y82000D02*
Y81600D01*
X69400Y82000D01*
X69300D01*
X69200Y81900D01*
Y81700D01*
X69300Y81600D01*
Y82200D02*
X69200Y82300D01*
Y82500D01*
X69300Y82599D01*
X69400D01*
X69500Y82500D01*
Y82400D01*
Y82500D01*
X69600Y82599D01*
X69700D01*
X69800Y82500D01*
Y82300D01*
X69700Y82200D01*
X82700Y81400D02*
X82600Y81300D01*
Y81100D01*
X82700Y81000D01*
X83100D01*
X83200Y81100D01*
Y81300D01*
X83100Y81400D01*
X83200Y82000D02*
Y81600D01*
X82800Y82000D01*
X82700D01*
X82600Y81900D01*
Y81700D01*
X82700Y81600D01*
X83200Y82599D02*
Y82200D01*
X82800Y82599D01*
X82700D01*
X82600Y82500D01*
Y82300D01*
X82700Y82200D01*
X91700Y81500D02*
X91600Y81400D01*
Y81200D01*
X91700Y81100D01*
X92100D01*
X92200Y81200D01*
Y81400D01*
X92100Y81500D01*
X92200Y82100D02*
Y81700D01*
X91800Y82100D01*
X91700D01*
X91600Y82000D01*
Y81800D01*
X91700Y81700D01*
X92200Y82300D02*
Y82500D01*
Y82400D01*
X91600D01*
X91700Y82300D01*
X93500Y81300D02*
X93400Y81200D01*
Y81000D01*
X93500Y80900D01*
X93900D01*
X94000Y81000D01*
Y81200D01*
X93900Y81300D01*
X94000Y81900D02*
Y81500D01*
X93600Y81900D01*
X93500D01*
X93400Y81800D01*
Y81600D01*
X93500Y81500D01*
Y82100D02*
X93400Y82200D01*
Y82400D01*
X93500Y82499D01*
X93900D01*
X94000Y82400D01*
Y82200D01*
X93900Y82100D01*
X93500D01*
X95300Y81300D02*
X95200Y81200D01*
Y81000D01*
X95300Y80900D01*
X95700D01*
X95800Y81000D01*
Y81200D01*
X95700Y81300D01*
X95800Y81500D02*
Y81700D01*
Y81600D01*
X95200D01*
X95300Y81500D01*
X95700Y82000D02*
X95800Y82100D01*
Y82300D01*
X95700Y82400D01*
X95300D01*
X95200Y82300D01*
Y82100D01*
X95300Y82000D01*
X95400D01*
X95500Y82100D01*
Y82400D01*
X107100Y86400D02*
X107000Y86500D01*
X106800D01*
X106700Y86400D01*
Y86000D01*
X106800Y85900D01*
X107000D01*
X107100Y86000D01*
X107300Y85900D02*
X107500D01*
X107400D01*
Y86500D01*
X107300Y86400D01*
X107800D02*
X107900Y86500D01*
X108100D01*
X108200Y86400D01*
Y86300D01*
X108100Y86200D01*
X108200Y86100D01*
Y86000D01*
X108100Y85900D01*
X107900D01*
X107800Y86000D01*
Y86100D01*
X107900Y86200D01*
X107800Y86300D01*
Y86400D01*
X107900Y86200D02*
X108100D01*
X107200Y84500D02*
X107100Y84600D01*
X106900D01*
X106800Y84500D01*
Y84100D01*
X106900Y84000D01*
X107100D01*
X107200Y84100D01*
X107400Y84000D02*
X107600D01*
X107500D01*
Y84600D01*
X107400Y84500D01*
X107900Y84600D02*
X108300D01*
Y84500D01*
X107900Y84100D01*
Y84000D01*
X94400Y107300D02*
X94300Y107400D01*
X94100D01*
X94000Y107300D01*
Y106900D01*
X94100Y106800D01*
X94300D01*
X94400Y106900D01*
X94600Y106800D02*
X94800D01*
X94700D01*
Y107400D01*
X94600Y107300D01*
X95500Y107400D02*
X95300Y107300D01*
X95100Y107100D01*
Y106900D01*
X95200Y106800D01*
X95400D01*
X95500Y106900D01*
Y107000D01*
X95400Y107100D01*
X95100D01*
X119900Y76400D02*
X120000Y76300D01*
X120200D01*
X120300Y76400D01*
Y76800D01*
X120200Y76900D01*
X120000D01*
X119900Y76800D01*
X119700Y76900D02*
X119500D01*
X119600D01*
Y76300D01*
X119700Y76400D01*
X118800Y76300D02*
X119200D01*
Y76600D01*
X119000Y76500D01*
X118900D01*
X118800Y76600D01*
Y76800D01*
X118900Y76900D01*
X119100D01*
X119200Y76800D01*
X107600Y70900D02*
X107700Y70800D01*
X107900D01*
X108000Y70900D01*
Y71300D01*
X107900Y71400D01*
X107700D01*
X107600Y71300D01*
X107400Y71400D02*
X107200D01*
X107300D01*
Y70800D01*
X107400Y70900D01*
X106600Y71400D02*
Y70800D01*
X106900Y71100D01*
X106500D01*
X115900Y65600D02*
X115800Y65500D01*
Y65300D01*
X115900Y65200D01*
X116300D01*
X116400Y65300D01*
Y65500D01*
X116300Y65600D01*
X116400Y65800D02*
Y66000D01*
Y65900D01*
X115800D01*
X115900Y65800D01*
Y66300D02*
X115800Y66400D01*
Y66600D01*
X115900Y66700D01*
X116000D01*
X116100Y66600D01*
Y66500D01*
Y66600D01*
X116200Y66700D01*
X116300D01*
X116400Y66600D01*
Y66400D01*
X116300Y66300D01*
X115200Y71000D02*
X115100Y70900D01*
Y70700D01*
X115200Y70600D01*
X115600D01*
X115700Y70700D01*
Y70900D01*
X115600Y71000D01*
X115700Y71200D02*
Y71400D01*
Y71300D01*
X115100D01*
X115200Y71200D01*
X115700Y72100D02*
Y71700D01*
X115300Y72100D01*
X115200D01*
X115100Y72000D01*
Y71800D01*
X115200Y71700D01*
X107500Y69000D02*
X107600Y68900D01*
X107800D01*
X107900Y69000D01*
Y69400D01*
X107800Y69500D01*
X107600D01*
X107500Y69400D01*
X107300Y69500D02*
X107100D01*
X107200D01*
Y68900D01*
X107300Y69000D01*
X106800Y69500D02*
X106600D01*
X106700D01*
Y68900D01*
X106800Y69000D01*
X123300Y65900D02*
X123200Y65800D01*
Y65600D01*
X123300Y65500D01*
X123700D01*
X123800Y65600D01*
Y65800D01*
X123700Y65900D01*
X123800Y66100D02*
Y66300D01*
Y66200D01*
X123200D01*
X123300Y66100D01*
Y66600D02*
X123200Y66700D01*
Y66900D01*
X123300Y67000D01*
X123700D01*
X123800Y66900D01*
Y66700D01*
X123700Y66600D01*
X123300D01*
X120200Y67000D02*
X120100Y66900D01*
Y66700D01*
X120200Y66600D01*
X120600D01*
X120700Y66700D01*
Y66900D01*
X120600Y67000D01*
Y67200D02*
X120700Y67300D01*
Y67500D01*
X120600Y67600D01*
X120200D01*
X120100Y67500D01*
Y67300D01*
X120200Y67200D01*
X120300D01*
X120400Y67300D01*
Y67600D01*
X120600Y70800D02*
X120700Y70900D01*
Y71100D01*
X120600Y71200D01*
X120200D01*
X120100Y71100D01*
Y70900D01*
X120200Y70800D01*
X120600Y70600D02*
X120700Y70500D01*
Y70300D01*
X120600Y70200D01*
X120500D01*
X120400Y70300D01*
X120300Y70200D01*
X120200D01*
X120100Y70300D01*
Y70500D01*
X120200Y70600D01*
X120300D01*
X120400Y70500D01*
X120500Y70600D01*
X120600D01*
X120400Y70500D02*
Y70300D01*
X115300Y75400D02*
X115400Y75500D01*
Y75700D01*
X115300Y75800D01*
X114900D01*
X114800Y75700D01*
Y75500D01*
X114900Y75400D01*
X115400Y75200D02*
Y74800D01*
X115300D01*
X114900Y75200D01*
X114800D01*
X115700Y68500D02*
X115800Y68600D01*
Y68800D01*
X115700Y68900D01*
X115300D01*
X115200Y68800D01*
Y68600D01*
X115300Y68500D01*
X115800Y67900D02*
X115700Y68100D01*
X115500Y68300D01*
X115300D01*
X115200Y68200D01*
Y68000D01*
X115300Y67900D01*
X115400D01*
X115500Y68000D01*
Y68300D01*
X52200Y107700D02*
X52100Y107600D01*
Y107400D01*
X52200Y107300D01*
X52600D01*
X52700Y107400D01*
Y107600D01*
X52600Y107700D01*
X52100Y108300D02*
Y107900D01*
X52400D01*
X52300Y108100D01*
Y108200D01*
X52400Y108300D01*
X52600D01*
X52700Y108200D01*
Y108000D01*
X52600Y107900D01*
X51200Y94600D02*
X51300Y94500D01*
X51500D01*
X51600Y94600D01*
Y95000D01*
X51500Y95100D01*
X51300D01*
X51200Y95000D01*
X50700Y95100D02*
Y94500D01*
X51000Y94800D01*
X50600D01*
X54900Y95100D02*
X54800Y95200D01*
X54600D01*
X54500Y95100D01*
Y94700D01*
X54600Y94600D01*
X54800D01*
X54900Y94700D01*
X55100Y95100D02*
X55200Y95200D01*
X55400D01*
X55500Y95100D01*
Y95000D01*
X55400Y94900D01*
X55300D01*
X55400D01*
X55500Y94800D01*
Y94700D01*
X55400Y94600D01*
X55200D01*
X55100Y94700D01*
X57900Y108200D02*
X58000Y108100D01*
X58200D01*
X58300Y108200D01*
Y108600D01*
X58200Y108700D01*
X58000D01*
X57900Y108600D01*
X57300Y108700D02*
X57700D01*
X57300Y108300D01*
Y108200D01*
X57400Y108100D01*
X57600D01*
X57700Y108200D01*
X55000Y108700D02*
X54900Y108800D01*
X54700D01*
X54600Y108700D01*
Y108300D01*
X54700Y108200D01*
X54900D01*
X55000Y108300D01*
X55200Y108200D02*
X55400D01*
X55300D01*
Y108800D01*
X55200Y108700D01*
X88400Y63600D02*
Y64200D01*
X88700D01*
X88800Y64100D01*
Y63900D01*
X88700Y63800D01*
X88400D01*
X89400Y64100D02*
X89300Y64200D01*
X89100D01*
X89000Y64100D01*
Y63700D01*
X89100Y63600D01*
X89300D01*
X89400Y63700D01*
X89600Y64200D02*
X89800D01*
X89700D01*
Y63600D01*
X89600D01*
X89800D01*
X91099D02*
X90699D01*
X91099Y64000D01*
Y64100D01*
X90999Y64200D01*
X90799D01*
X90699Y64100D01*
X91299Y63600D02*
Y63700D01*
X91399D01*
Y63600D01*
X91299D01*
X92199D02*
X91799D01*
X92199Y64000D01*
Y64100D01*
X92099Y64200D01*
X91899D01*
X91799Y64100D01*
X93398Y63600D02*
X92999Y64000D01*
X93998Y63600D02*
X93598Y64000D01*
X94798Y64100D02*
X94898Y64200D01*
X95098D01*
X95198Y64100D01*
Y64000D01*
X95098Y63900D01*
X94998D01*
X95098D01*
X95198Y63800D01*
Y63700D01*
X95098Y63600D01*
X94898D01*
X94798Y63700D01*
X95398Y63600D02*
Y63700D01*
X95498D01*
Y63600D01*
X95398D01*
X95898Y64100D02*
X95998Y64200D01*
X96197D01*
X96297Y64100D01*
Y64000D01*
X96197Y63900D01*
X96098D01*
X96197D01*
X96297Y63800D01*
Y63700D01*
X96197Y63600D01*
X95998D01*
X95898Y63700D01*
X96497Y64200D02*
Y63800D01*
X96697Y63600D01*
X96897Y63800D01*
Y64200D01*
X98097Y63600D02*
X97997Y63700D01*
X97897Y63600D01*
X97797D01*
X97697Y63700D01*
Y63800D01*
X97797Y63900D01*
X97697Y64000D01*
Y64100D01*
X97797Y64200D01*
X97897D01*
X97997Y64100D01*
Y64000D01*
X97897Y63900D01*
X97997Y63800D01*
Y63700D01*
X98097Y63900D02*
X97997Y63800D01*
X97797Y63900D02*
X97897D01*
X99296Y64200D02*
X98897D01*
Y63900D01*
X99097Y64000D01*
X99197D01*
X99296Y63900D01*
Y63700D01*
X99197Y63600D01*
X98997D01*
X98897Y63700D01*
X99496Y64200D02*
Y63800D01*
X99696Y63600D01*
X99896Y63800D01*
Y64200D01*
X101096Y63600D02*
X100696Y64000D01*
X101696Y63600D02*
X101296Y64000D01*
X102495Y64100D02*
X102595Y64200D01*
X102795D01*
X102895Y64100D01*
Y64000D01*
X102795Y63900D01*
X102695D01*
X102795D01*
X102895Y63800D01*
Y63700D01*
X102795Y63600D01*
X102595D01*
X102495Y63700D01*
X103495Y63600D02*
X103095D01*
X103495Y64000D01*
Y64100D01*
X103395Y64200D01*
X103195D01*
X103095Y64100D01*
X104295Y64200D02*
Y63600D01*
X104595D01*
X104695Y63700D01*
Y63800D01*
Y63900D01*
X104595Y64000D01*
X104295D01*
X104895Y63600D02*
X105095D01*
X104995D01*
Y64000D01*
X104895D01*
X105494Y64100D02*
Y64000D01*
X105394D01*
X105594D01*
X105494D01*
Y63700D01*
X105594Y63600D01*
X106794Y63800D02*
Y63900D01*
X106694D01*
Y63800D01*
X106794D01*
X106894Y63900D01*
Y64100D01*
X106794Y64200D01*
X106594D01*
X106494Y64100D01*
Y63700D01*
X106594Y63600D01*
X106894D01*
X107694Y64100D02*
X107794Y64200D01*
X107994D01*
X108094Y64100D01*
Y64000D01*
X107994Y63900D01*
X107894D01*
X107994D01*
X108094Y63800D01*
Y63700D01*
X107994Y63600D01*
X107794D01*
X107694Y63700D01*
X108294Y64100D02*
X108394Y64200D01*
X108593D01*
X108693Y64100D01*
Y64000D01*
X108593Y63900D01*
X108493D01*
X108593D01*
X108693Y63800D01*
Y63700D01*
X108593Y63600D01*
X108394D01*
X108294Y63700D01*
X109493Y63600D02*
Y64200D01*
X109693Y64000D01*
X109893Y64200D01*
Y63600D01*
X110093Y64200D02*
Y63600D01*
Y63900D01*
X110493D01*
Y64200D01*
Y63600D01*
X110693Y64000D02*
X111093D01*
X110693Y63600D01*
X111093D01*
D15*
X125300Y75200D02*
Y75367D01*
Y75283D01*
X124800D01*
X124883Y75200D01*
Y75617D02*
X124800Y75700D01*
Y75866D01*
X124883Y75950D01*
X125217D01*
X125300Y75866D01*
Y75700D01*
X125217Y75617D01*
X124883D01*
X126217Y75200D02*
X126300Y75283D01*
Y75450D01*
X126217Y75533D01*
X125883D01*
X125800Y75450D01*
Y75283D01*
X125883Y75200D01*
X125967D01*
X126050Y75283D01*
Y75533D01*
X126300Y69800D02*
Y69967D01*
Y69883D01*
X125800D01*
X125883Y69800D01*
X125300Y69933D02*
Y69600D01*
X124967Y69933D01*
X124883D01*
X124800Y69850D01*
Y69683D01*
X124883Y69600D01*
X42200Y99433D02*
Y99100D01*
X41867Y99433D01*
X41783D01*
X41700Y99350D01*
Y99183D01*
X41783Y99100D01*
X43200Y99300D02*
Y99467D01*
Y99383D01*
X42700D01*
X42783Y99300D01*
X43117Y104700D02*
X43200Y104783D01*
Y104950D01*
X43117Y105033D01*
X42783D01*
X42700Y104950D01*
Y104783D01*
X42783Y104700D01*
X42867D01*
X42950Y104783D01*
Y105033D01*
X42200Y104700D02*
Y104867D01*
Y104783D01*
X41700D01*
X41783Y104700D01*
Y105117D02*
X41700Y105200D01*
Y105366D01*
X41783Y105450D01*
X42117D01*
X42200Y105366D01*
Y105200D01*
X42117Y105117D01*
X41783D01*
X108733Y81500D02*
X108400D01*
X108733Y81833D01*
Y81917D01*
X108650Y82000D01*
X108483D01*
X108400Y81917D01*
X108600Y80500D02*
X108767D01*
X108683D01*
Y81000D01*
X108600Y80917D01*
X114000Y80583D02*
X114083Y80500D01*
X114250D01*
X114333Y80583D01*
Y80917D01*
X114250Y81000D01*
X114083D01*
X114000Y80917D01*
Y80833D01*
X114083Y80750D01*
X114333D01*
X114000Y81500D02*
X114167D01*
X114083D01*
Y82000D01*
X114000Y81917D01*
X114417D02*
X114500Y82000D01*
X114666D01*
X114750Y81917D01*
Y81583D01*
X114666Y81500D01*
X114500D01*
X114417Y81583D01*
Y81917D01*
X125217Y76400D02*
X125300Y76483D01*
Y76650D01*
X125217Y76733D01*
X124883D01*
X124800Y76650D01*
Y76483D01*
X124883Y76400D01*
X124967D01*
X125050Y76483D01*
Y76733D01*
X126300Y76400D02*
Y76567D01*
Y76483D01*
X125800D01*
X125883Y76400D01*
Y85200D02*
X125800Y85283D01*
Y85450D01*
X125883Y85533D01*
X125967D01*
X126050Y85450D01*
X126133Y85533D01*
X126217D01*
X126300Y85450D01*
Y85283D01*
X126217Y85200D01*
X126133D01*
X126050Y85283D01*
X125967Y85200D01*
X125883D01*
X126050Y85283D02*
Y85450D01*
X125300Y85200D02*
Y85367D01*
Y85283D01*
X124800D01*
X124883Y85200D01*
X124800Y85950D02*
X124883Y85783D01*
X125050Y85617D01*
X125217D01*
X125300Y85700D01*
Y85866D01*
X125217Y85950D01*
X125133D01*
X125050Y85866D01*
Y85617D01*
X85067Y108000D02*
X85400D01*
X85067Y107667D01*
Y107583D01*
X85150Y107500D01*
X85317D01*
X85400Y107583D01*
X85200Y109000D02*
X85033D01*
X85117D01*
Y108500D01*
X85200Y108583D01*
X79800Y108917D02*
X79717Y109000D01*
X79550D01*
X79467Y108917D01*
Y108583D01*
X79550Y108500D01*
X79717D01*
X79800Y108583D01*
Y108667D01*
X79717Y108750D01*
X79467D01*
X79800Y108000D02*
X79633D01*
X79717D01*
Y107500D01*
X79800Y107583D01*
X79383D02*
X79300Y107500D01*
X79134D01*
X79050Y107583D01*
Y107917D01*
X79134Y108000D01*
X79300D01*
X79383Y107917D01*
Y107583D01*
X76667Y108000D02*
X77000D01*
X76667Y107667D01*
Y107583D01*
X76750Y107500D01*
X76917D01*
X77000Y107583D01*
X76800Y109000D02*
X76633D01*
X76717D01*
Y108500D01*
X76800Y108583D01*
X71400Y108917D02*
X71317Y109000D01*
X71150D01*
X71067Y108917D01*
Y108583D01*
X71150Y108500D01*
X71317D01*
X71400Y108583D01*
Y108667D01*
X71317Y108750D01*
X71067D01*
X71400Y108000D02*
X71233D01*
X71317D01*
Y107500D01*
X71400Y107583D01*
X70983D02*
X70900Y107500D01*
X70734D01*
X70650Y107583D01*
Y107917D01*
X70734Y108000D01*
X70900D01*
X70983Y107917D01*
Y107583D01*
D16*
X42700Y93340D02*
D03*
X45100D02*
D03*
X104100Y73140D02*
D03*
X102800D02*
D03*
D17*
X94200Y66275D02*
D03*
M02*
