G04*
G04 #@! TF.GenerationSoftware,Altium Limited,Altium Designer,19.1.7 (138)*
G04*
G04 Layer_Physical_Order=2*
G04 Layer_Color=16711680*
%FSLAX24Y24*%
%MOIN*%
G70*
G01*
G75*
%ADD14C,0.0100*%
%ADD65O,0.0400X0.2000*%
%ADD66C,0.0300*%
%ADD68C,0.0600*%
%ADD69C,0.0472*%
%ADD70C,0.0650*%
%ADD71C,0.0630*%
%ADD72R,0.0630X0.0630*%
%ADD73C,0.1496*%
%ADD74C,0.0531*%
%ADD75R,0.0531X0.0531*%
%ADD76R,0.0531X0.0531*%
%ADD77C,0.0551*%
%ADD78C,0.0591*%
%ADD79R,0.0591X0.0591*%
%ADD80R,0.0591X0.0591*%
%ADD81R,0.1200X0.1000*%
%ADD82O,0.0787X0.0394*%
%ADD83O,0.0787X0.0394*%
%ADD84O,0.0394X0.0787*%
%ADD85O,0.0394X0.0787*%
%ADD86C,0.0669*%
%ADD87R,0.0669X0.0669*%
%ADD88R,0.0728X0.0728*%
%ADD89C,0.0728*%
%ADD90R,0.0728X0.0728*%
%ADD91C,0.0512*%
%ADD92C,0.0787*%
%ADD93R,0.0787X0.0787*%
%ADD94C,0.0236*%
D14*
X69505Y65000D02*
X69507Y64998D01*
X69755Y64750D01*
X68750Y64998D02*
X69507D01*
X68253D02*
X68750D01*
X75380Y63760D02*
X75515D01*
X75750D01*
X74204Y64632D02*
X74256Y64630D01*
X73749Y64650D02*
X74204Y64632D01*
X73240Y64670D02*
X73749Y64650D01*
X73750Y64680D02*
X74206D01*
X73250D02*
X73750D01*
X73240Y64670D02*
X73250Y64680D01*
X73125Y64555D02*
X73240Y64670D01*
X73000Y64070D02*
X73250D01*
X72410D02*
X73000D01*
X71510D02*
X72410D01*
X71190D02*
X71510D01*
X65150Y63940D02*
X66570D01*
X111626Y96920D02*
X117404D01*
X98798Y73020D02*
X103820D01*
X96592Y73000D02*
X98798Y73020D01*
X98798Y73020D01*
X96592Y73000D02*
X96592Y73000D01*
X97302Y73708D01*
X96222Y72630D02*
X96592Y73000D01*
X118290Y85380D02*
X118500Y85590D01*
X119452Y97170D02*
X122940D01*
X92330Y107000D02*
X92927D01*
X91080D02*
X92330D01*
X84380Y72470D02*
X85860D01*
X79779D02*
X79780D01*
X79640D02*
X79779D01*
X79780D02*
X84380D01*
X78440D02*
X79640D01*
X79779Y72331D02*
X79780Y72330D01*
X79640Y72470D02*
X79779Y72331D01*
X79434Y72676D02*
X79640Y72470D01*
X82500Y64760D02*
X82590Y64670D01*
X82220Y65040D02*
X82500Y64760D01*
X82466D02*
X82590Y64670D01*
X82080Y65040D02*
X82466Y64760D01*
X79779Y70509D02*
X79780Y70510D01*
X79210Y69940D02*
X79779Y70509D01*
X82080Y65040D02*
X82220D01*
X80460D02*
X82080D01*
X80340Y64760D02*
X82466D01*
X82500D01*
X79880Y63270D02*
Y64300D01*
Y61750D02*
Y63270D01*
X73218Y105228D02*
X73493D01*
X75584Y69940D02*
X76909D01*
X73279Y65270D02*
X73390D01*
X67660D02*
X73279D01*
X76880Y63090D02*
Y63410D01*
X70130Y65000D02*
X73009D01*
X69880D02*
X70130D01*
X55290Y65040D02*
X55640D01*
X66880Y64490D02*
X67430Y65040D01*
X67660Y65270D01*
X66510Y64120D02*
X66880Y64490D01*
X57380Y63814D02*
X57464D01*
X57380Y63730D02*
X57464Y63814D01*
X114230Y75170D02*
X114480Y74920D01*
X43444Y75910D02*
Y80364D01*
Y75906D02*
Y75910D01*
X57700Y64580D02*
X64210D01*
X57114Y63994D02*
X57700Y64580D01*
X56900Y63780D02*
X57114Y63994D01*
X115000Y87830D02*
X118460D01*
X43780Y86330D02*
Y87430D01*
X77500Y67990D02*
X77823Y68313D01*
X76644Y67134D02*
X77500Y67990D01*
X68750Y65000D02*
X69505D01*
X70880Y64800D02*
X71680D01*
X72410Y64070D01*
X76059Y67313D02*
X77296Y68550D01*
X75280Y67313D02*
X76059D01*
X74313Y68280D02*
X75280Y67313D01*
X74210Y68280D02*
X74313D01*
X73125Y64195D02*
Y64555D01*
Y64195D02*
X73250Y64070D01*
X75750Y63760D02*
X75883Y63627D01*
X78380Y61750D02*
Y63631D01*
X77381Y64630D02*
X78380Y63631D01*
X74256Y64630D02*
X77381D01*
X73250Y64070D02*
X75070D01*
X73240Y64670D02*
X73750D01*
X69380Y61750D02*
Y63240D01*
X70000Y63860D01*
X70980D01*
X71190Y64070D01*
X75070D02*
X75380Y63760D01*
X75883Y63337D02*
X76130Y63090D01*
X68980Y69313D02*
Y70362D01*
X69354Y70736D01*
X70332D01*
X70639Y71042D01*
X70942D01*
X71000Y71100D01*
X103820Y73020D02*
X105400Y74600D01*
X96222Y72630D02*
X96592Y73000D01*
X95343Y72630D02*
X96222D01*
X98798Y73000D02*
Y73020D01*
X54700Y84400D02*
X56451Y86151D01*
X77317D01*
X77333Y86135D01*
X87190D01*
X87426Y86372D01*
X89635D01*
X89842Y86164D01*
X90676D01*
X90705Y86135D01*
X93278D01*
X93576Y85836D01*
X95622D01*
X95921Y86135D01*
X99517D01*
X99696Y86314D01*
X104484D01*
X104770Y86600D01*
X109256D01*
X109300Y86556D01*
X110924D01*
X111674Y85806D01*
Y85502D02*
Y85806D01*
Y85502D02*
X111796Y85380D01*
X118290D01*
X118650Y86060D02*
X119000Y86410D01*
X120222Y85416D02*
Y85638D01*
Y85416D02*
X120500Y85138D01*
X115000Y86090D02*
Y86600D01*
Y86090D02*
X115500Y85590D01*
X118500D01*
X118650Y85740D01*
Y86060D01*
X119000Y86410D02*
X119450D01*
X120222Y85638D01*
X120500Y85138D02*
X121790D01*
X121962Y85310D01*
X125670D01*
X84880Y61750D02*
Y63470D01*
X85350Y63940D01*
X84534Y71856D02*
X85350Y71040D01*
X78346Y71856D02*
X84534D01*
X78109Y71620D02*
X78346Y71856D01*
X82699Y69500D02*
X84853D01*
X81399Y70800D02*
X82699Y69500D01*
X79520Y70800D02*
X81399D01*
X78230Y71102D02*
X78798Y71670D01*
X82750D01*
X83290Y71130D01*
Y64310D02*
X84340D01*
X84650Y64000D01*
Y63430D02*
Y64000D01*
X84380Y63160D02*
X84650Y63430D01*
X84380Y61750D02*
Y63160D01*
X78880Y61750D02*
Y63419D01*
X77481Y64818D02*
X78880Y63419D01*
X74998Y64818D02*
X77481D01*
X74886Y64930D02*
X74998Y64818D01*
X73380Y64930D02*
X74886D01*
X72880Y61750D02*
Y63110D01*
X73410Y63640D01*
X74000D01*
X62680Y63897D02*
X62827Y63750D01*
Y63273D02*
X62900Y63200D01*
X57464Y63814D02*
X61384Y63897D01*
X62680D01*
X62827Y63273D02*
Y63750D01*
X79880Y64300D02*
X80340Y64760D01*
X82500D02*
X84380Y64670D01*
X42050Y70750D02*
Y74800D01*
X82590Y64670D02*
X84380D01*
X73390Y65270D02*
X73502Y65382D01*
X81910Y65210D02*
X82080Y65040D01*
X74897Y65382D02*
X75282Y64997D01*
X76960D01*
X73502Y65382D02*
X74897D01*
X78234Y72676D02*
X78440Y72470D01*
X67630Y62880D02*
X67880D01*
Y61750D02*
Y62880D01*
X55000Y64400D02*
X55640Y65040D01*
X67430D01*
X77173Y65210D02*
X81910D01*
X70880Y61750D02*
Y63377D01*
X70750Y63507D02*
X70880Y63377D01*
X70070Y63507D02*
X70750D01*
X69880Y63317D02*
X70070Y63507D01*
X64880Y61750D02*
Y62970D01*
Y64120D02*
X66510D01*
X76960Y64997D02*
X77173Y65210D01*
X83880Y61750D02*
Y62920D01*
X84380Y63420D01*
Y63790D01*
X73009Y65000D02*
X73279Y65270D01*
X73502Y65382D01*
X79779Y72331D02*
Y72470D01*
X79434Y72676D02*
X79779Y72470D01*
X78234Y72676D02*
X79434D01*
X76909Y69940D02*
X79210D01*
X76500Y63470D02*
X76880Y63090D01*
X76130Y63470D02*
X76500D01*
X76880Y61750D02*
Y63090D01*
X74380Y61750D02*
Y63625D01*
X74250Y63890D02*
X74380Y63625D01*
X73200Y63890D02*
X74250D01*
X72880Y63570D02*
X73200Y63890D01*
X73493Y105228D02*
X75928D01*
X69965Y101700D02*
X73493Y105228D01*
X67900Y101700D02*
X69965D01*
X56410Y70490D02*
X57200Y69700D01*
X56410Y70490D02*
Y70875D01*
X56573Y71038D01*
X57142D01*
X57927Y70253D01*
X68583D01*
X69244Y70914D01*
X70144D01*
X70580Y71350D01*
X74783D01*
X41320Y76250D02*
Y80900D01*
Y76250D02*
X41660Y75910D01*
X43444D01*
X44580Y74770D01*
X51100D02*
X51474Y74396D01*
X55420D01*
X55606Y74210D01*
X57650D01*
X57801Y74059D02*
X59310D01*
X59489Y74238D02*
X67430D01*
X68361Y75169D02*
X72560D01*
X72929Y74800D01*
X75510D02*
X76140Y74170D01*
Y73750D02*
Y74170D01*
X79450Y74910D02*
X103810D01*
X105010Y76110D02*
X106590D01*
X107410Y75290D01*
X110090D01*
X110210Y75170D01*
X43444Y80364D02*
X43820Y80740D01*
X43444Y75906D02*
X44580Y74770D01*
X51100D01*
X57650Y74210D02*
X57801Y74059D01*
X59310D02*
X59489Y74238D01*
X67430D02*
X68361Y75169D01*
X72929Y74800D02*
X75510D01*
X76140Y73750D02*
X78290D01*
X79450Y74910D01*
X103810D02*
X105010Y76110D01*
X110210Y75170D02*
X114230D01*
X115080Y74320D02*
X115280D01*
X116400Y73200D01*
X59380Y61750D02*
Y62950D01*
X60310D01*
X60520Y63160D01*
X63880Y61750D02*
Y64250D01*
X64210Y64580D01*
X65407D01*
X75149Y65739D02*
X75534Y65354D01*
X84000Y102700D02*
Y103750D01*
X63380Y64180D02*
X63416Y64216D01*
X63380Y61750D02*
Y64180D01*
X51596Y64804D02*
X52000Y64400D01*
X48754Y64804D02*
X51596D01*
X48590Y64640D02*
X48754Y64804D01*
X48590Y63960D02*
Y64640D01*
Y63960D02*
X49000Y63550D01*
X56770D01*
X57410Y62910D01*
X57750D01*
X58297Y63457D01*
X59443D01*
X59700Y63200D01*
X54000Y68400D02*
X56100Y66300D01*
X58130Y64130D02*
X58184Y64076D01*
X63014D01*
Y63457D02*
Y64076D01*
Y63457D02*
X63147Y63324D01*
Y63098D02*
Y63324D01*
X63002Y62953D02*
X63147Y63098D01*
X62798Y62953D02*
X63002D01*
X62649Y63102D02*
X62798Y62953D01*
X62649Y63102D02*
Y63620D01*
X62550Y63719D02*
X62649Y63620D01*
X61561Y63719D02*
X62550D01*
X61480Y63310D02*
X61561Y63719D01*
X69050Y109620D02*
X69240Y109810D01*
X93733D01*
X95299Y108244D01*
X98314D01*
X99053Y108983D01*
X111217D01*
X112200Y108000D01*
X76100Y87100D02*
X76480D01*
X76909Y86671D01*
X77619D01*
X77797Y86493D01*
X80283D01*
X81040Y87250D01*
X83673D01*
X85309Y88886D01*
X103256D01*
X104865Y90495D01*
X105585D01*
X105984Y90894D01*
X107811D01*
X109370Y92453D01*
X109857D01*
Y94187D01*
X110289Y94619D01*
X117999D01*
X118290Y94910D01*
X46700Y105690D02*
X46793D01*
X47194Y106091D02*
X52471D01*
X53291Y106911D01*
X61460Y107060D02*
X71457D01*
X71595Y107197D01*
X74503D01*
X73880Y61750D02*
Y62780D01*
X74060Y62960D01*
X45010Y68810D02*
X55246D01*
X57780Y66276D01*
X76520D01*
X76774Y66530D01*
X80293D01*
X81540Y67777D01*
X89713D01*
X90000Y67490D01*
X96171Y96471D02*
Y98671D01*
X96600Y99100D01*
X76170Y71640D02*
X76335Y71475D01*
X72600Y71640D02*
X76170D01*
X71957Y72283D02*
X72600Y71640D01*
X69813Y72283D02*
X71957D01*
X76335Y71475D02*
X77553Y70257D01*
X93048Y75298D02*
X93170Y75420D01*
X85057Y75298D02*
X93048D01*
X84813Y75543D02*
X85057Y75298D01*
X75368Y75543D02*
X84813D01*
X75191Y75720D02*
X75368Y75543D01*
X98050Y72630D02*
X98730Y71950D01*
X103834D01*
X104200Y71584D01*
X71630Y67520D02*
X73390D01*
X71190Y67960D02*
X71630Y67520D01*
X71190Y67960D02*
Y68750D01*
X71440Y69000D01*
X73167D01*
X74300Y70133D01*
X51000Y64400D02*
X51440Y63960D01*
X55730D01*
X56600Y64830D01*
X65660D01*
Y64330D02*
Y64830D01*
X65130Y64330D02*
X65660D01*
X65090Y64370D02*
X65130Y64330D01*
X64630Y64370D02*
X65090D01*
X64630Y64000D02*
Y64370D01*
Y64000D02*
X64760Y63870D01*
X65080D01*
X65150Y63940D01*
X67195D02*
X68253Y64998D01*
X76130Y62890D02*
Y63090D01*
X69755Y64750D02*
X70830D01*
X75883Y63337D02*
Y63627D01*
X66380Y61750D02*
Y63750D01*
X66570Y63940D01*
X67195D01*
X70830Y64750D02*
X70880Y64800D01*
X71190Y63750D02*
X71510Y64070D01*
X72380Y61750D02*
Y63020D01*
X72480Y63120D01*
Y63550D01*
X73000Y64070D01*
X74380Y63625D02*
X74545Y63790D01*
X74900D01*
X75110Y63580D01*
X72718Y65918D02*
X75328D01*
X75713Y65533D01*
X76135D01*
X76911Y66310D01*
X82300D01*
X74693Y69290D02*
X82050D01*
X74403Y69580D02*
X74693Y69290D01*
X92600Y89810D02*
X92930Y89480D01*
X102225D01*
X103725Y90980D01*
X104925D01*
X106855Y92910D01*
X107960D01*
X106770Y109500D02*
X113100D01*
X113200Y109600D01*
X114140D02*
X122570D01*
X87570Y104660D02*
X87980Y104250D01*
X77091Y64402D02*
X78030Y63464D01*
X73438Y64402D02*
X77091D01*
X58600Y79000D02*
X59600D01*
X57600D02*
X58600D01*
X59600D02*
X66594D01*
X66997Y78597D01*
X71503D01*
X71643Y78737D01*
X72753D01*
X72880Y78610D01*
X94020D01*
X94110Y78520D01*
X99736D01*
X100516Y79300D01*
X50700Y69800D02*
X50913Y70013D01*
X52593D01*
X53797Y71217D01*
X57244D01*
X57414Y71047D01*
X66467D01*
X68136Y72716D01*
X70216D01*
X70770Y73270D01*
X75380Y61750D02*
Y63625D01*
X75515Y63760D01*
X69400Y81300D02*
X70700D01*
X71184Y80816D01*
X72200D01*
X68384Y81300D02*
X69400D01*
X67900Y80816D02*
X68384Y81300D01*
X72200Y80816D02*
X74000D01*
X75800D01*
X77600D01*
X79400D01*
X81200D01*
X83000D01*
X84800D01*
X86600D01*
X88400D01*
X90200D01*
X92000D01*
X93800D01*
X95600D01*
X97400D01*
X79671Y86671D02*
X80100Y87100D01*
X77875Y86671D02*
X79671D01*
X77671Y86875D02*
X77875Y86671D01*
X77671Y86875D02*
Y87351D01*
X77493Y87530D02*
X77671Y87351D01*
X73670Y87530D02*
X77493D01*
X73100Y88100D02*
X73670Y87530D01*
X97400Y80816D02*
X99200D01*
X100216D01*
X100700Y81300D01*
X101900D01*
X82690Y63150D02*
X82880Y62960D01*
X82690Y63150D02*
Y63620D01*
X82380Y61750D02*
Y63310D01*
X82690Y63620D01*
X86100Y99100D02*
X88600D01*
X94200Y69259D02*
X94529Y68930D01*
X99970D01*
X100400Y68500D01*
X63854Y93100D02*
X71100D01*
X63044Y93910D02*
X63854Y93100D01*
X61320Y93910D02*
X63044D01*
X59500Y92090D02*
X61320Y93910D01*
X58550Y92090D02*
X59500D01*
X58390Y92250D02*
X58550Y92090D01*
X58390Y92250D02*
Y95090D01*
X58800Y95500D01*
X100400Y68500D02*
X100600Y68700D01*
X101400D01*
X102400D01*
X81960Y99100D02*
X86100D01*
X80530Y97670D02*
X81960Y99100D01*
X77280Y97670D02*
X80530D01*
X75980Y96370D02*
X77280Y97670D01*
X74830Y96370D02*
X75980D01*
X73100Y98100D02*
X74830Y96370D01*
X72600Y98600D02*
X73100Y98100D01*
X71600Y98600D02*
X72600D01*
X71100Y99100D02*
X71600Y98600D01*
X61400Y86600D02*
X62600D01*
X107400Y80200D02*
X108797D01*
X108900Y80097D01*
X115197D01*
X115500Y80400D01*
X77800Y102100D02*
X77996Y102296D01*
X84256D01*
X85070Y103110D01*
X92690D01*
X92900Y102900D01*
X115500Y80400D02*
X116065Y80965D01*
X119181D01*
X119716Y81500D01*
X116900Y78300D02*
X117690Y77510D01*
X118920D01*
X120930Y75500D01*
X122000D01*
X117220Y89880D02*
X121200Y85900D01*
X117220Y89880D02*
Y90660D01*
X114127Y93753D02*
X117220Y90660D01*
X111104Y93753D02*
X114127D01*
X49000Y68400D02*
X50000D01*
X50430Y67970D01*
X51570D01*
X52000Y68400D01*
X53000D01*
X58380Y61750D02*
Y62920D01*
X43100Y106300D02*
X46740D01*
X48400Y107960D01*
Y108500D01*
X48960Y109060D01*
X52124D01*
X52400Y108784D01*
X52976Y109360D01*
X63440D01*
X64300Y108500D01*
Y107500D02*
X64810D01*
X64990Y107320D01*
X69520D01*
X69900Y107700D01*
X66500Y104800D02*
X69014D01*
X70414Y106200D01*
X73800D01*
X87980Y104250D02*
X88230D01*
X88000Y102700D02*
X90190D01*
X90286Y102796D01*
X92394D01*
X92700Y102490D01*
X95589D01*
X96403Y103304D01*
X97164D01*
X97979Y102490D01*
X106578D01*
X106763Y102676D01*
X107625D01*
X109801Y100500D01*
X111104D01*
X118480Y96920D02*
X120800Y94600D01*
X117404Y96920D02*
X118480D01*
X120800Y94600D02*
X123800D01*
X118984Y78300D02*
X120584Y76700D01*
X118100Y78300D02*
X118984D01*
X117765D02*
X118100D01*
X117363Y78703D02*
X117765Y78300D01*
X116410Y78703D02*
X117363D01*
X115683Y79430D02*
X116410Y78703D01*
X110030Y79430D02*
X115683D01*
X109300Y78700D02*
X110030Y79430D01*
X120400Y71800D02*
X122900Y69300D01*
X123300D01*
X122850Y65800D02*
X123500D01*
X122750Y65900D02*
X122850Y65800D01*
X122100Y65900D02*
X122750D01*
X121300D02*
X122100D01*
X121200Y66000D02*
X121300Y65900D01*
X120400Y66000D02*
X121200D01*
X110300Y73100D02*
X110800Y72600D01*
X109250Y73100D02*
X110300D01*
X108990Y73360D02*
X109250Y73100D01*
X108990Y73360D02*
Y73840D01*
X109250Y74100D01*
X109500D01*
X109810Y74410D01*
Y74875D01*
X109675Y75010D02*
X109810Y74875D01*
X105810Y75010D02*
X109675D01*
X105400Y74600D02*
X105810Y75010D01*
X86380Y62920D02*
X86750D01*
X86880Y62790D01*
Y61750D02*
Y62790D01*
X86380Y61750D02*
X86880D01*
X45800Y79400D02*
X46260Y79860D01*
X50440D01*
X50900Y79400D01*
X51000Y91500D02*
X52000D01*
X50900Y79400D02*
X52410Y80910D01*
X67161D01*
X67961Y81710D01*
X100156D01*
X100356Y81910D01*
X108190D01*
X108583Y82303D01*
X113950D01*
X114129Y82124D01*
X115820D01*
X116800Y81144D01*
X118564D01*
X119320Y81900D01*
X122916D01*
X123200Y81616D01*
X123610Y87910D02*
X124310Y88610D01*
X125690D01*
X127208Y90128D01*
Y93000D01*
X127066Y93142D02*
X127208Y93000D01*
X125766Y93142D02*
X127066D01*
X125270Y93639D02*
X125766Y93142D01*
X125270Y93639D02*
Y98870D01*
X125900Y99500D01*
X56880Y61750D02*
Y63180D01*
X56731Y63329D02*
X56880Y63180D01*
X45880Y63329D02*
X56731D01*
X43721Y61170D02*
X45880Y63329D01*
X42966Y61170D02*
X43721D01*
X42340Y61796D02*
X42966Y61170D01*
X42340Y61796D02*
Y62250D01*
X42750Y62660D01*
X43250D01*
X44590Y64000D01*
X46600D01*
X47000Y64400D01*
X44750Y66650D02*
X47000Y64400D01*
X44750Y66650D02*
Y69960D01*
X44994Y70204D01*
X52324D01*
X52950Y70830D01*
Y71500D01*
X53490Y72040D01*
X54640D01*
X125700Y96900D02*
X127100D01*
X82694Y71084D02*
X83880Y69897D01*
X79339Y71084D02*
X82694D01*
X79160Y70905D02*
X79339Y71084D01*
X77980Y70314D02*
X78928Y71263D01*
X82452D01*
X82600Y71410D01*
X83380Y62800D02*
X84130Y63550D01*
X83380Y61750D02*
Y62800D01*
X82049Y64511D02*
X82238D01*
X83160Y63589D01*
Y62880D02*
Y63589D01*
X82880Y62600D02*
X83160Y62880D01*
X82880Y61750D02*
Y62600D01*
X80380Y61750D02*
Y64240D01*
X78600Y64890D02*
X79380Y64110D01*
Y61750D02*
Y64110D01*
X73419Y68031D02*
X73420Y68030D01*
X73930Y68540D01*
X74550D01*
X75530Y67560D01*
Y64070D02*
X75684Y64224D01*
X76956D01*
X77377Y63803D01*
Y63393D02*
Y63803D01*
Y63393D02*
X77880Y62890D01*
Y61750D02*
Y62890D01*
X71880Y61750D02*
Y62875D01*
X72230Y63225D01*
X71380Y61750D02*
Y63050D01*
X71543Y63213D01*
X70380Y61750D02*
Y63000D01*
X70630Y63250D01*
X69880Y61750D02*
Y62970D01*
X70130D01*
X68380Y61750D02*
Y63750D01*
X69380Y64750D01*
X69593Y68427D02*
X69680Y68340D01*
X69593Y68427D02*
Y70138D01*
X69770Y70314D01*
X70016Y69387D02*
X70890Y70261D01*
X67380Y61750D02*
Y63105D01*
X68210Y63935D01*
Y64180D01*
Y68215D02*
X69060Y69065D01*
X69228D01*
Y70206D01*
X67380Y63660D02*
Y63857D01*
X68253Y64730D01*
X68500D01*
Y68089D02*
X69785D01*
X70187Y68491D01*
Y68867D01*
X71140Y69820D01*
Y70518D01*
X66880Y61750D02*
Y63280D01*
X66630Y63530D02*
X66880Y63280D01*
X66630Y68060D02*
X67130Y68560D01*
X66380Y70500D02*
X66526Y70646D01*
X68691D01*
X69356Y71311D01*
X70281D01*
X70662Y71692D01*
X70770D01*
X65880Y61750D02*
Y63690D01*
Y70720D02*
X65984Y70824D01*
X66646D01*
X67711Y71890D01*
X69850D01*
X66220Y71340D02*
X67774Y72894D01*
X69874D01*
X70500Y73520D01*
X71380D01*
X110800Y67600D02*
X111290Y67110D01*
X115980D01*
X116310Y67440D01*
X119220D01*
X117660Y98310D02*
X121610D01*
X81880Y63380D02*
X82440Y63940D01*
X81880Y61750D02*
Y63380D01*
X69772Y68906D02*
X69940Y68738D01*
X69772Y68906D02*
Y69637D01*
X70905Y70770D01*
X71390D01*
X71620Y70540D01*
Y69946D02*
Y70540D01*
X71254Y69580D02*
X71620Y69946D01*
X86340Y105250D02*
X88020D01*
X88690Y104580D01*
X92250D01*
X90100Y98529D02*
X91171D01*
X91600Y98100D01*
X65521Y71830D02*
X66785Y73094D01*
X69524D01*
X69750Y73320D01*
X79420Y99800D02*
X93305D01*
X93508Y99597D01*
X94824D01*
X95171Y99250D01*
Y97029D02*
Y99250D01*
Y97029D02*
X96100Y96100D01*
X102600D01*
X84536Y89244D02*
X100006D01*
X64200Y78000D02*
X64630Y78430D01*
X65770D01*
X66200Y78000D01*
X43050Y62122D02*
X44435Y63507D01*
X47107D01*
X48000Y64400D01*
X48583Y64983D01*
X52417D01*
X53000Y64400D01*
X54000D02*
X55000D01*
X53000D02*
X54000D01*
X42050Y74800D02*
Y75570D01*
X42055Y76850D02*
Y78340D01*
X42105Y78390D01*
Y81950D01*
X47250D01*
X47800Y82500D01*
Y82900D01*
X48300Y80750D02*
Y81300D01*
Y80750D02*
X48550Y80500D01*
X49800D01*
X50250D01*
X50350Y80400D01*
X50800D01*
X50216Y94800D02*
X51856Y93160D01*
X54344D01*
X55984Y94800D01*
X49856Y94440D02*
X50216Y94800D01*
X47268Y94440D02*
X49856D01*
X45100Y96608D02*
X47268Y94440D01*
X44662Y96170D02*
X45100Y96608D01*
X43138Y96170D02*
X44662D01*
X42700Y96608D02*
X43138Y96170D01*
X84800Y82784D02*
X86600D01*
X88400D01*
X83000D02*
X84800D01*
X88400D02*
X90200D01*
X81200D02*
X83000D01*
X90200D02*
X92000D01*
X50300Y74000D02*
X50517Y74217D01*
X55059D01*
X55476Y73800D01*
X56000D01*
X79400Y82784D02*
X81200D01*
X92000D02*
X93800D01*
X77600D02*
X79400D01*
X93800D02*
X95600D01*
X75800D02*
X77600D01*
X95600D02*
X97400D01*
X56000Y73800D02*
X56550D01*
X56650Y73700D01*
X57200D01*
X74000Y82784D02*
X75800D01*
X97400D02*
X99200D01*
X72200D02*
X74000D01*
X55884Y108400D02*
X56716D01*
X99200Y82784D02*
X99684Y82300D01*
X100700D01*
X50110Y74190D02*
X50300Y74000D01*
X47805Y74190D02*
X50110D01*
X47150Y73535D02*
X47805Y74190D01*
X46715Y73535D02*
X47150D01*
X46430Y73250D02*
X46715Y73535D01*
X46430Y72875D02*
Y73250D01*
Y72875D02*
X46605Y72700D01*
X48500D01*
X71184Y82784D02*
X72200D01*
X70700Y82300D02*
X71184Y82784D01*
X100700Y82300D02*
X101900D01*
X55304Y107820D02*
X55884Y108400D01*
X50080Y107820D02*
X55304D01*
X49400Y108500D02*
X50080Y107820D01*
X69400Y82300D02*
X70700D01*
X68384D02*
X69400D01*
X67900Y82784D02*
X68384Y82300D01*
X43580Y101560D02*
X43610Y101530D01*
X42750Y101560D02*
X43580D01*
X42424Y101886D02*
X42750Y101560D01*
X42424Y101886D02*
Y102520D01*
X42274Y102670D02*
X42424Y102520D01*
X41750Y102670D02*
X42274D01*
X41570Y102850D02*
X41750Y102670D01*
X41570Y102850D02*
Y103670D01*
X42000Y104100D01*
X67116Y82000D02*
X67900Y82784D01*
X66200Y82000D02*
X67116D01*
X65200D02*
X66200D01*
X102284Y84100D02*
X102984Y83400D01*
X103516D01*
X64200Y82000D02*
X65200D01*
X63200D02*
X64200D01*
X62200D02*
X63200D01*
X102484Y79300D02*
X102920D01*
X102950Y79330D01*
X106389D01*
X106819Y78900D01*
X107400D01*
X103516Y83400D02*
X103916Y83800D01*
X107884D01*
X108384Y84300D01*
X61200Y82000D02*
X62200D01*
X102800Y76408D02*
X104100D01*
X63800Y86600D02*
X65000D01*
X101724Y76408D02*
X102800D01*
X100800Y75484D02*
X101724Y76408D01*
X98900Y75484D02*
X100800D01*
X69030Y76080D02*
X71254D01*
X108384Y88500D02*
X110144Y90260D01*
X111500D01*
X112700Y89060D01*
X113500D01*
X114000Y88560D01*
Y88000D02*
Y88560D01*
X98000Y77000D02*
X98916D01*
X97700Y77300D02*
X98000Y77000D01*
X102300Y71484D02*
X104169Y69616D01*
X104200D01*
X66500Y100800D02*
X67400Y101700D01*
X67900D01*
X104200Y69616D02*
X104616Y69200D01*
X106216D01*
X94808Y73892D02*
X95498D01*
X94200Y74500D02*
X94808Y73892D01*
X75928Y105228D02*
X76600Y105900D01*
X72140Y104150D02*
X73218Y105228D01*
X106216Y71100D02*
X106636Y70680D01*
X109880D01*
X110800Y71600D01*
X76600Y105900D02*
X77278Y105222D01*
X81284D01*
X81322Y105184D01*
X82400D01*
X110800Y71600D02*
X111224Y71176D01*
X114106D01*
X114646Y71716D01*
X114831D01*
X115400Y72284D01*
X114116D02*
X115400D01*
X113800Y72600D02*
X114116Y72284D01*
X115100Y74900D02*
X115400Y75200D01*
X116400D01*
X116100Y66500D02*
X116700Y65900D01*
X117300D01*
X118500D01*
X120400Y68000D02*
X120870Y67530D01*
X122770D01*
X123500Y66800D01*
X124000Y66300D01*
X125000D01*
X121900Y73300D02*
X122330Y72870D01*
X124370D01*
X125100Y73600D01*
X126100D01*
X94273Y107395D02*
X94667Y107000D01*
X92927D02*
X93321Y107395D01*
X94273D01*
X94667Y107000D02*
X95684D01*
X122000Y76900D02*
X122500Y77400D01*
X125100D01*
X126100D01*
X121584Y83300D02*
X121869Y83584D01*
X123200D01*
X124284D01*
X125100Y84400D01*
X126100D01*
X121522Y90878D02*
X125086D01*
X120800Y91600D02*
X121522Y90878D01*
X125700Y94900D02*
X127100D01*
X118100Y90000D02*
X119200D01*
X127100Y94900D02*
X127600D01*
X127700Y94800D01*
X128200D01*
X125538Y92701D02*
X126153Y92087D01*
X124958Y92701D02*
X125538D01*
X124660Y93000D02*
X124958Y92701D01*
X124660Y93000D02*
Y95450D01*
X122940Y97170D02*
X124660Y95450D01*
X113152Y97170D02*
X119452D01*
X123700Y107500D02*
X124200Y108000D01*
X121700Y107500D02*
X123700D01*
X121200Y107000D02*
X121700Y107500D01*
X120770Y107430D02*
X121200Y107000D01*
X119630Y107430D02*
X120770D01*
X119200Y107000D02*
X119630Y107430D01*
X118770D02*
X119200Y107000D01*
X117770Y107430D02*
X118770D01*
X117200Y108000D02*
X117770Y107430D01*
X116700Y107500D02*
X117200Y108000D01*
X114700Y107500D02*
X116700D01*
X114200Y107000D02*
X114700Y107500D01*
X113770Y107430D02*
X114200Y107000D01*
X111630Y107430D02*
X113770D01*
X111200Y107000D02*
X111630Y107430D01*
X110700Y107500D02*
X111200Y107000D01*
X109700Y107500D02*
X110700D01*
X109200Y108000D02*
X109700Y107500D01*
X108700D02*
X109200Y108000D01*
X107700Y107500D02*
X108700D01*
X107200Y107000D02*
X107700Y107500D01*
X64380Y61750D02*
Y64220D01*
X64300Y64300D02*
X64380Y64220D01*
X43784Y81270D02*
X44101D01*
X45217Y80154D01*
Y78975D02*
Y80154D01*
Y78975D02*
X45375Y78817D01*
X50996D01*
X52175Y79996D01*
X59971D01*
X60395Y80420D01*
X92948D01*
X93033Y80504D01*
X93367D01*
X94152Y79720D01*
X106367D01*
X106649Y79438D01*
X107942D01*
X109045Y78335D01*
X109500D01*
X110255Y79090D01*
X111218D01*
X111708Y78600D01*
X113800D01*
X114191Y78209D01*
X114409D01*
X114536Y78081D01*
X116119D01*
X117730Y76470D01*
Y71750D02*
Y76470D01*
X117570Y71590D02*
X117730Y71750D01*
X117090Y71590D02*
X117570D01*
X116890Y71790D02*
X117090Y71590D01*
X116890Y71790D02*
Y73710D01*
X116400Y74200D02*
X116890Y73710D01*
X114480Y74920D02*
X115080Y74320D01*
X68880Y61750D02*
Y63620D01*
X69500Y64240D01*
X70720D01*
X71030Y64550D01*
X58880Y61750D02*
Y63110D01*
X58780Y63210D02*
X58880Y63110D01*
X60880Y61750D02*
Y63256D01*
X60500Y63636D02*
X60880Y63256D01*
X58070Y63636D02*
X60500D01*
X57780Y63346D02*
X58070Y63636D01*
X57252Y63346D02*
X57780D01*
X57114Y63484D02*
X57252Y63346D01*
X57114Y63484D02*
Y63994D01*
X49500Y64280D02*
X50000Y63780D01*
X56900D01*
X65407Y65739D02*
X75149D01*
X76816Y65784D02*
X85336D01*
X75534Y65354D02*
X76386D01*
X76816Y65784D01*
X85336D02*
X85597Y65523D01*
X85380Y61750D02*
Y62920D01*
X61570Y68090D02*
X61930Y67730D01*
X69900D01*
X71500Y69330D01*
X72920D01*
X74020Y70430D01*
X74500D01*
X75390Y69540D01*
X82400D01*
X82720Y69220D01*
X88370D01*
X90230Y71080D01*
X100500D01*
X101390Y70190D01*
X102610D01*
X103580Y69220D01*
X104130D01*
X104620Y68730D01*
X106440D01*
X107310Y69600D01*
X109700D01*
X110130Y70030D01*
X112060D01*
X112920Y69170D01*
X114220D01*
X114970Y69920D01*
X118000D01*
X118500Y70420D01*
Y72000D01*
X65360Y75580D02*
X74014D01*
X74408Y75185D01*
X77020D01*
X77210Y74995D01*
Y74540D02*
Y74995D01*
X76485Y74540D02*
X77210D01*
X76320Y74375D02*
X76485Y74540D01*
X76320Y73930D02*
Y74375D01*
Y73930D02*
X77720D01*
X78880Y75090D01*
X103630D01*
X104860Y76320D01*
X110380D01*
X110582Y76118D01*
X114287D01*
X114875Y75530D01*
X115690D01*
X115770Y75610D01*
X116690D01*
X117300Y75000D01*
Y72000D02*
Y75000D01*
X53710Y96500D02*
X57340D01*
X53850Y97860D02*
X55660D01*
X56700Y98900D01*
X113970Y77030D02*
X115100Y75900D01*
X102000Y77030D02*
X113970D01*
X100930Y78100D02*
X102000Y77030D01*
X94220Y78100D02*
X100930D01*
X67377Y78011D02*
X94220Y78100D01*
X66783Y77417D02*
X67377Y78011D01*
X60225Y77417D02*
X66783D01*
X60052Y77590D02*
X60225Y77417D01*
X108495Y68890D02*
X109600D01*
X108184Y69200D02*
X108495Y68890D01*
X109600D02*
X110310Y69600D01*
X110800D01*
X109600Y70110D02*
X110090Y70600D01*
X110800D01*
X112952D01*
X113376Y70176D01*
X114084D01*
X114224Y70316D01*
X115400D01*
X108184Y71100D02*
X109134Y72050D01*
X113350D01*
X113800Y71600D01*
Y70600D02*
X114737Y71537D01*
X116764D01*
X116890Y71411D01*
X117681D01*
X117909Y71639D01*
Y75993D01*
X118616Y76700D01*
X88600Y96100D02*
X89110D01*
Y95710D02*
Y96100D01*
Y95710D02*
X89150Y95670D01*
X92950D01*
X93490Y96210D01*
X93216Y106500D02*
X93716Y107000D01*
X91600Y106500D02*
X93216D01*
X90400D02*
X91600D01*
X105100Y84690D02*
X105490Y84300D01*
X106416D01*
X87930Y84690D02*
X105100D01*
X87655Y86105D02*
X87774Y85986D01*
X90497D01*
X90526Y85956D01*
X93099D01*
X93398Y85657D01*
X95801D01*
X96100Y85956D01*
X99696D01*
X99869Y86129D01*
X104881D01*
X105100Y85910D01*
X105390Y86200D01*
X106416D01*
X66710Y96400D02*
X67100Y96010D01*
X65884Y96400D02*
X66710D01*
X67100Y96010D02*
X67690Y96600D01*
X71420D01*
X65884Y94500D02*
X66174Y94790D01*
X67100D01*
X68900Y98100D02*
X71100D01*
X65884Y90300D02*
X66174Y90590D01*
X67000D01*
X68030Y95450D02*
X68180Y95600D01*
X71270D01*
X71670Y96000D01*
Y96670D01*
X72100Y97100D01*
X89600D02*
X94040D01*
X96610Y94530D01*
X98210D01*
Y88207D02*
X104417D01*
X105100Y88890D01*
X105490Y88500D01*
X106416D01*
X88510Y87840D02*
X89377Y88707D01*
X103697D01*
X105100Y90110D01*
X106026D01*
X106416Y90500D01*
X67790Y96100D02*
X71100D01*
X67310Y95620D02*
X67790Y96100D01*
X65750Y95620D02*
X67310D01*
X65380Y95990D02*
X65750Y95620D01*
X65380Y95990D02*
Y97044D01*
X68222Y99886D01*
X78153D01*
X78260Y99779D01*
X75300Y103900D02*
X76600D01*
X81716D01*
X82400Y103216D01*
X78610Y101360D02*
X79188Y101938D01*
X90782D01*
X90964Y102120D01*
X91303D01*
X85440Y102470D02*
X87146D01*
X87499Y102117D01*
X90214D01*
X90467Y102370D01*
X65884Y92200D02*
X66274Y91810D01*
X67000D01*
X66300Y97100D02*
X71100D01*
X48880Y87500D02*
X51000D01*
X48560Y87820D02*
X48880Y87500D01*
X52490Y90990D02*
X53000Y91500D01*
X49070Y90990D02*
X52490D01*
X48700Y90620D02*
X49070Y90990D01*
X48700Y90100D02*
Y90620D01*
X46390Y87090D02*
X51590D01*
X52000Y87500D01*
X53000D01*
X46500Y90084D02*
X47014Y89570D01*
X49010D01*
X49200Y89760D01*
Y90100D01*
X53000Y87500D02*
X53463Y87037D01*
X55267D01*
X55479Y87250D01*
Y87495D01*
X56500Y88516D01*
X55000Y91500D02*
X56016Y90484D01*
X56500D01*
X45800Y75400D02*
X46100Y75700D01*
X46716D01*
X48684Y79300D02*
X49190D01*
X49290Y79400D01*
X49800D01*
X46411Y78996D02*
X46716Y79300D01*
X45525Y78996D02*
X46411D01*
X45396Y79125D02*
X45525Y78996D01*
X45396Y79125D02*
Y79750D01*
X45686Y80040D01*
X46500D01*
X47300Y80840D01*
Y81300D01*
X46716Y77500D02*
X47700D01*
X49800Y75400D01*
X50900D01*
X48284Y77900D02*
X48684Y77500D01*
X45790Y77900D02*
X48284D01*
X44640Y76750D02*
X45790Y77900D01*
X43820Y76750D02*
X44640D01*
X43623Y76947D02*
X43820Y76750D01*
X43623Y76947D02*
Y78990D01*
X44067Y79434D01*
Y80987D01*
X43668D02*
X44067D01*
X43530Y81125D02*
X43668Y80987D01*
X43530Y81125D02*
Y81500D01*
X43800Y81770D01*
X44530D01*
X45800Y80500D01*
X51500Y82400D02*
X51900D01*
X51370Y82270D02*
X51500Y82400D01*
X51370Y81700D02*
Y82270D01*
Y81700D02*
X51500Y81570D01*
X54580D01*
X55500Y82490D01*
X51300Y82900D02*
X51900D01*
X50700Y83500D02*
X51300Y82900D01*
X50700Y83500D02*
Y84400D01*
X51900Y82900D02*
X52700D01*
X53617Y83817D01*
X56967D01*
X57400Y83384D01*
X60800Y73020D02*
X61053Y73273D01*
X69226D01*
X69750Y73797D01*
X71640D01*
X72254Y73182D01*
X80057D01*
X80183Y73056D01*
X95666D01*
X96900Y74290D01*
X103990D01*
X105400Y75700D01*
X115000Y88000D02*
Y88634D01*
X115250Y88884D01*
X116700D01*
X116345Y89239D02*
X116700Y88884D01*
X113561Y89239D02*
X116345D01*
X112600Y90200D02*
X113561Y89239D01*
X115000Y87830D02*
Y88000D01*
X118460Y87830D02*
X120516Y85774D01*
Y85424D02*
Y85774D01*
Y85424D02*
X120624Y85317D01*
X121625D01*
X121783Y85475D01*
Y86153D01*
X121940Y86310D01*
X124640D01*
X124970Y85980D01*
X127000D01*
X127700Y85280D01*
Y74700D02*
Y85280D01*
X111000Y87760D02*
Y89700D01*
Y87760D02*
X111500Y87260D01*
X114454D01*
X114496Y87301D01*
X116315D01*
X116700Y86916D01*
X114500Y86195D02*
Y86600D01*
X114375Y86070D02*
X114500Y86195D01*
X113926Y86070D02*
X114375D01*
X113917Y86079D02*
X113926Y86070D01*
X113661Y86079D02*
X113917D01*
X113424Y86316D02*
X113661Y86079D01*
X112500Y86316D02*
X113424D01*
X114500Y86600D02*
Y87060D01*
X114670D01*
X114732Y87122D01*
X115350D01*
X116472Y86000D01*
X118100D01*
X112500Y88284D02*
X113314Y87470D01*
X114375D01*
X114500Y87595D01*
Y88000D01*
X114200Y89670D02*
X116070D01*
X116600Y90200D01*
X46700Y70800D02*
X47117Y70383D01*
X51683D01*
X52000Y70700D01*
X46800Y73100D02*
X48500D01*
X48870Y73470D01*
X64400Y106300D02*
X65400D01*
X100720Y87960D02*
X106640D01*
X106903Y88223D01*
Y88374D01*
X109496Y90967D01*
X109647D01*
X110520Y91840D01*
Y94000D01*
X110700Y94180D01*
X113152D01*
X107300Y77600D02*
X107570Y77330D01*
X109670D01*
X110370Y78030D01*
X114160D01*
X114440Y77750D01*
Y77060D02*
Y77750D01*
Y77060D02*
X115240Y76260D01*
X117300D01*
X69800Y102600D02*
X70397D01*
X46700Y69800D02*
X47400Y69100D01*
X55500D01*
X56000Y69600D01*
X46250Y71260D02*
Y73470D01*
X46500Y73720D01*
X47015D01*
X47795Y74500D01*
X48720D01*
X78200Y109000D02*
X79980D01*
X80210Y109230D01*
X81970D01*
X82400Y108800D01*
X74000D02*
X74430Y108370D01*
X77330D01*
X78200Y107500D01*
X116900Y79300D02*
X117480D01*
X117936Y78844D01*
X124656D01*
X125100Y78400D01*
X126100D01*
X118100Y79300D02*
X118378Y79022D01*
X124722D01*
X125100Y79400D01*
X126100D01*
X118100Y80600D02*
X118300Y80400D01*
X125100D01*
X118100Y81800D02*
X118566Y82266D01*
X123714D01*
X124580Y81400D01*
X125100D01*
X118100Y83000D02*
X118477Y82623D01*
X124877D01*
X125100Y82400D01*
X118100Y84200D02*
X120080D01*
X121375Y82906D01*
X124606D01*
X125100Y83400D01*
X41730Y107130D02*
X42100Y107500D01*
X41730Y105446D02*
Y107130D01*
Y105446D02*
X42570Y104606D01*
Y102736D02*
Y104606D01*
Y102736D02*
X42603Y102703D01*
Y102497D02*
Y102703D01*
Y102497D02*
X43000Y102100D01*
X43530Y106590D02*
X43990D01*
X44700Y107300D01*
X112400Y80700D02*
X112910Y81210D01*
X116020D01*
X81400Y107800D02*
X81860Y107340D01*
X86040D01*
X86200Y107500D01*
X80400Y108800D02*
X80830Y108370D01*
X85770D01*
X86200Y108800D01*
X76000Y107800D02*
X77000D01*
X77724Y107076D01*
X88436D01*
X88755Y107395D01*
X92964D01*
X93142Y107573D01*
X94451D01*
X94496Y107529D01*
X98301D01*
X99630Y106200D01*
X101840D01*
X79890Y100290D02*
X93510D01*
X93846Y99954D01*
X96746D01*
X97600Y99100D01*
X68700Y108700D02*
X69100Y108300D01*
X72500D01*
X73000Y107800D01*
X69900Y108700D02*
X70900D01*
X71000Y108800D01*
X72000D01*
X46400Y96500D02*
X46790Y96890D01*
X60610D01*
X62130Y98410D01*
Y99210D01*
X62000Y99340D02*
X62130Y99210D01*
X61140Y99340D02*
X62000D01*
X60700Y98900D02*
X61140Y99340D01*
X41500Y96600D02*
X42090Y97190D01*
X59990D01*
X61700Y98900D01*
X109400Y73600D02*
X110400Y74600D01*
X110800D01*
X108890Y76020D02*
X108980Y76110D01*
X110290D01*
X110800Y75600D01*
X75300Y105900D02*
X75972Y106572D01*
X77240D01*
X77280Y106531D01*
X77369D01*
X77800Y106100D01*
X51000Y89980D02*
X57030D01*
X57140Y90090D01*
X62390D01*
X62800Y90500D01*
X114840Y71290D02*
X114897Y71233D01*
X117884D01*
X118087Y71436D01*
Y72250D01*
X118344Y72506D01*
X118694D01*
X121900Y69300D01*
X78680Y106050D02*
X83346D01*
X83600Y105796D01*
X86994D01*
X87320Y105470D01*
X88830D01*
X89100Y105200D01*
X45800Y68000D02*
X46200Y68400D01*
X47000D01*
X48000D01*
X90400Y108500D02*
X90920Y109020D01*
X92090D01*
X92210Y108900D01*
X92700D01*
X41616Y63894D02*
X43050D01*
X40300Y65210D02*
X41616Y63894D01*
X40300Y65210D02*
Y81540D01*
X41340Y82580D01*
X44000D01*
X44270Y82850D01*
Y83150D01*
X41500Y83160D02*
X44270Y83150D01*
X41370Y83290D02*
X41500Y83160D01*
X41370Y83290D02*
Y85790D01*
X44531Y88951D01*
X47319D01*
X48000Y88270D01*
X51160D01*
X51810Y88920D01*
X57600D01*
X57990Y88530D01*
X62246D01*
X62396Y88680D01*
X59700Y84400D02*
X60260Y84960D01*
X65020D01*
X65660Y85600D01*
X89350Y85599D01*
X92741D01*
X93040Y85300D01*
X96159D01*
X96458Y85599D01*
X100053D01*
X100226Y85772D01*
X104049D01*
X104474Y85347D01*
X107207D01*
X107270Y85410D01*
X111000Y85700D02*
X111561Y85139D01*
X118339D01*
X119200Y86000D01*
X45800Y84500D02*
X46100Y84800D01*
X47300D01*
X47690Y84410D01*
X49000D01*
X49090Y84500D01*
X49800D01*
X44900Y88500D02*
X45173Y88773D01*
X46617D01*
X47320Y88070D01*
X53430D01*
X54000Y87500D01*
X55000D01*
X92600Y98100D02*
X93030Y98530D01*
X93890D01*
X94170Y98250D01*
Y97230D02*
Y98250D01*
Y97230D02*
X96310Y95090D01*
X99700D01*
X100300Y107800D02*
X100800D01*
X99700Y108400D02*
X100300Y107800D01*
X122000Y77900D02*
X122500Y78400D01*
X123600D01*
X96380Y81330D02*
X100210D01*
X100545Y81665D01*
X102185D01*
X103000Y80850D01*
X103620D01*
X104220Y80250D01*
X106317D01*
X106950Y79617D01*
X116048D01*
X116775Y78890D01*
X117630D01*
X117855Y78665D01*
X119675D01*
X123600Y74740D01*
Y74400D02*
Y74740D01*
X61400Y85600D02*
X61770Y85970D01*
X64630D01*
X65000Y85600D01*
X61200Y84500D02*
X61620D01*
X62030Y84090D01*
X76490D01*
X77310Y84910D01*
X57960Y90904D02*
X66664D01*
X66734Y90974D01*
X74826D01*
X75100Y90700D01*
X62600Y85600D02*
X63800D01*
X43300Y107500D02*
X43470Y107670D01*
X46570D01*
X47400Y108500D01*
X45700D02*
X46760Y109560D01*
X47150D01*
X51700Y98900D02*
X52440Y99640D01*
X52730Y105880D02*
X52880Y106030D01*
X47390Y105880D02*
X52730D01*
X42100Y108500D02*
X43300D01*
X66137Y86493D02*
X77418D01*
X77597Y86314D01*
X80628D01*
X80984Y86670D01*
X89814D01*
X90141Y86343D01*
X90854D01*
X90884Y86314D01*
X93456D01*
X93635Y86135D01*
X95386D01*
X95565Y86314D01*
X98207D01*
X98386Y86493D01*
X104277D01*
X104615Y86830D01*
X109345D01*
X109440Y86735D01*
X111115D01*
X111892Y85958D01*
Y85721D02*
Y85958D01*
Y85721D02*
X112040Y85573D01*
X114183D01*
X114330Y85720D01*
X101591Y106450D02*
X104010D01*
X101571Y106430D02*
X101591Y106450D01*
X100110Y106430D02*
X101571D01*
X98833Y107707D02*
X100110Y106430D01*
X94719Y107707D02*
X98833D01*
X94675Y107752D02*
X94719Y107707D01*
X92964Y107752D02*
X94675D01*
X92785Y107573D02*
X92964Y107752D01*
X89107Y107573D02*
X92785D01*
X87250Y109430D02*
X89107Y107573D01*
X71493Y109430D02*
X87250D01*
X71258Y109194D02*
X71493Y109430D01*
X66384Y109194D02*
X71258D01*
X65240Y108050D02*
X66384Y109194D01*
X62130Y108050D02*
X65240D01*
X61170Y107090D02*
X62130Y108050D01*
X52920Y107090D02*
X61170D01*
X52790Y107220D02*
X52920Y107090D01*
X48020Y107220D02*
X52790D01*
X46737Y105937D02*
X48020Y107220D01*
X46500Y105937D02*
X46737D01*
X46203Y105640D02*
X46500Y105937D01*
X46203Y105403D02*
Y105640D01*
X45700Y104900D02*
X46203Y105403D01*
X75680Y78330D02*
X107780D01*
X107960Y78150D01*
X109568D01*
X110018Y78600D01*
X110800D01*
X112630Y83670D02*
X113000Y83300D01*
X109360Y83670D02*
X112630D01*
X109030Y84000D02*
X109360Y83670D01*
X109030Y84000D02*
Y84500D01*
X109195Y84665D01*
X109575D01*
X109940Y84300D01*
X110600D01*
X113570Y83930D02*
X114200Y83300D01*
X109770Y83930D02*
X113570D01*
X109400Y84300D02*
X109770Y83930D01*
X60197Y89710D02*
X76740D01*
X59204Y88717D02*
X60197Y89710D01*
X58396Y88717D02*
X59204D01*
X57948Y89165D02*
X58396Y88717D01*
X50255Y89165D02*
X57948D01*
X49970Y88880D02*
X50255Y89165D01*
X103850Y81010D02*
X108242D01*
X108976Y80276D01*
X111625D01*
X111824Y80475D01*
Y80750D01*
X112204Y81130D01*
X112520D01*
X112890Y81500D01*
Y81840D01*
X113174Y82124D01*
X113696D01*
X113960Y81860D01*
X114910D01*
X76280Y63977D02*
X76750D01*
X77150Y63577D01*
Y63360D02*
Y63577D01*
Y63360D02*
X77380Y63130D01*
Y61750D02*
Y63130D01*
X65380Y61750D02*
Y63220D01*
X65160Y63440D02*
X65380Y63220D01*
X69070Y72280D02*
X69320Y72530D01*
X75405D01*
X44900Y89500D02*
X47310Y91910D01*
X63360D01*
X63938Y91332D01*
X70332D01*
X71100Y92100D01*
X59500Y81900D02*
X59804Y81596D01*
X66986D01*
X67310Y81920D01*
X81530D01*
X81650Y82040D01*
X48300Y84800D02*
X48490Y84990D01*
X53306D01*
X54300Y83996D01*
X60404D01*
X60820Y83580D01*
X78023D01*
X78270Y83827D01*
X87997D01*
X109326Y96220D02*
X109363Y96183D01*
X108830Y96220D02*
X109326D01*
X106520Y98530D02*
X108830Y96220D01*
X98030Y98530D02*
X106520D01*
X97600Y98100D02*
X98030Y98530D01*
X89100Y109200D02*
X89690Y108610D01*
Y108500D02*
Y108610D01*
Y108500D02*
X90240Y107950D01*
X92447D01*
X92606Y108109D01*
X94988D01*
X95032Y108065D01*
X98705D01*
X99445Y108804D01*
X104396D01*
X105200Y108000D01*
X97600Y108900D02*
X97862Y109162D01*
X112038D01*
X113200Y108000D01*
X46700Y104900D02*
X47498Y105698D01*
X60511D01*
X61602Y106790D01*
X71543D01*
X71771Y107018D01*
X74188D01*
X74543Y106663D01*
X75177D01*
X75443Y106929D01*
X77565D01*
X77597Y106897D01*
X89053D01*
X89997Y105953D01*
X104153D01*
X105200Y107000D01*
X104800Y105600D02*
X106200Y107000D01*
X104460Y105600D02*
X104800D01*
X109810Y73350D02*
X110560Y74100D01*
X113300D01*
X113800Y74600D01*
X49270Y104470D02*
X49700Y104900D01*
X43320Y104470D02*
X49270D01*
X42730Y105060D02*
X43320Y104470D01*
X42730Y105060D02*
Y107680D01*
X43000Y107950D01*
X45730D01*
X47090Y109310D01*
X47750D01*
X48130Y109690D01*
X66750D01*
X67067Y109373D01*
X69980D01*
X70217Y109610D01*
X87550D01*
X89390Y107770D01*
X92700D01*
X92861Y107931D01*
X94809D01*
X94853Y107886D01*
X99685D01*
X100351Y107220D01*
X101800D01*
X102270Y106750D01*
X104020D01*
X104700Y107430D01*
X106500D01*
X106770Y107160D01*
Y106030D02*
Y107160D01*
Y106030D02*
X107550Y105250D01*
X115600D01*
X118800Y102050D01*
X48700Y104900D02*
X49130Y105330D01*
X59000D01*
X59270Y105060D01*
Y104625D02*
Y105060D01*
Y104625D02*
X59425Y104470D01*
X65120D01*
X67260Y106610D01*
X71860D01*
X72020Y106770D01*
X77360Y104870D02*
X77534Y105044D01*
X81144D01*
X81700Y104487D01*
X85487D01*
X85940Y104940D01*
X88060D01*
X88670Y104330D01*
X94280D01*
X94880Y104930D01*
X103392D01*
X104085Y104237D01*
X115024D01*
X118250Y101012D01*
Y100540D02*
Y101012D01*
X65870Y99860D02*
X66822D01*
X67804Y100843D01*
X72493D01*
X73120Y101470D01*
X77830D01*
X78290Y101010D01*
X79180D01*
X79929Y101759D01*
X90960D01*
X90966Y101765D01*
X107315D01*
X108380Y100700D01*
Y99080D02*
X110598D01*
X50250Y100460D02*
X52650Y102860D01*
X68090D01*
X70377Y105147D01*
X71573D01*
X71720Y105000D01*
Y104550D02*
Y105000D01*
X70323Y103153D02*
X71720Y104550D01*
X69544Y103153D02*
X70323D01*
X68584Y102193D02*
X69544Y103153D01*
X67283Y102193D02*
X68584D01*
X66090Y101000D02*
X67283Y102193D01*
X66090Y100600D02*
Y101000D01*
Y100600D02*
X66294Y100396D01*
X66750D01*
X67561Y101207D01*
X69847D01*
X73250Y104610D01*
X80170D01*
X80425Y104865D01*
X80960D01*
X81525Y104300D01*
X87510D01*
X87947Y103863D01*
X99117D01*
X99163Y103817D01*
X100183D01*
X100222Y103857D01*
X113153D01*
X113800Y103210D01*
X77100Y85900D02*
X77221Y85779D01*
X90347Y85778D01*
X92920D01*
X93219Y85479D01*
X95980D01*
X96279Y85778D01*
X99875D01*
X100048Y85951D01*
X104295D01*
X104720Y85526D01*
X105276D01*
X105480Y85730D01*
X107890D01*
X107980Y85640D01*
X77100Y88100D02*
X77471D01*
X77900Y87671D01*
X83482D01*
X84876Y89065D01*
X103077D01*
X104686Y90674D01*
X105364D01*
X107310Y92620D01*
X108860D01*
X72100Y96100D02*
X76080D01*
X77400Y97420D01*
X82960D01*
X83110Y97570D01*
X84420Y100740D02*
X84750Y101070D01*
X90992D01*
X91330Y101408D01*
X106562D01*
X108150Y99820D01*
X110650D01*
X116200Y94910D02*
X118290D01*
X78280Y85350D02*
X78350Y85420D01*
X92563D01*
X92861Y85121D01*
X96337D01*
X96636Y85420D01*
X100370D01*
X100470Y85520D01*
X100920Y103420D02*
X108060D01*
X108550Y102930D01*
X115220D01*
X117250Y100900D01*
X110815Y96414D02*
X110848Y96380D01*
X110815Y96414D02*
Y97375D01*
X111035Y97596D01*
X122096D01*
X123630Y99130D01*
Y107050D01*
X124156Y107576D01*
X124624D01*
Y108430D01*
X121630D02*
X124624D01*
X121200Y108000D02*
X121630Y108430D01*
X110540Y96650D02*
Y97440D01*
X110874Y97774D01*
X116700D01*
X117486Y98560D01*
X122140D01*
X123370Y99790D01*
Y105830D01*
X122200Y107000D02*
X123370Y105830D01*
X94600Y87100D02*
X95171Y87671D01*
Y88375D01*
X95325Y88529D01*
X104009D01*
X105200Y89720D01*
X106951D01*
X109250Y92020D01*
X110200D01*
X97170Y102250D02*
X106683D01*
X106930Y102497D01*
X107546D01*
X109790Y100253D01*
X111353D01*
X112200Y101100D01*
X89600Y96100D02*
X90070Y96570D01*
X93500D01*
X96020Y94050D01*
X99630D01*
X100090Y102839D02*
X100105Y102854D01*
X108070D01*
X108275Y102650D01*
X113200D01*
X88600Y95100D02*
X89040Y94660D01*
X94220D01*
X95210Y93670D01*
X104410D01*
X105540Y94800D01*
X115125D01*
X115250Y94925D01*
Y95195D01*
X114750Y95695D02*
X115250Y95195D01*
X91171Y100820D02*
X91580Y101229D01*
X106251D01*
X107921Y99559D01*
X118500D01*
X119190Y100249D01*
Y104010D01*
X116200Y107000D02*
X119190Y104010D01*
X96160Y100380D02*
X105420D01*
X107840Y97960D01*
X116160D01*
X116950Y98750D01*
X118600D01*
X119370Y99520D01*
Y104830D01*
X117200Y107000D02*
X119370Y104830D01*
X112860Y95070D02*
X115000D01*
X111500Y96630D02*
X112896D01*
X111304Y96826D02*
X111500Y96630D01*
X111304Y96826D02*
Y97393D01*
X111328Y97417D01*
X123237D01*
X124130Y98310D01*
Y105350D01*
X95460Y108500D02*
X96440Y109480D01*
X105820D01*
X92170Y98670D02*
X92600Y99100D01*
X92170Y97950D02*
Y98670D01*
X91750Y97530D02*
X92170Y97950D01*
X89325Y97530D02*
X91750D01*
X89170Y97375D02*
X89325Y97530D01*
X89170Y96750D02*
Y97375D01*
Y96750D02*
X89320Y96600D01*
X89770D01*
X89920Y96750D01*
X93755D01*
X96225Y94280D01*
X98610D01*
X98630Y94300D01*
X101800D01*
X102170Y94670D01*
X103875D01*
X104515Y95310D01*
X106950D01*
X113211Y109989D02*
X115200Y108000D01*
X68204Y109989D02*
X113211D01*
X70980Y87850D02*
X71670Y87160D01*
Y86875D02*
Y87160D01*
Y86875D02*
X71874Y86671D01*
X74671D01*
X75100Y87100D01*
X75570Y100840D02*
X75618Y100792D01*
X82042D01*
X82831Y101581D01*
X91150D01*
X91156Y101586D01*
X106884D01*
X108396Y100074D01*
X113184D01*
X115360Y102250D01*
X87270Y103400D02*
X87360Y103490D01*
X97960D01*
X98300Y103150D01*
X107770D01*
X107000Y102000D02*
X107019Y102019D01*
X92900Y102000D02*
X107000D01*
X92283Y102617D02*
X92900Y102000D01*
X90362Y102617D02*
X92283D01*
X90041Y102296D02*
X90362Y102617D01*
X87833Y102296D02*
X90041D01*
X87468Y102660D02*
X87833Y102296D01*
X86260Y102660D02*
X87468D01*
X86140Y102780D02*
X86260Y102660D01*
X50910Y65310D02*
X59820D01*
X60607Y66097D01*
X75643D01*
X75960Y65780D01*
X76380Y61750D02*
Y63160D01*
X84850Y87930D02*
X85200Y87580D01*
X90750D01*
X91030Y87300D01*
Y87000D02*
Y87300D01*
Y87000D02*
X91359Y86671D01*
X93993D01*
X94171Y86493D01*
X95029D01*
X95207Y86671D01*
X97778D01*
X98636Y87529D01*
X106509D01*
X106583Y87603D01*
X107016D01*
X107542Y88129D01*
Y88505D01*
X107959Y88921D01*
X108332D01*
X110020Y90610D01*
X116875D01*
X117010Y90475D01*
Y89780D02*
Y90475D01*
Y89780D02*
X120700Y86090D01*
X120800Y85496D01*
X121475D01*
X121604Y85625D01*
Y86250D01*
X121914Y86560D01*
X124420D01*
X125660Y87800D01*
X126750D01*
X127030Y87520D01*
X82090Y84760D02*
X82760Y84090D01*
X99430D01*
X100580Y82940D01*
X102690D01*
X102970Y82660D01*
X114360D01*
X114481Y82540D01*
X118102D01*
X118197Y82444D01*
X123906D01*
X124380Y81970D01*
X125390D01*
X125670Y82250D01*
Y82970D01*
X126100Y83400D01*
X78530Y83560D02*
X99470D01*
X100280Y82750D01*
X102120D01*
X102388Y82481D01*
X114110D01*
X114251Y82340D01*
X117570D01*
X117720Y82190D01*
Y81585D02*
Y82190D01*
Y81585D02*
X117875Y81430D01*
X118597D01*
X119247Y82080D01*
X123620D01*
X124730Y80970D01*
X125670D01*
X126100Y81400D01*
X76690Y99100D02*
X77100D01*
X76690D02*
Y99214D01*
X76375Y99529D02*
X76690Y99214D01*
X75824Y99529D02*
X76375D01*
X75670Y99375D02*
X75824Y99529D01*
X75670Y96640D02*
Y99375D01*
Y85241D02*
X77828D01*
X77966Y85103D01*
X78389D01*
X78527Y85241D01*
X92384D01*
X92683Y84942D01*
X96637D01*
X96855Y85160D01*
X109650D01*
X110050Y84760D01*
X113120D01*
X114020Y83860D01*
X116170D01*
X116875Y84565D01*
X118455D01*
X118530Y84490D01*
X124170D01*
X124510Y84830D01*
X126375D01*
X126530Y84675D01*
Y82830D02*
Y84675D01*
X126100Y82400D02*
X126530Y82830D01*
X106246Y80610D02*
X107060Y79796D01*
X116296D01*
X117100Y80600D01*
X93520Y89730D02*
X102222D01*
X103722Y91230D01*
X104820D01*
X106800Y87080D02*
X109005D01*
X109390Y87465D01*
X110045D01*
X110500Y87010D01*
X111590D01*
X112100Y86500D01*
Y85900D02*
Y86500D01*
Y85900D02*
X113720D01*
X113795Y85825D01*
X115910Y83506D02*
X116406D01*
X117100Y84200D01*
X93856Y100297D02*
X94021Y100133D01*
X105227D01*
X108135Y97225D01*
X109406D01*
X110500Y96131D01*
X116321D01*
X116450Y96260D01*
X116340Y83000D02*
X117100D01*
X107975Y98430D02*
X115930D01*
X105534Y100871D02*
X107975Y98430D01*
X94861Y100871D02*
X105534D01*
X94600Y100610D02*
X94861Y100871D01*
X59770Y68380D02*
X61270Y66880D01*
X75780D01*
X75630Y63330D02*
Y63490D01*
Y63330D02*
X75880Y63080D01*
Y61750D02*
Y63080D01*
X41540Y97420D02*
X41820Y97700D01*
X50330D01*
X51130Y98500D01*
Y99070D01*
X54432Y102372D01*
X68334D01*
X69362Y103400D01*
X70150D01*
X41470Y82870D02*
X43820D01*
X41090Y83250D02*
X41470Y82870D01*
X41090Y83250D02*
Y97710D01*
X41260Y97880D01*
X49520D01*
X50140Y98500D01*
Y99300D01*
X53390Y102550D01*
X68190D01*
X70290Y104650D01*
X71460D01*
X43820Y89130D02*
X45576D01*
X45790Y89344D01*
X58244D01*
X58803Y89902D01*
X82242D01*
X84610Y92270D01*
X43780Y87430D02*
X43910D01*
X43240Y85790D02*
X43780Y86330D01*
X43240Y83575D02*
Y85790D01*
Y83575D02*
X43375Y83440D01*
X49000D01*
X51050Y81390D01*
X54720D01*
X55250Y81920D01*
X55640D01*
X56170Y82450D01*
X59710D01*
X59870Y82610D01*
X65945D01*
X66695Y83360D01*
X78100D01*
X78160Y83300D01*
X86530D01*
X44052Y78490D02*
X50923D01*
X52250Y79817D01*
X60309D01*
X60542Y80050D01*
X85110D01*
X47500Y98070D02*
X48260Y98830D01*
Y99090D02*
X52360Y103190D01*
X68166D02*
X70383Y105407D01*
X75647D01*
X76847Y106393D02*
X77544Y105696D01*
X83371D01*
X40970Y98070D02*
X47500D01*
X48260Y98830D02*
Y99090D01*
X52360Y103190D02*
X68166D01*
X75647Y105407D02*
X75900Y105660D01*
Y106000D01*
X76293Y106393D01*
X76847D01*
X83371Y105696D02*
X84317Y104750D01*
X44250Y86660D02*
X44415Y86825D01*
X55568D01*
X57003Y88260D01*
X63280D01*
X64450Y89430D01*
X79840D01*
X80110Y89700D01*
X82350D01*
X82970Y90320D01*
X85440D01*
X85530Y90410D01*
Y92250D01*
X85810Y92530D01*
X102030D01*
X102600Y93100D01*
X43490Y83703D02*
X46247Y86460D01*
X56015D01*
X56999Y87444D01*
X69436D01*
X70268Y88276D01*
X72596D01*
X72940Y88620D01*
X83140D01*
X84160Y89640D01*
X86563D01*
X87584Y90661D01*
X102813D01*
X104522Y92370D01*
X104660D01*
X46793Y105690D02*
X47194Y106091D01*
X53291Y106911D02*
X61311D01*
X61460Y107060D01*
X74503Y107197D02*
X74790Y106910D01*
X44900Y86230D02*
X45310Y86640D01*
X55700D01*
X56980Y87920D01*
X63200D01*
X64350Y89070D01*
X79980D01*
X80360Y89450D01*
X43000Y104100D02*
Y104430D01*
X42470Y104960D02*
X43000Y104430D01*
X42470Y104960D02*
Y107850D01*
X42750Y108130D01*
X44330D01*
X44700Y108500D01*
X43000Y104100D02*
X56510D01*
X56700Y104290D01*
X68900D01*
X70350Y105740D01*
X74210D01*
X74890Y106420D01*
X75230D01*
X75560Y106750D01*
X77340D01*
X77380Y106710D01*
X86570D01*
X87600Y105680D01*
X99680D01*
X100230Y105130D01*
X105160D01*
X42900Y90500D02*
X43350Y90050D01*
X45180D01*
X47320Y92190D01*
X50700D01*
X56390Y68370D02*
X58306Y66454D01*
X76209D01*
X76489Y66734D01*
X80143D01*
X81364Y67955D01*
X101035D01*
X104310Y64680D01*
X113980D01*
X114800Y65500D01*
X45700Y107300D02*
X47330D01*
X52700Y98900D02*
X54017Y100217D01*
X66925D01*
X67736Y101028D01*
X71428D01*
X74800Y104400D01*
X79627D01*
X79911Y104116D01*
X87194D01*
X87626Y103684D01*
X98893D01*
X98938Y103638D01*
X100316D01*
X100355Y103678D01*
X108852D01*
X109150Y103380D01*
X56660Y70700D02*
X56910D01*
X60977Y66633D01*
X76030D01*
X76353Y66956D01*
X79677D01*
X80856Y68134D01*
X91374D01*
X93030Y69790D01*
X94958D01*
X95528Y69220D01*
X100420D01*
X100536Y69104D01*
X102625D01*
X102804Y68925D01*
Y68280D02*
Y68925D01*
Y68280D02*
X104274Y66810D01*
X106110D01*
X108030Y64890D01*
X110090D01*
X110800Y65600D01*
X81790Y67530D02*
X84257D01*
X87817Y63970D01*
X114640D01*
X115170Y64500D01*
Y65700D01*
X115000Y65870D02*
X115170Y65700D01*
X114530Y65870D02*
X115000D01*
X113800Y66600D02*
X114530Y65870D01*
X72100Y99100D02*
X72707Y99707D01*
X76707D01*
X76885Y99530D01*
X89170D01*
X89600Y99100D01*
X72100Y95100D02*
X78600D01*
X79030Y95530D01*
X88955D01*
X89040Y95445D01*
X89255D01*
X89600Y95100D01*
X71100Y94100D02*
X71530Y94530D01*
X88170D01*
X88600Y94100D01*
X86100Y92100D02*
X86530Y91670D01*
X103170D01*
X103600Y92100D01*
X74880Y61750D02*
Y63340D01*
X74700Y63520D02*
X74880Y63340D01*
X72100Y88800D02*
X82300D01*
X83530Y90030D01*
X86140D01*
X87370Y91260D01*
X98820D01*
X99680Y94720D02*
X100605Y95645D01*
X111025D01*
X111360Y95310D01*
X83330Y89230D02*
X83920Y89820D01*
X86200D01*
X87220Y90840D01*
X100210D01*
X100510Y91140D01*
X104730Y95060D02*
X111610D01*
X58700Y98900D02*
X59663Y99863D01*
X65373D01*
X65623Y99613D01*
X67194D01*
X68131Y100550D01*
X84112D01*
X84176Y100486D01*
X92706D01*
X93270Y101050D01*
X105653D01*
X107377Y99327D01*
X111419D01*
X111515Y99231D01*
X89600Y92100D02*
X101905D01*
X102335Y92530D01*
X104416D01*
X105076Y93190D01*
X109120D01*
X109610Y92700D01*
X89600Y87100D02*
X89903D01*
X90481Y86522D01*
X91033D01*
X91062Y86493D01*
X93814D01*
X93993Y86314D01*
X95207D01*
X95386Y86493D01*
X98029D01*
X98207Y86671D01*
X103875D01*
X104514Y87310D01*
X106559D01*
X106673Y87424D01*
X107153D01*
X107439Y87710D01*
X110590D01*
X43740Y97440D02*
X58570D01*
X59130Y98000D01*
Y99000D01*
X59814Y99684D01*
X65194D01*
X65444Y99434D01*
X67406D01*
X68037Y100065D01*
X79640D01*
X79665Y100039D01*
X93442D01*
X93706Y99776D01*
X96664D01*
X97030Y99410D01*
Y98530D02*
Y99410D01*
X96600Y98100D02*
X97030Y98530D01*
X41500Y92600D02*
X42090D01*
X42098Y92592D01*
X42700D01*
X43900Y92600D02*
X44490D01*
X44498Y92592D01*
X45100D01*
X45700D01*
X45792Y92500D01*
X46400D01*
X104100Y72392D02*
X104598D01*
X104820Y72170D01*
X105810D01*
X102800Y72392D02*
X103248Y72840D01*
X105160D01*
X105400Y72600D01*
X107400Y74600D01*
X109400D01*
X61050Y65584D02*
X61180Y65454D01*
X73106D01*
X73212Y65561D01*
X74971D01*
X75356Y65176D01*
X76564D01*
X76994Y65606D01*
X82238D01*
X82913Y64930D01*
X86320D01*
X87560Y63690D01*
X123490D01*
X126530Y66730D01*
Y72170D01*
X126100Y72600D02*
X126530Y72170D01*
X61765Y83900D02*
X77957D01*
X79120Y85063D01*
X82597D01*
X83160Y84500D01*
X100960D01*
X101950Y83510D01*
X102460D01*
X103040Y82930D01*
X115750D01*
X116135Y83315D01*
X116515D01*
X116570Y83370D01*
X118290D01*
X118540Y83120D01*
X62800Y94500D02*
X63630Y93670D01*
X85530D01*
X86100Y93100D01*
X62800Y93500D02*
X63630Y92670D01*
X84930D01*
X85100Y92500D01*
Y92100D02*
Y92500D01*
X107500Y81500D02*
X107724Y81276D01*
X111150D01*
X111480Y79180D02*
X115290D01*
X117280Y77190D01*
X118750D01*
X119020Y76920D01*
Y73700D02*
Y76920D01*
Y73700D02*
X121120Y71600D01*
X125100D01*
X106963Y86180D02*
X107790D01*
X108210Y85760D01*
X109830D01*
X110650Y84940D01*
X114960D01*
X115500Y84400D01*
X116000Y84900D01*
X119600D01*
X102600Y97100D02*
X103100Y96600D01*
X108050D01*
X108698Y95952D01*
X117875D01*
X118540Y95287D01*
Y92560D02*
Y95287D01*
Y92560D02*
X121200Y89900D01*
X122200D01*
X57600Y75000D02*
X57833Y74767D01*
Y74500D02*
Y74767D01*
Y74500D02*
X58094Y74238D01*
X59040D01*
X59218Y74417D01*
X64731D01*
X65661Y75348D01*
X72682D01*
X73051Y74979D01*
X76771D01*
X76945Y74805D01*
X58600Y75000D02*
X60106Y76506D01*
X73501D01*
X73786Y76220D01*
X77553D01*
X59230Y75000D02*
X59600D01*
X58826Y74596D02*
X59230Y75000D01*
X58354Y74596D02*
X58826D01*
X58190Y74760D02*
X58354Y74596D01*
X58190Y74760D02*
Y75410D01*
X59464Y76684D01*
X74021D01*
X74306Y76399D01*
X75988D01*
X76161Y76573D01*
X77967D01*
X78200Y76340D01*
X58800Y91500D02*
X59217Y91083D01*
X66480D01*
X66550Y91153D01*
X83143D01*
X84100Y92110D01*
X82690Y97100D02*
X85100D01*
X58800Y92500D02*
X61300Y95000D01*
X63360D01*
X63540Y95180D01*
X67480D01*
X67989Y94671D01*
X71375D01*
X71579Y94875D01*
Y95250D01*
X71929Y95600D01*
X75839D01*
X76909Y96670D01*
X85670D01*
X86100Y97100D01*
X52410Y77390D02*
X52818D01*
X54838Y79410D01*
X66486D01*
X67120Y78776D01*
X68030D01*
X68197Y78943D01*
X86783D01*
X87000Y79160D01*
X56410Y82070D02*
X56605Y82265D01*
X60875D01*
X61014Y82404D01*
X66414D01*
X67190Y83180D01*
X77950D01*
X78080Y83050D01*
X79000D01*
X57190Y76760D02*
X57485Y77055D01*
X74875D01*
X74970Y76960D01*
X51040Y72800D02*
X52000D01*
X50840Y73000D02*
X51040Y72800D01*
X50840Y73000D02*
Y73520D01*
X51000Y73680D01*
X51316D01*
X51600Y73396D01*
X55384D01*
X55490Y73290D01*
X57500D01*
X58091Y73881D01*
X59436D01*
X59615Y74059D01*
X67540D01*
X68471Y74990D01*
X71428D01*
X72110Y74308D01*
X74206D01*
X52000Y77390D02*
Y77800D01*
Y77390D02*
X52250Y77140D01*
X52840D01*
X53920Y78220D01*
X60100D01*
X60500Y78620D01*
X66488D01*
X66690Y78418D01*
X71582D01*
X71720Y78557D01*
X72443D01*
X72510Y78490D01*
X53590Y71760D02*
X53954Y71396D01*
X58165D01*
X60221Y73452D01*
X68980D01*
X69503Y73975D01*
X71820D01*
X72365Y73430D01*
X75250D01*
X75530Y73710D01*
X74994Y74246D02*
X75530Y73710D01*
X52000Y75800D02*
X53434Y77234D01*
X67285D01*
X67815Y77763D01*
X75157D01*
X75590Y77330D01*
X51212Y73422D02*
X51417Y73217D01*
X54563D01*
X55470Y72310D01*
X58732D01*
X60124Y73702D01*
X68060D01*
X68625Y74267D01*
X71884D01*
X72471Y73680D01*
X75135D01*
X53340Y75140D02*
X53404Y75204D01*
X56638D01*
X58297Y76863D01*
X74199D01*
X74415Y76647D01*
X75878D01*
X76128Y76897D01*
X76372D01*
X52000Y74800D02*
X55346D01*
X55750Y74396D01*
X56341D01*
X57350Y75404D01*
X57875D01*
X58011Y75268D01*
Y74625D02*
Y75268D01*
Y74625D02*
X58219Y74417D01*
X58900D01*
X59079Y74596D01*
X60850D01*
X62084Y75830D01*
X74116D01*
X74582Y75364D01*
X77156D01*
X77410Y75110D01*
Y74370D02*
Y75110D01*
X77221Y74181D02*
X77410Y74370D01*
X76570Y74181D02*
X77221D01*
X71450Y68650D02*
X72332Y67768D01*
X74471D01*
X75104Y67134D01*
X76644D01*
X91073Y68313D02*
X93460Y70700D01*
X77823Y68313D02*
X91073D01*
X93460Y70700D02*
X94100D01*
X94405D01*
X95589Y69516D01*
X102300D01*
X102750D01*
X103236Y69030D01*
X103970D01*
X105500Y67500D01*
X104584Y66400D02*
X105500D01*
X104100Y65916D02*
X104584Y66400D01*
X71990Y73003D02*
X79724D01*
X79850Y72877D01*
X95967D01*
X97050Y73960D01*
X103910D01*
X96260Y72070D02*
X96700Y71630D01*
X74120Y72070D02*
X96260D01*
X96700Y71630D02*
X100741D01*
X101460Y70911D01*
X94566Y76804D02*
X95500Y75870D01*
X77124Y76804D02*
X94566D01*
X93570Y75690D02*
X93610Y75730D01*
Y76375D01*
X93475Y76510D02*
X93610Y76375D01*
X87252Y76510D02*
X93475D01*
X86287Y75545D02*
X87252Y76510D01*
X85158Y75545D02*
X86287D01*
X84982Y75722D02*
X85158Y75545D01*
X76543Y75722D02*
X84982D01*
X76297Y75968D02*
X76543Y75722D01*
X75978Y75968D02*
X76297D01*
X86155Y75965D02*
X86220Y75900D01*
X76765Y75965D02*
X86155D01*
X72435Y77391D02*
X75035D01*
X75343Y77083D01*
X76125D01*
X76731Y77690D01*
X94400D01*
X94790Y77300D01*
X95731D01*
X72238Y74572D02*
X75183D01*
X75958Y73797D01*
Y73501D02*
Y73797D01*
Y73501D02*
X76099Y73361D01*
X92441D01*
X93660Y74580D01*
X94400Y78910D02*
X94790Y79300D01*
X95716D01*
X93790Y78910D02*
X94400D01*
X93200Y79500D02*
X93790Y78910D01*
X93200Y79500D02*
Y80100D01*
X67600Y79200D02*
X70757D01*
X58200Y73490D02*
X59516D01*
X59906Y73881D01*
X67905D01*
X68715Y74690D01*
X71350D01*
X71400Y76327D02*
X71647Y76080D01*
X62207Y76327D02*
X71400D01*
X61960Y76080D02*
X62207Y76327D01*
X63200Y78000D02*
X63604Y77596D01*
X66604D01*
X67248Y78240D01*
X72150D01*
X72220Y78310D01*
X125100Y70600D02*
X126100D01*
X125700Y95900D02*
X127100D01*
X127600D01*
X127700Y95800D01*
X128200D01*
X44602Y83962D02*
X46250Y85610D01*
X55570D01*
X56930Y86970D01*
X69356D01*
X70483Y88097D01*
X71943D01*
X72510Y87530D01*
X73375D01*
X73635Y87270D01*
X73930D01*
X74100Y87100D01*
X44070Y77240D02*
X45040Y78210D01*
X53220D01*
X54648Y79638D01*
X60390D01*
X60462Y79710D01*
X90910D01*
X118200Y107000D02*
X123120Y102080D01*
X47516Y105360D02*
X47666Y105510D01*
X63090D01*
X63700Y104900D01*
X43570Y90430D02*
X45003D01*
X47033Y92460D01*
X54340D01*
X58000Y96120D01*
X62890D01*
X65250Y98480D01*
X98620Y104340D02*
X98956D01*
X99300Y103996D01*
X99936D01*
X100000Y104060D01*
X101220D01*
X101870Y104710D01*
X102465D01*
X103125Y104050D01*
X114660D01*
X115000Y103710D01*
X91600Y88100D02*
X92170Y87530D01*
X93891D01*
X94171Y87250D01*
Y86875D02*
Y87250D01*
Y86875D02*
X94375Y86671D01*
X94780D01*
X95170Y87061D01*
Y87375D01*
X95325Y87530D01*
X98320D01*
X98500Y87710D01*
X106370D01*
X106441Y87781D01*
X106720D01*
X107360Y88421D01*
Y88578D01*
X109562Y90780D01*
X109960D01*
X110800Y91620D01*
Y93875D01*
X110925Y94000D01*
X112350D01*
X112417Y93933D01*
X116530D01*
X120973Y89490D01*
X123690D01*
X124590Y90390D01*
X126500D01*
X127030Y90920D01*
Y92680D01*
X126746Y92963D02*
X127030Y92680D01*
X125487Y92963D02*
X126746D01*
X124950Y93500D02*
X125487Y92963D01*
X124950Y93500D02*
Y106250D01*
X124200Y107000D02*
X124950Y106250D01*
X73322Y63200D02*
X74000D01*
X73087Y62965D02*
X73284Y63162D01*
X73087Y62900D02*
Y62965D01*
X73247Y63125D02*
X73322Y63200D01*
D65*
X80380Y61750D02*
D03*
X79880D02*
D03*
X86880D02*
D03*
X86380D02*
D03*
X85880D02*
D03*
X85380D02*
D03*
X84880D02*
D03*
X84380D02*
D03*
X83880D02*
D03*
X83380D02*
D03*
X82880D02*
D03*
X82380D02*
D03*
X81880D02*
D03*
X79380D02*
D03*
X78880D02*
D03*
X78380D02*
D03*
X77880D02*
D03*
X77380D02*
D03*
X76880D02*
D03*
X76380D02*
D03*
X75880D02*
D03*
X75380D02*
D03*
X74880D02*
D03*
X74380D02*
D03*
X73880D02*
D03*
X73380D02*
D03*
X72880D02*
D03*
X72380D02*
D03*
X71880D02*
D03*
X71380D02*
D03*
X70880D02*
D03*
X70380D02*
D03*
X69880D02*
D03*
X69380D02*
D03*
X68880D02*
D03*
X68380D02*
D03*
X67880D02*
D03*
X67380D02*
D03*
X66880D02*
D03*
X66380D02*
D03*
X65880D02*
D03*
X65380D02*
D03*
X64880D02*
D03*
X64380D02*
D03*
X63880D02*
D03*
X63380D02*
D03*
X62880D02*
D03*
X61380D02*
D03*
X60880D02*
D03*
X60380D02*
D03*
X59880D02*
D03*
X59380D02*
D03*
X58880D02*
D03*
X58380D02*
D03*
X57880D02*
D03*
X57380D02*
D03*
X56880D02*
D03*
X56380D02*
D03*
D66*
X48130Y70830D02*
X50300Y73000D01*
X49480Y73820D02*
X50300Y73000D01*
X48610Y73820D02*
X49480D01*
X48376Y73586D02*
X48610Y73820D01*
X125700Y93900D02*
X127100D01*
D68*
X43654Y67938D02*
D03*
X41254D02*
D03*
X88600Y99100D02*
D03*
X89600D02*
D03*
Y98100D02*
D03*
X88600D02*
D03*
X90600D02*
D03*
Y99100D02*
D03*
X91600Y98100D02*
D03*
Y99100D02*
D03*
X92600Y98100D02*
D03*
Y99100D02*
D03*
X93600D02*
D03*
Y98100D02*
D03*
X94600Y99100D02*
D03*
Y98100D02*
D03*
X97600Y99100D02*
D03*
Y98100D02*
D03*
X95600D02*
D03*
X96600D02*
D03*
Y99100D02*
D03*
X95600D02*
D03*
X102600Y98100D02*
D03*
X103600Y99100D02*
D03*
Y98100D02*
D03*
X89600Y97100D02*
D03*
X88600D02*
D03*
X89600Y96100D02*
D03*
X88600D02*
D03*
X89600Y92100D02*
D03*
X88600D02*
D03*
X89600Y93100D02*
D03*
X88600D02*
D03*
Y94100D02*
D03*
X89600D02*
D03*
X88600Y95100D02*
D03*
X89600D02*
D03*
Y87100D02*
D03*
X88600D02*
D03*
X103600D02*
D03*
X95600Y88100D02*
D03*
X96600D02*
D03*
Y87100D02*
D03*
X95600D02*
D03*
X97600D02*
D03*
X94600D02*
D03*
Y88100D02*
D03*
X93600Y87100D02*
D03*
Y88100D02*
D03*
X92600D02*
D03*
Y87100D02*
D03*
X91600Y88100D02*
D03*
Y87100D02*
D03*
X90600Y88100D02*
D03*
Y87100D02*
D03*
X103600Y95100D02*
D03*
X102600D02*
D03*
X103600Y94100D02*
D03*
X102600D02*
D03*
Y93100D02*
D03*
X103600D02*
D03*
X102600Y92100D02*
D03*
X103600D02*
D03*
X102600Y91100D02*
D03*
Y96100D02*
D03*
X103600D02*
D03*
X102600Y97100D02*
D03*
X103600D02*
D03*
X86100D02*
D03*
X85100D02*
D03*
X86100Y96100D02*
D03*
X85100D02*
D03*
Y91100D02*
D03*
X86100Y92100D02*
D03*
X85100D02*
D03*
X86100Y93100D02*
D03*
X85100D02*
D03*
Y94100D02*
D03*
X86100D02*
D03*
X85100Y95100D02*
D03*
X86100D02*
D03*
X73100Y87100D02*
D03*
Y88100D02*
D03*
X74100Y87100D02*
D03*
Y88100D02*
D03*
X75100Y87100D02*
D03*
Y88100D02*
D03*
X76100D02*
D03*
Y87100D02*
D03*
X77100Y88100D02*
D03*
Y87100D02*
D03*
X80100D02*
D03*
X78100D02*
D03*
X79100D02*
D03*
Y88100D02*
D03*
X78100D02*
D03*
X86100Y87100D02*
D03*
X71100D02*
D03*
X72100D02*
D03*
Y95100D02*
D03*
X71100D02*
D03*
X72100Y94100D02*
D03*
X71100D02*
D03*
Y93100D02*
D03*
X72100D02*
D03*
X71100Y92100D02*
D03*
X72100D02*
D03*
X71100Y96100D02*
D03*
X72100D02*
D03*
X71100Y97100D02*
D03*
X72100D02*
D03*
X86100Y98100D02*
D03*
Y99100D02*
D03*
X85100Y98100D02*
D03*
X78100Y99100D02*
D03*
X79100D02*
D03*
Y98100D02*
D03*
X78100D02*
D03*
X80100D02*
D03*
Y99100D02*
D03*
X77100Y98100D02*
D03*
Y99100D02*
D03*
X76100Y98100D02*
D03*
Y99100D02*
D03*
X75100D02*
D03*
Y98100D02*
D03*
X74100Y99100D02*
D03*
Y98100D02*
D03*
X73100Y99100D02*
D03*
Y98100D02*
D03*
X71100D02*
D03*
X72100D02*
D03*
Y99100D02*
D03*
X71100D02*
D03*
X103200Y107500D02*
D03*
X126200D02*
D03*
D69*
X94200Y73500D02*
D03*
Y74500D02*
D03*
X94100Y70700D02*
D03*
Y71700D02*
D03*
X123500Y65800D02*
D03*
Y66800D02*
D03*
X120400Y69800D02*
D03*
Y71800D02*
D03*
X115100Y75900D02*
D03*
Y74900D02*
D03*
X101900Y81300D02*
D03*
Y82300D02*
D03*
X100700Y81300D02*
D03*
Y82300D02*
D03*
X122100Y66900D02*
D03*
Y65900D02*
D03*
X128200Y94800D02*
D03*
Y95800D02*
D03*
X116100Y65500D02*
D03*
Y66500D02*
D03*
X70700Y81300D02*
D03*
Y82300D02*
D03*
X69400Y81300D02*
D03*
Y82300D02*
D03*
X50300Y73000D02*
D03*
Y74000D02*
D03*
X65400Y106300D02*
D03*
X66400D02*
D03*
X118500Y66900D02*
D03*
Y65900D02*
D03*
X117300Y66900D02*
D03*
Y65900D02*
D03*
X46800Y74100D02*
D03*
Y73100D02*
D03*
X44900Y89500D02*
D03*
Y88500D02*
D03*
X59500Y81900D02*
D03*
Y82900D02*
D03*
X80600Y103500D02*
D03*
Y104500D02*
D03*
X125000Y66300D02*
D03*
X127000D02*
D03*
X97900Y106800D02*
D03*
X96900D02*
D03*
X48300Y84800D02*
D03*
X47300D02*
D03*
X109800Y87100D02*
D03*
Y88100D02*
D03*
X109300Y78700D02*
D03*
Y77700D02*
D03*
X114800Y65500D02*
D03*
Y66500D02*
D03*
X111800Y84300D02*
D03*
Y83300D02*
D03*
X42100Y106300D02*
D03*
X43100D02*
D03*
X42900Y90500D02*
D03*
X41900D02*
D03*
X114200Y83300D02*
D03*
Y84300D02*
D03*
X113000Y83300D02*
D03*
Y84300D02*
D03*
X109400Y83300D02*
D03*
Y84300D02*
D03*
X110600Y83300D02*
D03*
Y84300D02*
D03*
X45700Y108500D02*
D03*
X44700D02*
D03*
X65600Y107800D02*
D03*
X66600D02*
D03*
X45700Y107300D02*
D03*
X44700D02*
D03*
X42100Y107500D02*
D03*
Y108500D02*
D03*
X43300Y107500D02*
D03*
Y108500D02*
D03*
X116900Y79300D02*
D03*
Y78300D02*
D03*
X118100Y79300D02*
D03*
Y78300D02*
D03*
X120400Y68000D02*
D03*
Y66000D02*
D03*
X118100Y80600D02*
D03*
X117100D02*
D03*
X118100Y81800D02*
D03*
X117100D02*
D03*
X118100Y83000D02*
D03*
X117100D02*
D03*
X118100Y84200D02*
D03*
X117100D02*
D03*
X63800Y85600D02*
D03*
Y86600D02*
D03*
X87200Y108800D02*
D03*
X86200D02*
D03*
Y107500D02*
D03*
X87200D02*
D03*
X62600Y85600D02*
D03*
Y86600D02*
D03*
X65000Y85600D02*
D03*
Y86600D02*
D03*
X45800Y67000D02*
D03*
Y68000D02*
D03*
X61400Y85600D02*
D03*
Y86600D02*
D03*
X115200Y78500D02*
D03*
Y77500D02*
D03*
X122000Y74500D02*
D03*
Y75500D02*
D03*
Y77900D02*
D03*
Y76900D02*
D03*
X100800Y107800D02*
D03*
Y106800D02*
D03*
X68700Y108700D02*
D03*
Y107700D02*
D03*
X69900D02*
D03*
Y108700D02*
D03*
X100800Y105500D02*
D03*
Y104500D02*
D03*
D70*
X127100Y93900D02*
D03*
Y95900D02*
D03*
Y94900D02*
D03*
Y96900D02*
D03*
D71*
X125086Y89894D02*
D03*
Y90878D02*
D03*
Y89106D02*
D03*
X43050Y63894D02*
D03*
Y62122D02*
D03*
Y63106D02*
D03*
D72*
X125086Y88122D02*
D03*
X43050Y64878D02*
D03*
D73*
X126153Y86913D02*
D03*
Y92087D02*
D03*
X41983Y60913D02*
D03*
Y66087D02*
D03*
D74*
X102284Y84100D02*
D03*
X104200Y69616D02*
D03*
X57400Y81416D02*
D03*
X55500D02*
D03*
X56500Y90484D02*
D03*
X46500Y90084D02*
D03*
X48100Y93116D02*
D03*
X123200Y83584D02*
D03*
X48684Y77500D02*
D03*
X46716Y79300D02*
D03*
X116700Y86916D02*
D03*
X112500Y88284D02*
D03*
X48684Y75700D02*
D03*
X118616Y76700D02*
D03*
X52400Y108784D02*
D03*
X115500Y67516D02*
D03*
X106216Y69200D02*
D03*
X55984Y94800D02*
D03*
X56716Y108400D02*
D03*
X55884D02*
D03*
X115400Y72284D02*
D03*
X106216Y71100D02*
D03*
X50216Y94800D02*
D03*
X63916Y94500D02*
D03*
X84800Y82784D02*
D03*
X67900D02*
D03*
X63916Y96400D02*
D03*
X82400Y105184D02*
D03*
X63916Y90300D02*
D03*
Y92200D02*
D03*
X83000Y82784D02*
D03*
X81200D02*
D03*
X79400D02*
D03*
X77600D02*
D03*
X75800D02*
D03*
X74000D02*
D03*
X72200D02*
D03*
X108384Y90500D02*
D03*
Y88500D02*
D03*
X95684Y107000D02*
D03*
X108384Y86200D02*
D03*
Y84300D02*
D03*
X86600Y82784D02*
D03*
X88400D02*
D03*
X90200D02*
D03*
X92000D02*
D03*
X93800D02*
D03*
X95600D02*
D03*
X97400D02*
D03*
X99200D02*
D03*
X103516Y83400D02*
D03*
X121584Y79600D02*
D03*
Y83300D02*
D03*
X126000Y105484D02*
D03*
X121684Y81500D02*
D03*
X98900Y75484D02*
D03*
X102484Y79300D02*
D03*
X100800Y75484D02*
D03*
X98916Y77000D02*
D03*
X97700Y77300D02*
D03*
X97684Y79300D02*
D03*
X104100Y67884D02*
D03*
X102300Y71484D02*
D03*
D75*
X100316Y84100D02*
D03*
X46716Y77500D02*
D03*
X48684Y79300D02*
D03*
X46716Y75700D02*
D03*
X120584Y76700D02*
D03*
X108184Y69200D02*
D03*
X54016Y94800D02*
D03*
X58684Y108400D02*
D03*
X53916D02*
D03*
X108184Y71100D02*
D03*
X52184Y94800D02*
D03*
X65884Y94500D02*
D03*
Y96400D02*
D03*
Y90300D02*
D03*
Y92200D02*
D03*
X106416Y90500D02*
D03*
Y88500D02*
D03*
X93716Y107000D02*
D03*
X106416Y86200D02*
D03*
Y84300D02*
D03*
X105484Y83400D02*
D03*
X119616Y79600D02*
D03*
Y83300D02*
D03*
X119716Y81500D02*
D03*
X100516Y79300D02*
D03*
X100884Y77000D02*
D03*
X95731Y77300D02*
D03*
X95716Y79300D02*
D03*
D76*
X104200Y71584D02*
D03*
X57400Y83384D02*
D03*
X55500D02*
D03*
X56500Y88516D02*
D03*
X46500Y88116D02*
D03*
X48100Y95084D02*
D03*
X123200Y81616D02*
D03*
X116700Y88884D02*
D03*
X112500Y86316D02*
D03*
X52400Y106816D02*
D03*
X115500Y69484D02*
D03*
X115400Y70316D02*
D03*
X84800Y80816D02*
D03*
X67900D02*
D03*
X82400Y103216D02*
D03*
X83000Y80816D02*
D03*
X81200D02*
D03*
X79400D02*
D03*
X77600D02*
D03*
X75800D02*
D03*
X74000D02*
D03*
X72200D02*
D03*
X86600D02*
D03*
X88400D02*
D03*
X90200D02*
D03*
X92000D02*
D03*
X93800D02*
D03*
X95600D02*
D03*
X97400D02*
D03*
X99200D02*
D03*
X126000Y103516D02*
D03*
X98900Y73516D02*
D03*
X100800D02*
D03*
X104100Y65916D02*
D03*
X102300Y69516D02*
D03*
D77*
X103400Y80200D02*
D03*
X107400D02*
D03*
X92900Y102900D02*
D03*
X96900D02*
D03*
X52000Y87500D02*
D03*
Y91500D02*
D03*
X50700Y84400D02*
D03*
X54700D02*
D03*
X53000Y87500D02*
D03*
Y91500D02*
D03*
X109400Y75700D02*
D03*
X105400D02*
D03*
X51000Y87500D02*
D03*
Y91500D02*
D03*
X59700Y80400D02*
D03*
X55700D02*
D03*
X50800D02*
D03*
X54800D02*
D03*
X55000Y87500D02*
D03*
Y91500D02*
D03*
X55700Y84400D02*
D03*
X59700D02*
D03*
X54000Y91500D02*
D03*
Y87500D02*
D03*
X50900Y75400D02*
D03*
Y79400D02*
D03*
X49800Y75400D02*
D03*
Y79400D02*
D03*
X119200Y90000D02*
D03*
Y86000D02*
D03*
X127700Y74700D02*
D03*
Y70700D02*
D03*
X111000Y85700D02*
D03*
Y89700D02*
D03*
X45800Y75400D02*
D03*
Y79400D02*
D03*
Y84500D02*
D03*
Y80500D02*
D03*
X112600Y90200D02*
D03*
X116600D02*
D03*
X118100Y90000D02*
D03*
Y86000D02*
D03*
X49800Y80500D02*
D03*
Y84500D02*
D03*
X66500Y104800D02*
D03*
Y100800D02*
D03*
X120400Y74200D02*
D03*
X116400D02*
D03*
X120400Y73200D02*
D03*
X116400D02*
D03*
X64300Y108500D02*
D03*
X60300D02*
D03*
X43900Y96600D02*
D03*
Y92600D02*
D03*
X64300Y107500D02*
D03*
X60300D02*
D03*
X46400Y96500D02*
D03*
Y92500D02*
D03*
X41500Y96600D02*
D03*
Y92600D02*
D03*
X120400Y75200D02*
D03*
X116400D02*
D03*
X109400Y73600D02*
D03*
X105400D02*
D03*
X109400Y72600D02*
D03*
X105400D02*
D03*
X64400Y106300D02*
D03*
X60400D02*
D03*
X109400Y74600D02*
D03*
X105400D02*
D03*
X56000Y69600D02*
D03*
X52000D02*
D03*
Y70700D02*
D03*
X56000D02*
D03*
X50700Y69800D02*
D03*
X46700D02*
D03*
X117300Y68000D02*
D03*
Y72000D02*
D03*
X58800Y91500D02*
D03*
X62800D02*
D03*
X46700Y70800D02*
D03*
X50700D02*
D03*
X46700Y71800D02*
D03*
X50700D02*
D03*
X58800Y92500D02*
D03*
X62800D02*
D03*
X118500Y68000D02*
D03*
Y72000D02*
D03*
X58800Y95500D02*
D03*
X62800D02*
D03*
Y90500D02*
D03*
X58800D02*
D03*
Y94500D02*
D03*
X62800D02*
D03*
X58800Y93500D02*
D03*
X62800D02*
D03*
X77800Y102100D02*
D03*
Y106100D02*
D03*
X58800Y89300D02*
D03*
X62800D02*
D03*
X48000Y64400D02*
D03*
Y68400D02*
D03*
X65200Y84500D02*
D03*
X61200D02*
D03*
X47000Y68400D02*
D03*
Y64400D02*
D03*
X89100Y109200D02*
D03*
Y105200D02*
D03*
X69800Y106200D02*
D03*
X73800D02*
D03*
Y102600D02*
D03*
X69800D02*
D03*
X123300Y69300D02*
D03*
Y73300D02*
D03*
X123200Y85900D02*
D03*
Y89900D02*
D03*
X55000Y68400D02*
D03*
Y64400D02*
D03*
X54000Y68400D02*
D03*
Y64400D02*
D03*
X53000D02*
D03*
Y68400D02*
D03*
X52000Y64400D02*
D03*
Y68400D02*
D03*
X51000Y64400D02*
D03*
Y68400D02*
D03*
X50000D02*
D03*
Y64400D02*
D03*
X49000D02*
D03*
Y68400D02*
D03*
X97600Y108900D02*
D03*
X93600D02*
D03*
X121800Y68200D02*
D03*
X125800D02*
D03*
X123600Y78400D02*
D03*
Y74400D02*
D03*
X121900Y73300D02*
D03*
Y69300D02*
D03*
X99700Y104400D02*
D03*
Y108400D02*
D03*
X92700Y104900D02*
D03*
Y108900D02*
D03*
X107500Y81500D02*
D03*
X103500D02*
D03*
X123600Y84900D02*
D03*
X119600D02*
D03*
X88000Y106200D02*
D03*
X84000D02*
D03*
X115500Y80400D02*
D03*
Y84400D02*
D03*
X84000Y102700D02*
D03*
X88000D02*
D03*
X102100Y108300D02*
D03*
Y104300D02*
D03*
X122200Y85900D02*
D03*
Y89900D02*
D03*
X121200Y85900D02*
D03*
Y89900D02*
D03*
X56000Y71800D02*
D03*
X52000D02*
D03*
X56000Y72800D02*
D03*
X52000D02*
D03*
X56000Y73800D02*
D03*
X52000D02*
D03*
X56000Y74800D02*
D03*
X52000D02*
D03*
X56000Y75800D02*
D03*
X52000D02*
D03*
X56000Y76800D02*
D03*
X52000D02*
D03*
X63200Y82000D02*
D03*
Y78000D02*
D03*
X56000Y77800D02*
D03*
X52000D02*
D03*
X56000Y78800D02*
D03*
X52000D02*
D03*
X62200Y82000D02*
D03*
Y78000D02*
D03*
X61200Y82000D02*
D03*
Y78000D02*
D03*
X107300Y77600D02*
D03*
X103300D02*
D03*
X103400Y78900D02*
D03*
X107400D02*
D03*
X66200Y78000D02*
D03*
Y82000D02*
D03*
X102400Y64700D02*
D03*
Y68700D02*
D03*
X65200Y78000D02*
D03*
Y82000D02*
D03*
X101400Y64700D02*
D03*
Y68700D02*
D03*
X96400Y66500D02*
D03*
X100400D02*
D03*
X96400Y67500D02*
D03*
X100400D02*
D03*
X64200Y78000D02*
D03*
Y82000D02*
D03*
X96400Y68500D02*
D03*
X100400D02*
D03*
X65800Y83100D02*
D03*
X61800D02*
D03*
X59600Y75000D02*
D03*
Y79000D02*
D03*
X58600Y75000D02*
D03*
Y79000D02*
D03*
X57600Y75000D02*
D03*
Y79000D02*
D03*
X93200Y80100D02*
D03*
Y76100D02*
D03*
X109500Y67500D02*
D03*
X105500D02*
D03*
X109500Y66400D02*
D03*
X105500D02*
D03*
X109500Y65300D02*
D03*
X105500D02*
D03*
X57200Y73700D02*
D03*
Y69700D02*
D03*
D78*
X125100Y74600D02*
D03*
X126100D02*
D03*
X125100Y73600D02*
D03*
X126100D02*
D03*
X125100Y72600D02*
D03*
X126100D02*
D03*
X125100Y71600D02*
D03*
X126100D02*
D03*
X125100Y70600D02*
D03*
X105200Y107000D02*
D03*
Y108000D02*
D03*
X106200Y107000D02*
D03*
Y108000D02*
D03*
X107200Y107000D02*
D03*
Y108000D02*
D03*
X108200Y107000D02*
D03*
Y108000D02*
D03*
X109200Y107000D02*
D03*
Y108000D02*
D03*
X110200Y107000D02*
D03*
Y108000D02*
D03*
X111200Y107000D02*
D03*
Y108000D02*
D03*
X112200Y107000D02*
D03*
Y108000D02*
D03*
X113200Y107000D02*
D03*
Y108000D02*
D03*
X114200Y107000D02*
D03*
Y108000D02*
D03*
X115200Y107000D02*
D03*
Y108000D02*
D03*
X116200Y107000D02*
D03*
Y108000D02*
D03*
X117200Y107000D02*
D03*
Y108000D02*
D03*
X118200Y107000D02*
D03*
Y108000D02*
D03*
X119200Y107000D02*
D03*
Y108000D02*
D03*
X120200Y107000D02*
D03*
Y108000D02*
D03*
X121200Y107000D02*
D03*
Y108000D02*
D03*
X122200Y107000D02*
D03*
Y108000D02*
D03*
X123200Y107000D02*
D03*
Y108000D02*
D03*
X124200Y107000D02*
D03*
X125700Y93900D02*
D03*
Y94900D02*
D03*
Y95900D02*
D03*
X42000Y100100D02*
D03*
X43000Y101100D02*
D03*
X42000D02*
D03*
X43000Y102100D02*
D03*
X42000D02*
D03*
X43000Y103100D02*
D03*
X42000D02*
D03*
X43000Y104100D02*
D03*
X42000D02*
D03*
X109400Y81700D02*
D03*
X110400Y80700D02*
D03*
Y81700D02*
D03*
X111400Y80700D02*
D03*
Y81700D02*
D03*
X112400Y80700D02*
D03*
Y81700D02*
D03*
X113400Y80700D02*
D03*
Y81700D02*
D03*
X126100Y78400D02*
D03*
Y79400D02*
D03*
Y80400D02*
D03*
Y81400D02*
D03*
Y82400D02*
D03*
Y83400D02*
D03*
Y84400D02*
D03*
X125100Y77400D02*
D03*
Y78400D02*
D03*
Y79400D02*
D03*
Y80400D02*
D03*
Y81400D02*
D03*
Y82400D02*
D03*
Y83400D02*
D03*
Y84400D02*
D03*
X84400Y107800D02*
D03*
X83400Y108800D02*
D03*
Y107800D02*
D03*
X82400Y108800D02*
D03*
Y107800D02*
D03*
X81400Y108800D02*
D03*
Y107800D02*
D03*
X80400Y108800D02*
D03*
Y107800D02*
D03*
X76000D02*
D03*
X75000Y108800D02*
D03*
Y107800D02*
D03*
X74000Y108800D02*
D03*
Y107800D02*
D03*
X73000Y108800D02*
D03*
Y107800D02*
D03*
X72000Y108800D02*
D03*
Y107800D02*
D03*
X42700Y96608D02*
D03*
X45100D02*
D03*
X104100Y76408D02*
D03*
X102800D02*
D03*
X120800Y93600D02*
D03*
Y92600D02*
D03*
Y91600D02*
D03*
X123800Y94600D02*
D03*
Y93600D02*
D03*
Y92600D02*
D03*
Y91600D02*
D03*
X113800Y65600D02*
D03*
Y66600D02*
D03*
Y67600D02*
D03*
Y68600D02*
D03*
Y69600D02*
D03*
Y70600D02*
D03*
Y71600D02*
D03*
Y72600D02*
D03*
Y73600D02*
D03*
Y74600D02*
D03*
Y75600D02*
D03*
Y76600D02*
D03*
Y77600D02*
D03*
Y78600D02*
D03*
X110800Y65600D02*
D03*
Y66600D02*
D03*
Y67600D02*
D03*
Y68600D02*
D03*
Y69600D02*
D03*
Y70600D02*
D03*
Y71600D02*
D03*
Y72600D02*
D03*
Y73600D02*
D03*
Y74600D02*
D03*
Y75600D02*
D03*
Y76600D02*
D03*
Y77600D02*
D03*
X46700Y98900D02*
D03*
X47700D02*
D03*
X48700D02*
D03*
X49700D02*
D03*
X50700D02*
D03*
X51700D02*
D03*
X52700D02*
D03*
X53700D02*
D03*
X54700D02*
D03*
X55700D02*
D03*
X56700D02*
D03*
X57700D02*
D03*
X58700D02*
D03*
X59700D02*
D03*
X60700D02*
D03*
X61700D02*
D03*
X62700D02*
D03*
X63700D02*
D03*
X64700D02*
D03*
X45700Y104900D02*
D03*
X46700D02*
D03*
X47700D02*
D03*
X48700D02*
D03*
X49700D02*
D03*
X50700D02*
D03*
X51700D02*
D03*
X52700D02*
D03*
X53700D02*
D03*
X54700D02*
D03*
X55700D02*
D03*
X56700D02*
D03*
X57700D02*
D03*
X58700D02*
D03*
X59700D02*
D03*
X60700D02*
D03*
X61700D02*
D03*
X62700D02*
D03*
X63700D02*
D03*
X64700D02*
D03*
D79*
X126100Y70600D02*
D03*
X125700Y96900D02*
D03*
X43000Y100100D02*
D03*
X126100Y77400D02*
D03*
X42700Y92592D02*
D03*
X45100D02*
D03*
X104100Y72392D02*
D03*
X102800D02*
D03*
X45700Y98900D02*
D03*
X115200Y73500D02*
D03*
X78200Y107500D02*
D03*
Y109000D02*
D03*
D80*
X124200Y108000D02*
D03*
X109400Y80700D02*
D03*
X84400Y108800D02*
D03*
X76000D02*
D03*
X120800Y94600D02*
D03*
X110800Y78600D02*
D03*
X67600Y79200D02*
D03*
D81*
X42055Y76850D02*
D03*
X42105Y81950D02*
D03*
X42100Y84050D02*
D03*
X42150Y89150D02*
D03*
X42000Y69700D02*
D03*
X42050Y74800D02*
D03*
D82*
X53500Y82900D02*
D03*
Y82400D02*
D03*
X51900Y81900D02*
D03*
Y82400D02*
D03*
D83*
X53500Y81900D02*
D03*
X51900Y82900D02*
D03*
D84*
X48200Y90100D02*
D03*
X48700D02*
D03*
X49200Y88800D02*
D03*
X48700D02*
D03*
X115000Y86600D02*
D03*
X114500D02*
D03*
X48300Y81300D02*
D03*
X47800D02*
D03*
X114000Y88000D02*
D03*
X114500D02*
D03*
X47300Y82900D02*
D03*
X47800D02*
D03*
D85*
X49200Y90100D02*
D03*
X48200Y88800D02*
D03*
X114000Y86600D02*
D03*
X47300Y81300D02*
D03*
X115000Y88000D02*
D03*
X48300Y82900D02*
D03*
D86*
X125900Y99500D02*
D03*
Y100500D02*
D03*
D87*
Y101500D02*
D03*
D88*
X67900Y101700D02*
D03*
X76600Y103900D02*
D03*
X75300D02*
D03*
X90400Y106500D02*
D03*
X91600D02*
D03*
D89*
X67900Y103700D02*
D03*
X47400Y108500D02*
D03*
X76600Y105900D02*
D03*
X75300D02*
D03*
X90400Y108500D02*
D03*
X91600D02*
D03*
D90*
X49400D02*
D03*
D91*
X56810Y106400D02*
D03*
X55590D02*
D03*
X109600Y68890D02*
D03*
Y70110D02*
D03*
X53710Y96500D02*
D03*
X52490D02*
D03*
X67100Y94790D02*
D03*
Y96010D02*
D03*
X67000Y90590D02*
D03*
Y91810D02*
D03*
X105100Y88890D02*
D03*
Y90110D02*
D03*
Y84690D02*
D03*
Y85910D02*
D03*
X94400Y78910D02*
D03*
Y77690D02*
D03*
D92*
X94200Y69259D02*
D03*
D93*
Y65141D02*
D03*
D94*
X77296Y68550D02*
D03*
X74210Y68280D02*
D03*
X74206Y64680D02*
D03*
X76130Y62890D02*
D03*
X73750Y64670D02*
D03*
X68980Y69313D02*
D03*
X71000Y71100D02*
D03*
X95343Y72630D02*
D03*
X98798Y73000D02*
D03*
X125670Y85310D02*
D03*
X85350Y63940D02*
D03*
Y71040D02*
D03*
X78109Y71620D02*
D03*
X84853Y69500D02*
D03*
X79520Y70800D02*
D03*
X78230Y71102D02*
D03*
X83290Y71130D02*
D03*
Y64310D02*
D03*
X73380Y64930D02*
D03*
X74000Y63640D02*
D03*
X57380Y63814D02*
D03*
Y63730D02*
D03*
X62900Y63200D02*
D03*
X55290Y65040D02*
D03*
X79880Y63270D02*
D03*
X42050Y70750D02*
D03*
X84380Y64670D02*
D03*
X66880Y64490D02*
D03*
X78234Y72676D02*
D03*
X67630Y62880D02*
D03*
X69880Y63317D02*
D03*
X70130Y65000D02*
D03*
X84380Y72470D02*
D03*
X64880Y62970D02*
D03*
Y64120D02*
D03*
X85860Y72470D02*
D03*
X80460Y65040D02*
D03*
X84380Y63790D02*
D03*
X69880Y65000D02*
D03*
X79779Y70509D02*
D03*
X79780Y72330D02*
D03*
X75584Y69940D02*
D03*
X79779Y72331D02*
D03*
X79780Y70510D02*
D03*
X76909Y69940D02*
D03*
X76880Y63410D02*
D03*
X76130Y63470D02*
D03*
X72880Y63570D02*
D03*
X74783Y71350D02*
D03*
X41320Y80900D02*
D03*
X43820Y80740D02*
D03*
X60520Y63160D02*
D03*
X65407Y64580D02*
D03*
Y65739D02*
D03*
X85597Y65523D02*
D03*
X84000Y103750D02*
D03*
X63416Y64216D02*
D03*
X59700Y63200D02*
D03*
X56100Y66300D02*
D03*
X58130Y64130D02*
D03*
X61480Y63310D02*
D03*
X69050Y109620D02*
D03*
X74790Y106910D02*
D03*
X45010Y68810D02*
D03*
X90000Y67490D02*
D03*
X96171Y96471D02*
D03*
X48130Y70830D02*
D03*
X76335Y71475D02*
D03*
X77553Y70257D02*
D03*
X93170Y75420D02*
D03*
X75191Y75720D02*
D03*
X98050Y72630D02*
D03*
X73390Y67520D02*
D03*
X74300Y70133D02*
D03*
X68750Y65000D02*
D03*
X71190Y63750D02*
D03*
X75110Y63580D02*
D03*
X82300Y66310D02*
D03*
X82050Y69290D02*
D03*
X74403Y69580D02*
D03*
X92600Y89810D02*
D03*
X107960Y92910D02*
D03*
X106770Y109500D02*
D03*
X113200Y109600D02*
D03*
X114140D02*
D03*
X122570D02*
D03*
X78030Y63464D02*
D03*
X73438Y64402D02*
D03*
X70770Y73270D02*
D03*
X82880Y62960D02*
D03*
X82690Y63620D02*
D03*
X111104Y93753D02*
D03*
X58380Y62920D02*
D03*
X87570Y104660D02*
D03*
X88230Y104250D02*
D03*
X111104Y100500D02*
D03*
X111626Y96920D02*
D03*
X117404D02*
D03*
X97302Y73708D02*
D03*
X86380Y62920D02*
D03*
X123610Y87910D02*
D03*
X54640Y72040D02*
D03*
X83880Y69897D02*
D03*
X77980Y70314D02*
D03*
X82600Y71410D02*
D03*
X84130Y63550D02*
D03*
X82049Y64511D02*
D03*
X80380Y64240D02*
D03*
X78600Y64890D02*
D03*
X75530Y67560D02*
D03*
Y64070D02*
D03*
X72230Y63225D02*
D03*
X71543Y63213D02*
D03*
X70630Y63250D02*
D03*
X70130Y62970D02*
D03*
X69380Y64750D02*
D03*
X69680Y68340D02*
D03*
X69770Y70314D02*
D03*
X70890Y70261D02*
D03*
X68210Y64180D02*
D03*
Y68215D02*
D03*
X69228Y70206D02*
D03*
X67380Y63660D02*
D03*
X68500Y64730D02*
D03*
Y68089D02*
D03*
X71140Y70518D02*
D03*
X66630Y63530D02*
D03*
Y68060D02*
D03*
X67130Y68560D02*
D03*
X66380Y70500D02*
D03*
X70770Y71692D02*
D03*
X65880Y63690D02*
D03*
Y70720D02*
D03*
X69850Y71890D02*
D03*
X66220Y71340D02*
D03*
X71380Y73520D02*
D03*
X119220Y67440D02*
D03*
X121610Y98310D02*
D03*
X117660D02*
D03*
X82440Y63940D02*
D03*
X69940Y68738D02*
D03*
X71254Y69580D02*
D03*
X86340Y105250D02*
D03*
X92250Y104580D02*
D03*
X90100Y98529D02*
D03*
X65521Y71830D02*
D03*
X69750Y73320D02*
D03*
X79420Y99800D02*
D03*
X84536Y89244D02*
D03*
X42050Y75570D02*
D03*
X48500Y72700D02*
D03*
X43610Y101530D02*
D03*
X69030Y76080D02*
D03*
X71254D02*
D03*
X95498Y73892D02*
D03*
X72140Y104150D02*
D03*
X91080Y107000D02*
D03*
X92330D02*
D03*
X113152Y97170D02*
D03*
X119452D02*
D03*
X64300Y64300D02*
D03*
X43784Y81270D02*
D03*
X114480Y74920D02*
D03*
X71030Y64550D02*
D03*
X58780Y63210D02*
D03*
X49500Y64280D02*
D03*
X85380Y62920D02*
D03*
X61570Y68090D02*
D03*
X65360Y75580D02*
D03*
X57340Y96500D02*
D03*
X53850Y97860D02*
D03*
X93490Y96210D02*
D03*
X87655Y86105D02*
D03*
X71420Y96600D02*
D03*
X68900Y98100D02*
D03*
X68030Y95450D02*
D03*
X98210Y94530D02*
D03*
Y88207D02*
D03*
X88510Y87840D02*
D03*
X78260Y99779D02*
D03*
X78610Y101360D02*
D03*
X91303Y102120D02*
D03*
X66300Y97100D02*
D03*
X48560Y87820D02*
D03*
X46390Y87090D02*
D03*
X55500Y82490D02*
D03*
X60800Y73020D02*
D03*
X114200Y89670D02*
D03*
X48870Y73470D02*
D03*
X100720Y87960D02*
D03*
X113152Y94180D02*
D03*
X117300Y76260D02*
D03*
X70397Y102600D02*
D03*
X46250Y71260D02*
D03*
X48720Y74500D02*
D03*
X43530Y106590D02*
D03*
X116020Y81210D02*
D03*
X101840Y106200D02*
D03*
X79890Y100290D02*
D03*
X108890Y76020D02*
D03*
X51000Y89980D02*
D03*
X114840Y71290D02*
D03*
X78680Y106050D02*
D03*
X62396Y88680D02*
D03*
X107270Y85410D02*
D03*
X99700Y95090D02*
D03*
X96380Y81330D02*
D03*
X77310Y84910D02*
D03*
X57960Y90904D02*
D03*
X75100Y90700D02*
D03*
X47150Y109560D02*
D03*
X52440Y99640D02*
D03*
X52880Y106030D02*
D03*
X66137Y86493D02*
D03*
X114330Y85720D02*
D03*
X75680Y78330D02*
D03*
X49970Y88880D02*
D03*
X103850Y81010D02*
D03*
X114910Y81860D02*
D03*
X76280Y63977D02*
D03*
X65160Y63440D02*
D03*
X69070Y72280D02*
D03*
X75405Y72530D02*
D03*
X81650Y82040D02*
D03*
X87997Y83827D02*
D03*
X104460Y105600D02*
D03*
X109810Y73350D02*
D03*
X118800Y102050D02*
D03*
X72020Y106770D02*
D03*
X77360Y104870D02*
D03*
X118250Y100540D02*
D03*
X65870Y99860D02*
D03*
X108380Y100700D02*
D03*
Y99080D02*
D03*
X110598D02*
D03*
X50250Y100460D02*
D03*
X113800Y103210D02*
D03*
X77100Y85900D02*
D03*
X107980Y85640D02*
D03*
X108860Y92620D02*
D03*
X83110Y97570D02*
D03*
X84420Y100740D02*
D03*
X110650Y99820D02*
D03*
X116200Y94910D02*
D03*
X118290D02*
D03*
X78280Y85350D02*
D03*
X100470Y85520D02*
D03*
X100920Y103420D02*
D03*
X117250Y100900D02*
D03*
X110848Y96380D02*
D03*
X110540Y96650D02*
D03*
X110200Y92020D02*
D03*
X97170Y102250D02*
D03*
X112200Y101100D02*
D03*
X99630Y94050D02*
D03*
X100090Y102839D02*
D03*
X113200Y102650D02*
D03*
X114750Y95695D02*
D03*
X91171Y100820D02*
D03*
X96160Y100380D02*
D03*
X112860Y95070D02*
D03*
X115000D02*
D03*
X112896Y96630D02*
D03*
X124130Y105350D02*
D03*
X95460Y108500D02*
D03*
X105820Y109480D02*
D03*
X106950Y95310D02*
D03*
X68204Y109989D02*
D03*
X70980Y87850D02*
D03*
X75570Y100840D02*
D03*
X115360Y102250D02*
D03*
X87270Y103400D02*
D03*
X107770Y103150D02*
D03*
X107019Y102019D02*
D03*
X50910Y65310D02*
D03*
X75960Y65780D02*
D03*
X76380Y63160D02*
D03*
X84850Y87930D02*
D03*
X127030Y87520D02*
D03*
X82090Y84760D02*
D03*
X78530Y83560D02*
D03*
X75670Y96640D02*
D03*
Y85241D02*
D03*
X106246Y80610D02*
D03*
X93520Y89730D02*
D03*
X104820Y91230D02*
D03*
X106800Y87080D02*
D03*
X113795Y85825D02*
D03*
X115910Y83506D02*
D03*
X93856Y100297D02*
D03*
X116450Y96260D02*
D03*
X115930Y98430D02*
D03*
X94600Y100610D02*
D03*
X59770Y68380D02*
D03*
X75780Y66880D02*
D03*
X75630Y63490D02*
D03*
X41540Y97420D02*
D03*
X70150Y103400D02*
D03*
X43820Y82870D02*
D03*
X71460Y104650D02*
D03*
X43820Y89130D02*
D03*
X84610Y92270D02*
D03*
X43910Y87430D02*
D03*
X86530Y83300D02*
D03*
X44052Y78490D02*
D03*
X85110Y80050D02*
D03*
X40970Y98070D02*
D03*
X84317Y104750D02*
D03*
X44250Y86660D02*
D03*
X43490Y83703D02*
D03*
X104660Y92370D02*
D03*
X46700Y105690D02*
D03*
X80360Y89450D02*
D03*
X105160Y105130D02*
D03*
X50700Y92190D02*
D03*
X56390Y68370D02*
D03*
X109150Y103380D02*
D03*
X56660Y70700D02*
D03*
X81790Y67530D02*
D03*
X74700Y63520D02*
D03*
X72100Y88800D02*
D03*
X98820Y91260D02*
D03*
X99680Y94720D02*
D03*
X111360Y95310D02*
D03*
X83330Y89230D02*
D03*
X100510Y91140D02*
D03*
X104730Y95060D02*
D03*
X111610D02*
D03*
X111515Y99231D02*
D03*
X109610Y92700D02*
D03*
X110590Y87710D02*
D03*
X43740Y97440D02*
D03*
X105810Y72170D02*
D03*
X61050Y65584D02*
D03*
X61765Y83900D02*
D03*
X118540Y83120D02*
D03*
X111150Y81276D02*
D03*
X111480Y79180D02*
D03*
X106963Y86180D02*
D03*
X76945Y74805D02*
D03*
X77553Y76220D02*
D03*
X78200Y76340D02*
D03*
X84100Y92110D02*
D03*
X82690Y97100D02*
D03*
X52410Y77390D02*
D03*
X87000Y79160D02*
D03*
X56410Y82070D02*
D03*
X79000Y83050D02*
D03*
X48376Y73586D02*
D03*
X57190Y76760D02*
D03*
X74970Y76960D02*
D03*
X74206Y74308D02*
D03*
X72510Y78490D02*
D03*
X53590Y71760D02*
D03*
X74994Y74246D02*
D03*
X75590Y77330D02*
D03*
X51212Y73422D02*
D03*
X75135Y73680D02*
D03*
X53340Y75140D02*
D03*
X76372Y76897D02*
D03*
X76570Y74181D02*
D03*
X71450Y68650D02*
D03*
X77500Y67990D02*
D03*
X71990Y73003D02*
D03*
X103910Y73960D02*
D03*
X74120Y72070D02*
D03*
X101460Y70911D02*
D03*
X95500Y75870D02*
D03*
X86220Y75900D02*
D03*
X72435Y77391D02*
D03*
X72238Y74572D02*
D03*
X93660Y74580D02*
D03*
X70757Y79200D02*
D03*
X58200Y73490D02*
D03*
X71350Y74690D02*
D03*
X71647Y76080D02*
D03*
X61960D02*
D03*
X72220Y78310D02*
D03*
X44602Y83962D02*
D03*
X44070Y77240D02*
D03*
X90910Y79710D02*
D03*
X123120Y102080D02*
D03*
X47516Y105360D02*
D03*
X43570Y90430D02*
D03*
X65250Y98480D02*
D03*
X98620Y104340D02*
D03*
X115000Y103710D02*
D03*
M02*
